<?xml version="1.0" encoding="utf-8" standalone="no"?>
<!DOCTYPE svg PUBLIC "-//W3C//DTD SVG 1.1//EN"
  "http://www.w3.org/Graphics/SVG/1.1/DTD/svg11.dtd">
<!-- Created with matplotlib (http://matplotlib.org/) -->
<svg height="288pt" version="1.1" viewBox="0 0 432 288" width="432pt" xmlns="http://www.w3.org/2000/svg" xmlns:xlink="http://www.w3.org/1999/xlink">
 <defs>
  <style type="text/css">
*{stroke-linecap:butt;stroke-linejoin:round;stroke-miterlimit:100000;}
  </style>
 </defs>
 <g id="figure_1">
  <g id="patch_1">
   <path d="M 0 288 
L 432 288 
L 432 0 
L 0 0 
z
" style="fill:#ffffff;"/>
  </g>
  <g id="axes_1">
   <g id="patch_2">
    <path d="M 54 252 
L 388.8 252 
L 388.8 28.8 
L 54 28.8 
z
" style="fill:#ffffff;"/>
   </g>
   <g id="PathCollection_1">
    <path clip-path="url(#p2a8a967134)" d="M 114.597979 136.889313 
C 115.784004 136.889313 116.921611 136.4181 117.760257 135.579454 
C 118.598903 134.740808 119.070115 133.603201 119.070115 132.417177 
C 119.070115 131.231152 118.598903 130.093545 117.760257 129.254899 
C 116.921611 128.416253 115.784004 127.945041 114.597979 127.945041 
C 113.411955 127.945041 112.274348 128.416253 111.435702 129.254899 
C 110.597056 130.093545 110.125843 131.231152 110.125843 132.417177 
C 110.125843 133.603201 110.597056 134.740808 111.435702 135.579454 
C 112.274348 136.4181 113.411955 136.889313 114.597979 136.889313 
z
" style="fill:#ff0000;stroke:#000000;"/>
    <path clip-path="url(#p2a8a967134)" d="M 127.729149 162.684393 
C 128.915173 162.684393 130.052781 162.21318 130.891426 161.374534 
C 131.730072 160.535889 132.201285 159.398281 132.201285 158.212257 
C 132.201285 157.026232 131.730072 155.888625 130.891426 155.049979 
C 130.052781 154.211333 128.915173 153.740121 127.729149 153.740121 
C 126.543124 153.740121 125.405517 154.211333 124.566871 155.049979 
C 123.728225 155.888625 123.257013 157.026232 123.257013 158.212257 
C 123.257013 159.398281 123.728225 160.535889 124.566871 161.374534 
C 125.405517 162.21318 126.543124 162.684393 127.729149 162.684393 
z
" style="fill:#ff0000;stroke:#000000;"/>
    <path clip-path="url(#p2a8a967134)" d="M 147.31555 115.664546 
C 148.501574 115.664546 149.639182 115.193334 150.477827 114.354688 
C 151.316473 113.516042 151.787686 112.378434 151.787686 111.19241 
C 151.787686 110.006386 151.316473 108.868778 150.477827 108.030132 
C 149.639182 107.191487 148.501574 106.720274 147.31555 106.720274 
C 146.129525 106.720274 144.991918 107.191487 144.153272 108.030132 
C 143.314626 108.868778 142.843414 110.006386 142.843414 111.19241 
C 142.843414 112.378434 143.314626 113.516042 144.153272 114.354688 
C 144.991918 115.193334 146.129525 115.664546 147.31555 115.664546 
z
" style="fill:#ff0000;stroke:#000000;"/>
    <path clip-path="url(#p2a8a967134)" d="M 119.287626 137.19368 
C 120.473651 137.19368 121.611258 136.722468 122.449904 135.883822 
C 123.28855 135.045176 123.759762 133.907569 123.759762 132.721544 
C 123.759762 131.53552 123.28855 130.397912 122.449904 129.559267 
C 121.611258 128.720621 120.473651 128.249408 119.287626 128.249408 
C 118.101602 128.249408 116.963995 128.720621 116.125349 129.559267 
C 115.286703 130.397912 114.81549 131.53552 114.81549 132.721544 
C 114.81549 133.907569 115.286703 135.045176 116.125349 135.883822 
C 116.963995 136.722468 118.101602 137.19368 119.287626 137.19368 
z
" style="fill:#ff0000;stroke:#000000;"/>
    <path clip-path="url(#p2a8a967134)" d="M 170.677093 136.943645 
C 171.863117 136.943645 173.000725 136.472432 173.839371 135.633787 
C 174.678017 134.795141 175.149229 133.657533 175.149229 132.471509 
C 175.149229 131.285485 174.678017 130.147877 173.839371 129.309231 
C 173.000725 128.470585 171.863117 127.999373 170.677093 127.999373 
C 169.491069 127.999373 168.353461 128.470585 167.514815 129.309231 
C 166.67617 130.147877 166.204957 131.285485 166.204957 132.471509 
C 166.204957 133.657533 166.67617 134.795141 167.514815 135.633787 
C 168.353461 136.472432 169.491069 136.943645 170.677093 136.943645 
z
" style="fill:#ff0000;stroke:#000000;"/>
    <path clip-path="url(#p2a8a967134)" d="M 170.837176 81.089114 
C 172.0232 81.089114 173.160808 80.617902 173.999454 79.779256 
C 174.838099 78.94061 175.309312 77.803002 175.309312 76.616978 
C 175.309312 75.430954 174.838099 74.293346 173.999454 73.4547 
C 173.160808 72.616055 172.0232 72.144842 170.837176 72.144842 
C 169.651152 72.144842 168.513544 72.616055 167.674898 73.4547 
C 166.836252 74.293346 166.36504 75.430954 166.36504 76.616978 
C 166.36504 77.803002 166.836252 78.94061 167.674898 79.779256 
C 168.513544 80.617902 169.651152 81.089114 170.837176 81.089114 
z
" style="fill:#ff0000;stroke:#000000;"/>
    <path clip-path="url(#p2a8a967134)" d="M 126.459233 145.913939 
C 127.645258 145.913939 128.782865 145.442726 129.621511 144.604081 
C 130.460157 143.765435 130.931369 142.627827 130.931369 141.441803 
C 130.931369 140.255779 130.460157 139.118171 129.621511 138.279525 
C 128.782865 137.440879 127.645258 136.969667 126.459233 136.969667 
C 125.273209 136.969667 124.135601 137.440879 123.296956 138.279525 
C 122.45831 139.118171 121.987097 140.255779 121.987097 141.441803 
C 121.987097 142.627827 122.45831 143.765435 123.296956 144.604081 
C 124.135601 145.442726 125.273209 145.913939 126.459233 145.913939 
z
" style="fill:#ff0000;stroke:#000000;"/>
    <path clip-path="url(#p2a8a967134)" d="M 141.439079 122.603574 
C 142.625103 122.603574 143.76271 122.132361 144.601356 121.293715 
C 145.440002 120.45507 145.911215 119.317462 145.911215 118.131438 
C 145.911215 116.945413 145.440002 115.807806 144.601356 114.96916 
C 143.76271 114.130514 142.625103 113.659302 141.439079 113.659302 
C 140.253054 113.659302 139.115447 114.130514 138.276801 114.96916 
C 137.438155 115.807806 136.966943 116.945413 136.966943 118.131438 
C 136.966943 119.317462 137.438155 120.45507 138.276801 121.293715 
C 139.115447 122.132361 140.253054 122.603574 141.439079 122.603574 
z
" style="fill:#ff0000;stroke:#000000;"/>
    <path clip-path="url(#p2a8a967134)" d="M 93.540016 166.05585 
C 94.72604 166.05585 95.863648 165.584638 96.702293 164.745992 
C 97.540939 163.907346 98.012152 162.769739 98.012152 161.583715 
C 98.012152 160.39769 97.540939 159.260083 96.702293 158.421437 
C 95.863648 157.582791 94.72604 157.111579 93.540016 157.111579 
C 92.353991 157.111579 91.216384 157.582791 90.377738 158.421437 
C 89.539092 159.260083 89.06788 160.39769 89.06788 161.583715 
C 89.06788 162.769739 89.539092 163.907346 90.377738 164.745992 
C 91.216384 165.584638 92.353991 166.05585 93.540016 166.05585 
z
" style="fill:#ff0000;stroke:#000000;"/>
    <path clip-path="url(#p2a8a967134)" d="M 153.001482 122.209501 
C 154.187507 122.209501 155.325114 121.738288 156.16376 120.899642 
C 157.002406 120.060997 157.473618 118.923389 157.473618 117.737365 
C 157.473618 116.55134 157.002406 115.413733 156.16376 114.575087 
C 155.325114 113.736441 154.187507 113.265229 153.001482 113.265229 
C 151.815458 113.265229 150.67785 113.736441 149.839205 114.575087 
C 149.000559 115.413733 148.529346 116.55134 148.529346 117.737365 
C 148.529346 118.923389 149.000559 120.060997 149.839205 120.899642 
C 150.67785 121.738288 151.815458 122.209501 153.001482 122.209501 
z
" style="fill:#ff0000;stroke:#000000;"/>
    <path clip-path="url(#p2a8a967134)" d="M 209.493909 117.958855 
C 210.679934 117.958855 211.817541 117.487643 212.656187 116.648997 
C 213.494833 115.810351 213.966045 114.672743 213.966045 113.486719 
C 213.966045 112.300695 213.494833 111.163087 212.656187 110.324441 
C 211.817541 109.485796 210.679934 109.014583 209.493909 109.014583 
C 208.307885 109.014583 207.170278 109.485796 206.331632 110.324441 
C 205.492986 111.163087 205.021774 112.300695 205.021774 113.486719 
C 205.021774 114.672743 205.492986 115.810351 206.331632 116.648997 
C 207.170278 117.487643 208.307885 117.958855 209.493909 117.958855 
z
" style="fill:#ff0000;stroke:#000000;"/>
    <path clip-path="url(#p2a8a967134)" d="M 148.044304 122.993514 
C 149.230329 122.993514 150.367936 122.522301 151.206582 121.683656 
C 152.045228 120.84501 152.51644 119.707402 152.51644 118.521378 
C 152.51644 117.335354 152.045228 116.197746 151.206582 115.3591 
C 150.367936 114.520454 149.230329 114.049242 148.044304 114.049242 
C 146.85828 114.049242 145.720672 114.520454 144.882027 115.3591 
C 144.043381 116.197746 143.572168 117.335354 143.572168 118.521378 
C 143.572168 119.707402 144.043381 120.84501 144.882027 121.683656 
C 145.720672 122.522301 146.85828 122.993514 148.044304 122.993514 
z
" style="fill:#ff0000;stroke:#000000;"/>
    <path clip-path="url(#p2a8a967134)" d="M 106.352014 167.927795 
C 107.538038 167.927795 108.675646 167.456583 109.514291 166.617937 
C 110.352937 165.779291 110.82415 164.641683 110.82415 163.455659 
C 110.82415 162.269635 110.352937 161.132027 109.514291 160.293381 
C 108.675646 159.454736 107.538038 158.983523 106.352014 158.983523 
C 105.165989 158.983523 104.028382 159.454736 103.189736 160.293381 
C 102.35109 161.132027 101.879878 162.269635 101.879878 163.455659 
C 101.879878 164.641683 102.35109 165.779291 103.189736 166.617937 
C 104.028382 167.456583 105.165989 167.927795 106.352014 167.927795 
z
" style="fill:#ff0000;stroke:#000000;"/>
    <path clip-path="url(#p2a8a967134)" d="M 114.249543 142.760555 
C 115.435568 142.760555 116.573175 142.289342 117.411821 141.450696 
C 118.250467 140.612051 118.721679 139.474443 118.721679 138.288419 
C 118.721679 137.102395 118.250467 135.964787 117.411821 135.126141 
C 116.573175 134.287495 115.435568 133.816283 114.249543 133.816283 
C 113.063519 133.816283 111.925912 134.287495 111.087266 135.126141 
C 110.24862 135.964787 109.777407 137.102395 109.777407 138.288419 
C 109.777407 139.474443 110.24862 140.612051 111.087266 141.450696 
C 111.925912 142.289342 113.063519 142.760555 114.249543 142.760555 
z
" style="fill:#ff0000;stroke:#000000;"/>
    <path clip-path="url(#p2a8a967134)" d="M 237.46285 67.644053 
C 238.648874 67.644053 239.786481 67.17284 240.625127 66.334195 
C 241.463773 65.495549 241.934986 64.357941 241.934986 63.171917 
C 241.934986 61.985893 241.463773 60.848285 240.625127 60.009639 
C 239.786481 59.170993 238.648874 58.699781 237.46285 58.699781 
C 236.276825 58.699781 235.139218 59.170993 234.300572 60.009639 
C 233.461926 60.848285 232.990714 61.985893 232.990714 63.171917 
C 232.990714 64.357941 233.461926 65.495549 234.300572 66.334195 
C 235.139218 67.17284 236.276825 67.644053 237.46285 67.644053 
z
" style="fill:#ff0000;stroke:#000000;"/>
    <path clip-path="url(#p2a8a967134)" d="M 200.847884 52.559323 
C 202.033908 52.559323 203.171516 52.088111 204.010162 51.249465 
C 204.848807 50.410819 205.32002 49.273212 205.32002 48.087187 
C 205.32002 46.901163 204.848807 45.763556 204.010162 44.92491 
C 203.171516 44.086264 202.033908 43.615052 200.847884 43.615052 
C 199.66186 43.615052 198.524252 44.086264 197.685606 44.92491 
C 196.84696 45.763556 196.375748 46.901163 196.375748 48.087187 
C 196.375748 49.273212 196.84696 50.410819 197.685606 51.249465 
C 198.524252 52.088111 199.66186 52.559323 200.847884 52.559323 
z
" style="fill:#ff0000;stroke:#000000;"/>
    <path clip-path="url(#p2a8a967134)" d="M 167.92606 102.393457 
C 169.112085 102.393457 170.249692 101.922245 171.088338 101.083599 
C 171.926984 100.244953 172.398196 99.107345 172.398196 97.921321 
C 172.398196 96.735297 171.926984 95.597689 171.088338 94.759043 
C 170.249692 93.920398 169.112085 93.449185 167.92606 93.449185 
C 166.740036 93.449185 165.602429 93.920398 164.763783 94.759043 
C 163.925137 95.597689 163.453925 96.735297 163.453925 97.921321 
C 163.453925 99.107345 163.925137 100.244953 164.763783 101.083599 
C 165.602429 101.922245 166.740036 102.393457 167.92606 102.393457 
z
" style="fill:#ff0000;stroke:#000000;"/>
    <path clip-path="url(#p2a8a967134)" d="M 167.134386 112.893678 
C 168.32041 112.893678 169.458018 112.422466 170.296664 111.58382 
C 171.135309 110.745174 171.606522 109.607566 171.606522 108.421542 
C 171.606522 107.235518 171.135309 106.09791 170.296664 105.259264 
C 169.458018 104.420619 168.32041 103.949406 167.134386 103.949406 
C 165.948362 103.949406 164.810754 104.420619 163.972108 105.259264 
C 163.133462 106.09791 162.66225 107.235518 162.66225 108.421542 
C 162.66225 109.607566 163.133462 110.745174 163.972108 111.58382 
C 164.810754 112.422466 165.948362 112.893678 167.134386 112.893678 
z
" style="fill:#ff0000;stroke:#000000;"/>
    <path clip-path="url(#p2a8a967134)" d="M 176.613758 92.124725 
C 177.799782 92.124725 178.93739 91.653512 179.776036 90.814867 
C 180.614682 89.976221 181.085894 88.838613 181.085894 87.652589 
C 181.085894 86.466565 180.614682 85.328957 179.776036 84.490311 
C 178.93739 83.651665 177.799782 83.180453 176.613758 83.180453 
C 175.427734 83.180453 174.290126 83.651665 173.45148 84.490311 
C 172.612835 85.328957 172.141622 86.466565 172.141622 87.652589 
C 172.141622 88.838613 172.612835 89.976221 173.45148 90.814867 
C 174.290126 91.653512 175.427734 92.124725 176.613758 92.124725 
z
" style="fill:#ff0000;stroke:#000000;"/>
    <path clip-path="url(#p2a8a967134)" d="M 165.514323 99.012538 
C 166.700347 99.012538 167.837955 98.541326 168.676601 97.70268 
C 169.515247 96.864034 169.986459 95.726427 169.986459 94.540402 
C 169.986459 93.354378 169.515247 92.216771 168.676601 91.378125 
C 167.837955 90.539479 166.700347 90.068267 165.514323 90.068267 
C 164.328299 90.068267 163.190691 90.539479 162.352045 91.378125 
C 161.5134 92.216771 161.042187 93.354378 161.042187 94.540402 
C 161.042187 95.726427 161.5134 96.864034 162.352045 97.70268 
C 163.190691 98.541326 164.328299 99.012538 165.514323 99.012538 
z
" style="fill:#ff0000;stroke:#000000;"/>
    <path clip-path="url(#p2a8a967134)" d="M 176.814685 119.656572 
C 178.000709 119.656572 179.138316 119.18536 179.976962 118.346714 
C 180.815608 117.508068 181.286821 116.37046 181.286821 115.184436 
C 181.286821 113.998412 180.815608 112.860804 179.976962 112.022158 
C 179.138316 111.183513 178.000709 110.7123 176.814685 110.7123 
C 175.62866 110.7123 174.491053 111.183513 173.652407 112.022158 
C 172.813761 112.860804 172.342549 113.998412 172.342549 115.184436 
C 172.342549 116.37046 172.813761 117.508068 173.652407 118.346714 
C 174.491053 119.18536 175.62866 119.656572 176.814685 119.656572 
z
" style="fill:#ff0000;stroke:#000000;"/>
    <path clip-path="url(#p2a8a967134)" d="M 190.978447 104.496179 
C 192.164471 104.496179 193.302078 104.024967 194.140724 103.186321 
C 194.97937 102.347675 195.450583 101.210067 195.450583 100.024043 
C 195.450583 98.838019 194.97937 97.700411 194.140724 96.861765 
C 193.302078 96.02312 192.164471 95.551907 190.978447 95.551907 
C 189.792422 95.551907 188.654815 96.02312 187.816169 96.861765 
C 186.977523 97.700411 186.506311 98.838019 186.506311 100.024043 
C 186.506311 101.210067 186.977523 102.347675 187.816169 103.186321 
C 188.654815 104.024967 189.792422 104.496179 190.978447 104.496179 
z
" style="fill:#ff0000;stroke:#000000;"/>
    <path clip-path="url(#p2a8a967134)" d="M 105.516228 94.488197 
C 106.702252 94.488197 107.83986 94.016985 108.678506 93.178339 
C 109.517151 92.339693 109.988364 91.202086 109.988364 90.016061 
C 109.988364 88.830037 109.517151 87.69243 108.678506 86.853784 
C 107.83986 86.015138 106.702252 85.543925 105.516228 85.543925 
C 104.330204 85.543925 103.192596 86.015138 102.35395 86.853784 
C 101.515304 87.69243 101.044092 88.830037 101.044092 90.016061 
C 101.044092 91.202086 101.515304 92.339693 102.35395 93.178339 
C 103.192596 94.016985 104.330204 94.488197 105.516228 94.488197 
z
" style="fill:#ff0000;stroke:#000000;"/>
    <path clip-path="url(#p2a8a967134)" d="M 182.345812 132.975122 
C 183.531836 132.975122 184.669444 132.503909 185.508089 131.665264 
C 186.346735 130.826618 186.817948 129.68901 186.817948 128.502986 
C 186.817948 127.316962 186.346735 126.179354 185.508089 125.340708 
C 184.669444 124.502063 183.531836 124.03085 182.345812 124.03085 
C 181.159787 124.03085 180.02218 124.502063 179.183534 125.340708 
C 178.344888 126.179354 177.873676 127.316962 177.873676 128.502986 
C 177.873676 129.68901 178.344888 130.826618 179.183534 131.665264 
C 180.02218 132.503909 181.159787 132.975122 182.345812 132.975122 
z
" style="fill:#ff0000;stroke:#000000;"/>
    <path clip-path="url(#p2a8a967134)" d="M 130.997157 118.933405 
C 132.183181 118.933405 133.320788 118.462193 134.159434 117.623547 
C 134.99808 116.784901 135.469293 115.647294 135.469293 114.461269 
C 135.469293 113.275245 134.99808 112.137638 134.159434 111.298992 
C 133.320788 110.460346 132.183181 109.989134 130.997157 109.989134 
C 129.811132 109.989134 128.673525 110.460346 127.834879 111.298992 
C 126.996233 112.137638 126.525021 113.275245 126.525021 114.461269 
C 126.525021 115.647294 126.996233 116.784901 127.834879 117.623547 
C 128.673525 118.462193 129.811132 118.933405 130.997157 118.933405 
z
" style="fill:#ff0000;stroke:#000000;"/>
    <path clip-path="url(#p2a8a967134)" d="M 141.117761 129.460884 
C 142.303786 129.460884 143.441393 128.989672 144.280039 128.151026 
C 145.118685 127.31238 145.589897 126.174773 145.589897 124.988748 
C 145.589897 123.802724 145.118685 122.665117 144.280039 121.826471 
C 143.441393 120.987825 142.303786 120.516612 141.117761 120.516612 
C 139.931737 120.516612 138.79413 120.987825 137.955484 121.826471 
C 137.116838 122.665117 136.645625 123.802724 136.645625 124.988748 
C 136.645625 126.174773 137.116838 127.31238 137.955484 128.151026 
C 138.79413 128.989672 139.931737 129.460884 141.117761 129.460884 
z
" style="fill:#ff0000;stroke:#000000;"/>
    <path clip-path="url(#p2a8a967134)" d="M 171.084069 115.088216 
C 172.270094 115.088216 173.407701 114.617003 174.246347 113.778357 
C 175.084993 112.939711 175.556205 111.802104 175.556205 110.61608 
C 175.556205 109.430055 175.084993 108.292448 174.246347 107.453802 
C 173.407701 106.615156 172.270094 106.143944 171.084069 106.143944 
C 169.898045 106.143944 168.760438 106.615156 167.921792 107.453802 
C 167.083146 108.292448 166.611934 109.430055 166.611934 110.61608 
C 166.611934 111.802104 167.083146 112.939711 167.921792 113.778357 
C 168.760438 114.617003 169.898045 115.088216 171.084069 115.088216 
z
" style="fill:#ff0000;stroke:#000000;"/>
    <path clip-path="url(#p2a8a967134)" d="M 191.924303 98.364278 
C 193.110327 98.364278 194.247935 97.893065 195.08658 97.054419 
C 195.925226 96.215774 196.396439 95.078166 196.396439 93.892142 
C 196.396439 92.706117 195.925226 91.56851 195.08658 90.729864 
C 194.247935 89.891218 193.110327 89.420006 191.924303 89.420006 
C 190.738278 89.420006 189.600671 89.891218 188.762025 90.729864 
C 187.923379 91.56851 187.452167 92.706117 187.452167 93.892142 
C 187.452167 95.078166 187.923379 96.215774 188.762025 97.054419 
C 189.600671 97.893065 190.738278 98.364278 191.924303 98.364278 
z
" style="fill:#ff0000;stroke:#000000;"/>
    <path clip-path="url(#p2a8a967134)" d="M 150.711038 138.493558 
C 151.897062 138.493558 153.03467 138.022346 153.873316 137.1837 
C 154.711962 136.345054 155.183174 135.207446 155.183174 134.021422 
C 155.183174 132.835398 154.711962 131.69779 153.873316 130.859144 
C 153.03467 130.020499 151.897062 129.549286 150.711038 129.549286 
C 149.525014 129.549286 148.387406 130.020499 147.54876 130.859144 
C 146.710115 131.69779 146.238902 132.835398 146.238902 134.021422 
C 146.238902 135.207446 146.710115 136.345054 147.54876 137.1837 
C 148.387406 138.022346 149.525014 138.493558 150.711038 138.493558 
z
" style="fill:#ff0000;stroke:#000000;"/>
    <path clip-path="url(#p2a8a967134)" d="M 153.787505 150.253512 
C 154.973529 150.253512 156.111137 149.7823 156.949783 148.943654 
C 157.788428 148.105008 158.259641 146.967401 158.259641 145.781376 
C 158.259641 144.595352 157.788428 143.457744 156.949783 142.619099 
C 156.111137 141.780453 154.973529 141.30924 153.787505 141.30924 
C 152.601481 141.30924 151.463873 141.780453 150.625227 142.619099 
C 149.786581 143.457744 149.315369 144.595352 149.315369 145.781376 
C 149.315369 146.967401 149.786581 148.105008 150.625227 148.943654 
C 151.463873 149.7823 152.601481 150.253512 153.787505 150.253512 
z
" style="fill:#ff0000;stroke:#000000;"/>
    <path clip-path="url(#p2a8a967134)" d="M 142.943084 118.24685 
C 144.129109 118.24685 145.266716 117.775637 146.105362 116.936991 
C 146.944008 116.098346 147.41522 114.960738 147.41522 113.774714 
C 147.41522 112.588689 146.944008 111.451082 146.105362 110.612436 
C 145.266716 109.77379 144.129109 109.302578 142.943084 109.302578 
C 141.75706 109.302578 140.619453 109.77379 139.780807 110.612436 
C 138.942161 111.451082 138.470949 112.588689 138.470949 113.774714 
C 138.470949 114.960738 138.942161 116.098346 139.780807 116.936991 
C 140.619453 117.775637 141.75706 118.24685 142.943084 118.24685 
z
" style="fill:#ff0000;stroke:#000000;"/>
    <path clip-path="url(#p2a8a967134)" d="M 160.229822 142.24479 
C 161.415846 142.24479 162.553454 141.773577 163.3921 140.934931 
C 164.230746 140.096285 164.701958 138.958678 164.701958 137.772654 
C 164.701958 136.586629 164.230746 135.449022 163.3921 134.610376 
C 162.553454 133.77173 161.415846 133.300518 160.229822 133.300518 
C 159.043798 133.300518 157.90619 133.77173 157.067544 134.610376 
C 156.228899 135.449022 155.757686 136.586629 155.757686 137.772654 
C 155.757686 138.958678 156.228899 140.096285 157.067544 140.934931 
C 157.90619 141.773577 159.043798 142.24479 160.229822 142.24479 
z
" style="fill:#ff0000;stroke:#000000;"/>
    <path clip-path="url(#p2a8a967134)" d="M 176.633362 75.994764 
C 177.819386 75.994764 178.956993 75.523552 179.795639 74.684906 
C 180.634285 73.84626 181.105498 72.708652 181.105498 71.522628 
C 181.105498 70.336604 180.634285 69.198996 179.795639 68.360351 
C 178.956993 67.521705 177.819386 67.050492 176.633362 67.050492 
C 175.447337 67.050492 174.30973 67.521705 173.471084 68.360351 
C 172.632438 69.198996 172.161226 70.336604 172.161226 71.522628 
C 172.161226 72.708652 172.632438 73.84626 173.471084 74.684906 
C 174.30973 75.523552 175.447337 75.994764 176.633362 75.994764 
z
" style="fill:#ff0000;stroke:#000000;"/>
    <path clip-path="url(#p2a8a967134)" d="M 150.67973 59.662166 
C 151.865754 59.662166 153.003362 59.190953 153.842007 58.352307 
C 154.680653 57.513661 155.151866 56.376054 155.151866 55.19003 
C 155.151866 54.004005 154.680653 52.866398 153.842007 52.027752 
C 153.003362 51.189106 151.865754 50.717894 150.67973 50.717894 
C 149.493705 50.717894 148.356098 51.189106 147.517452 52.027752 
C 146.678806 52.866398 146.207594 54.004005 146.207594 55.19003 
C 146.207594 56.376054 146.678806 57.513661 147.517452 58.352307 
C 148.356098 59.190953 149.493705 59.662166 150.67973 59.662166 
z
" style="fill:#ff0000;stroke:#000000;"/>
    <path clip-path="url(#p2a8a967134)" d="M 151.304371 142.906758 
C 152.490396 142.906758 153.628003 142.435546 154.466649 141.5969 
C 155.305295 140.758254 155.776507 139.620647 155.776507 138.434622 
C 155.776507 137.248598 155.305295 136.110991 154.466649 135.272345 
C 153.628003 134.433699 152.490396 133.962486 151.304371 133.962486 
C 150.118347 133.962486 148.980739 134.433699 148.142094 135.272345 
C 147.303448 136.110991 146.832235 137.248598 146.832235 138.434622 
C 146.832235 139.620647 147.303448 140.758254 148.142094 141.5969 
C 148.980739 142.435546 150.118347 142.906758 151.304371 142.906758 
z
" style="fill:#ff0000;stroke:#000000;"/>
    <path clip-path="url(#p2a8a967134)" d="M 185.958668 119.532519 
C 187.144692 119.532519 188.282299 119.061307 189.120945 118.222661 
C 189.959591 117.384015 190.430803 116.246408 190.430803 115.060383 
C 190.430803 113.874359 189.959591 112.736752 189.120945 111.898106 
C 188.282299 111.05946 187.144692 110.588248 185.958668 110.588248 
C 184.772643 110.588248 183.635036 111.05946 182.79639 111.898106 
C 181.957744 112.736752 181.486532 113.874359 181.486532 115.060383 
C 181.486532 116.246408 181.957744 117.384015 182.79639 118.222661 
C 183.635036 119.061307 184.772643 119.532519 185.958668 119.532519 
z
" style="fill:#ff0000;stroke:#000000;"/>
    <path clip-path="url(#p2a8a967134)" d="M 156.653695 135.041717 
C 157.839719 135.041717 158.977327 134.570504 159.815973 133.731858 
C 160.654618 132.893212 161.125831 131.755605 161.125831 130.569581 
C 161.125831 129.383556 160.654618 128.245949 159.815973 127.407303 
C 158.977327 126.568657 157.839719 126.097445 156.653695 126.097445 
C 155.467671 126.097445 154.330063 126.568657 153.491417 127.407303 
C 152.652771 128.245949 152.181559 129.383556 152.181559 130.569581 
C 152.181559 131.755605 152.652771 132.893212 153.491417 133.731858 
C 154.330063 134.570504 155.467671 135.041717 156.653695 135.041717 
z
" style="fill:#ff0000;stroke:#000000;"/>
    <path clip-path="url(#p2a8a967134)" d="M 103.394444 137.886714 
C 104.580468 137.886714 105.718076 137.415501 106.556722 136.576855 
C 107.395367 135.73821 107.86658 134.600602 107.86658 133.414578 
C 107.86658 132.228553 107.395367 131.090946 106.556722 130.2523 
C 105.718076 129.413654 104.580468 128.942442 103.394444 128.942442 
C 102.20842 128.942442 101.070812 129.413654 100.232166 130.2523 
C 99.39352 131.090946 98.922308 132.228553 98.922308 133.414578 
C 98.922308 134.600602 99.39352 135.73821 100.232166 136.576855 
C 101.070812 137.415501 102.20842 137.886714 103.394444 137.886714 
z
" style="fill:#ff0000;stroke:#000000;"/>
    <path clip-path="url(#p2a8a967134)" d="M 77.032554 160.632773 
C 78.218578 160.632773 79.356186 160.161561 80.194831 159.322915 
C 81.033477 158.484269 81.50469 157.346661 81.50469 156.160637 
C 81.50469 154.974613 81.033477 153.837005 80.194831 152.998359 
C 79.356186 152.159714 78.218578 151.688501 77.032554 151.688501 
C 75.846529 151.688501 74.708922 152.159714 73.870276 152.998359 
C 73.03163 153.837005 72.560418 154.974613 72.560418 156.160637 
C 72.560418 157.346661 73.03163 158.484269 73.870276 159.322915 
C 74.708922 160.161561 75.846529 160.632773 77.032554 160.632773 
z
" style="fill:#ff0000;stroke:#000000;"/>
    <path clip-path="url(#p2a8a967134)" d="M 177.481653 124.738112 
C 178.667677 124.738112 179.805284 124.266899 180.64393 123.428254 
C 181.482576 122.589608 181.953789 121.452 181.953789 120.265976 
C 181.953789 119.079952 181.482576 117.942344 180.64393 117.103698 
C 179.805284 116.265052 178.667677 115.79384 177.481653 115.79384 
C 176.295628 115.79384 175.158021 116.265052 174.319375 117.103698 
C 173.480729 117.942344 173.009517 119.079952 173.009517 120.265976 
C 173.009517 121.452 173.480729 122.589608 174.319375 123.428254 
C 175.158021 124.266899 176.295628 124.738112 177.481653 124.738112 
z
" style="fill:#ff0000;stroke:#000000;"/>
    <path clip-path="url(#p2a8a967134)" d="M 181.971322 123.808808 
C 183.157346 123.808808 184.294954 123.337595 185.1336 122.49895 
C 185.972245 121.660304 186.443458 120.522696 186.443458 119.336672 
C 186.443458 118.150648 185.972245 117.01304 185.1336 116.174394 
C 184.294954 115.335748 183.157346 114.864536 181.971322 114.864536 
C 180.785298 114.864536 179.64769 115.335748 178.809044 116.174394 
C 177.970398 117.01304 177.499186 118.150648 177.499186 119.336672 
C 177.499186 120.522696 177.970398 121.660304 178.809044 122.49895 
C 179.64769 123.337595 180.785298 123.808808 181.971322 123.808808 
z
" style="fill:#ff0000;stroke:#000000;"/>
    <path clip-path="url(#p2a8a967134)" d="M 79.388504 184.556926 
C 80.574528 184.556926 81.712135 184.085714 82.550781 183.247068 
C 83.389427 182.408422 83.86064 181.270814 83.86064 180.08479 
C 83.86064 178.898766 83.389427 177.761158 82.550781 176.922512 
C 81.712135 176.083867 80.574528 175.612654 79.388504 175.612654 
C 78.202479 175.612654 77.064872 176.083867 76.226226 176.922512 
C 75.38758 177.761158 74.916368 178.898766 74.916368 180.08479 
C 74.916368 181.270814 75.38758 182.408422 76.226226 183.247068 
C 77.064872 184.085714 78.202479 184.556926 79.388504 184.556926 
z
" style="fill:#ff0000;stroke:#000000;"/>
    <path clip-path="url(#p2a8a967134)" d="M 103.651334 137.818408 
C 104.837358 137.818408 105.974966 137.347196 106.813612 136.50855 
C 107.652257 135.669904 108.12347 134.532296 108.12347 133.346272 
C 108.12347 132.160248 107.652257 131.02264 106.813612 130.183994 
C 105.974966 129.345349 104.837358 128.874136 103.651334 128.874136 
C 102.46531 128.874136 101.327702 129.345349 100.489056 130.183994 
C 99.65041 131.02264 99.179198 132.160248 99.179198 133.346272 
C 99.179198 134.532296 99.65041 135.669904 100.489056 136.50855 
C 101.327702 137.347196 102.46531 137.818408 103.651334 137.818408 
z
" style="fill:#ff0000;stroke:#000000;"/>
    <path clip-path="url(#p2a8a967134)" d="M 148.279797 138.214756 
C 149.465821 138.214756 150.603428 137.743544 151.442074 136.904898 
C 152.28072 136.066252 152.751933 134.928644 152.751933 133.74262 
C 152.751933 132.556596 152.28072 131.418988 151.442074 130.580342 
C 150.603428 129.741697 149.465821 129.270484 148.279797 129.270484 
C 147.093772 129.270484 145.956165 129.741697 145.117519 130.580342 
C 144.278873 131.418988 143.807661 132.556596 143.807661 133.74262 
C 143.807661 134.928644 144.278873 136.066252 145.117519 136.904898 
C 145.956165 137.743544 147.093772 138.214756 148.279797 138.214756 
z
" style="fill:#ff0000;stroke:#000000;"/>
    <path clip-path="url(#p2a8a967134)" d="M 192.593106 97.644109 
C 193.77913 97.644109 194.916738 97.172897 195.755383 96.334251 
C 196.594029 95.495605 197.065242 94.357998 197.065242 93.171973 
C 197.065242 91.985949 196.594029 90.848341 195.755383 90.009696 
C 194.916738 89.17105 193.77913 88.699837 192.593106 88.699837 
C 191.407081 88.699837 190.269474 89.17105 189.430828 90.009696 
C 188.592182 90.848341 188.12097 91.985949 188.12097 93.171973 
C 188.12097 94.357998 188.592182 95.495605 189.430828 96.334251 
C 190.269474 97.172897 191.407081 97.644109 192.593106 97.644109 
z
" style="fill:#ff0000;stroke:#000000;"/>
    <path clip-path="url(#p2a8a967134)" d="M 129.896247 142.587971 
C 131.082271 142.587971 132.219879 142.116758 133.058525 141.278112 
C 133.89717 140.439467 134.368383 139.301859 134.368383 138.115835 
C 134.368383 136.92981 133.89717 135.792203 133.058525 134.953557 
C 132.219879 134.114911 131.082271 133.643699 129.896247 133.643699 
C 128.710223 133.643699 127.572615 134.114911 126.733969 134.953557 
C 125.895323 135.792203 125.424111 136.92981 125.424111 138.115835 
C 125.424111 139.301859 125.895323 140.439467 126.733969 141.278112 
C 127.572615 142.116758 128.710223 142.587971 129.896247 142.587971 
z
" style="fill:#ff0000;stroke:#000000;"/>
    <path clip-path="url(#p2a8a967134)" d="M 126.231374 79.606307 
C 127.417398 79.606307 128.555005 79.135094 129.393651 78.296448 
C 130.232297 77.457803 130.703509 76.320195 130.703509 75.134171 
C 130.703509 73.948146 130.232297 72.810539 129.393651 71.971893 
C 128.555005 71.133247 127.417398 70.662035 126.231374 70.662035 
C 125.045349 70.662035 123.907742 71.133247 123.069096 71.971893 
C 122.23045 72.810539 121.759238 73.948146 121.759238 75.134171 
C 121.759238 76.320195 122.23045 77.457803 123.069096 78.296448 
C 123.907742 79.135094 125.045349 79.606307 126.231374 79.606307 
z
" style="fill:#ff0000;stroke:#000000;"/>
    <path clip-path="url(#p2a8a967134)" d="M 115.393084 159.483212 
C 116.579108 159.483212 117.716716 159.012 118.555361 158.173354 
C 119.394007 157.334708 119.86522 156.197101 119.86522 155.011077 
C 119.86522 153.825052 119.394007 152.687445 118.555361 151.848799 
C 117.716716 151.010153 116.579108 150.538941 115.393084 150.538941 
C 114.207059 150.538941 113.069452 151.010153 112.230806 151.848799 
C 111.39216 152.687445 110.920948 153.825052 110.920948 155.011077 
C 110.920948 156.197101 111.39216 157.334708 112.230806 158.173354 
C 113.069452 159.012 114.207059 159.483212 115.393084 159.483212 
z
" style="fill:#ff0000;stroke:#000000;"/>
    <path clip-path="url(#p2a8a967134)" d="M 159.535361 124.394559 
C 160.721385 124.394559 161.858993 123.923347 162.697638 123.084701 
C 163.536284 122.246055 164.007497 121.108448 164.007497 119.922423 
C 164.007497 118.736399 163.536284 117.598792 162.697638 116.760146 
C 161.858993 115.9215 160.721385 115.450288 159.535361 115.450288 
C 158.349336 115.450288 157.211729 115.9215 156.373083 116.760146 
C 155.534437 117.598792 155.063225 118.736399 155.063225 119.922423 
C 155.063225 121.108448 155.534437 122.246055 156.373083 123.084701 
C 157.211729 123.923347 158.349336 124.394559 159.535361 124.394559 
z
" style="fill:#ff0000;stroke:#000000;"/>
    <path clip-path="url(#p2a8a967134)" d="M 114.586849 150.601407 
C 115.772873 150.601407 116.910481 150.130194 117.749127 149.291548 
C 118.587773 148.452903 119.058985 147.315295 119.058985 146.129271 
C 119.058985 144.943246 118.587773 143.805639 117.749127 142.966993 
C 116.910481 142.128347 115.772873 141.657135 114.586849 141.657135 
C 113.400825 141.657135 112.263217 142.128347 111.424571 142.966993 
C 110.585926 143.805639 110.114713 144.943246 110.114713 146.129271 
C 110.114713 147.315295 110.585926 148.452903 111.424571 149.291548 
C 112.263217 150.130194 113.400825 150.601407 114.586849 150.601407 
z
" style="fill:#ff0000;stroke:#000000;"/>
    <path clip-path="url(#p2a8a967134)" d="M 299.879133 153.225975 
C 301.065157 153.225975 302.202765 152.754763 303.041411 151.916117 
C 303.880056 151.077471 304.351269 149.939864 304.351269 148.753839 
C 304.351269 147.567815 303.880056 146.430208 303.041411 145.591562 
C 302.202765 144.752916 301.065157 144.281703 299.879133 144.281703 
C 298.693109 144.281703 297.555501 144.752916 296.716855 145.591562 
C 295.878209 146.430208 295.406997 147.567815 295.406997 148.753839 
C 295.406997 149.939864 295.878209 151.077471 296.716855 151.916117 
C 297.555501 152.754763 298.693109 153.225975 299.879133 153.225975 
z
" style="fill:#0000ff;stroke:#000000;"/>
    <path clip-path="url(#p2a8a967134)" d="M 293.197924 120.102074 
C 294.383948 120.102074 295.521556 119.630862 296.360202 118.792216 
C 297.198848 117.95357 297.67006 116.815963 297.67006 115.629938 
C 297.67006 114.443914 297.198848 113.306306 296.360202 112.467661 
C 295.521556 111.629015 294.383948 111.157802 293.197924 111.157802 
C 292.0119 111.157802 290.874292 111.629015 290.035646 112.467661 
C 289.197001 113.306306 288.725788 114.443914 288.725788 115.629938 
C 288.725788 116.815963 289.197001 117.95357 290.035646 118.792216 
C 290.874292 119.630862 292.0119 120.102074 293.197924 120.102074 
z
" style="fill:#0000ff;stroke:#000000;"/>
    <path clip-path="url(#p2a8a967134)" d="M 291.604411 127.919056 
C 292.790436 127.919056 293.928043 127.447844 294.766689 126.609198 
C 295.605335 125.770552 296.076547 124.632944 296.076547 123.44692 
C 296.076547 122.260896 295.605335 121.123288 294.766689 120.284642 
C 293.928043 119.445997 292.790436 118.974784 291.604411 118.974784 
C 290.418387 118.974784 289.280779 119.445997 288.442134 120.284642 
C 287.603488 121.123288 287.132275 122.260896 287.132275 123.44692 
C 287.132275 124.632944 287.603488 125.770552 288.442134 126.609198 
C 289.280779 127.447844 290.418387 127.919056 291.604411 127.919056 
z
" style="fill:#0000ff;stroke:#000000;"/>
    <path clip-path="url(#p2a8a967134)" d="M 218.644546 169.040744 
C 219.83057 169.040744 220.968178 168.569532 221.806824 167.730886 
C 222.645469 166.89224 223.116682 165.754632 223.116682 164.568608 
C 223.116682 163.382584 222.645469 162.244976 221.806824 161.40633 
C 220.968178 160.567685 219.83057 160.096472 218.644546 160.096472 
C 217.458522 160.096472 216.320914 160.567685 215.482268 161.40633 
C 214.643622 162.244976 214.17241 163.382584 214.17241 164.568608 
C 214.17241 165.754632 214.643622 166.89224 215.482268 167.730886 
C 216.320914 168.569532 217.458522 169.040744 218.644546 169.040744 
z
" style="fill:#0000ff;stroke:#000000;"/>
    <path clip-path="url(#p2a8a967134)" d="M 249.815179 168.872116 
C 251.001204 168.872116 252.138811 168.400904 252.977457 167.562258 
C 253.816103 166.723612 254.287315 165.586004 254.287315 164.39998 
C 254.287315 163.213956 253.816103 162.076348 252.977457 161.237702 
C 252.138811 160.399057 251.001204 159.927844 249.815179 159.927844 
C 248.629155 159.927844 247.491548 160.399057 246.652902 161.237702 
C 245.814256 162.076348 245.343043 163.213956 245.343043 164.39998 
C 245.343043 165.586004 245.814256 166.723612 246.652902 167.562258 
C 247.491548 168.400904 248.629155 168.872116 249.815179 168.872116 
z
" style="fill:#0000ff;stroke:#000000;"/>
    <path clip-path="url(#p2a8a967134)" d="M 245.459852 155.7407 
C 246.645876 155.7407 247.783484 155.269488 248.62213 154.430842 
C 249.460775 153.592196 249.931988 152.454589 249.931988 151.268564 
C 249.931988 150.08254 249.460775 148.944933 248.62213 148.106287 
C 247.783484 147.267641 246.645876 146.796429 245.459852 146.796429 
C 244.273828 146.796429 243.13622 147.267641 242.297574 148.106287 
C 241.458928 148.944933 240.987716 150.08254 240.987716 151.268564 
C 240.987716 152.454589 241.458928 153.592196 242.297574 154.430842 
C 243.13622 155.269488 244.273828 155.7407 245.459852 155.7407 
z
" style="fill:#0000ff;stroke:#000000;"/>
    <path clip-path="url(#p2a8a967134)" d="M 307.615228 108.1299 
C 308.801252 108.1299 309.93886 107.658688 310.777505 106.820042 
C 311.616151 105.981396 312.087364 104.843789 312.087364 103.657764 
C 312.087364 102.47174 311.616151 101.334133 310.777505 100.495487 
C 309.93886 99.656841 308.801252 99.185628 307.615228 99.185628 
C 306.429203 99.185628 305.291596 99.656841 304.45295 100.495487 
C 303.614304 101.334133 303.143092 102.47174 303.143092 103.657764 
C 303.143092 104.843789 303.614304 105.981396 304.45295 106.820042 
C 305.291596 107.658688 306.429203 108.1299 307.615228 108.1299 
z
" style="fill:#0000ff;stroke:#000000;"/>
    <path clip-path="url(#p2a8a967134)" d="M 135.063043 185.93662 
C 136.249067 185.93662 137.386675 185.465407 138.225321 184.626762 
C 139.063967 183.788116 139.535179 182.650508 139.535179 181.464484 
C 139.535179 180.27846 139.063967 179.140852 138.225321 178.302206 
C 137.386675 177.46356 136.249067 176.992348 135.063043 176.992348 
C 133.877019 176.992348 132.739411 177.46356 131.900765 178.302206 
C 131.06212 179.140852 130.590907 180.27846 130.590907 181.464484 
C 130.590907 182.650508 131.06212 183.788116 131.900765 184.626762 
C 132.739411 185.465407 133.877019 185.93662 135.063043 185.93662 
z
" style="fill:#0000ff;stroke:#000000;"/>
    <path clip-path="url(#p2a8a967134)" d="M 259.590189 173.464035 
C 260.776214 173.464035 261.913821 172.992823 262.752467 172.154177 
C 263.591113 171.315531 264.062325 170.177924 264.062325 168.991899 
C 264.062325 167.805875 263.591113 166.668268 262.752467 165.829622 
C 261.913821 164.990976 260.776214 164.519763 259.590189 164.519763 
C 258.404165 164.519763 257.266557 164.990976 256.427912 165.829622 
C 255.589266 166.668268 255.118053 167.805875 255.118053 168.991899 
C 255.118053 170.177924 255.589266 171.315531 256.427912 172.154177 
C 257.266557 172.992823 258.404165 173.464035 259.590189 173.464035 
z
" style="fill:#0000ff;stroke:#000000;"/>
    <path clip-path="url(#p2a8a967134)" d="M 184.413322 162.250063 
C 185.599346 162.250063 186.736953 161.778851 187.575599 160.940205 
C 188.414245 160.101559 188.885457 158.963952 188.885457 157.777927 
C 188.885457 156.591903 188.414245 155.454296 187.575599 154.61565 
C 186.736953 153.777004 185.599346 153.305791 184.413322 153.305791 
C 183.227297 153.305791 182.08969 153.777004 181.251044 154.61565 
C 180.412398 155.454296 179.941186 156.591903 179.941186 157.777927 
C 179.941186 158.963952 180.412398 160.101559 181.251044 160.940205 
C 182.08969 161.778851 183.227297 162.250063 184.413322 162.250063 
z
" style="fill:#0000ff;stroke:#000000;"/>
    <path clip-path="url(#p2a8a967134)" d="M 142.732554 223.787616 
C 143.918578 223.787616 145.056186 223.316403 145.894832 222.477757 
C 146.733477 221.639112 147.20469 220.501504 147.20469 219.31548 
C 147.20469 218.129455 146.733477 216.991848 145.894832 216.153202 
C 145.056186 215.314556 143.918578 214.843344 142.732554 214.843344 
C 141.54653 214.843344 140.408922 215.314556 139.570276 216.153202 
C 138.73163 216.991848 138.260418 218.129455 138.260418 219.31548 
C 138.260418 220.501504 138.73163 221.639112 139.570276 222.477757 
C 140.408922 223.316403 141.54653 223.787616 142.732554 223.787616 
z
" style="fill:#0000ff;stroke:#000000;"/>
    <path clip-path="url(#p2a8a967134)" d="M 236.356675 125.425448 
C 237.5427 125.425448 238.680307 124.954236 239.518953 124.11559 
C 240.357599 123.276944 240.828811 122.139337 240.828811 120.953312 
C 240.828811 119.767288 240.357599 118.62968 239.518953 117.791035 
C 238.680307 116.952389 237.5427 116.481176 236.356675 116.481176 
C 235.170651 116.481176 234.033044 116.952389 233.194398 117.791035 
C 232.355752 118.62968 231.884539 119.767288 231.884539 120.953312 
C 231.884539 122.139337 232.355752 123.276944 233.194398 124.11559 
C 234.033044 124.954236 235.170651 125.425448 236.356675 125.425448 
z
" style="fill:#0000ff;stroke:#000000;"/>
    <path clip-path="url(#p2a8a967134)" d="M 205.979138 169.00752 
C 207.165162 169.00752 208.30277 168.536308 209.141416 167.697662 
C 209.980062 166.859016 210.451274 165.721409 210.451274 164.535385 
C 210.451274 163.34936 209.980062 162.211753 209.141416 161.373107 
C 208.30277 160.534461 207.165162 160.063249 205.979138 160.063249 
C 204.793114 160.063249 203.655506 160.534461 202.81686 161.373107 
C 201.978215 162.211753 201.507002 163.34936 201.507002 164.535385 
C 201.507002 165.721409 201.978215 166.859016 202.81686 167.697662 
C 203.655506 168.536308 204.793114 169.00752 205.979138 169.00752 
z
" style="fill:#0000ff;stroke:#000000;"/>
    <path clip-path="url(#p2a8a967134)" d="M 256.585052 177.917342 
C 257.771077 177.917342 258.908684 177.44613 259.74733 176.607484 
C 260.585976 175.768838 261.057188 174.63123 261.057188 173.445206 
C 261.057188 172.259182 260.585976 171.121574 259.74733 170.282928 
C 258.908684 169.444283 257.771077 168.97307 256.585052 168.97307 
C 255.399028 168.97307 254.261421 169.444283 253.422775 170.282928 
C 252.584129 171.121574 252.112917 172.259182 252.112917 173.445206 
C 252.112917 174.63123 252.584129 175.768838 253.422775 176.607484 
C 254.261421 177.44613 255.399028 177.917342 256.585052 177.917342 
z
" style="fill:#0000ff;stroke:#000000;"/>
    <path clip-path="url(#p2a8a967134)" d="M 179.536188 133.17513 
C 180.722213 133.17513 181.85982 132.703917 182.698466 131.865271 
C 183.537112 131.026625 184.008324 129.889018 184.008324 128.702994 
C 184.008324 127.516969 183.537112 126.379362 182.698466 125.540716 
C 181.85982 124.70207 180.722213 124.230858 179.536188 124.230858 
C 178.350164 124.230858 177.212556 124.70207 176.373911 125.540716 
C 175.535265 126.379362 175.064052 127.516969 175.064052 128.702994 
C 175.064052 129.889018 175.535265 131.026625 176.373911 131.865271 
C 177.212556 132.703917 178.350164 133.17513 179.536188 133.17513 
z
" style="fill:#0000ff;stroke:#000000;"/>
    <path clip-path="url(#p2a8a967134)" d="M 317.725417 150.448173 
C 318.911441 150.448173 320.049049 149.97696 320.887695 149.138314 
C 321.72634 148.299669 322.197553 147.162061 322.197553 145.976037 
C 322.197553 144.790013 321.72634 143.652405 320.887695 142.813759 
C 320.049049 141.975113 318.911441 141.503901 317.725417 141.503901 
C 316.539393 141.503901 315.401785 141.975113 314.563139 142.813759 
C 313.724493 143.652405 313.253281 144.790013 313.253281 145.976037 
C 313.253281 147.162061 313.724493 148.299669 314.563139 149.138314 
C 315.401785 149.97696 316.539393 150.448173 317.725417 150.448173 
z
" style="fill:#0000ff;stroke:#000000;"/>
    <path clip-path="url(#p2a8a967134)" d="M 170.89283 139.155906 
C 172.078854 139.155906 173.216462 138.684694 174.055108 137.846048 
C 174.893753 137.007402 175.364966 135.869795 175.364966 134.68377 
C 175.364966 133.497746 174.893753 132.360138 174.055108 131.521493 
C 173.216462 130.682847 172.078854 130.211634 170.89283 130.211634 
C 169.706806 130.211634 168.569198 130.682847 167.730552 131.521493 
C 166.891906 132.360138 166.420694 133.497746 166.420694 134.68377 
C 166.420694 135.869795 166.891906 137.007402 167.730552 137.846048 
C 168.569198 138.684694 169.706806 139.155906 170.89283 139.155906 
z
" style="fill:#0000ff;stroke:#000000;"/>
    <path clip-path="url(#p2a8a967134)" d="M 229.246623 185.04689 
C 230.432647 185.04689 231.570254 184.575677 232.4089 183.737031 
C 233.247546 182.898386 233.718758 181.760778 233.718758 180.574754 
C 233.718758 179.388729 233.247546 178.251122 232.4089 177.412476 
C 231.570254 176.57383 230.432647 176.102618 229.246623 176.102618 
C 228.060598 176.102618 226.922991 176.57383 226.084345 177.412476 
C 225.245699 178.251122 224.774487 179.388729 224.774487 180.574754 
C 224.774487 181.760778 225.245699 182.898386 226.084345 183.737031 
C 226.922991 184.575677 228.060598 185.04689 229.246623 185.04689 
z
" style="fill:#0000ff;stroke:#000000;"/>
    <path clip-path="url(#p2a8a967134)" d="M 283.910542 171.318862 
C 285.096566 171.318862 286.234173 170.847649 287.072819 170.009003 
C 287.911465 169.170358 288.382678 168.03275 288.382678 166.846726 
C 288.382678 165.660701 287.911465 164.523094 287.072819 163.684448 
C 286.234173 162.845802 285.096566 162.37459 283.910542 162.37459 
C 282.724517 162.37459 281.58691 162.845802 280.748264 163.684448 
C 279.909618 164.523094 279.438406 165.660701 279.438406 166.846726 
C 279.438406 168.03275 279.909618 169.170358 280.748264 170.009003 
C 281.58691 170.847649 282.724517 171.318862 283.910542 171.318862 
z
" style="fill:#0000ff;stroke:#000000;"/>
    <path clip-path="url(#p2a8a967134)" d="M 169.122758 197.24388 
C 170.308782 197.24388 171.44639 196.772667 172.285036 195.934022 
C 173.123682 195.095376 173.594894 193.957768 173.594894 192.771744 
C 173.594894 191.58572 173.123682 190.448112 172.285036 189.609466 
C 171.44639 188.77082 170.308782 188.299608 169.122758 188.299608 
C 167.936734 188.299608 166.799126 188.77082 165.96048 189.609466 
C 165.121835 190.448112 164.650622 191.58572 164.650622 192.771744 
C 164.650622 193.957768 165.121835 195.095376 165.96048 195.934022 
C 166.799126 196.772667 167.936734 197.24388 169.122758 197.24388 
z
" style="fill:#0000ff;stroke:#000000;"/>
    <path clip-path="url(#p2a8a967134)" d="M 203.285951 116.555734 
C 204.471975 116.555734 205.609582 116.084521 206.448228 115.245875 
C 207.286874 114.40723 207.758087 113.269622 207.758087 112.083598 
C 207.758087 110.897573 207.286874 109.759966 206.448228 108.92132 
C 205.609582 108.082674 204.471975 107.611462 203.285951 107.611462 
C 202.099926 107.611462 200.962319 108.082674 200.123673 108.92132 
C 199.285027 109.759966 198.813815 110.897573 198.813815 112.083598 
C 198.813815 113.269622 199.285027 114.40723 200.123673 115.245875 
C 200.962319 116.084521 202.099926 116.555734 203.285951 116.555734 
z
" style="fill:#0000ff;stroke:#000000;"/>
    <path clip-path="url(#p2a8a967134)" d="M 275.213404 149.08395 
C 276.399428 149.08395 277.537036 148.612738 278.375682 147.774092 
C 279.214328 146.935446 279.68554 145.797838 279.68554 144.611814 
C 279.68554 143.42579 279.214328 142.288182 278.375682 141.449536 
C 277.537036 140.610891 276.399428 140.139678 275.213404 140.139678 
C 274.02738 140.139678 272.889772 140.610891 272.051126 141.449536 
C 271.212481 142.288182 270.741268 143.42579 270.741268 144.611814 
C 270.741268 145.797838 271.212481 146.935446 272.051126 147.774092 
C 272.889772 148.612738 274.02738 149.08395 275.213404 149.08395 
z
" style="fill:#0000ff;stroke:#000000;"/>
    <path clip-path="url(#p2a8a967134)" d="M 301.721703 188.629006 
C 302.907727 188.629006 304.045335 188.157794 304.883981 187.319148 
C 305.722627 186.480502 306.193839 185.342895 306.193839 184.15687 
C 306.193839 182.970846 305.722627 181.833238 304.883981 180.994593 
C 304.045335 180.155947 302.907727 179.684734 301.721703 179.684734 
C 300.535679 179.684734 299.398071 180.155947 298.559425 180.994593 
C 297.72078 181.833238 297.249567 182.970846 297.249567 184.15687 
C 297.249567 185.342895 297.72078 186.480502 298.559425 187.319148 
C 299.398071 188.157794 300.535679 188.629006 301.721703 188.629006 
z
" style="fill:#0000ff;stroke:#000000;"/>
    <path clip-path="url(#p2a8a967134)" d="M 256.385009 149.7375 
C 257.571033 149.7375 258.70864 149.266288 259.547286 148.427642 
C 260.385932 147.588996 260.857145 146.451389 260.857145 145.265364 
C 260.857145 144.07934 260.385932 142.941732 259.547286 142.103087 
C 258.70864 141.264441 257.571033 140.793228 256.385009 140.793228 
C 255.198984 140.793228 254.061377 141.264441 253.222731 142.103087 
C 252.384085 142.941732 251.912873 144.07934 251.912873 145.265364 
C 251.912873 146.451389 252.384085 147.588996 253.222731 148.427642 
C 254.061377 149.266288 255.198984 149.7375 256.385009 149.7375 
z
" style="fill:#0000ff;stroke:#000000;"/>
    <path clip-path="url(#p2a8a967134)" d="M 316.109309 168.437582 
C 317.295333 168.437582 318.432941 167.96637 319.271587 167.127724 
C 320.110232 166.289078 320.581445 165.151471 320.581445 163.965446 
C 320.581445 162.779422 320.110232 161.641815 319.271587 160.803169 
C 318.432941 159.964523 317.295333 159.493311 316.109309 159.493311 
C 314.923285 159.493311 313.785677 159.964523 312.947031 160.803169 
C 312.108385 161.641815 311.637173 162.779422 311.637173 163.965446 
C 311.637173 165.151471 312.108385 166.289078 312.947031 167.127724 
C 313.785677 167.96637 314.923285 168.437582 316.109309 168.437582 
z
" style="fill:#0000ff;stroke:#000000;"/>
    <path clip-path="url(#p2a8a967134)" d="M 288.99836 147.505448 
C 290.184385 147.505448 291.321992 147.034236 292.160638 146.19559 
C 292.999284 145.356944 293.470496 144.219337 293.470496 143.033312 
C 293.470496 141.847288 292.999284 140.709681 292.160638 139.871035 
C 291.321992 139.032389 290.184385 138.561176 288.99836 138.561176 
C 287.812336 138.561176 286.674729 139.032389 285.836083 139.871035 
C 284.997437 140.709681 284.526224 141.847288 284.526224 143.033312 
C 284.526224 144.219337 284.997437 145.356944 285.836083 146.19559 
C 286.674729 147.034236 287.812336 147.505448 288.99836 147.505448 
z
" style="fill:#0000ff;stroke:#000000;"/>
    <path clip-path="url(#p2a8a967134)" d="M 337.524806 137.860893 
C 338.71083 137.860893 339.848438 137.38968 340.687084 136.551034 
C 341.52573 135.712389 341.996942 134.574781 341.996942 133.388757 
C 341.996942 132.202732 341.52573 131.065125 340.687084 130.226479 
C 339.848438 129.387833 338.71083 128.916621 337.524806 128.916621 
C 336.338782 128.916621 335.201174 129.387833 334.362528 130.226479 
C 333.523883 131.065125 333.05267 132.202732 333.05267 133.388757 
C 333.05267 134.574781 333.523883 135.712389 334.362528 136.551034 
C 335.201174 137.38968 336.338782 137.860893 337.524806 137.860893 
z
" style="fill:#0000ff;stroke:#000000;"/>
    <path clip-path="url(#p2a8a967134)" d="M 291.722026 155.704154 
C 292.90805 155.704154 294.045658 155.232942 294.884303 154.394296 
C 295.722949 153.55565 296.194162 152.418043 296.194162 151.232018 
C 296.194162 150.045994 295.722949 148.908387 294.884303 148.069741 
C 294.045658 147.231095 292.90805 146.759882 291.722026 146.759882 
C 290.536001 146.759882 289.398394 147.231095 288.559748 148.069741 
C 287.721102 148.908387 287.24989 150.045994 287.24989 151.232018 
C 287.24989 152.418043 287.721102 153.55565 288.559748 154.394296 
C 289.398394 155.232942 290.536001 155.704154 291.722026 155.704154 
z
" style="fill:#0000ff;stroke:#000000;"/>
    <path clip-path="url(#p2a8a967134)" d="M 238.267456 152.472333 
C 239.45348 152.472333 240.591088 152.00112 241.429734 151.162474 
C 242.268379 150.323828 242.739592 149.186221 242.739592 148.000197 
C 242.739592 146.814172 242.268379 145.676565 241.429734 144.837919 
C 240.591088 143.999273 239.45348 143.528061 238.267456 143.528061 
C 237.081432 143.528061 235.943824 143.999273 235.105178 144.837919 
C 234.266532 145.676565 233.79532 146.814172 233.79532 148.000197 
C 233.79532 149.186221 234.266532 150.323828 235.105178 151.162474 
C 235.943824 152.00112 237.081432 152.472333 238.267456 152.472333 
z
" style="fill:#0000ff;stroke:#000000;"/>
    <path clip-path="url(#p2a8a967134)" d="M 221.336142 159.887785 
C 222.522166 159.887785 223.659773 159.416573 224.498419 158.577927 
C 225.337065 157.739281 225.808278 156.601673 225.808278 155.415649 
C 225.808278 154.229625 225.337065 153.092017 224.498419 152.253371 
C 223.659773 151.414726 222.522166 150.943513 221.336142 150.943513 
C 220.150117 150.943513 219.01251 151.414726 218.173864 152.253371 
C 217.335218 153.092017 216.864006 154.229625 216.864006 155.415649 
C 216.864006 156.601673 217.335218 157.739281 218.173864 158.577927 
C 219.01251 159.416573 220.150117 159.887785 221.336142 159.887785 
z
" style="fill:#0000ff;stroke:#000000;"/>
    <path clip-path="url(#p2a8a967134)" d="M 188.88445 161.854536 
C 190.070474 161.854536 191.208082 161.383324 192.046727 160.544678 
C 192.885373 159.706032 193.356586 158.568424 193.356586 157.3824 
C 193.356586 156.196376 192.885373 155.058768 192.046727 154.220122 
C 191.208082 153.381477 190.070474 152.910264 188.88445 152.910264 
C 187.698425 152.910264 186.560818 153.381477 185.722172 154.220122 
C 184.883526 155.058768 184.412314 156.196376 184.412314 157.3824 
C 184.412314 158.568424 184.883526 159.706032 185.722172 160.544678 
C 186.560818 161.383324 187.698425 161.854536 188.88445 161.854536 
z
" style="fill:#0000ff;stroke:#000000;"/>
    <path clip-path="url(#p2a8a967134)" d="M 184.68391 182.439628 
C 185.869935 182.439628 187.007542 181.968416 187.846188 181.12977 
C 188.684834 180.291124 189.156046 179.153517 189.156046 177.967493 
C 189.156046 176.781468 188.684834 175.643861 187.846188 174.805215 
C 187.007542 173.966569 185.869935 173.495357 184.68391 173.495357 
C 183.497886 173.495357 182.360279 173.966569 181.521633 174.805215 
C 180.682987 175.643861 180.211774 176.781468 180.211774 177.967493 
C 180.211774 179.153517 180.682987 180.291124 181.521633 181.12977 
C 182.360279 181.968416 183.497886 182.439628 184.68391 182.439628 
z
" style="fill:#0000ff;stroke:#000000;"/>
    <path clip-path="url(#p2a8a967134)" d="M 238.159713 141.107934 
C 239.345738 141.107934 240.483345 140.636721 241.321991 139.798075 
C 242.160637 138.95943 242.631849 137.821822 242.631849 136.635798 
C 242.631849 135.449773 242.160637 134.312166 241.321991 133.47352 
C 240.483345 132.634874 239.345738 132.163662 238.159713 132.163662 
C 236.973689 132.163662 235.836081 132.634874 234.997436 133.47352 
C 234.15879 134.312166 233.687577 135.449773 233.687577 136.635798 
C 233.687577 137.821822 234.15879 138.95943 234.997436 139.798075 
C 235.836081 140.636721 236.973689 141.107934 238.159713 141.107934 
z
" style="fill:#0000ff;stroke:#000000;"/>
    <path clip-path="url(#p2a8a967134)" d="M 239.934423 165.730086 
C 241.120447 165.730086 242.258054 165.258873 243.0967 164.420227 
C 243.935346 163.581582 244.406559 162.443974 244.406559 161.25795 
C 244.406559 160.071925 243.935346 158.934318 243.0967 158.095672 
C 242.258054 157.257026 241.120447 156.785814 239.934423 156.785814 
C 238.748398 156.785814 237.610791 157.257026 236.772145 158.095672 
C 235.933499 158.934318 235.462287 160.071925 235.462287 161.25795 
C 235.462287 162.443974 235.933499 163.581582 236.772145 164.420227 
C 237.610791 165.258873 238.748398 165.730086 239.934423 165.730086 
z
" style="fill:#0000ff;stroke:#000000;"/>
    <path clip-path="url(#p2a8a967134)" d="M 146.759173 159.512026 
C 147.945198 159.512026 149.082805 159.040814 149.921451 158.202168 
C 150.760097 157.363522 151.231309 156.225914 151.231309 155.03989 
C 151.231309 153.853866 150.760097 152.716258 149.921451 151.877612 
C 149.082805 151.038967 147.945198 150.567754 146.759173 150.567754 
C 145.573149 150.567754 144.435542 151.038967 143.596896 151.877612 
C 142.75825 152.716258 142.287038 153.853866 142.287038 155.03989 
C 142.287038 156.225914 142.75825 157.363522 143.596896 158.202168 
C 144.435542 159.040814 145.573149 159.512026 146.759173 159.512026 
z
" style="fill:#0000ff;stroke:#000000;"/>
    <path clip-path="url(#p2a8a967134)" d="M 232.43932 110.073394 
C 233.625345 110.073394 234.762952 109.602182 235.601598 108.763536 
C 236.440244 107.92489 236.911456 106.787283 236.911456 105.601258 
C 236.911456 104.415234 236.440244 103.277626 235.601598 102.438981 
C 234.762952 101.600335 233.625345 101.129122 232.43932 101.129122 
C 231.253296 101.129122 230.115688 101.600335 229.277043 102.438981 
C 228.438397 103.277626 227.967184 104.415234 227.967184 105.601258 
C 227.967184 106.787283 228.438397 107.92489 229.277043 108.763536 
C 230.115688 109.602182 231.253296 110.073394 232.43932 110.073394 
z
" style="fill:#0000ff;stroke:#000000;"/>
    <path clip-path="url(#p2a8a967134)" d="M 344.04534 141.835989 
C 345.231365 141.835989 346.368972 141.364777 347.207618 140.526131 
C 348.046264 139.687485 348.517476 138.549878 348.517476 137.363853 
C 348.517476 136.177829 348.046264 135.040222 347.207618 134.201576 
C 346.368972 133.36293 345.231365 132.891717 344.04534 132.891717 
C 342.859316 132.891717 341.721709 133.36293 340.883063 134.201576 
C 340.044417 135.040222 339.573205 136.177829 339.573205 137.363853 
C 339.573205 138.549878 340.044417 139.687485 340.883063 140.526131 
C 341.721709 141.364777 342.859316 141.835989 344.04534 141.835989 
z
" style="fill:#0000ff;stroke:#000000;"/>
    <path clip-path="url(#p2a8a967134)" d="M 277.365907 171.869237 
C 278.551932 171.869237 279.689539 171.398025 280.528185 170.559379 
C 281.366831 169.720733 281.838043 168.583126 281.838043 167.397102 
C 281.838043 166.211077 281.366831 165.07347 280.528185 164.234824 
C 279.689539 163.396178 278.551932 162.924966 277.365907 162.924966 
C 276.179883 162.924966 275.042275 163.396178 274.20363 164.234824 
C 273.364984 165.07347 272.893771 166.211077 272.893771 167.397102 
C 272.893771 168.583126 273.364984 169.720733 274.20363 170.559379 
C 275.042275 171.398025 276.179883 171.869237 277.365907 171.869237 
z
" style="fill:#0000ff;stroke:#000000;"/>
    <path clip-path="url(#p2a8a967134)" d="M 234.666658 139.21505 
C 235.852682 139.21505 236.99029 138.743837 237.828935 137.905192 
C 238.667581 137.066546 239.138794 135.928938 239.138794 134.742914 
C 239.138794 133.55689 238.667581 132.419282 237.828935 131.580636 
C 236.99029 130.74199 235.852682 130.270778 234.666658 130.270778 
C 233.480633 130.270778 232.343026 130.74199 231.50438 131.580636 
C 230.665734 132.419282 230.194522 133.55689 230.194522 134.742914 
C 230.194522 135.928938 230.665734 137.066546 231.50438 137.905192 
C 232.343026 138.743837 233.480633 139.21505 234.666658 139.21505 
z
" style="fill:#0000ff;stroke:#000000;"/>
    <path clip-path="url(#p2a8a967134)" d="M 229.511336 198.048353 
C 230.69736 198.048353 231.834968 197.577141 232.673614 196.738495 
C 233.51226 195.899849 233.983472 194.762242 233.983472 193.576218 
C 233.983472 192.390193 233.51226 191.252586 232.673614 190.41394 
C 231.834968 189.575294 230.69736 189.104082 229.511336 189.104082 
C 228.325312 189.104082 227.187704 189.575294 226.349058 190.41394 
C 225.510413 191.252586 225.0392 192.390193 225.0392 193.576218 
C 225.0392 194.762242 225.510413 195.899849 226.349058 196.738495 
C 227.187704 197.577141 228.325312 198.048353 229.511336 198.048353 
z
" style="fill:#0000ff;stroke:#000000;"/>
    <path clip-path="url(#p2a8a967134)" d="M 216.882266 151.675409 
C 218.068291 151.675409 219.205898 151.204197 220.044544 150.365551 
C 220.88319 149.526905 221.354402 148.389297 221.354402 147.203273 
C 221.354402 146.017249 220.88319 144.879641 220.044544 144.040995 
C 219.205898 143.20235 218.068291 142.731137 216.882266 142.731137 
C 215.696242 142.731137 214.558634 143.20235 213.719989 144.040995 
C 212.881343 144.879641 212.41013 146.017249 212.41013 147.203273 
C 212.41013 148.389297 212.881343 149.526905 213.719989 150.365551 
C 214.558634 151.204197 215.696242 151.675409 216.882266 151.675409 
z
" style="fill:#0000ff;stroke:#000000;"/>
    <path clip-path="url(#p2a8a967134)" d="M 283.887729 122.735667 
C 285.073754 122.735667 286.211361 122.264455 287.050007 121.425809 
C 287.888653 120.587163 288.359865 119.449555 288.359865 118.263531 
C 288.359865 117.077507 287.888653 115.939899 287.050007 115.101253 
C 286.211361 114.262608 285.073754 113.791395 283.887729 113.791395 
C 282.701705 113.791395 281.564098 114.262608 280.725452 115.101253 
C 279.886806 115.939899 279.415593 117.077507 279.415593 118.263531 
C 279.415593 119.449555 279.886806 120.587163 280.725452 121.425809 
C 281.564098 122.264455 282.701705 122.735667 283.887729 122.735667 
z
" style="fill:#0000ff;stroke:#000000;"/>
    <path clip-path="url(#p2a8a967134)" d="M 255.817548 166.082435 
C 257.003573 166.082435 258.14118 165.611223 258.979826 164.772577 
C 259.818472 163.933931 260.289684 162.796323 260.289684 161.610299 
C 260.289684 160.424275 259.818472 159.286667 258.979826 158.448021 
C 258.14118 157.609376 257.003573 157.138163 255.817548 157.138163 
C 254.631524 157.138163 253.493916 157.609376 252.655271 158.448021 
C 251.816625 159.286667 251.345412 160.424275 251.345412 161.610299 
C 251.345412 162.796323 251.816625 163.933931 252.655271 164.772577 
C 253.493916 165.611223 254.631524 166.082435 255.817548 166.082435 
z
" style="fill:#0000ff;stroke:#000000;"/>
    <path clip-path="url(#p2a8a967134)" d="M 117.935556 206.192881 
C 119.121581 206.192881 120.259188 205.721669 121.097834 204.883023 
C 121.93648 204.044377 122.407692 202.90677 122.407692 201.720745 
C 122.407692 200.534721 121.93648 199.397114 121.097834 198.558468 
C 120.259188 197.719822 119.121581 197.248609 117.935556 197.248609 
C 116.749532 197.248609 115.611924 197.719822 114.773279 198.558468 
C 113.934633 199.397114 113.46342 200.534721 113.46342 201.720745 
C 113.46342 202.90677 113.934633 204.044377 114.773279 204.883023 
C 115.611924 205.721669 116.749532 206.192881 117.935556 206.192881 
z
" style="fill:#0000ff;stroke:#000000;"/>
    <path clip-path="url(#p2a8a967134)" d="M 189.503148 187.184306 
C 190.689173 187.184306 191.82678 186.713094 192.665426 185.874448 
C 193.504072 185.035802 193.975284 183.898194 193.975284 182.71217 
C 193.975284 181.526146 193.504072 180.388538 192.665426 179.549892 
C 191.82678 178.711247 190.689173 178.240034 189.503148 178.240034 
C 188.317124 178.240034 187.179517 178.711247 186.340871 179.549892 
C 185.502225 180.388538 185.031012 181.526146 185.031012 182.71217 
C 185.031012 183.898194 185.502225 185.035802 186.340871 185.874448 
C 187.179517 186.713094 188.317124 187.184306 189.503148 187.184306 
z
" style="fill:#0000ff;stroke:#000000;"/>
    <path clip-path="url(#p2a8a967134)" d="M 240.622003 140.546032 
C 241.808028 140.546032 242.945635 140.074819 243.784281 139.236173 
C 244.622927 138.397528 245.094139 137.25992 245.094139 136.073896 
C 245.094139 134.887871 244.622927 133.750264 243.784281 132.911618 
C 242.945635 132.072972 241.808028 131.60176 240.622003 131.60176 
C 239.435979 131.60176 238.298371 132.072972 237.459726 132.911618 
C 236.62108 133.750264 236.149867 134.887871 236.149867 136.073896 
C 236.149867 137.25992 236.62108 138.397528 237.459726 139.236173 
C 238.298371 140.074819 239.435979 140.546032 240.622003 140.546032 
z
" style="fill:#0000ff;stroke:#000000;"/>
    <path clip-path="url(#p2a8a967134)" d="M 248.076944 130.830855 
C 249.262969 130.830855 250.400576 130.359642 251.239222 129.520996 
C 252.077868 128.682351 252.54908 127.544743 252.54908 126.358719 
C 252.54908 125.172695 252.077868 124.035087 251.239222 123.196441 
C 250.400576 122.357795 249.262969 121.886583 248.076944 121.886583 
C 246.89092 121.886583 245.753313 122.357795 244.914667 123.196441 
C 244.076021 124.035087 243.604809 125.172695 243.604809 126.358719 
C 243.604809 127.544743 244.076021 128.682351 244.914667 129.520996 
C 245.753313 130.359642 246.89092 130.830855 248.076944 130.830855 
z
" style="fill:#0000ff;stroke:#000000;"/>
    <path clip-path="url(#p2a8a967134)" d="M 290.225397 167.846959 
C 291.411422 167.846959 292.549029 167.375747 293.387675 166.537101 
C 294.226321 165.698455 294.697533 164.560848 294.697533 163.374823 
C 294.697533 162.188799 294.226321 161.051192 293.387675 160.212546 
C 292.549029 159.3739 291.411422 158.902688 290.225397 158.902688 
C 289.039373 158.902688 287.901765 159.3739 287.06312 160.212546 
C 286.224474 161.051192 285.753261 162.188799 285.753261 163.374823 
C 285.753261 164.560848 286.224474 165.698455 287.06312 166.537101 
C 287.901765 167.375747 289.039373 167.846959 290.225397 167.846959 
z
" style="fill:#0000ff;stroke:#000000;"/>
    <path clip-path="url(#p2a8a967134)" d="M 171.976328 151.979209 
C 173.162352 151.979209 174.29996 151.507997 175.138605 150.669351 
C 175.977251 149.830705 176.448464 148.693098 176.448464 147.507073 
C 176.448464 146.321049 175.977251 145.183441 175.138605 144.344796 
C 174.29996 143.50615 173.162352 143.034937 171.976328 143.034937 
C 170.790303 143.034937 169.652696 143.50615 168.81405 144.344796 
C 167.975404 145.183441 167.504192 146.321049 167.504192 147.507073 
C 167.504192 148.693098 167.975404 149.830705 168.81405 150.669351 
C 169.652696 151.507997 170.790303 151.979209 171.976328 151.979209 
z
" style="fill:#0000ff;stroke:#000000;"/>
    <path clip-path="url(#p2a8a967134)" d="M 221.92671 159.191039 
C 223.112734 159.191039 224.250342 158.719827 225.088988 157.881181 
C 225.927634 157.042535 226.398846 155.904928 226.398846 154.718904 
C 226.398846 153.532879 225.927634 152.395272 225.088988 151.556626 
C 224.250342 150.71798 223.112734 150.246768 221.92671 150.246768 
C 220.740686 150.246768 219.603078 150.71798 218.764432 151.556626 
C 217.925787 152.395272 217.454574 153.532879 217.454574 154.718904 
C 217.454574 155.904928 217.925787 157.042535 218.764432 157.881181 
C 219.603078 158.719827 220.740686 159.191039 221.92671 159.191039 
z
" style="fill:#0000ff;stroke:#000000;"/>
   </g>
   <g id="patch_3">
    <path d="M 54 28.8 
L 388.8 28.8 
" style="fill:none;stroke:#000000;stroke-linecap:square;stroke-linejoin:miter;"/>
   </g>
   <g id="patch_4">
    <path d="M 388.8 252 
L 388.8 28.8 
" style="fill:none;stroke:#000000;stroke-linecap:square;stroke-linejoin:miter;"/>
   </g>
   <g id="patch_5">
    <path d="M 54 252 
L 388.8 252 
" style="fill:none;stroke:#000000;stroke-linecap:square;stroke-linejoin:miter;"/>
   </g>
   <g id="patch_6">
    <path d="M 54 252 
L 54 28.8 
" style="fill:none;stroke:#000000;stroke-linecap:square;stroke-linejoin:miter;"/>
   </g>
   <g id="matplotlib.axis_1">
    <g id="xtick_1">
     <g id="line2d_1">
      <defs>
       <path d="M 0 0 
L 0 -4 
" id="me19d16d1f9" style="stroke:#000000;stroke-width:0.5;"/>
      </defs>
      <g>
       <use style="stroke:#000000;stroke-width:0.5;" x="54.0" xlink:href="#me19d16d1f9" y="252.0"/>
      </g>
     </g>
     <g id="line2d_2">
      <defs>
       <path d="M 0 0 
L 0 4 
" id="mc3360fe732" style="stroke:#000000;stroke-width:0.5;"/>
      </defs>
      <g>
       <use style="stroke:#000000;stroke-width:0.5;" x="54.0" xlink:href="#mc3360fe732" y="28.8"/>
      </g>
     </g>
     <g id="text_1">
      <!-- 4.5 -->
      <defs>
       <path d="M 10.6875 12.40625 
L 21 12.40625 
L 21 0 
L 10.6875 0 
z
" id="BitstreamVeraSans-Roman-2e"/>
       <path d="M 37.796875 64.3125 
L 12.890625 25.390625 
L 37.796875 25.390625 
z
M 35.203125 72.90625 
L 47.609375 72.90625 
L 47.609375 25.390625 
L 58.015625 25.390625 
L 58.015625 17.1875 
L 47.609375 17.1875 
L 47.609375 0 
L 37.796875 0 
L 37.796875 17.1875 
L 4.890625 17.1875 
L 4.890625 26.703125 
z
" id="BitstreamVeraSans-Roman-34"/>
       <path d="M 10.796875 72.90625 
L 49.515625 72.90625 
L 49.515625 64.59375 
L 19.828125 64.59375 
L 19.828125 46.734375 
Q 21.96875 47.46875 24.109375 47.828125 
Q 26.265625 48.1875 28.421875 48.1875 
Q 40.625 48.1875 47.75 41.5 
Q 54.890625 34.8125 54.890625 23.390625 
Q 54.890625 11.625 47.5625 5.09375 
Q 40.234375 -1.421875 26.90625 -1.421875 
Q 22.3125 -1.421875 17.546875 -0.640625 
Q 12.796875 0.140625 7.71875 1.703125 
L 7.71875 11.625 
Q 12.109375 9.234375 16.796875 8.0625 
Q 21.484375 6.890625 26.703125 6.890625 
Q 35.15625 6.890625 40.078125 11.328125 
Q 45.015625 15.765625 45.015625 23.390625 
Q 45.015625 31 40.078125 35.4375 
Q 35.15625 39.890625 26.703125 39.890625 
Q 22.75 39.890625 18.8125 39.015625 
Q 14.890625 38.140625 10.796875 36.28125 
z
" id="BitstreamVeraSans-Roman-35"/>
      </defs>
      <g transform="translate(46.0484375 263.5984375)scale(0.1 -0.1)">
       <use xlink:href="#BitstreamVeraSans-Roman-34"/>
       <use x="63.623046875" xlink:href="#BitstreamVeraSans-Roman-2e"/>
       <use x="95.41015625" xlink:href="#BitstreamVeraSans-Roman-35"/>
      </g>
     </g>
    </g>
    <g id="xtick_2">
     <g id="line2d_3">
      <g>
       <use style="stroke:#000000;stroke-width:0.5;" x="101.828571429" xlink:href="#me19d16d1f9" y="252.0"/>
      </g>
     </g>
     <g id="line2d_4">
      <g>
       <use style="stroke:#000000;stroke-width:0.5;" x="101.828571429" xlink:href="#mc3360fe732" y="28.8"/>
      </g>
     </g>
     <g id="text_2">
      <!-- 5.0 -->
      <defs>
       <path d="M 31.78125 66.40625 
Q 24.171875 66.40625 20.328125 58.90625 
Q 16.5 51.421875 16.5 36.375 
Q 16.5 21.390625 20.328125 13.890625 
Q 24.171875 6.390625 31.78125 6.390625 
Q 39.453125 6.390625 43.28125 13.890625 
Q 47.125 21.390625 47.125 36.375 
Q 47.125 51.421875 43.28125 58.90625 
Q 39.453125 66.40625 31.78125 66.40625 
M 31.78125 74.21875 
Q 44.046875 74.21875 50.515625 64.515625 
Q 56.984375 54.828125 56.984375 36.375 
Q 56.984375 17.96875 50.515625 8.265625 
Q 44.046875 -1.421875 31.78125 -1.421875 
Q 19.53125 -1.421875 13.0625 8.265625 
Q 6.59375 17.96875 6.59375 36.375 
Q 6.59375 54.828125 13.0625 64.515625 
Q 19.53125 74.21875 31.78125 74.21875 
" id="BitstreamVeraSans-Roman-30"/>
      </defs>
      <g transform="translate(93.8770089286 263.5984375)scale(0.1 -0.1)">
       <use xlink:href="#BitstreamVeraSans-Roman-35"/>
       <use x="63.623046875" xlink:href="#BitstreamVeraSans-Roman-2e"/>
       <use x="95.41015625" xlink:href="#BitstreamVeraSans-Roman-30"/>
      </g>
     </g>
    </g>
    <g id="xtick_3">
     <g id="line2d_5">
      <g>
       <use style="stroke:#000000;stroke-width:0.5;" x="149.657142857" xlink:href="#me19d16d1f9" y="252.0"/>
      </g>
     </g>
     <g id="line2d_6">
      <g>
       <use style="stroke:#000000;stroke-width:0.5;" x="149.657142857" xlink:href="#mc3360fe732" y="28.8"/>
      </g>
     </g>
     <g id="text_3">
      <!-- 5.5 -->
      <g transform="translate(141.705580357 263.5984375)scale(0.1 -0.1)">
       <use xlink:href="#BitstreamVeraSans-Roman-35"/>
       <use x="63.623046875" xlink:href="#BitstreamVeraSans-Roman-2e"/>
       <use x="95.41015625" xlink:href="#BitstreamVeraSans-Roman-35"/>
      </g>
     </g>
    </g>
    <g id="xtick_4">
     <g id="line2d_7">
      <g>
       <use style="stroke:#000000;stroke-width:0.5;" x="197.485714286" xlink:href="#me19d16d1f9" y="252.0"/>
      </g>
     </g>
     <g id="line2d_8">
      <g>
       <use style="stroke:#000000;stroke-width:0.5;" x="197.485714286" xlink:href="#mc3360fe732" y="28.8"/>
      </g>
     </g>
     <g id="text_4">
      <!-- 6.0 -->
      <defs>
       <path d="M 33.015625 40.375 
Q 26.375 40.375 22.484375 35.828125 
Q 18.609375 31.296875 18.609375 23.390625 
Q 18.609375 15.53125 22.484375 10.953125 
Q 26.375 6.390625 33.015625 6.390625 
Q 39.65625 6.390625 43.53125 10.953125 
Q 47.40625 15.53125 47.40625 23.390625 
Q 47.40625 31.296875 43.53125 35.828125 
Q 39.65625 40.375 33.015625 40.375 
M 52.59375 71.296875 
L 52.59375 62.3125 
Q 48.875 64.0625 45.09375 64.984375 
Q 41.3125 65.921875 37.59375 65.921875 
Q 27.828125 65.921875 22.671875 59.328125 
Q 17.53125 52.734375 16.796875 39.40625 
Q 19.671875 43.65625 24.015625 45.921875 
Q 28.375 48.1875 33.59375 48.1875 
Q 44.578125 48.1875 50.953125 41.515625 
Q 57.328125 34.859375 57.328125 23.390625 
Q 57.328125 12.15625 50.6875 5.359375 
Q 44.046875 -1.421875 33.015625 -1.421875 
Q 20.359375 -1.421875 13.671875 8.265625 
Q 6.984375 17.96875 6.984375 36.375 
Q 6.984375 53.65625 15.1875 63.9375 
Q 23.390625 74.21875 37.203125 74.21875 
Q 40.921875 74.21875 44.703125 73.484375 
Q 48.484375 72.75 52.59375 71.296875 
" id="BitstreamVeraSans-Roman-36"/>
      </defs>
      <g transform="translate(189.534151786 263.5984375)scale(0.1 -0.1)">
       <use xlink:href="#BitstreamVeraSans-Roman-36"/>
       <use x="63.623046875" xlink:href="#BitstreamVeraSans-Roman-2e"/>
       <use x="95.41015625" xlink:href="#BitstreamVeraSans-Roman-30"/>
      </g>
     </g>
    </g>
    <g id="xtick_5">
     <g id="line2d_9">
      <g>
       <use style="stroke:#000000;stroke-width:0.5;" x="245.314285714" xlink:href="#me19d16d1f9" y="252.0"/>
      </g>
     </g>
     <g id="line2d_10">
      <g>
       <use style="stroke:#000000;stroke-width:0.5;" x="245.314285714" xlink:href="#mc3360fe732" y="28.8"/>
      </g>
     </g>
     <g id="text_5">
      <!-- 6.5 -->
      <g transform="translate(237.362723214 263.5984375)scale(0.1 -0.1)">
       <use xlink:href="#BitstreamVeraSans-Roman-36"/>
       <use x="63.623046875" xlink:href="#BitstreamVeraSans-Roman-2e"/>
       <use x="95.41015625" xlink:href="#BitstreamVeraSans-Roman-35"/>
      </g>
     </g>
    </g>
    <g id="xtick_6">
     <g id="line2d_11">
      <g>
       <use style="stroke:#000000;stroke-width:0.5;" x="293.142857143" xlink:href="#me19d16d1f9" y="252.0"/>
      </g>
     </g>
     <g id="line2d_12">
      <g>
       <use style="stroke:#000000;stroke-width:0.5;" x="293.142857143" xlink:href="#mc3360fe732" y="28.8"/>
      </g>
     </g>
     <g id="text_6">
      <!-- 7.0 -->
      <defs>
       <path d="M 8.203125 72.90625 
L 55.078125 72.90625 
L 55.078125 68.703125 
L 28.609375 0 
L 18.3125 0 
L 43.21875 64.59375 
L 8.203125 64.59375 
z
" id="BitstreamVeraSans-Roman-37"/>
      </defs>
      <g transform="translate(285.191294643 263.5984375)scale(0.1 -0.1)">
       <use xlink:href="#BitstreamVeraSans-Roman-37"/>
       <use x="63.623046875" xlink:href="#BitstreamVeraSans-Roman-2e"/>
       <use x="95.41015625" xlink:href="#BitstreamVeraSans-Roman-30"/>
      </g>
     </g>
    </g>
    <g id="xtick_7">
     <g id="line2d_13">
      <g>
       <use style="stroke:#000000;stroke-width:0.5;" x="340.971428571" xlink:href="#me19d16d1f9" y="252.0"/>
      </g>
     </g>
     <g id="line2d_14">
      <g>
       <use style="stroke:#000000;stroke-width:0.5;" x="340.971428571" xlink:href="#mc3360fe732" y="28.8"/>
      </g>
     </g>
     <g id="text_7">
      <!-- 7.5 -->
      <g transform="translate(333.019866071 263.5984375)scale(0.1 -0.1)">
       <use xlink:href="#BitstreamVeraSans-Roman-37"/>
       <use x="63.623046875" xlink:href="#BitstreamVeraSans-Roman-2e"/>
       <use x="95.41015625" xlink:href="#BitstreamVeraSans-Roman-35"/>
      </g>
     </g>
    </g>
    <g id="xtick_8">
     <g id="line2d_15">
      <g>
       <use style="stroke:#000000;stroke-width:0.5;" x="388.8" xlink:href="#me19d16d1f9" y="252.0"/>
      </g>
     </g>
     <g id="line2d_16">
      <g>
       <use style="stroke:#000000;stroke-width:0.5;" x="388.8" xlink:href="#mc3360fe732" y="28.8"/>
      </g>
     </g>
     <g id="text_8">
      <!-- 8.0 -->
      <defs>
       <path d="M 31.78125 34.625 
Q 24.75 34.625 20.71875 30.859375 
Q 16.703125 27.09375 16.703125 20.515625 
Q 16.703125 13.921875 20.71875 10.15625 
Q 24.75 6.390625 31.78125 6.390625 
Q 38.8125 6.390625 42.859375 10.171875 
Q 46.921875 13.96875 46.921875 20.515625 
Q 46.921875 27.09375 42.890625 30.859375 
Q 38.875 34.625 31.78125 34.625 
M 21.921875 38.8125 
Q 15.578125 40.375 12.03125 44.71875 
Q 8.5 49.078125 8.5 55.328125 
Q 8.5 64.0625 14.71875 69.140625 
Q 20.953125 74.21875 31.78125 74.21875 
Q 42.671875 74.21875 48.875 69.140625 
Q 55.078125 64.0625 55.078125 55.328125 
Q 55.078125 49.078125 51.53125 44.71875 
Q 48 40.375 41.703125 38.8125 
Q 48.828125 37.15625 52.796875 32.3125 
Q 56.78125 27.484375 56.78125 20.515625 
Q 56.78125 9.90625 50.3125 4.234375 
Q 43.84375 -1.421875 31.78125 -1.421875 
Q 19.734375 -1.421875 13.25 4.234375 
Q 6.78125 9.90625 6.78125 20.515625 
Q 6.78125 27.484375 10.78125 32.3125 
Q 14.796875 37.15625 21.921875 38.8125 
M 18.3125 54.390625 
Q 18.3125 48.734375 21.84375 45.5625 
Q 25.390625 42.390625 31.78125 42.390625 
Q 38.140625 42.390625 41.71875 45.5625 
Q 45.3125 48.734375 45.3125 54.390625 
Q 45.3125 60.0625 41.71875 63.234375 
Q 38.140625 66.40625 31.78125 66.40625 
Q 25.390625 66.40625 21.84375 63.234375 
Q 18.3125 60.0625 18.3125 54.390625 
" id="BitstreamVeraSans-Roman-38"/>
      </defs>
      <g transform="translate(380.8484375 263.5984375)scale(0.1 -0.1)">
       <use xlink:href="#BitstreamVeraSans-Roman-38"/>
       <use x="63.623046875" xlink:href="#BitstreamVeraSans-Roman-2e"/>
       <use x="95.41015625" xlink:href="#BitstreamVeraSans-Roman-30"/>
      </g>
     </g>
    </g>
    <g id="text_9">
     <!-- sepal length -->
     <defs>
      <path id="BitstreamVeraSans-Roman-20"/>
      <path d="M 54.890625 33.015625 
L 54.890625 0 
L 45.90625 0 
L 45.90625 32.71875 
Q 45.90625 40.484375 42.875 44.328125 
Q 39.84375 48.1875 33.796875 48.1875 
Q 26.515625 48.1875 22.3125 43.546875 
Q 18.109375 38.921875 18.109375 30.90625 
L 18.109375 0 
L 9.078125 0 
L 9.078125 54.6875 
L 18.109375 54.6875 
L 18.109375 46.1875 
Q 21.34375 51.125 25.703125 53.5625 
Q 30.078125 56 35.796875 56 
Q 45.21875 56 50.046875 50.171875 
Q 54.890625 44.34375 54.890625 33.015625 
" id="BitstreamVeraSans-Roman-6e"/>
      <path d="M 18.3125 70.21875 
L 18.3125 54.6875 
L 36.8125 54.6875 
L 36.8125 47.703125 
L 18.3125 47.703125 
L 18.3125 18.015625 
Q 18.3125 11.328125 20.140625 9.421875 
Q 21.96875 7.515625 27.59375 7.515625 
L 36.8125 7.515625 
L 36.8125 0 
L 27.59375 0 
Q 17.1875 0 13.234375 3.875 
Q 9.28125 7.765625 9.28125 18.015625 
L 9.28125 47.703125 
L 2.6875 47.703125 
L 2.6875 54.6875 
L 9.28125 54.6875 
L 9.28125 70.21875 
z
" id="BitstreamVeraSans-Roman-74"/>
      <path d="M 9.421875 75.984375 
L 18.40625 75.984375 
L 18.40625 0 
L 9.421875 0 
z
" id="BitstreamVeraSans-Roman-6c"/>
      <path d="M 54.890625 33.015625 
L 54.890625 0 
L 45.90625 0 
L 45.90625 32.71875 
Q 45.90625 40.484375 42.875 44.328125 
Q 39.84375 48.1875 33.796875 48.1875 
Q 26.515625 48.1875 22.3125 43.546875 
Q 18.109375 38.921875 18.109375 30.90625 
L 18.109375 0 
L 9.078125 0 
L 9.078125 75.984375 
L 18.109375 75.984375 
L 18.109375 46.1875 
Q 21.34375 51.125 25.703125 53.5625 
Q 30.078125 56 35.796875 56 
Q 45.21875 56 50.046875 50.171875 
Q 54.890625 44.34375 54.890625 33.015625 
" id="BitstreamVeraSans-Roman-68"/>
      <path d="M 56.203125 29.59375 
L 56.203125 25.203125 
L 14.890625 25.203125 
Q 15.484375 15.921875 20.484375 11.0625 
Q 25.484375 6.203125 34.421875 6.203125 
Q 39.59375 6.203125 44.453125 7.46875 
Q 49.3125 8.734375 54.109375 11.28125 
L 54.109375 2.78125 
Q 49.265625 0.734375 44.1875 -0.34375 
Q 39.109375 -1.421875 33.890625 -1.421875 
Q 20.796875 -1.421875 13.15625 6.1875 
Q 5.515625 13.8125 5.515625 26.8125 
Q 5.515625 40.234375 12.765625 48.109375 
Q 20.015625 56 32.328125 56 
Q 43.359375 56 49.78125 48.890625 
Q 56.203125 41.796875 56.203125 29.59375 
M 47.21875 32.234375 
Q 47.125 39.59375 43.09375 43.984375 
Q 39.0625 48.390625 32.421875 48.390625 
Q 24.90625 48.390625 20.390625 44.140625 
Q 15.875 39.890625 15.1875 32.171875 
z
" id="BitstreamVeraSans-Roman-65"/>
      <path d="M 45.40625 27.984375 
Q 45.40625 37.75 41.375 43.109375 
Q 37.359375 48.484375 30.078125 48.484375 
Q 22.859375 48.484375 18.828125 43.109375 
Q 14.796875 37.75 14.796875 27.984375 
Q 14.796875 18.265625 18.828125 12.890625 
Q 22.859375 7.515625 30.078125 7.515625 
Q 37.359375 7.515625 41.375 12.890625 
Q 45.40625 18.265625 45.40625 27.984375 
M 54.390625 6.78125 
Q 54.390625 -7.171875 48.1875 -13.984375 
Q 42 -20.796875 29.203125 -20.796875 
Q 24.46875 -20.796875 20.265625 -20.09375 
Q 16.0625 -19.390625 12.109375 -17.921875 
L 12.109375 -9.1875 
Q 16.0625 -11.328125 19.921875 -12.34375 
Q 23.78125 -13.375 27.78125 -13.375 
Q 36.625 -13.375 41.015625 -8.765625 
Q 45.40625 -4.15625 45.40625 5.171875 
L 45.40625 9.625 
Q 42.625 4.78125 38.28125 2.390625 
Q 33.9375 0 27.875 0 
Q 17.828125 0 11.671875 7.65625 
Q 5.515625 15.328125 5.515625 27.984375 
Q 5.515625 40.671875 11.671875 48.328125 
Q 17.828125 56 27.875 56 
Q 33.9375 56 38.28125 53.609375 
Q 42.625 51.21875 45.40625 46.390625 
L 45.40625 54.6875 
L 54.390625 54.6875 
z
" id="BitstreamVeraSans-Roman-67"/>
      <path d="M 34.28125 27.484375 
Q 23.390625 27.484375 19.1875 25 
Q 14.984375 22.515625 14.984375 16.5 
Q 14.984375 11.71875 18.140625 8.90625 
Q 21.296875 6.109375 26.703125 6.109375 
Q 34.1875 6.109375 38.703125 11.40625 
Q 43.21875 16.703125 43.21875 25.484375 
L 43.21875 27.484375 
z
M 52.203125 31.203125 
L 52.203125 0 
L 43.21875 0 
L 43.21875 8.296875 
Q 40.140625 3.328125 35.546875 0.953125 
Q 30.953125 -1.421875 24.3125 -1.421875 
Q 15.921875 -1.421875 10.953125 3.296875 
Q 6 8.015625 6 15.921875 
Q 6 25.140625 12.171875 29.828125 
Q 18.359375 34.515625 30.609375 34.515625 
L 43.21875 34.515625 
L 43.21875 35.40625 
Q 43.21875 41.609375 39.140625 45 
Q 35.0625 48.390625 27.6875 48.390625 
Q 23 48.390625 18.546875 47.265625 
Q 14.109375 46.140625 10.015625 43.890625 
L 10.015625 52.203125 
Q 14.9375 54.109375 19.578125 55.046875 
Q 24.21875 56 28.609375 56 
Q 40.484375 56 46.34375 49.84375 
Q 52.203125 43.703125 52.203125 31.203125 
" id="BitstreamVeraSans-Roman-61"/>
      <path d="M 44.28125 53.078125 
L 44.28125 44.578125 
Q 40.484375 46.53125 36.375 47.5 
Q 32.28125 48.484375 27.875 48.484375 
Q 21.1875 48.484375 17.84375 46.4375 
Q 14.5 44.390625 14.5 40.28125 
Q 14.5 37.15625 16.890625 35.375 
Q 19.28125 33.59375 26.515625 31.984375 
L 29.59375 31.296875 
Q 39.15625 29.25 43.1875 25.515625 
Q 47.21875 21.78125 47.21875 15.09375 
Q 47.21875 7.46875 41.1875 3.015625 
Q 35.15625 -1.421875 24.609375 -1.421875 
Q 20.21875 -1.421875 15.453125 -0.5625 
Q 10.6875 0.296875 5.421875 2 
L 5.421875 11.28125 
Q 10.40625 8.6875 15.234375 7.390625 
Q 20.0625 6.109375 24.8125 6.109375 
Q 31.15625 6.109375 34.5625 8.28125 
Q 37.984375 10.453125 37.984375 14.40625 
Q 37.984375 18.0625 35.515625 20.015625 
Q 33.0625 21.96875 24.703125 23.78125 
L 21.578125 24.515625 
Q 13.234375 26.265625 9.515625 29.90625 
Q 5.8125 33.546875 5.8125 39.890625 
Q 5.8125 47.609375 11.28125 51.796875 
Q 16.75 56 26.8125 56 
Q 31.78125 56 36.171875 55.265625 
Q 40.578125 54.546875 44.28125 53.078125 
" id="BitstreamVeraSans-Roman-73"/>
      <path d="M 18.109375 8.203125 
L 18.109375 -20.796875 
L 9.078125 -20.796875 
L 9.078125 54.6875 
L 18.109375 54.6875 
L 18.109375 46.390625 
Q 20.953125 51.265625 25.265625 53.625 
Q 29.59375 56 35.59375 56 
Q 45.5625 56 51.78125 48.09375 
Q 58.015625 40.1875 58.015625 27.296875 
Q 58.015625 14.40625 51.78125 6.484375 
Q 45.5625 -1.421875 35.59375 -1.421875 
Q 29.59375 -1.421875 25.265625 0.953125 
Q 20.953125 3.328125 18.109375 8.203125 
M 48.6875 27.296875 
Q 48.6875 37.203125 44.609375 42.84375 
Q 40.53125 48.484375 33.40625 48.484375 
Q 26.265625 48.484375 22.1875 42.84375 
Q 18.109375 37.203125 18.109375 27.296875 
Q 18.109375 17.390625 22.1875 11.75 
Q 26.265625 6.109375 33.40625 6.109375 
Q 40.53125 6.109375 44.609375 11.75 
Q 48.6875 17.390625 48.6875 27.296875 
" id="BitstreamVeraSans-Roman-70"/>
     </defs>
     <g transform="translate(190.56484375 278.2765625)scale(0.1 -0.1)">
      <use xlink:href="#BitstreamVeraSans-Roman-73"/>
      <use x="52.099609375" xlink:href="#BitstreamVeraSans-Roman-65"/>
      <use x="113.623046875" xlink:href="#BitstreamVeraSans-Roman-70"/>
      <use x="177.099609375" xlink:href="#BitstreamVeraSans-Roman-61"/>
      <use x="238.37890625" xlink:href="#BitstreamVeraSans-Roman-6c"/>
      <use x="266.162109375" xlink:href="#BitstreamVeraSans-Roman-20"/>
      <use x="297.94921875" xlink:href="#BitstreamVeraSans-Roman-6c"/>
      <use x="325.732421875" xlink:href="#BitstreamVeraSans-Roman-65"/>
      <use x="387.255859375" xlink:href="#BitstreamVeraSans-Roman-6e"/>
      <use x="450.634765625" xlink:href="#BitstreamVeraSans-Roman-67"/>
      <use x="514.111328125" xlink:href="#BitstreamVeraSans-Roman-74"/>
      <use x="553.3203125" xlink:href="#BitstreamVeraSans-Roman-68"/>
     </g>
    </g>
   </g>
   <g id="matplotlib.axis_2">
    <g id="ytick_1">
     <g id="line2d_17">
      <defs>
       <path d="M 0 0 
L 4 0 
" id="md5ed15563f" style="stroke:#000000;stroke-width:0.5;"/>
      </defs>
      <g>
       <use style="stroke:#000000;stroke-width:0.5;" x="54.0" xlink:href="#md5ed15563f" y="252.0"/>
      </g>
     </g>
     <g id="line2d_18">
      <defs>
       <path d="M 0 0 
L -4 0 
" id="md6882df8eb" style="stroke:#000000;stroke-width:0.5;"/>
      </defs>
      <g>
       <use style="stroke:#000000;stroke-width:0.5;" x="388.8" xlink:href="#md6882df8eb" y="252.0"/>
      </g>
     </g>
     <g id="text_10">
      <!-- 1.5 -->
      <defs>
       <path d="M 12.40625 8.296875 
L 28.515625 8.296875 
L 28.515625 63.921875 
L 10.984375 60.40625 
L 10.984375 69.390625 
L 28.421875 72.90625 
L 38.28125 72.90625 
L 38.28125 8.296875 
L 54.390625 8.296875 
L 54.390625 0 
L 12.40625 0 
z
" id="BitstreamVeraSans-Roman-31"/>
      </defs>
      <g transform="translate(34.096875 254.759375)scale(0.1 -0.1)">
       <use xlink:href="#BitstreamVeraSans-Roman-31"/>
       <use x="63.623046875" xlink:href="#BitstreamVeraSans-Roman-2e"/>
       <use x="95.41015625" xlink:href="#BitstreamVeraSans-Roman-35"/>
      </g>
     </g>
    </g>
    <g id="ytick_2">
     <g id="line2d_19">
      <g>
       <use style="stroke:#000000;stroke-width:0.5;" x="54.0" xlink:href="#md5ed15563f" y="224.1"/>
      </g>
     </g>
     <g id="line2d_20">
      <g>
       <use style="stroke:#000000;stroke-width:0.5;" x="388.8" xlink:href="#md6882df8eb" y="224.1"/>
      </g>
     </g>
     <g id="text_11">
      <!-- 2.0 -->
      <defs>
       <path d="M 19.1875 8.296875 
L 53.609375 8.296875 
L 53.609375 0 
L 7.328125 0 
L 7.328125 8.296875 
Q 12.9375 14.109375 22.625 23.890625 
Q 32.328125 33.6875 34.8125 36.53125 
Q 39.546875 41.84375 41.421875 45.53125 
Q 43.3125 49.21875 43.3125 52.78125 
Q 43.3125 58.59375 39.234375 62.25 
Q 35.15625 65.921875 28.609375 65.921875 
Q 23.96875 65.921875 18.8125 64.3125 
Q 13.671875 62.703125 7.8125 59.421875 
L 7.8125 69.390625 
Q 13.765625 71.78125 18.9375 73 
Q 24.125 74.21875 28.421875 74.21875 
Q 39.75 74.21875 46.484375 68.546875 
Q 53.21875 62.890625 53.21875 53.421875 
Q 53.21875 48.921875 51.53125 44.890625 
Q 49.859375 40.875 45.40625 35.40625 
Q 44.1875 33.984375 37.640625 27.21875 
Q 31.109375 20.453125 19.1875 8.296875 
" id="BitstreamVeraSans-Roman-32"/>
      </defs>
      <g transform="translate(34.096875 226.859375)scale(0.1 -0.1)">
       <use xlink:href="#BitstreamVeraSans-Roman-32"/>
       <use x="63.623046875" xlink:href="#BitstreamVeraSans-Roman-2e"/>
       <use x="95.41015625" xlink:href="#BitstreamVeraSans-Roman-30"/>
      </g>
     </g>
    </g>
    <g id="ytick_3">
     <g id="line2d_21">
      <g>
       <use style="stroke:#000000;stroke-width:0.5;" x="54.0" xlink:href="#md5ed15563f" y="196.2"/>
      </g>
     </g>
     <g id="line2d_22">
      <g>
       <use style="stroke:#000000;stroke-width:0.5;" x="388.8" xlink:href="#md6882df8eb" y="196.2"/>
      </g>
     </g>
     <g id="text_12">
      <!-- 2.5 -->
      <g transform="translate(34.096875 198.959375)scale(0.1 -0.1)">
       <use xlink:href="#BitstreamVeraSans-Roman-32"/>
       <use x="63.623046875" xlink:href="#BitstreamVeraSans-Roman-2e"/>
       <use x="95.41015625" xlink:href="#BitstreamVeraSans-Roman-35"/>
      </g>
     </g>
    </g>
    <g id="ytick_4">
     <g id="line2d_23">
      <g>
       <use style="stroke:#000000;stroke-width:0.5;" x="54.0" xlink:href="#md5ed15563f" y="168.3"/>
      </g>
     </g>
     <g id="line2d_24">
      <g>
       <use style="stroke:#000000;stroke-width:0.5;" x="388.8" xlink:href="#md6882df8eb" y="168.3"/>
      </g>
     </g>
     <g id="text_13">
      <!-- 3.0 -->
      <defs>
       <path d="M 40.578125 39.3125 
Q 47.65625 37.796875 51.625 33 
Q 55.609375 28.21875 55.609375 21.1875 
Q 55.609375 10.40625 48.1875 4.484375 
Q 40.765625 -1.421875 27.09375 -1.421875 
Q 22.515625 -1.421875 17.65625 -0.515625 
Q 12.796875 0.390625 7.625 2.203125 
L 7.625 11.71875 
Q 11.71875 9.328125 16.59375 8.109375 
Q 21.484375 6.890625 26.8125 6.890625 
Q 36.078125 6.890625 40.9375 10.546875 
Q 45.796875 14.203125 45.796875 21.1875 
Q 45.796875 27.640625 41.28125 31.265625 
Q 36.765625 34.90625 28.71875 34.90625 
L 20.21875 34.90625 
L 20.21875 43.015625 
L 29.109375 43.015625 
Q 36.375 43.015625 40.234375 45.921875 
Q 44.09375 48.828125 44.09375 54.296875 
Q 44.09375 59.90625 40.109375 62.90625 
Q 36.140625 65.921875 28.71875 65.921875 
Q 24.65625 65.921875 20.015625 65.03125 
Q 15.375 64.15625 9.8125 62.3125 
L 9.8125 71.09375 
Q 15.4375 72.65625 20.34375 73.4375 
Q 25.25 74.21875 29.59375 74.21875 
Q 40.828125 74.21875 47.359375 69.109375 
Q 53.90625 64.015625 53.90625 55.328125 
Q 53.90625 49.265625 50.4375 45.09375 
Q 46.96875 40.921875 40.578125 39.3125 
" id="BitstreamVeraSans-Roman-33"/>
      </defs>
      <g transform="translate(34.096875 171.059375)scale(0.1 -0.1)">
       <use xlink:href="#BitstreamVeraSans-Roman-33"/>
       <use x="63.623046875" xlink:href="#BitstreamVeraSans-Roman-2e"/>
       <use x="95.41015625" xlink:href="#BitstreamVeraSans-Roman-30"/>
      </g>
     </g>
    </g>
    <g id="ytick_5">
     <g id="line2d_25">
      <g>
       <use style="stroke:#000000;stroke-width:0.5;" x="54.0" xlink:href="#md5ed15563f" y="140.4"/>
      </g>
     </g>
     <g id="line2d_26">
      <g>
       <use style="stroke:#000000;stroke-width:0.5;" x="388.8" xlink:href="#md6882df8eb" y="140.4"/>
      </g>
     </g>
     <g id="text_14">
      <!-- 3.5 -->
      <g transform="translate(34.096875 143.159375)scale(0.1 -0.1)">
       <use xlink:href="#BitstreamVeraSans-Roman-33"/>
       <use x="63.623046875" xlink:href="#BitstreamVeraSans-Roman-2e"/>
       <use x="95.41015625" xlink:href="#BitstreamVeraSans-Roman-35"/>
      </g>
     </g>
    </g>
    <g id="ytick_6">
     <g id="line2d_27">
      <g>
       <use style="stroke:#000000;stroke-width:0.5;" x="54.0" xlink:href="#md5ed15563f" y="112.5"/>
      </g>
     </g>
     <g id="line2d_28">
      <g>
       <use style="stroke:#000000;stroke-width:0.5;" x="388.8" xlink:href="#md6882df8eb" y="112.5"/>
      </g>
     </g>
     <g id="text_15">
      <!-- 4.0 -->
      <g transform="translate(34.096875 115.259375)scale(0.1 -0.1)">
       <use xlink:href="#BitstreamVeraSans-Roman-34"/>
       <use x="63.623046875" xlink:href="#BitstreamVeraSans-Roman-2e"/>
       <use x="95.41015625" xlink:href="#BitstreamVeraSans-Roman-30"/>
      </g>
     </g>
    </g>
    <g id="ytick_7">
     <g id="line2d_29">
      <g>
       <use style="stroke:#000000;stroke-width:0.5;" x="54.0" xlink:href="#md5ed15563f" y="84.6"/>
      </g>
     </g>
     <g id="line2d_30">
      <g>
       <use style="stroke:#000000;stroke-width:0.5;" x="388.8" xlink:href="#md6882df8eb" y="84.6"/>
      </g>
     </g>
     <g id="text_16">
      <!-- 4.5 -->
      <g transform="translate(34.096875 87.359375)scale(0.1 -0.1)">
       <use xlink:href="#BitstreamVeraSans-Roman-34"/>
       <use x="63.623046875" xlink:href="#BitstreamVeraSans-Roman-2e"/>
       <use x="95.41015625" xlink:href="#BitstreamVeraSans-Roman-35"/>
      </g>
     </g>
    </g>
    <g id="ytick_8">
     <g id="line2d_31">
      <g>
       <use style="stroke:#000000;stroke-width:0.5;" x="54.0" xlink:href="#md5ed15563f" y="56.7"/>
      </g>
     </g>
     <g id="line2d_32">
      <g>
       <use style="stroke:#000000;stroke-width:0.5;" x="388.8" xlink:href="#md6882df8eb" y="56.7"/>
      </g>
     </g>
     <g id="text_17">
      <!-- 5.0 -->
      <g transform="translate(34.096875 59.459375)scale(0.1 -0.1)">
       <use xlink:href="#BitstreamVeraSans-Roman-35"/>
       <use x="63.623046875" xlink:href="#BitstreamVeraSans-Roman-2e"/>
       <use x="95.41015625" xlink:href="#BitstreamVeraSans-Roman-30"/>
      </g>
     </g>
    </g>
    <g id="ytick_9">
     <g id="line2d_33">
      <g>
       <use style="stroke:#000000;stroke-width:0.5;" x="54.0" xlink:href="#md5ed15563f" y="28.8"/>
      </g>
     </g>
     <g id="line2d_34">
      <g>
       <use style="stroke:#000000;stroke-width:0.5;" x="388.8" xlink:href="#md6882df8eb" y="28.8"/>
      </g>
     </g>
     <g id="text_18">
      <!-- 5.5 -->
      <g transform="translate(34.096875 31.559375)scale(0.1 -0.1)">
       <use xlink:href="#BitstreamVeraSans-Roman-35"/>
       <use x="63.623046875" xlink:href="#BitstreamVeraSans-Roman-2e"/>
       <use x="95.41015625" xlink:href="#BitstreamVeraSans-Roman-35"/>
      </g>
     </g>
    </g>
    <g id="text_19">
     <!-- sepal width -->
     <defs>
      <path d="M 4.203125 54.6875 
L 13.1875 54.6875 
L 24.421875 12.015625 
L 35.59375 54.6875 
L 46.1875 54.6875 
L 57.421875 12.015625 
L 68.609375 54.6875 
L 77.59375 54.6875 
L 63.28125 0 
L 52.6875 0 
L 40.921875 44.828125 
L 29.109375 0 
L 18.5 0 
z
" id="BitstreamVeraSans-Roman-77"/>
      <path d="M 9.421875 54.6875 
L 18.40625 54.6875 
L 18.40625 0 
L 9.421875 0 
z
M 9.421875 75.984375 
L 18.40625 75.984375 
L 18.40625 64.59375 
L 9.421875 64.59375 
z
" id="BitstreamVeraSans-Roman-69"/>
      <path d="M 45.40625 46.390625 
L 45.40625 75.984375 
L 54.390625 75.984375 
L 54.390625 0 
L 45.40625 0 
L 45.40625 8.203125 
Q 42.578125 3.328125 38.25 0.953125 
Q 33.9375 -1.421875 27.875 -1.421875 
Q 17.96875 -1.421875 11.734375 6.484375 
Q 5.515625 14.40625 5.515625 27.296875 
Q 5.515625 40.1875 11.734375 48.09375 
Q 17.96875 56 27.875 56 
Q 33.9375 56 38.25 53.625 
Q 42.578125 51.265625 45.40625 46.390625 
M 14.796875 27.296875 
Q 14.796875 17.390625 18.875 11.75 
Q 22.953125 6.109375 30.078125 6.109375 
Q 37.203125 6.109375 41.296875 11.75 
Q 45.40625 17.390625 45.40625 27.296875 
Q 45.40625 37.203125 41.296875 42.84375 
Q 37.203125 48.484375 30.078125 48.484375 
Q 22.953125 48.484375 18.875 42.84375 
Q 14.796875 37.203125 14.796875 27.296875 
" id="BitstreamVeraSans-Roman-64"/>
     </defs>
     <g transform="translate(27.0171875 169.07890625)rotate(-90.0)scale(0.1 -0.1)">
      <use xlink:href="#BitstreamVeraSans-Roman-73"/>
      <use x="52.099609375" xlink:href="#BitstreamVeraSans-Roman-65"/>
      <use x="113.623046875" xlink:href="#BitstreamVeraSans-Roman-70"/>
      <use x="177.099609375" xlink:href="#BitstreamVeraSans-Roman-61"/>
      <use x="238.37890625" xlink:href="#BitstreamVeraSans-Roman-6c"/>
      <use x="266.162109375" xlink:href="#BitstreamVeraSans-Roman-20"/>
      <use x="297.94921875" xlink:href="#BitstreamVeraSans-Roman-77"/>
      <use x="379.736328125" xlink:href="#BitstreamVeraSans-Roman-69"/>
      <use x="407.51953125" xlink:href="#BitstreamVeraSans-Roman-64"/>
      <use x="470.99609375" xlink:href="#BitstreamVeraSans-Roman-74"/>
      <use x="510.205078125" xlink:href="#BitstreamVeraSans-Roman-68"/>
     </g>
    </g>
   </g>
  </g>
 </g>
 <defs>
  <clipPath id="p2a8a967134">
   <rect height="223.2" width="334.8" x="54.0" y="28.8"/>
  </clipPath>
 </defs>
</svg>
