<?xml version="1.0" encoding="utf-8" standalone="no"?>
<!DOCTYPE svg PUBLIC "-//W3C//DTD SVG 1.1//EN"
  "http://www.w3.org/Graphics/SVG/1.1/DTD/svg11.dtd">
<!-- Created with matplotlib (http://matplotlib.org/) -->
<svg height="288pt" version="1.1" viewBox="0 0 432 288" width="432pt" xmlns="http://www.w3.org/2000/svg" xmlns:xlink="http://www.w3.org/1999/xlink">
 <defs>
  <style type="text/css">
*{stroke-linecap:butt;stroke-linejoin:round;stroke-miterlimit:100000;}
  </style>
 </defs>
 <g id="figure_1">
  <g id="patch_1">
   <path d="M 0 288 
L 432 288 
L 432 0 
L 0 0 
z
" style="fill:#ffffff;"/>
  </g>
  <g id="axes_1">
   <g id="patch_2">
    <path d="M 54 252 
L 388.8 252 
L 388.8 28.8 
L 54 28.8 
z
" style="fill:#ffffff;"/>
   </g>
   <g id="PathCollection_1">
    <path clip-path="url(#p825051827c)" d="M 159.222857 128.929279 
C 160.408881 128.929279 161.546489 128.458066 162.385135 127.619421 
C 163.223781 126.780775 163.694993 125.643167 163.694993 124.457143 
C 163.694993 123.271119 163.223781 122.133511 162.385135 121.294865 
C 161.546489 120.456219 160.408881 119.985007 159.222857 119.985007 
C 158.036833 119.985007 156.899225 120.456219 156.060579 121.294865 
C 155.221934 122.133511 154.750721 123.271119 154.750721 124.457143 
C 154.750721 125.643167 155.221934 126.780775 156.060579 127.619421 
C 156.899225 128.458066 158.036833 128.929279 159.222857 128.929279 
z
" style="fill:#ff0000;stroke:#000000;"/>
    <path clip-path="url(#p825051827c)" d="M 140.091429 160.814993 
C 141.277453 160.814993 142.41506 160.343781 143.253706 159.505135 
C 144.092352 158.666489 144.563565 157.528881 144.563565 156.342857 
C 144.563565 155.156833 144.092352 154.019225 143.253706 153.180579 
C 142.41506 152.341934 141.277453 151.870721 140.091429 151.870721 
C 138.905404 151.870721 137.767797 152.341934 136.929151 153.180579 
C 136.090505 154.019225 135.619293 155.156833 135.619293 156.342857 
C 135.619293 157.528881 136.090505 158.666489 136.929151 159.505135 
C 137.767797 160.343781 138.905404 160.814993 140.091429 160.814993 
z
" style="fill:#ff0000;stroke:#000000;"/>
    <path clip-path="url(#p825051827c)" d="M 120.96 148.060707 
C 122.146024 148.060707 123.283632 147.589495 124.122278 146.750849 
C 124.960923 145.912203 125.432136 144.774596 125.432136 143.588571 
C 125.432136 142.402547 124.960923 141.26494 124.122278 140.426294 
C 123.283632 139.587648 122.146024 139.116435 120.96 139.116435 
C 119.773976 139.116435 118.636368 139.587648 117.797722 140.426294 
C 116.959077 141.26494 116.487864 142.402547 116.487864 143.588571 
C 116.487864 144.774596 116.959077 145.912203 117.797722 146.750849 
C 118.636368 147.589495 119.773976 148.060707 120.96 148.060707 
z
" style="fill:#ff0000;stroke:#000000;"/>
    <path clip-path="url(#p825051827c)" d="M 111.394286 154.43785 
C 112.58031 154.43785 113.717918 153.966638 114.556563 153.127992 
C 115.395209 152.289346 115.866422 151.151739 115.866422 149.965714 
C 115.866422 148.77969 115.395209 147.642082 114.556563 146.803437 
C 113.717918 145.964791 112.58031 145.493578 111.394286 145.493578 
C 110.208261 145.493578 109.070654 145.964791 108.232008 146.803437 
C 107.393362 147.642082 106.92215 148.77969 106.92215 149.965714 
C 106.92215 151.151739 107.393362 152.289346 108.232008 153.127992 
C 109.070654 153.966638 110.208261 154.43785 111.394286 154.43785 
z
" style="fill:#ff0000;stroke:#000000;"/>
    <path clip-path="url(#p825051827c)" d="M 149.657143 122.552136 
C 150.843167 122.552136 151.980775 122.080923 152.819421 121.242278 
C 153.658066 120.403632 154.129279 119.266024 154.129279 118.08 
C 154.129279 116.893976 153.658066 115.756368 152.819421 114.917722 
C 151.980775 114.079077 150.843167 113.607864 149.657143 113.607864 
C 148.471119 113.607864 147.333511 114.079077 146.494865 114.917722 
C 145.656219 115.756368 145.185007 116.893976 145.185007 118.08 
C 145.185007 119.266024 145.656219 120.403632 146.494865 121.242278 
C 147.333511 122.080923 148.471119 122.552136 149.657143 122.552136 
z
" style="fill:#ff0000;stroke:#000000;"/>
    <path clip-path="url(#p825051827c)" d="M 187.92 103.420707 
C 189.106024 103.420707 190.243632 102.949495 191.082278 102.110849 
C 191.920923 101.272203 192.392136 100.134596 192.392136 98.948571 
C 192.392136 97.762547 191.920923 96.62494 191.082278 95.786294 
C 190.243632 94.947648 189.106024 94.476435 187.92 94.476435 
C 186.733976 94.476435 185.596368 94.947648 184.757722 95.786294 
C 183.919077 96.62494 183.447864 97.762547 183.447864 98.948571 
C 183.447864 100.134596 183.919077 101.272203 184.757722 102.110849 
C 185.596368 102.949495 186.733976 103.420707 187.92 103.420707 
z
" style="fill:#ff0000;stroke:#000000;"/>
    <path clip-path="url(#p825051827c)" d="M 111.394286 135.306422 
C 112.58031 135.306422 113.717918 134.835209 114.556563 133.996563 
C 115.395209 133.157918 115.866422 132.02031 115.866422 130.834286 
C 115.866422 129.648261 115.395209 128.510654 114.556563 127.672008 
C 113.717918 126.833362 112.58031 126.36215 111.394286 126.36215 
C 110.208261 126.36215 109.070654 126.833362 108.232008 127.672008 
C 107.393362 128.510654 106.92215 129.648261 106.92215 130.834286 
C 106.92215 132.02031 107.393362 133.157918 108.232008 133.996563 
C 109.070654 134.835209 110.208261 135.306422 111.394286 135.306422 
z
" style="fill:#ff0000;stroke:#000000;"/>
    <path clip-path="url(#p825051827c)" d="M 149.657143 135.306422 
C 150.843167 135.306422 151.980775 134.835209 152.819421 133.996563 
C 153.658066 133.157918 154.129279 132.02031 154.129279 130.834286 
C 154.129279 129.648261 153.658066 128.510654 152.819421 127.672008 
C 151.980775 126.833362 150.843167 126.36215 149.657143 126.36215 
C 148.471119 126.36215 147.333511 126.833362 146.494865 127.672008 
C 145.656219 128.510654 145.185007 129.648261 145.185007 130.834286 
C 145.185007 132.02031 145.656219 133.157918 146.494865 133.996563 
C 147.333511 134.835209 148.471119 135.306422 149.657143 135.306422 
z
" style="fill:#ff0000;stroke:#000000;"/>
    <path clip-path="url(#p825051827c)" d="M 92.262857 167.192136 
C 93.448881 167.192136 94.586489 166.720923 95.425135 165.882278 
C 96.263781 165.043632 96.734993 163.906024 96.734993 162.72 
C 96.734993 161.533976 96.263781 160.396368 95.425135 159.557722 
C 94.586489 158.719077 93.448881 158.247864 92.262857 158.247864 
C 91.076833 158.247864 89.939225 158.719077 89.100579 159.557722 
C 88.261934 160.396368 87.790721 161.533976 87.790721 162.72 
C 87.790721 163.906024 88.261934 165.043632 89.100579 165.882278 
C 89.939225 166.720923 91.076833 167.192136 92.262857 167.192136 
z
" style="fill:#ff0000;stroke:#000000;"/>
    <path clip-path="url(#p825051827c)" d="M 140.091429 154.43785 
C 141.277453 154.43785 142.41506 153.966638 143.253706 153.127992 
C 144.092352 152.289346 144.563565 151.151739 144.563565 149.965714 
C 144.563565 148.77969 144.092352 147.642082 143.253706 146.803437 
C 142.41506 145.964791 141.277453 145.493578 140.091429 145.493578 
C 138.905404 145.493578 137.767797 145.964791 136.929151 146.803437 
C 136.090505 147.642082 135.619293 148.77969 135.619293 149.965714 
C 135.619293 151.151739 136.090505 152.289346 136.929151 153.127992 
C 137.767797 153.966638 138.905404 154.43785 140.091429 154.43785 
z
" style="fill:#ff0000;stroke:#000000;"/>
    <path clip-path="url(#p825051827c)" d="M 187.92 116.174993 
C 189.106024 116.174993 190.243632 115.703781 191.082278 114.865135 
C 191.920923 114.026489 192.392136 112.888881 192.392136 111.702857 
C 192.392136 110.516833 191.920923 109.379225 191.082278 108.540579 
C 190.243632 107.701934 189.106024 107.230721 187.92 107.230721 
C 186.733976 107.230721 185.596368 107.701934 184.757722 108.540579 
C 183.919077 109.379225 183.447864 110.516833 183.447864 111.702857 
C 183.447864 112.888881 183.919077 114.026489 184.757722 114.865135 
C 185.596368 115.703781 186.733976 116.174993 187.92 116.174993 
z
" style="fill:#ff0000;stroke:#000000;"/>
    <path clip-path="url(#p825051827c)" d="M 130.525714 135.306422 
C 131.711739 135.306422 132.849346 134.835209 133.687992 133.996563 
C 134.526638 133.157918 134.99785 132.02031 134.99785 130.834286 
C 134.99785 129.648261 134.526638 128.510654 133.687992 127.672008 
C 132.849346 126.833362 131.711739 126.36215 130.525714 126.36215 
C 129.33969 126.36215 128.202082 126.833362 127.363437 127.672008 
C 126.524791 128.510654 126.053578 129.648261 126.053578 130.834286 
C 126.053578 132.02031 126.524791 133.157918 127.363437 133.996563 
C 128.202082 134.835209 129.33969 135.306422 130.525714 135.306422 
z
" style="fill:#ff0000;stroke:#000000;"/>
    <path clip-path="url(#p825051827c)" d="M 130.525714 160.814993 
C 131.711739 160.814993 132.849346 160.343781 133.687992 159.505135 
C 134.526638 158.666489 134.99785 157.528881 134.99785 156.342857 
C 134.99785 155.156833 134.526638 154.019225 133.687992 153.180579 
C 132.849346 152.341934 131.711739 151.870721 130.525714 151.870721 
C 129.33969 151.870721 128.202082 152.341934 127.363437 153.180579 
C 126.524791 154.019225 126.053578 155.156833 126.053578 156.342857 
C 126.053578 157.528881 126.524791 158.666489 127.363437 159.505135 
C 128.202082 160.343781 129.33969 160.814993 130.525714 160.814993 
z
" style="fill:#ff0000;stroke:#000000;"/>
    <path clip-path="url(#p825051827c)" d="M 82.697143 160.814993 
C 83.883167 160.814993 85.020775 160.343781 85.859421 159.505135 
C 86.698066 158.666489 87.169279 157.528881 87.169279 156.342857 
C 87.169279 155.156833 86.698066 154.019225 85.859421 153.180579 
C 85.020775 152.341934 83.883167 151.870721 82.697143 151.870721 
C 81.511119 151.870721 80.373511 152.341934 79.534865 153.180579 
C 78.696219 154.019225 78.225007 155.156833 78.225007 156.342857 
C 78.225007 157.528881 78.696219 158.666489 79.534865 159.505135 
C 80.373511 160.343781 81.511119 160.814993 82.697143 160.814993 
z
" style="fill:#ff0000;stroke:#000000;"/>
    <path clip-path="url(#p825051827c)" d="M 226.182857 97.043565 
C 227.368881 97.043565 228.506489 96.572352 229.345135 95.733706 
C 230.183781 94.89506 230.654993 93.757453 230.654993 92.571429 
C 230.654993 91.385404 230.183781 90.247797 229.345135 89.409151 
C 228.506489 88.570505 227.368881 88.099293 226.182857 88.099293 
C 224.996833 88.099293 223.859225 88.570505 223.020579 89.409151 
C 222.181934 90.247797 221.710721 91.385404 221.710721 92.571429 
C 221.710721 93.757453 222.181934 94.89506 223.020579 95.733706 
C 223.859225 96.572352 224.996833 97.043565 226.182857 97.043565 
z
" style="fill:#ff0000;stroke:#000000;"/>
    <path clip-path="url(#p825051827c)" d="M 216.617143 71.534993 
C 217.803167 71.534993 218.940775 71.063781 219.779421 70.225135 
C 220.618066 69.386489 221.089279 68.248881 221.089279 67.062857 
C 221.089279 65.876833 220.618066 64.739225 219.779421 63.900579 
C 218.940775 63.061934 217.803167 62.590721 216.617143 62.590721 
C 215.431119 62.590721 214.293511 63.061934 213.454865 63.900579 
C 212.616219 64.739225 212.145007 65.876833 212.145007 67.062857 
C 212.145007 68.248881 212.616219 69.386489 213.454865 70.225135 
C 214.293511 71.063781 215.431119 71.534993 216.617143 71.534993 
z
" style="fill:#ff0000;stroke:#000000;"/>
    <path clip-path="url(#p825051827c)" d="M 187.92 103.420707 
C 189.106024 103.420707 190.243632 102.949495 191.082278 102.110849 
C 191.920923 101.272203 192.392136 100.134596 192.392136 98.948571 
C 192.392136 97.762547 191.920923 96.62494 191.082278 95.786294 
C 190.243632 94.947648 189.106024 94.476435 187.92 94.476435 
C 186.733976 94.476435 185.596368 94.947648 184.757722 95.786294 
C 183.919077 96.62494 183.447864 97.762547 183.447864 98.948571 
C 183.447864 100.134596 183.919077 101.272203 184.757722 102.110849 
C 185.596368 102.949495 186.733976 103.420707 187.92 103.420707 
z
" style="fill:#ff0000;stroke:#000000;"/>
    <path clip-path="url(#p825051827c)" d="M 159.222857 128.929279 
C 160.408881 128.929279 161.546489 128.458066 162.385135 127.619421 
C 163.223781 126.780775 163.694993 125.643167 163.694993 124.457143 
C 163.694993 123.271119 163.223781 122.133511 162.385135 121.294865 
C 161.546489 120.456219 160.408881 119.985007 159.222857 119.985007 
C 158.036833 119.985007 156.899225 120.456219 156.060579 121.294865 
C 155.221934 122.133511 154.750721 123.271119 154.750721 124.457143 
C 154.750721 125.643167 155.221934 126.780775 156.060579 127.619421 
C 156.899225 128.458066 158.036833 128.929279 159.222857 128.929279 
z
" style="fill:#ff0000;stroke:#000000;"/>
    <path clip-path="url(#p825051827c)" d="M 216.617143 109.79785 
C 217.803167 109.79785 218.940775 109.326638 219.779421 108.487992 
C 220.618066 107.649346 221.089279 106.511739 221.089279 105.325714 
C 221.089279 104.13969 220.618066 103.002082 219.779421 102.163437 
C 218.940775 101.324791 217.803167 100.853578 216.617143 100.853578 
C 215.431119 100.853578 214.293511 101.324791 213.454865 102.163437 
C 212.616219 103.002082 212.145007 104.13969 212.145007 105.325714 
C 212.145007 106.511739 212.616219 107.649346 213.454865 108.487992 
C 214.293511 109.326638 215.431119 109.79785 216.617143 109.79785 
z
" style="fill:#ff0000;stroke:#000000;"/>
    <path clip-path="url(#p825051827c)" d="M 159.222857 109.79785 
C 160.408881 109.79785 161.546489 109.326638 162.385135 108.487992 
C 163.223781 107.649346 163.694993 106.511739 163.694993 105.325714 
C 163.694993 104.13969 163.223781 103.002082 162.385135 102.163437 
C 161.546489 101.324791 160.408881 100.853578 159.222857 100.853578 
C 158.036833 100.853578 156.899225 101.324791 156.060579 102.163437 
C 155.221934 103.002082 154.750721 104.13969 154.750721 105.325714 
C 154.750721 106.511739 155.221934 107.649346 156.060579 108.487992 
C 156.899225 109.326638 158.036833 109.79785 159.222857 109.79785 
z
" style="fill:#ff0000;stroke:#000000;"/>
    <path clip-path="url(#p825051827c)" d="M 187.92 135.306422 
C 189.106024 135.306422 190.243632 134.835209 191.082278 133.996563 
C 191.920923 133.157918 192.392136 132.02031 192.392136 130.834286 
C 192.392136 129.648261 191.920923 128.510654 191.082278 127.672008 
C 190.243632 126.833362 189.106024 126.36215 187.92 126.36215 
C 186.733976 126.36215 185.596368 126.833362 184.757722 127.672008 
C 183.919077 128.510654 183.447864 129.648261 183.447864 130.834286 
C 183.447864 132.02031 183.919077 133.157918 184.757722 133.996563 
C 185.596368 134.835209 186.733976 135.306422 187.92 135.306422 
z
" style="fill:#ff0000;stroke:#000000;"/>
    <path clip-path="url(#p825051827c)" d="M 159.222857 116.174993 
C 160.408881 116.174993 161.546489 115.703781 162.385135 114.865135 
C 163.223781 114.026489 163.694993 112.888881 163.694993 111.702857 
C 163.694993 110.516833 163.223781 109.379225 162.385135 108.540579 
C 161.546489 107.701934 160.408881 107.230721 159.222857 107.230721 
C 158.036833 107.230721 156.899225 107.701934 156.060579 108.540579 
C 155.221934 109.379225 154.750721 110.516833 154.750721 111.702857 
C 154.750721 112.888881 155.221934 114.026489 156.060579 114.865135 
C 156.899225 115.703781 158.036833 116.174993 159.222857 116.174993 
z
" style="fill:#ff0000;stroke:#000000;"/>
    <path clip-path="url(#p825051827c)" d="M 111.394286 122.552136 
C 112.58031 122.552136 113.717918 122.080923 114.556563 121.242278 
C 115.395209 120.403632 115.866422 119.266024 115.866422 118.08 
C 115.866422 116.893976 115.395209 115.756368 114.556563 114.917722 
C 113.717918 114.079077 112.58031 113.607864 111.394286 113.607864 
C 110.208261 113.607864 109.070654 114.079077 108.232008 114.917722 
C 107.393362 115.756368 106.92215 116.893976 106.92215 118.08 
C 106.92215 119.266024 107.393362 120.403632 108.232008 121.242278 
C 109.070654 122.080923 110.208261 122.552136 111.394286 122.552136 
z
" style="fill:#ff0000;stroke:#000000;"/>
    <path clip-path="url(#p825051827c)" d="M 159.222857 141.683565 
C 160.408881 141.683565 161.546489 141.212352 162.385135 140.373706 
C 163.223781 139.53506 163.694993 138.397453 163.694993 137.211429 
C 163.694993 136.025404 163.223781 134.887797 162.385135 134.049151 
C 161.546489 133.210505 160.408881 132.739293 159.222857 132.739293 
C 158.036833 132.739293 156.899225 133.210505 156.060579 134.049151 
C 155.221934 134.887797 154.750721 136.025404 154.750721 137.211429 
C 154.750721 138.397453 155.221934 139.53506 156.060579 140.373706 
C 156.899225 141.212352 158.036833 141.683565 159.222857 141.683565 
z
" style="fill:#ff0000;stroke:#000000;"/>
    <path clip-path="url(#p825051827c)" d="M 130.525714 135.306422 
C 131.711739 135.306422 132.849346 134.835209 133.687992 133.996563 
C 134.526638 133.157918 134.99785 132.02031 134.99785 130.834286 
C 134.99785 129.648261 134.526638 128.510654 133.687992 127.672008 
C 132.849346 126.833362 131.711739 126.36215 130.525714 126.36215 
C 129.33969 126.36215 128.202082 126.833362 127.363437 127.672008 
C 126.524791 128.510654 126.053578 129.648261 126.053578 130.834286 
C 126.053578 132.02031 126.524791 133.157918 127.363437 133.996563 
C 128.202082 134.835209 129.33969 135.306422 130.525714 135.306422 
z
" style="fill:#ff0000;stroke:#000000;"/>
    <path clip-path="url(#p825051827c)" d="M 149.657143 160.814993 
C 150.843167 160.814993 151.980775 160.343781 152.819421 159.505135 
C 153.658066 158.666489 154.129279 157.528881 154.129279 156.342857 
C 154.129279 155.156833 153.658066 154.019225 152.819421 153.180579 
C 151.980775 152.341934 150.843167 151.870721 149.657143 151.870721 
C 148.471119 151.870721 147.333511 152.341934 146.494865 153.180579 
C 145.656219 154.019225 145.185007 155.156833 145.185007 156.342857 
C 145.185007 157.528881 145.656219 158.666489 146.494865 159.505135 
C 147.333511 160.343781 148.471119 160.814993 149.657143 160.814993 
z
" style="fill:#ff0000;stroke:#000000;"/>
    <path clip-path="url(#p825051827c)" d="M 149.657143 135.306422 
C 150.843167 135.306422 151.980775 134.835209 152.819421 133.996563 
C 153.658066 133.157918 154.129279 132.02031 154.129279 130.834286 
C 154.129279 129.648261 153.658066 128.510654 152.819421 127.672008 
C 151.980775 126.833362 150.843167 126.36215 149.657143 126.36215 
C 148.471119 126.36215 147.333511 126.833362 146.494865 127.672008 
C 145.656219 128.510654 145.185007 129.648261 145.185007 130.834286 
C 145.185007 132.02031 145.656219 133.157918 146.494865 133.996563 
C 147.333511 134.835209 148.471119 135.306422 149.657143 135.306422 
z
" style="fill:#ff0000;stroke:#000000;"/>
    <path clip-path="url(#p825051827c)" d="M 168.788571 128.929279 
C 169.974596 128.929279 171.112203 128.458066 171.950849 127.619421 
C 172.789495 126.780775 173.260707 125.643167 173.260707 124.457143 
C 173.260707 123.271119 172.789495 122.133511 171.950849 121.294865 
C 171.112203 120.456219 169.974596 119.985007 168.788571 119.985007 
C 167.602547 119.985007 166.46494 120.456219 165.626294 121.294865 
C 164.787648 122.133511 164.316435 123.271119 164.316435 124.457143 
C 164.316435 125.643167 164.787648 126.780775 165.626294 127.619421 
C 166.46494 128.458066 167.602547 128.929279 168.788571 128.929279 
z
" style="fill:#ff0000;stroke:#000000;"/>
    <path clip-path="url(#p825051827c)" d="M 168.788571 135.306422 
C 169.974596 135.306422 171.112203 134.835209 171.950849 133.996563 
C 172.789495 133.157918 173.260707 132.02031 173.260707 130.834286 
C 173.260707 129.648261 172.789495 128.510654 171.950849 127.672008 
C 171.112203 126.833362 169.974596 126.36215 168.788571 126.36215 
C 167.602547 126.36215 166.46494 126.833362 165.626294 127.672008 
C 164.787648 128.510654 164.316435 129.648261 164.316435 130.834286 
C 164.316435 132.02031 164.787648 133.157918 165.626294 133.996563 
C 166.46494 134.835209 167.602547 135.306422 168.788571 135.306422 
z
" style="fill:#ff0000;stroke:#000000;"/>
    <path clip-path="url(#p825051827c)" d="M 120.96 148.060707 
C 122.146024 148.060707 123.283632 147.589495 124.122278 146.750849 
C 124.960923 145.912203 125.432136 144.774596 125.432136 143.588571 
C 125.432136 142.402547 124.960923 141.26494 124.122278 140.426294 
C 123.283632 139.587648 122.146024 139.116435 120.96 139.116435 
C 119.773976 139.116435 118.636368 139.587648 117.797722 140.426294 
C 116.959077 141.26494 116.487864 142.402547 116.487864 143.588571 
C 116.487864 144.774596 116.959077 145.912203 117.797722 146.750849 
C 118.636368 147.589495 119.773976 148.060707 120.96 148.060707 
z
" style="fill:#ff0000;stroke:#000000;"/>
    <path clip-path="url(#p825051827c)" d="M 130.525714 154.43785 
C 131.711739 154.43785 132.849346 153.966638 133.687992 153.127992 
C 134.526638 152.289346 134.99785 151.151739 134.99785 149.965714 
C 134.99785 148.77969 134.526638 147.642082 133.687992 146.803437 
C 132.849346 145.964791 131.711739 145.493578 130.525714 145.493578 
C 129.33969 145.493578 128.202082 145.964791 127.363437 146.803437 
C 126.524791 147.642082 126.053578 148.77969 126.053578 149.965714 
C 126.053578 151.151739 126.524791 152.289346 127.363437 153.127992 
C 128.202082 153.966638 129.33969 154.43785 130.525714 154.43785 
z
" style="fill:#ff0000;stroke:#000000;"/>
    <path clip-path="url(#p825051827c)" d="M 187.92 135.306422 
C 189.106024 135.306422 190.243632 134.835209 191.082278 133.996563 
C 191.920923 133.157918 192.392136 132.02031 192.392136 130.834286 
C 192.392136 129.648261 191.920923 128.510654 191.082278 127.672008 
C 190.243632 126.833362 189.106024 126.36215 187.92 126.36215 
C 186.733976 126.36215 185.596368 126.833362 184.757722 127.672008 
C 183.919077 128.510654 183.447864 129.648261 183.447864 130.834286 
C 183.447864 132.02031 183.919077 133.157918 184.757722 133.996563 
C 185.596368 134.835209 186.733976 135.306422 187.92 135.306422 
z
" style="fill:#ff0000;stroke:#000000;"/>
    <path clip-path="url(#p825051827c)" d="M 168.788571 90.666422 
C 169.974596 90.666422 171.112203 90.195209 171.950849 89.356563 
C 172.789495 88.517918 173.260707 87.38031 173.260707 86.194286 
C 173.260707 85.008261 172.789495 83.870654 171.950849 83.032008 
C 171.112203 82.193362 169.974596 81.72215 168.788571 81.72215 
C 167.602547 81.72215 166.46494 82.193362 165.626294 83.032008 
C 164.787648 83.870654 164.316435 85.008261 164.316435 86.194286 
C 164.316435 87.38031 164.787648 88.517918 165.626294 89.356563 
C 166.46494 90.195209 167.602547 90.666422 168.788571 90.666422 
z
" style="fill:#ff0000;stroke:#000000;"/>
    <path clip-path="url(#p825051827c)" d="M 197.485714 84.289279 
C 198.671739 84.289279 199.809346 83.818066 200.647992 82.979421 
C 201.486638 82.140775 201.95785 81.003167 201.95785 79.817143 
C 201.95785 78.631119 201.486638 77.493511 200.647992 76.654865 
C 199.809346 75.816219 198.671739 75.345007 197.485714 75.345007 
C 196.29969 75.345007 195.162082 75.816219 194.323437 76.654865 
C 193.484791 77.493511 193.013578 78.631119 193.013578 79.817143 
C 193.013578 81.003167 193.484791 82.140775 194.323437 82.979421 
C 195.162082 83.818066 196.29969 84.289279 197.485714 84.289279 
z
" style="fill:#ff0000;stroke:#000000;"/>
    <path clip-path="url(#p825051827c)" d="M 140.091429 154.43785 
C 141.277453 154.43785 142.41506 153.966638 143.253706 153.127992 
C 144.092352 152.289346 144.563565 151.151739 144.563565 149.965714 
C 144.563565 148.77969 144.092352 147.642082 143.253706 146.803437 
C 142.41506 145.964791 141.277453 145.493578 140.091429 145.493578 
C 138.905404 145.493578 137.767797 145.964791 136.929151 146.803437 
C 136.090505 147.642082 135.619293 148.77969 135.619293 149.965714 
C 135.619293 151.151739 136.090505 152.289346 136.929151 153.127992 
C 137.767797 153.966638 138.905404 154.43785 140.091429 154.43785 
z
" style="fill:#ff0000;stroke:#000000;"/>
    <path clip-path="url(#p825051827c)" d="M 149.657143 148.060707 
C 150.843167 148.060707 151.980775 147.589495 152.819421 146.750849 
C 153.658066 145.912203 154.129279 144.774596 154.129279 143.588571 
C 154.129279 142.402547 153.658066 141.26494 152.819421 140.426294 
C 151.980775 139.587648 150.843167 139.116435 149.657143 139.116435 
C 148.471119 139.116435 147.333511 139.587648 146.494865 140.426294 
C 145.656219 141.26494 145.185007 142.402547 145.185007 143.588571 
C 145.185007 144.774596 145.656219 145.912203 146.494865 146.750849 
C 147.333511 147.589495 148.471119 148.060707 149.657143 148.060707 
z
" style="fill:#ff0000;stroke:#000000;"/>
    <path clip-path="url(#p825051827c)" d="M 197.485714 128.929279 
C 198.671739 128.929279 199.809346 128.458066 200.647992 127.619421 
C 201.486638 126.780775 201.95785 125.643167 201.95785 124.457143 
C 201.95785 123.271119 201.486638 122.133511 200.647992 121.294865 
C 199.809346 120.456219 198.671739 119.985007 197.485714 119.985007 
C 196.29969 119.985007 195.162082 120.456219 194.323437 121.294865 
C 193.484791 122.133511 193.013578 123.271119 193.013578 124.457143 
C 193.013578 125.643167 193.484791 126.780775 194.323437 127.619421 
C 195.162082 128.458066 196.29969 128.929279 197.485714 128.929279 
z
" style="fill:#ff0000;stroke:#000000;"/>
    <path clip-path="url(#p825051827c)" d="M 140.091429 154.43785 
C 141.277453 154.43785 142.41506 153.966638 143.253706 153.127992 
C 144.092352 152.289346 144.563565 151.151739 144.563565 149.965714 
C 144.563565 148.77969 144.092352 147.642082 143.253706 146.803437 
C 142.41506 145.964791 141.277453 145.493578 140.091429 145.493578 
C 138.905404 145.493578 137.767797 145.964791 136.929151 146.803437 
C 136.090505 147.642082 135.619293 148.77969 135.619293 149.965714 
C 135.619293 151.151739 136.090505 152.289346 136.929151 153.127992 
C 137.767797 153.966638 138.905404 154.43785 140.091429 154.43785 
z
" style="fill:#ff0000;stroke:#000000;"/>
    <path clip-path="url(#p825051827c)" d="M 92.262857 160.814993 
C 93.448881 160.814993 94.586489 160.343781 95.425135 159.505135 
C 96.263781 158.666489 96.734993 157.528881 96.734993 156.342857 
C 96.734993 155.156833 96.263781 154.019225 95.425135 153.180579 
C 94.586489 152.341934 93.448881 151.870721 92.262857 151.870721 
C 91.076833 151.870721 89.939225 152.341934 89.100579 153.180579 
C 88.261934 154.019225 87.790721 155.156833 87.790721 156.342857 
C 87.790721 157.528881 88.261934 158.666489 89.100579 159.505135 
C 89.939225 160.343781 91.076833 160.814993 92.262857 160.814993 
z
" style="fill:#ff0000;stroke:#000000;"/>
    <path clip-path="url(#p825051827c)" d="M 159.222857 135.306422 
C 160.408881 135.306422 161.546489 134.835209 162.385135 133.996563 
C 163.223781 133.157918 163.694993 132.02031 163.694993 130.834286 
C 163.694993 129.648261 163.223781 128.510654 162.385135 127.672008 
C 161.546489 126.833362 160.408881 126.36215 159.222857 126.36215 
C 158.036833 126.36215 156.899225 126.833362 156.060579 127.672008 
C 155.221934 128.510654 154.750721 129.648261 154.750721 130.834286 
C 154.750721 132.02031 155.221934 133.157918 156.060579 133.996563 
C 156.899225 134.835209 158.036833 135.306422 159.222857 135.306422 
z
" style="fill:#ff0000;stroke:#000000;"/>
    <path clip-path="url(#p825051827c)" d="M 149.657143 128.929279 
C 150.843167 128.929279 151.980775 128.458066 152.819421 127.619421 
C 153.658066 126.780775 154.129279 125.643167 154.129279 124.457143 
C 154.129279 123.271119 153.658066 122.133511 152.819421 121.294865 
C 151.980775 120.456219 150.843167 119.985007 149.657143 119.985007 
C 148.471119 119.985007 147.333511 120.456219 146.494865 121.294865 
C 145.656219 122.133511 145.185007 123.271119 145.185007 124.457143 
C 145.185007 125.643167 145.656219 126.780775 146.494865 127.619421 
C 147.333511 128.458066 148.471119 128.929279 149.657143 128.929279 
z
" style="fill:#ff0000;stroke:#000000;"/>
    <path clip-path="url(#p825051827c)" d="M 101.828571 205.454993 
C 103.014596 205.454993 104.152203 204.983781 104.990849 204.145135 
C 105.829495 203.306489 106.300707 202.168881 106.300707 200.982857 
C 106.300707 199.796833 105.829495 198.659225 104.990849 197.820579 
C 104.152203 196.981934 103.014596 196.510721 101.828571 196.510721 
C 100.642547 196.510721 99.50494 196.981934 98.666294 197.820579 
C 97.827648 198.659225 97.356435 199.796833 97.356435 200.982857 
C 97.356435 202.168881 97.827648 203.306489 98.666294 204.145135 
C 99.50494 204.983781 100.642547 205.454993 101.828571 205.454993 
z
" style="fill:#ff0000;stroke:#000000;"/>
    <path clip-path="url(#p825051827c)" d="M 92.262857 148.060707 
C 93.448881 148.060707 94.586489 147.589495 95.425135 146.750849 
C 96.263781 145.912203 96.734993 144.774596 96.734993 143.588571 
C 96.734993 142.402547 96.263781 141.26494 95.425135 140.426294 
C 94.586489 139.587648 93.448881 139.116435 92.262857 139.116435 
C 91.076833 139.116435 89.939225 139.587648 89.100579 140.426294 
C 88.261934 141.26494 87.790721 142.402547 87.790721 143.588571 
C 87.790721 144.774596 88.261934 145.912203 89.100579 146.750849 
C 89.939225 147.589495 91.076833 148.060707 92.262857 148.060707 
z
" style="fill:#ff0000;stroke:#000000;"/>
    <path clip-path="url(#p825051827c)" d="M 149.657143 128.929279 
C 150.843167 128.929279 151.980775 128.458066 152.819421 127.619421 
C 153.658066 126.780775 154.129279 125.643167 154.129279 124.457143 
C 154.129279 123.271119 153.658066 122.133511 152.819421 121.294865 
C 151.980775 120.456219 150.843167 119.985007 149.657143 119.985007 
C 148.471119 119.985007 147.333511 120.456219 146.494865 121.294865 
C 145.656219 122.133511 145.185007 123.271119 145.185007 124.457143 
C 145.185007 125.643167 145.656219 126.780775 146.494865 127.619421 
C 147.333511 128.458066 148.471119 128.929279 149.657143 128.929279 
z
" style="fill:#ff0000;stroke:#000000;"/>
    <path clip-path="url(#p825051827c)" d="M 159.222857 109.79785 
C 160.408881 109.79785 161.546489 109.326638 162.385135 108.487992 
C 163.223781 107.649346 163.694993 106.511739 163.694993 105.325714 
C 163.694993 104.13969 163.223781 103.002082 162.385135 102.163437 
C 161.546489 101.324791 160.408881 100.853578 159.222857 100.853578 
C 158.036833 100.853578 156.899225 101.324791 156.060579 102.163437 
C 155.221934 103.002082 154.750721 104.13969 154.750721 105.325714 
C 154.750721 106.511739 155.221934 107.649346 156.060579 108.487992 
C 156.899225 109.326638 158.036833 109.79785 159.222857 109.79785 
z
" style="fill:#ff0000;stroke:#000000;"/>
    <path clip-path="url(#p825051827c)" d="M 130.525714 160.814993 
C 131.711739 160.814993 132.849346 160.343781 133.687992 159.505135 
C 134.526638 158.666489 134.99785 157.528881 134.99785 156.342857 
C 134.99785 155.156833 134.526638 154.019225 133.687992 153.180579 
C 132.849346 152.341934 131.711739 151.870721 130.525714 151.870721 
C 129.33969 151.870721 128.202082 152.341934 127.363437 153.180579 
C 126.524791 154.019225 126.053578 155.156833 126.053578 156.342857 
C 126.053578 157.528881 126.524791 158.666489 127.363437 159.505135 
C 128.202082 160.343781 129.33969 160.814993 130.525714 160.814993 
z
" style="fill:#ff0000;stroke:#000000;"/>
    <path clip-path="url(#p825051827c)" d="M 159.222857 109.79785 
C 160.408881 109.79785 161.546489 109.326638 162.385135 108.487992 
C 163.223781 107.649346 163.694993 106.511739 163.694993 105.325714 
C 163.694993 104.13969 163.223781 103.002082 162.385135 102.163437 
C 161.546489 101.324791 160.408881 100.853578 159.222857 100.853578 
C 158.036833 100.853578 156.899225 101.324791 156.060579 102.163437 
C 155.221934 103.002082 154.750721 104.13969 154.750721 105.325714 
C 154.750721 106.511739 155.221934 107.649346 156.060579 108.487992 
C 156.899225 109.326638 158.036833 109.79785 159.222857 109.79785 
z
" style="fill:#ff0000;stroke:#000000;"/>
    <path clip-path="url(#p825051827c)" d="M 111.394286 148.060707 
C 112.58031 148.060707 113.717918 147.589495 114.556563 146.750849 
C 115.395209 145.912203 115.866422 144.774596 115.866422 143.588571 
C 115.866422 142.402547 115.395209 141.26494 114.556563 140.426294 
C 113.717918 139.587648 112.58031 139.116435 111.394286 139.116435 
C 110.208261 139.116435 109.070654 139.587648 108.232008 140.426294 
C 107.393362 141.26494 106.92215 142.402547 106.92215 143.588571 
C 106.92215 144.774596 107.393362 145.912203 108.232008 146.750849 
C 109.070654 147.589495 110.208261 148.060707 111.394286 148.060707 
z
" style="fill:#ff0000;stroke:#000000;"/>
    <path clip-path="url(#p825051827c)" d="M 178.354286 116.174993 
C 179.54031 116.174993 180.677918 115.703781 181.516563 114.865135 
C 182.355209 114.026489 182.826422 112.888881 182.826422 111.702857 
C 182.826422 110.516833 182.355209 109.379225 181.516563 108.540579 
C 180.677918 107.701934 179.54031 107.230721 178.354286 107.230721 
C 177.168261 107.230721 176.030654 107.701934 175.192008 108.540579 
C 174.353362 109.379225 173.88215 110.516833 173.88215 111.702857 
C 173.88215 112.888881 174.353362 114.026489 175.192008 114.865135 
C 176.030654 115.703781 177.168261 116.174993 178.354286 116.174993 
z
" style="fill:#ff0000;stroke:#000000;"/>
    <path clip-path="url(#p825051827c)" d="M 149.657143 141.683565 
C 150.843167 141.683565 151.980775 141.212352 152.819421 140.373706 
C 153.658066 139.53506 154.129279 138.397453 154.129279 137.211429 
C 154.129279 136.025404 153.658066 134.887797 152.819421 134.049151 
C 151.980775 133.210505 150.843167 132.739293 149.657143 132.739293 
C 148.471119 132.739293 147.333511 133.210505 146.494865 134.049151 
C 145.656219 134.887797 145.185007 136.025404 145.185007 137.211429 
C 145.185007 138.397453 145.656219 139.53506 146.494865 140.373706 
C 147.333511 141.212352 148.471119 141.683565 149.657143 141.683565 
z
" style="fill:#ff0000;stroke:#000000;"/>
    <path clip-path="url(#p825051827c)" d="M 340.971429 148.060707 
C 342.157453 148.060707 343.29506 147.589495 344.133706 146.750849 
C 344.972352 145.912203 345.443565 144.774596 345.443565 143.588571 
C 345.443565 142.402547 344.972352 141.26494 344.133706 140.426294 
C 343.29506 139.587648 342.157453 139.116435 340.971429 139.116435 
C 339.785404 139.116435 338.647797 139.587648 337.809151 140.426294 
C 336.970505 141.26494 336.499293 142.402547 336.499293 143.588571 
C 336.499293 144.774596 336.970505 145.912203 337.809151 146.750849 
C 338.647797 147.589495 339.785404 148.060707 340.971429 148.060707 
z
" style="fill:#0000ff;stroke:#000000;"/>
    <path clip-path="url(#p825051827c)" d="M 283.577143 148.060707 
C 284.763167 148.060707 285.900775 147.589495 286.739421 146.750849 
C 287.578066 145.912203 288.049279 144.774596 288.049279 143.588571 
C 288.049279 142.402547 287.578066 141.26494 286.739421 140.426294 
C 285.900775 139.587648 284.763167 139.116435 283.577143 139.116435 
C 282.391119 139.116435 281.253511 139.587648 280.414865 140.426294 
C 279.576219 141.26494 279.105007 142.402547 279.105007 143.588571 
C 279.105007 144.774596 279.576219 145.912203 280.414865 146.750849 
C 281.253511 147.589495 282.391119 148.060707 283.577143 148.060707 
z
" style="fill:#0000ff;stroke:#000000;"/>
    <path clip-path="url(#p825051827c)" d="M 331.405714 154.43785 
C 332.591739 154.43785 333.729346 153.966638 334.567992 153.127992 
C 335.406638 152.289346 335.87785 151.151739 335.87785 149.965714 
C 335.87785 148.77969 335.406638 147.642082 334.567992 146.803437 
C 333.729346 145.964791 332.591739 145.493578 331.405714 145.493578 
C 330.21969 145.493578 329.082082 145.964791 328.243437 146.803437 
C 327.404791 147.642082 326.933578 148.77969 326.933578 149.965714 
C 326.933578 151.151739 327.404791 152.289346 328.243437 153.127992 
C 329.082082 153.966638 330.21969 154.43785 331.405714 154.43785 
z
" style="fill:#0000ff;stroke:#000000;"/>
    <path clip-path="url(#p825051827c)" d="M 197.485714 205.454993 
C 198.671739 205.454993 199.809346 204.983781 200.647992 204.145135 
C 201.486638 203.306489 201.95785 202.168881 201.95785 200.982857 
C 201.95785 199.796833 201.486638 198.659225 200.647992 197.820579 
C 199.809346 196.981934 198.671739 196.510721 197.485714 196.510721 
C 196.29969 196.510721 195.162082 196.981934 194.323437 197.820579 
C 193.484791 198.659225 193.013578 199.796833 193.013578 200.982857 
C 193.013578 202.168881 193.484791 203.306489 194.323437 204.145135 
C 195.162082 204.983781 196.29969 205.454993 197.485714 205.454993 
z
" style="fill:#0000ff;stroke:#000000;"/>
    <path clip-path="url(#p825051827c)" d="M 293.142857 173.569279 
C 294.328881 173.569279 295.466489 173.098066 296.305135 172.259421 
C 297.143781 171.420775 297.614993 170.283167 297.614993 169.097143 
C 297.614993 167.911119 297.143781 166.773511 296.305135 165.934865 
C 295.466489 165.096219 294.328881 164.625007 293.142857 164.625007 
C 291.956833 164.625007 290.819225 165.096219 289.980579 165.934865 
C 289.141934 166.773511 288.670721 167.911119 288.670721 169.097143 
C 288.670721 170.283167 289.141934 171.420775 289.980579 172.259421 
C 290.819225 173.098066 291.956833 173.569279 293.142857 173.569279 
z
" style="fill:#0000ff;stroke:#000000;"/>
    <path clip-path="url(#p825051827c)" d="M 216.617143 173.569279 
C 217.803167 173.569279 218.940775 173.098066 219.779421 172.259421 
C 220.618066 171.420775 221.089279 170.283167 221.089279 169.097143 
C 221.089279 167.911119 220.618066 166.773511 219.779421 165.934865 
C 218.940775 165.096219 217.803167 164.625007 216.617143 164.625007 
C 215.431119 164.625007 214.293511 165.096219 213.454865 165.934865 
C 212.616219 166.773511 212.145007 167.911119 212.145007 169.097143 
C 212.145007 170.283167 212.616219 171.420775 213.454865 172.259421 
C 214.293511 173.098066 215.431119 173.569279 216.617143 173.569279 
z
" style="fill:#0000ff;stroke:#000000;"/>
    <path clip-path="url(#p825051827c)" d="M 274.011429 141.683565 
C 275.197453 141.683565 276.33506 141.212352 277.173706 140.373706 
C 278.012352 139.53506 278.483565 138.397453 278.483565 137.211429 
C 278.483565 136.025404 278.012352 134.887797 277.173706 134.049151 
C 276.33506 133.210505 275.197453 132.739293 274.011429 132.739293 
C 272.825404 132.739293 271.687797 133.210505 270.849151 134.049151 
C 270.010505 134.887797 269.539293 136.025404 269.539293 137.211429 
C 269.539293 138.397453 270.010505 139.53506 270.849151 140.373706 
C 271.687797 141.212352 272.825404 141.683565 274.011429 141.683565 
z
" style="fill:#0000ff;stroke:#000000;"/>
    <path clip-path="url(#p825051827c)" d="M 140.091429 199.07785 
C 141.277453 199.07785 142.41506 198.606638 143.253706 197.767992 
C 144.092352 196.929346 144.563565 195.791739 144.563565 194.605714 
C 144.563565 193.41969 144.092352 192.282082 143.253706 191.443437 
C 142.41506 190.604791 141.277453 190.133578 140.091429 190.133578 
C 138.905404 190.133578 137.767797 190.604791 136.929151 191.443437 
C 136.090505 192.282082 135.619293 193.41969 135.619293 194.605714 
C 135.619293 195.791739 136.090505 196.929346 136.929151 197.767992 
C 137.767797 198.606638 138.905404 199.07785 140.091429 199.07785 
z
" style="fill:#0000ff;stroke:#000000;"/>
    <path clip-path="url(#p825051827c)" d="M 302.708571 167.192136 
C 303.894596 167.192136 305.032203 166.720923 305.870849 165.882278 
C 306.709495 165.043632 307.180707 163.906024 307.180707 162.72 
C 307.180707 161.533976 306.709495 160.396368 305.870849 159.557722 
C 305.032203 158.719077 303.894596 158.247864 302.708571 158.247864 
C 301.522547 158.247864 300.38494 158.719077 299.546294 159.557722 
C 298.707648 160.396368 298.236435 161.533976 298.236435 162.72 
C 298.236435 163.906024 298.707648 165.043632 299.546294 165.882278 
C 300.38494 166.720923 301.522547 167.192136 302.708571 167.192136 
z
" style="fill:#0000ff;stroke:#000000;"/>
    <path clip-path="url(#p825051827c)" d="M 168.788571 179.946422 
C 169.974596 179.946422 171.112203 179.475209 171.950849 178.636563 
C 172.789495 177.797918 173.260707 176.66031 173.260707 175.474286 
C 173.260707 174.288261 172.789495 173.150654 171.950849 172.312008 
C 171.112203 171.473362 169.974596 171.00215 168.788571 171.00215 
C 167.602547 171.00215 166.46494 171.473362 165.626294 172.312008 
C 164.787648 173.150654 164.316435 174.288261 164.316435 175.474286 
C 164.316435 176.66031 164.787648 177.797918 165.626294 178.636563 
C 166.46494 179.475209 167.602547 179.946422 168.788571 179.946422 
z
" style="fill:#0000ff;stroke:#000000;"/>
    <path clip-path="url(#p825051827c)" d="M 149.657143 224.586422 
C 150.843167 224.586422 151.980775 224.115209 152.819421 223.276563 
C 153.658066 222.437918 154.129279 221.30031 154.129279 220.114286 
C 154.129279 218.928261 153.658066 217.790654 152.819421 216.952008 
C 151.980775 216.113362 150.843167 215.64215 149.657143 215.64215 
C 148.471119 215.64215 147.333511 216.113362 146.494865 216.952008 
C 145.656219 217.790654 145.185007 218.928261 145.185007 220.114286 
C 145.185007 221.30031 145.656219 222.437918 146.494865 223.276563 
C 147.333511 224.115209 148.471119 224.586422 149.657143 224.586422 
z
" style="fill:#0000ff;stroke:#000000;"/>
    <path clip-path="url(#p825051827c)" d="M 235.748571 160.814993 
C 236.934596 160.814993 238.072203 160.343781 238.910849 159.505135 
C 239.749495 158.666489 240.220707 157.528881 240.220707 156.342857 
C 240.220707 155.156833 239.749495 154.019225 238.910849 153.180579 
C 238.072203 152.341934 236.934596 151.870721 235.748571 151.870721 
C 234.562547 151.870721 233.42494 152.341934 232.586294 153.180579 
C 231.747648 154.019225 231.276435 155.156833 231.276435 156.342857 
C 231.276435 157.528881 231.747648 158.666489 232.586294 159.505135 
C 233.42494 160.343781 234.562547 160.814993 235.748571 160.814993 
z
" style="fill:#0000ff;stroke:#000000;"/>
    <path clip-path="url(#p825051827c)" d="M 245.314286 211.832136 
C 246.50031 211.832136 247.637918 211.360923 248.476563 210.522278 
C 249.315209 209.683632 249.786422 208.546024 249.786422 207.36 
C 249.786422 206.173976 249.315209 205.036368 248.476563 204.197722 
C 247.637918 203.359077 246.50031 202.887864 245.314286 202.887864 
C 244.128261 202.887864 242.990654 203.359077 242.152008 204.197722 
C 241.313362 205.036368 240.84215 206.173976 240.84215 207.36 
C 240.84215 208.546024 241.313362 209.683632 242.152008 210.522278 
C 242.990654 211.360923 244.128261 211.832136 245.314286 211.832136 
z
" style="fill:#0000ff;stroke:#000000;"/>
    <path clip-path="url(#p825051827c)" d="M 254.88 167.192136 
C 256.066024 167.192136 257.203632 166.720923 258.042278 165.882278 
C 258.880923 165.043632 259.352136 163.906024 259.352136 162.72 
C 259.352136 161.533976 258.880923 160.396368 258.042278 159.557722 
C 257.203632 158.719077 256.066024 158.247864 254.88 158.247864 
C 253.693976 158.247864 252.556368 158.719077 251.717722 159.557722 
C 250.879077 160.396368 250.407864 161.533976 250.407864 162.72 
C 250.407864 163.906024 250.879077 165.043632 251.717722 165.882278 
C 252.556368 166.720923 253.693976 167.192136 254.88 167.192136 
z
" style="fill:#0000ff;stroke:#000000;"/>
    <path clip-path="url(#p825051827c)" d="M 207.051429 167.192136 
C 208.237453 167.192136 209.37506 166.720923 210.213706 165.882278 
C 211.052352 165.043632 211.523565 163.906024 211.523565 162.72 
C 211.523565 161.533976 211.052352 160.396368 210.213706 159.557722 
C 209.37506 158.719077 208.237453 158.247864 207.051429 158.247864 
C 205.865404 158.247864 204.727797 158.719077 203.889151 159.557722 
C 203.050505 160.396368 202.579293 161.533976 202.579293 162.72 
C 202.579293 163.906024 203.050505 165.043632 203.889151 165.882278 
C 204.727797 166.720923 205.865404 167.192136 207.051429 167.192136 
z
" style="fill:#0000ff;stroke:#000000;"/>
    <path clip-path="url(#p825051827c)" d="M 312.274286 154.43785 
C 313.46031 154.43785 314.597918 153.966638 315.436563 153.127992 
C 316.275209 152.289346 316.746422 151.151739 316.746422 149.965714 
C 316.746422 148.77969 316.275209 147.642082 315.436563 146.803437 
C 314.597918 145.964791 313.46031 145.493578 312.274286 145.493578 
C 311.088261 145.493578 309.950654 145.964791 309.112008 146.803437 
C 308.273362 147.642082 307.80215 148.77969 307.80215 149.965714 
C 307.80215 151.151739 308.273362 152.289346 309.112008 153.127992 
C 309.950654 153.966638 311.088261 154.43785 312.274286 154.43785 
z
" style="fill:#0000ff;stroke:#000000;"/>
    <path clip-path="url(#p825051827c)" d="M 207.051429 160.814993 
C 208.237453 160.814993 209.37506 160.343781 210.213706 159.505135 
C 211.052352 158.666489 211.523565 157.528881 211.523565 156.342857 
C 211.523565 155.156833 211.052352 154.019225 210.213706 153.180579 
C 209.37506 152.341934 208.237453 151.870721 207.051429 151.870721 
C 205.865404 151.870721 204.727797 152.341934 203.889151 153.180579 
C 203.050505 154.019225 202.579293 155.156833 202.579293 156.342857 
C 202.579293 157.528881 203.050505 158.666489 203.889151 159.505135 
C 204.727797 160.343781 205.865404 160.814993 207.051429 160.814993 
z
" style="fill:#0000ff;stroke:#000000;"/>
    <path clip-path="url(#p825051827c)" d="M 226.182857 179.946422 
C 227.368881 179.946422 228.506489 179.475209 229.345135 178.636563 
C 230.183781 177.797918 230.654993 176.66031 230.654993 175.474286 
C 230.654993 174.288261 230.183781 173.150654 229.345135 172.312008 
C 228.506489 171.473362 227.368881 171.00215 226.182857 171.00215 
C 224.996833 171.00215 223.859225 171.473362 223.020579 172.312008 
C 222.181934 173.150654 221.710721 174.288261 221.710721 175.474286 
C 221.710721 176.66031 222.181934 177.797918 223.020579 178.636563 
C 223.859225 179.475209 224.996833 179.946422 226.182857 179.946422 
z
" style="fill:#0000ff;stroke:#000000;"/>
    <path clip-path="url(#p825051827c)" d="M 264.445714 211.832136 
C 265.631739 211.832136 266.769346 211.360923 267.607992 210.522278 
C 268.446638 209.683632 268.91785 208.546024 268.91785 207.36 
C 268.91785 206.173976 268.446638 205.036368 267.607992 204.197722 
C 266.769346 203.359077 265.631739 202.887864 264.445714 202.887864 
C 263.25969 202.887864 262.122082 203.359077 261.283437 204.197722 
C 260.444791 205.036368 259.973578 206.173976 259.973578 207.36 
C 259.973578 208.546024 260.444791 209.683632 261.283437 210.522278 
C 262.122082 211.360923 263.25969 211.832136 264.445714 211.832136 
z
" style="fill:#0000ff;stroke:#000000;"/>
    <path clip-path="url(#p825051827c)" d="M 207.051429 192.700707 
C 208.237453 192.700707 209.37506 192.229495 210.213706 191.390849 
C 211.052352 190.552203 211.523565 189.414596 211.523565 188.228571 
C 211.523565 187.042547 211.052352 185.90494 210.213706 185.066294 
C 209.37506 184.227648 208.237453 183.756435 207.051429 183.756435 
C 205.865404 183.756435 204.727797 184.227648 203.889151 185.066294 
C 203.050505 185.90494 202.579293 187.042547 202.579293 188.228571 
C 202.579293 189.414596 203.050505 190.552203 203.889151 191.390849 
C 204.727797 192.229495 205.865404 192.700707 207.051429 192.700707 
z
" style="fill:#0000ff;stroke:#000000;"/>
    <path clip-path="url(#p825051827c)" d="M 235.748571 148.060707 
C 236.934596 148.060707 238.072203 147.589495 238.910849 146.750849 
C 239.749495 145.912203 240.220707 144.774596 240.220707 143.588571 
C 240.220707 142.402547 239.749495 141.26494 238.910849 140.426294 
C 238.072203 139.587648 236.934596 139.116435 235.748571 139.116435 
C 234.562547 139.116435 233.42494 139.587648 232.586294 140.426294 
C 231.747648 141.26494 231.276435 142.402547 231.276435 143.588571 
C 231.276435 144.774596 231.747648 145.912203 232.586294 146.750849 
C 233.42494 147.589495 234.562547 148.060707 235.748571 148.060707 
z
" style="fill:#0000ff;stroke:#000000;"/>
    <path clip-path="url(#p825051827c)" d="M 254.88 173.569279 
C 256.066024 173.569279 257.203632 173.098066 258.042278 172.259421 
C 258.880923 171.420775 259.352136 170.283167 259.352136 169.097143 
C 259.352136 167.911119 258.880923 166.773511 258.042278 165.934865 
C 257.203632 165.096219 256.066024 164.625007 254.88 164.625007 
C 253.693976 164.625007 252.556368 165.096219 251.717722 165.934865 
C 250.879077 166.773511 250.407864 167.911119 250.407864 169.097143 
C 250.407864 170.283167 250.879077 171.420775 251.717722 172.259421 
C 252.556368 173.098066 253.693976 173.569279 254.88 173.569279 
z
" style="fill:#0000ff;stroke:#000000;"/>
    <path clip-path="url(#p825051827c)" d="M 274.011429 192.700707 
C 275.197453 192.700707 276.33506 192.229495 277.173706 191.390849 
C 278.012352 190.552203 278.483565 189.414596 278.483565 188.228571 
C 278.483565 187.042547 278.012352 185.90494 277.173706 185.066294 
C 276.33506 184.227648 275.197453 183.756435 274.011429 183.756435 
C 272.825404 183.756435 271.687797 184.227648 270.849151 185.066294 
C 270.010505 185.90494 269.539293 187.042547 269.539293 188.228571 
C 269.539293 189.414596 270.010505 190.552203 270.849151 191.390849 
C 271.687797 192.229495 272.825404 192.700707 274.011429 192.700707 
z
" style="fill:#0000ff;stroke:#000000;"/>
    <path clip-path="url(#p825051827c)" d="M 254.88 173.569279 
C 256.066024 173.569279 257.203632 173.098066 258.042278 172.259421 
C 258.880923 171.420775 259.352136 170.283167 259.352136 169.097143 
C 259.352136 167.911119 258.880923 166.773511 258.042278 165.934865 
C 257.203632 165.096219 256.066024 164.625007 254.88 164.625007 
C 253.693976 164.625007 252.556368 165.096219 251.717722 165.934865 
C 250.879077 166.773511 250.407864 167.911119 250.407864 169.097143 
C 250.407864 170.283167 250.879077 171.420775 251.717722 172.259421 
C 252.556368 173.098066 253.693976 173.569279 254.88 173.569279 
z
" style="fill:#0000ff;stroke:#000000;"/>
    <path clip-path="url(#p825051827c)" d="M 283.577143 167.192136 
C 284.763167 167.192136 285.900775 166.720923 286.739421 165.882278 
C 287.578066 165.043632 288.049279 163.906024 288.049279 162.72 
C 288.049279 161.533976 287.578066 160.396368 286.739421 159.557722 
C 285.900775 158.719077 284.763167 158.247864 283.577143 158.247864 
C 282.391119 158.247864 281.253511 158.719077 280.414865 159.557722 
C 279.576219 160.396368 279.105007 161.533976 279.105007 162.72 
C 279.105007 163.906024 279.576219 165.043632 280.414865 165.882278 
C 281.253511 166.720923 282.391119 167.192136 283.577143 167.192136 
z
" style="fill:#0000ff;stroke:#000000;"/>
    <path clip-path="url(#p825051827c)" d="M 302.708571 160.814993 
C 303.894596 160.814993 305.032203 160.343781 305.870849 159.505135 
C 306.709495 158.666489 307.180707 157.528881 307.180707 156.342857 
C 307.180707 155.156833 306.709495 154.019225 305.870849 153.180579 
C 305.032203 152.341934 303.894596 151.870721 302.708571 151.870721 
C 301.522547 151.870721 300.38494 152.341934 299.546294 153.180579 
C 298.707648 154.019225 298.236435 155.156833 298.236435 156.342857 
C 298.236435 157.528881 298.707648 158.666489 299.546294 159.505135 
C 300.38494 160.343781 301.522547 160.814993 302.708571 160.814993 
z
" style="fill:#0000ff;stroke:#000000;"/>
    <path clip-path="url(#p825051827c)" d="M 321.84 173.569279 
C 323.026024 173.569279 324.163632 173.098066 325.002278 172.259421 
C 325.840923 171.420775 326.312136 170.283167 326.312136 169.097143 
C 326.312136 167.911119 325.840923 166.773511 325.002278 165.934865 
C 324.163632 165.096219 323.026024 164.625007 321.84 164.625007 
C 320.653976 164.625007 319.516368 165.096219 318.677722 165.934865 
C 317.839077 166.773511 317.367864 167.911119 317.367864 169.097143 
C 317.367864 170.283167 317.839077 171.420775 318.677722 172.259421 
C 319.516368 173.098066 320.653976 173.569279 321.84 173.569279 
z
" style="fill:#0000ff;stroke:#000000;"/>
    <path clip-path="url(#p825051827c)" d="M 312.274286 160.814993 
C 313.46031 160.814993 314.597918 160.343781 315.436563 159.505135 
C 316.275209 158.666489 316.746422 157.528881 316.746422 156.342857 
C 316.746422 155.156833 316.275209 154.019225 315.436563 153.180579 
C 314.597918 152.341934 313.46031 151.870721 312.274286 151.870721 
C 311.088261 151.870721 309.950654 152.341934 309.112008 153.180579 
C 308.273362 154.019225 307.80215 155.156833 307.80215 156.342857 
C 307.80215 157.528881 308.273362 158.666489 309.112008 159.505135 
C 309.950654 160.343781 311.088261 160.814993 312.274286 160.814993 
z
" style="fill:#0000ff;stroke:#000000;"/>
    <path clip-path="url(#p825051827c)" d="M 245.314286 167.192136 
C 246.50031 167.192136 247.637918 166.720923 248.476563 165.882278 
C 249.315209 165.043632 249.786422 163.906024 249.786422 162.72 
C 249.786422 161.533976 249.315209 160.396368 248.476563 159.557722 
C 247.637918 158.719077 246.50031 158.247864 245.314286 158.247864 
C 244.128261 158.247864 242.990654 158.719077 242.152008 159.557722 
C 241.313362 160.396368 240.84215 161.533976 240.84215 162.72 
C 240.84215 163.906024 241.313362 165.043632 242.152008 165.882278 
C 242.990654 166.720923 244.128261 167.192136 245.314286 167.192136 
z
" style="fill:#0000ff;stroke:#000000;"/>
    <path clip-path="url(#p825051827c)" d="M 216.617143 186.323565 
C 217.803167 186.323565 218.940775 185.852352 219.779421 185.013706 
C 220.618066 184.17506 221.089279 183.037453 221.089279 181.851429 
C 221.089279 180.665404 220.618066 179.527797 219.779421 178.689151 
C 218.940775 177.850505 217.803167 177.379293 216.617143 177.379293 
C 215.431119 177.379293 214.293511 177.850505 213.454865 178.689151 
C 212.616219 179.527797 212.145007 180.665404 212.145007 181.851429 
C 212.145007 183.037453 212.616219 184.17506 213.454865 185.013706 
C 214.293511 185.852352 215.431119 186.323565 216.617143 186.323565 
z
" style="fill:#0000ff;stroke:#000000;"/>
    <path clip-path="url(#p825051827c)" d="M 197.485714 199.07785 
C 198.671739 199.07785 199.809346 198.606638 200.647992 197.767992 
C 201.486638 196.929346 201.95785 195.791739 201.95785 194.605714 
C 201.95785 193.41969 201.486638 192.282082 200.647992 191.443437 
C 199.809346 190.604791 198.671739 190.133578 197.485714 190.133578 
C 196.29969 190.133578 195.162082 190.604791 194.323437 191.443437 
C 193.484791 192.282082 193.013578 193.41969 193.013578 194.605714 
C 193.013578 195.791739 193.484791 196.929346 194.323437 197.767992 
C 195.162082 198.606638 196.29969 199.07785 197.485714 199.07785 
z
" style="fill:#0000ff;stroke:#000000;"/>
    <path clip-path="url(#p825051827c)" d="M 197.485714 199.07785 
C 198.671739 199.07785 199.809346 198.606638 200.647992 197.767992 
C 201.486638 196.929346 201.95785 195.791739 201.95785 194.605714 
C 201.95785 193.41969 201.486638 192.282082 200.647992 191.443437 
C 199.809346 190.604791 198.671739 190.133578 197.485714 190.133578 
C 196.29969 190.133578 195.162082 190.604791 194.323437 191.443437 
C 193.484791 192.282082 193.013578 193.41969 193.013578 194.605714 
C 193.013578 195.791739 193.484791 196.929346 194.323437 197.767992 
C 195.162082 198.606638 196.29969 199.07785 197.485714 199.07785 
z
" style="fill:#0000ff;stroke:#000000;"/>
    <path clip-path="url(#p825051827c)" d="M 226.182857 179.946422 
C 227.368881 179.946422 228.506489 179.475209 229.345135 178.636563 
C 230.183781 177.797918 230.654993 176.66031 230.654993 175.474286 
C 230.654993 174.288261 230.183781 173.150654 229.345135 172.312008 
C 228.506489 171.473362 227.368881 171.00215 226.182857 171.00215 
C 224.996833 171.00215 223.859225 171.473362 223.020579 172.312008 
C 222.181934 173.150654 221.710721 174.288261 221.710721 175.474286 
C 221.710721 176.66031 222.181934 177.797918 223.020579 178.636563 
C 223.859225 179.475209 224.996833 179.946422 226.182857 179.946422 
z
" style="fill:#0000ff;stroke:#000000;"/>
    <path clip-path="url(#p825051827c)" d="M 245.314286 179.946422 
C 246.50031 179.946422 247.637918 179.475209 248.476563 178.636563 
C 249.315209 177.797918 249.786422 176.66031 249.786422 175.474286 
C 249.786422 174.288261 249.315209 173.150654 248.476563 172.312008 
C 247.637918 171.473362 246.50031 171.00215 245.314286 171.00215 
C 244.128261 171.00215 242.990654 171.473362 242.152008 172.312008 
C 241.313362 173.150654 240.84215 174.288261 240.84215 175.474286 
C 240.84215 176.66031 241.313362 177.797918 242.152008 178.636563 
C 242.990654 179.475209 244.128261 179.946422 245.314286 179.946422 
z
" style="fill:#0000ff;stroke:#000000;"/>
    <path clip-path="url(#p825051827c)" d="M 187.92 160.814993 
C 189.106024 160.814993 190.243632 160.343781 191.082278 159.505135 
C 191.920923 158.666489 192.392136 157.528881 192.392136 156.342857 
C 192.392136 155.156833 191.920923 154.019225 191.082278 153.180579 
C 190.243632 152.341934 189.106024 151.870721 187.92 151.870721 
C 186.733976 151.870721 185.596368 152.341934 184.757722 153.180579 
C 183.919077 154.019225 183.447864 155.156833 183.447864 156.342857 
C 183.447864 157.528881 183.919077 158.666489 184.757722 159.505135 
C 185.596368 160.343781 186.733976 160.814993 187.92 160.814993 
z
" style="fill:#0000ff;stroke:#000000;"/>
    <path clip-path="url(#p825051827c)" d="M 245.314286 135.306422 
C 246.50031 135.306422 247.637918 134.835209 248.476563 133.996563 
C 249.315209 133.157918 249.786422 132.02031 249.786422 130.834286 
C 249.786422 129.648261 249.315209 128.510654 248.476563 127.672008 
C 247.637918 126.833362 246.50031 126.36215 245.314286 126.36215 
C 244.128261 126.36215 242.990654 126.833362 242.152008 127.672008 
C 241.313362 128.510654 240.84215 129.648261 240.84215 130.834286 
C 240.84215 132.02031 241.313362 133.157918 242.152008 133.996563 
C 242.990654 134.835209 244.128261 135.306422 245.314286 135.306422 
z
" style="fill:#0000ff;stroke:#000000;"/>
    <path clip-path="url(#p825051827c)" d="M 312.274286 154.43785 
C 313.46031 154.43785 314.597918 153.966638 315.436563 153.127992 
C 316.275209 152.289346 316.746422 151.151739 316.746422 149.965714 
C 316.746422 148.77969 316.275209 147.642082 315.436563 146.803437 
C 314.597918 145.964791 313.46031 145.493578 312.274286 145.493578 
C 311.088261 145.493578 309.950654 145.964791 309.112008 146.803437 
C 308.273362 147.642082 307.80215 148.77969 307.80215 149.965714 
C 307.80215 151.151739 308.273362 152.289346 309.112008 153.127992 
C 309.950654 153.966638 311.088261 154.43785 312.274286 154.43785 
z
" style="fill:#0000ff;stroke:#000000;"/>
    <path clip-path="url(#p825051827c)" d="M 274.011429 205.454993 
C 275.197453 205.454993 276.33506 204.983781 277.173706 204.145135 
C 278.012352 203.306489 278.483565 202.168881 278.483565 200.982857 
C 278.483565 199.796833 278.012352 198.659225 277.173706 197.820579 
C 276.33506 196.981934 275.197453 196.510721 274.011429 196.510721 
C 272.825404 196.510721 271.687797 196.981934 270.849151 197.820579 
C 270.010505 198.659225 269.539293 199.796833 269.539293 200.982857 
C 269.539293 202.168881 270.010505 203.306489 270.849151 204.145135 
C 271.687797 204.983781 272.825404 205.454993 274.011429 205.454993 
z
" style="fill:#0000ff;stroke:#000000;"/>
    <path clip-path="url(#p825051827c)" d="M 207.051429 160.814993 
C 208.237453 160.814993 209.37506 160.343781 210.213706 159.505135 
C 211.052352 158.666489 211.523565 157.528881 211.523565 156.342857 
C 211.523565 155.156833 211.052352 154.019225 210.213706 153.180579 
C 209.37506 152.341934 208.237453 151.870721 207.051429 151.870721 
C 205.865404 151.870721 204.727797 152.341934 203.889151 153.180579 
C 203.050505 154.019225 202.579293 155.156833 202.579293 156.342857 
C 202.579293 157.528881 203.050505 158.666489 203.889151 159.505135 
C 204.727797 160.343781 205.865404 160.814993 207.051429 160.814993 
z
" style="fill:#0000ff;stroke:#000000;"/>
    <path clip-path="url(#p825051827c)" d="M 197.485714 192.700707 
C 198.671739 192.700707 199.809346 192.229495 200.647992 191.390849 
C 201.486638 190.552203 201.95785 189.414596 201.95785 188.228571 
C 201.95785 187.042547 201.486638 185.90494 200.647992 185.066294 
C 199.809346 184.227648 198.671739 183.756435 197.485714 183.756435 
C 196.29969 183.756435 195.162082 184.227648 194.323437 185.066294 
C 193.484791 185.90494 193.013578 187.042547 193.013578 188.228571 
C 193.013578 189.414596 193.484791 190.552203 194.323437 191.390849 
C 195.162082 192.229495 196.29969 192.700707 197.485714 192.700707 
z
" style="fill:#0000ff;stroke:#000000;"/>
    <path clip-path="url(#p825051827c)" d="M 197.485714 186.323565 
C 198.671739 186.323565 199.809346 185.852352 200.647992 185.013706 
C 201.486638 184.17506 201.95785 183.037453 201.95785 181.851429 
C 201.95785 180.665404 201.486638 179.527797 200.647992 178.689151 
C 199.809346 177.850505 198.671739 177.379293 197.485714 177.379293 
C 196.29969 177.379293 195.162082 177.850505 194.323437 178.689151 
C 193.484791 179.527797 193.013578 180.665404 193.013578 181.851429 
C 193.013578 183.037453 193.484791 184.17506 194.323437 185.013706 
C 195.162082 185.852352 196.29969 186.323565 197.485714 186.323565 
z
" style="fill:#0000ff;stroke:#000000;"/>
    <path clip-path="url(#p825051827c)" d="M 254.88 160.814993 
C 256.066024 160.814993 257.203632 160.343781 258.042278 159.505135 
C 258.880923 158.666489 259.352136 157.528881 259.352136 156.342857 
C 259.352136 155.156833 258.880923 154.019225 258.042278 153.180579 
C 257.203632 152.341934 256.066024 151.870721 254.88 151.870721 
C 253.693976 151.870721 252.556368 152.341934 251.717722 153.180579 
C 250.879077 154.019225 250.407864 155.156833 250.407864 156.342857 
C 250.407864 157.528881 250.879077 158.666489 251.717722 159.505135 
C 252.556368 160.343781 253.693976 160.814993 254.88 160.814993 
z
" style="fill:#0000ff;stroke:#000000;"/>
    <path clip-path="url(#p825051827c)" d="M 226.182857 186.323565 
C 227.368881 186.323565 228.506489 185.852352 229.345135 185.013706 
C 230.183781 184.17506 230.654993 183.037453 230.654993 181.851429 
C 230.654993 180.665404 230.183781 179.527797 229.345135 178.689151 
C 228.506489 177.850505 227.368881 177.379293 226.182857 177.379293 
C 224.996833 177.379293 223.859225 177.850505 223.020579 178.689151 
C 222.181934 179.527797 221.710721 180.665404 221.710721 181.851429 
C 221.710721 183.037453 222.181934 184.17506 223.020579 185.013706 
C 223.859225 185.852352 224.996833 186.323565 226.182857 186.323565 
z
" style="fill:#0000ff;stroke:#000000;"/>
    <path clip-path="url(#p825051827c)" d="M 149.657143 205.454993 
C 150.843167 205.454993 151.980775 204.983781 152.819421 204.145135 
C 153.658066 203.306489 154.129279 202.168881 154.129279 200.982857 
C 154.129279 199.796833 153.658066 198.659225 152.819421 197.820579 
C 151.980775 196.981934 150.843167 196.510721 149.657143 196.510721 
C 148.471119 196.510721 147.333511 196.981934 146.494865 197.820579 
C 145.656219 198.659225 145.185007 199.796833 145.185007 200.982857 
C 145.185007 202.168881 145.656219 203.306489 146.494865 204.145135 
C 147.333511 204.983781 148.471119 205.454993 149.657143 205.454993 
z
" style="fill:#0000ff;stroke:#000000;"/>
    <path clip-path="url(#p825051827c)" d="M 207.051429 179.946422 
C 208.237453 179.946422 209.37506 179.475209 210.213706 178.636563 
C 211.052352 177.797918 211.523565 176.66031 211.523565 175.474286 
C 211.523565 174.288261 211.052352 173.150654 210.213706 172.312008 
C 209.37506 171.473362 208.237453 171.00215 207.051429 171.00215 
C 205.865404 171.00215 204.727797 171.473362 203.889151 172.312008 
C 203.050505 173.150654 202.579293 174.288261 202.579293 175.474286 
C 202.579293 176.66031 203.050505 177.797918 203.889151 178.636563 
C 204.727797 179.475209 205.865404 179.946422 207.051429 179.946422 
z
" style="fill:#0000ff;stroke:#000000;"/>
    <path clip-path="url(#p825051827c)" d="M 216.617143 160.814993 
C 217.803167 160.814993 218.940775 160.343781 219.779421 159.505135 
C 220.618066 158.666489 221.089279 157.528881 221.089279 156.342857 
C 221.089279 155.156833 220.618066 154.019225 219.779421 153.180579 
C 218.940775 152.341934 217.803167 151.870721 216.617143 151.870721 
C 215.431119 151.870721 214.293511 152.341934 213.454865 153.180579 
C 212.616219 154.019225 212.145007 155.156833 212.145007 156.342857 
C 212.145007 157.528881 212.616219 158.666489 213.454865 159.505135 
C 214.293511 160.343781 215.431119 160.814993 216.617143 160.814993 
z
" style="fill:#0000ff;stroke:#000000;"/>
    <path clip-path="url(#p825051827c)" d="M 216.617143 167.192136 
C 217.803167 167.192136 218.940775 166.720923 219.779421 165.882278 
C 220.618066 165.043632 221.089279 163.906024 221.089279 162.72 
C 221.089279 161.533976 220.618066 160.396368 219.779421 159.557722 
C 218.940775 158.719077 217.803167 158.247864 216.617143 158.247864 
C 215.431119 158.247864 214.293511 158.719077 213.454865 159.557722 
C 212.616219 160.396368 212.145007 161.533976 212.145007 162.72 
C 212.145007 163.906024 212.616219 165.043632 213.454865 165.882278 
C 214.293511 166.720923 215.431119 167.192136 216.617143 167.192136 
z
" style="fill:#0000ff;stroke:#000000;"/>
    <path clip-path="url(#p825051827c)" d="M 264.445714 167.192136 
C 265.631739 167.192136 266.769346 166.720923 267.607992 165.882278 
C 268.446638 165.043632 268.91785 163.906024 268.91785 162.72 
C 268.91785 161.533976 268.446638 160.396368 267.607992 159.557722 
C 266.769346 158.719077 265.631739 158.247864 264.445714 158.247864 
C 263.25969 158.247864 262.122082 158.719077 261.283437 159.557722 
C 260.444791 160.396368 259.973578 161.533976 259.973578 162.72 
C 259.973578 163.906024 260.444791 165.043632 261.283437 165.882278 
C 262.122082 166.720923 263.25969 167.192136 264.445714 167.192136 
z
" style="fill:#0000ff;stroke:#000000;"/>
    <path clip-path="url(#p825051827c)" d="M 159.222857 192.700707 
C 160.408881 192.700707 161.546489 192.229495 162.385135 191.390849 
C 163.223781 190.552203 163.694993 189.414596 163.694993 188.228571 
C 163.694993 187.042547 163.223781 185.90494 162.385135 185.066294 
C 161.546489 184.227648 160.408881 183.756435 159.222857 183.756435 
C 158.036833 183.756435 156.899225 184.227648 156.060579 185.066294 
C 155.221934 185.90494 154.750721 187.042547 154.750721 188.228571 
C 154.750721 189.414596 155.221934 190.552203 156.060579 191.390849 
C 156.899225 192.229495 158.036833 192.700707 159.222857 192.700707 
z
" style="fill:#0000ff;stroke:#000000;"/>
    <path clip-path="url(#p825051827c)" d="M 216.617143 173.569279 
C 217.803167 173.569279 218.940775 173.098066 219.779421 172.259421 
C 220.618066 171.420775 221.089279 170.283167 221.089279 169.097143 
C 221.089279 167.911119 220.618066 166.773511 219.779421 165.934865 
C 218.940775 165.096219 217.803167 164.625007 216.617143 164.625007 
C 215.431119 164.625007 214.293511 165.096219 213.454865 165.934865 
C 212.616219 166.773511 212.145007 167.911119 212.145007 169.097143 
C 212.145007 170.283167 212.616219 171.420775 213.454865 172.259421 
C 214.293511 173.098066 215.431119 173.569279 216.617143 173.569279 
z
" style="fill:#0000ff;stroke:#000000;"/>
   </g>
   <g id="patch_3">
    <path d="M 54 28.8 
L 388.8 28.8 
" style="fill:none;stroke:#000000;stroke-linecap:square;stroke-linejoin:miter;"/>
   </g>
   <g id="patch_4">
    <path d="M 388.8 252 
L 388.8 28.8 
" style="fill:none;stroke:#000000;stroke-linecap:square;stroke-linejoin:miter;"/>
   </g>
   <g id="patch_5">
    <path d="M 54 252 
L 388.8 252 
" style="fill:none;stroke:#000000;stroke-linecap:square;stroke-linejoin:miter;"/>
   </g>
   <g id="patch_6">
    <path d="M 54 252 
L 54 28.8 
" style="fill:none;stroke:#000000;stroke-linecap:square;stroke-linejoin:miter;"/>
   </g>
   <g id="matplotlib.axis_1">
    <g id="xtick_1">
     <g id="line2d_1">
      <defs>
       <path d="M 0 0 
L 0 -4 
" id="m2e6c6750f3" style="stroke:#000000;stroke-width:0.5;"/>
      </defs>
      <g>
       <use style="stroke:#000000;stroke-width:0.5;" x="54.0" xlink:href="#m2e6c6750f3" y="252.0"/>
      </g>
     </g>
     <g id="line2d_2">
      <defs>
       <path d="M 0 0 
L 0 4 
" id="mf72fd8f402" style="stroke:#000000;stroke-width:0.5;"/>
      </defs>
      <g>
       <use style="stroke:#000000;stroke-width:0.5;" x="54.0" xlink:href="#mf72fd8f402" y="28.8"/>
      </g>
     </g>
     <g id="text_1">
      <!-- 4.0 -->
      <defs>
       <path d="M 31.78125 66.40625 
Q 24.171875 66.40625 20.328125 58.90625 
Q 16.5 51.421875 16.5 36.375 
Q 16.5 21.390625 20.328125 13.890625 
Q 24.171875 6.390625 31.78125 6.390625 
Q 39.453125 6.390625 43.28125 13.890625 
Q 47.125 21.390625 47.125 36.375 
Q 47.125 51.421875 43.28125 58.90625 
Q 39.453125 66.40625 31.78125 66.40625 
M 31.78125 74.21875 
Q 44.046875 74.21875 50.515625 64.515625 
Q 56.984375 54.828125 56.984375 36.375 
Q 56.984375 17.96875 50.515625 8.265625 
Q 44.046875 -1.421875 31.78125 -1.421875 
Q 19.53125 -1.421875 13.0625 8.265625 
Q 6.59375 17.96875 6.59375 36.375 
Q 6.59375 54.828125 13.0625 64.515625 
Q 19.53125 74.21875 31.78125 74.21875 
" id="BitstreamVeraSans-Roman-30"/>
       <path d="M 10.6875 12.40625 
L 21 12.40625 
L 21 0 
L 10.6875 0 
z
" id="BitstreamVeraSans-Roman-2e"/>
       <path d="M 37.796875 64.3125 
L 12.890625 25.390625 
L 37.796875 25.390625 
z
M 35.203125 72.90625 
L 47.609375 72.90625 
L 47.609375 25.390625 
L 58.015625 25.390625 
L 58.015625 17.1875 
L 47.609375 17.1875 
L 47.609375 0 
L 37.796875 0 
L 37.796875 17.1875 
L 4.890625 17.1875 
L 4.890625 26.703125 
z
" id="BitstreamVeraSans-Roman-34"/>
      </defs>
      <g transform="translate(46.0484375 263.5984375)scale(0.1 -0.1)">
       <use xlink:href="#BitstreamVeraSans-Roman-34"/>
       <use x="63.623046875" xlink:href="#BitstreamVeraSans-Roman-2e"/>
       <use x="95.41015625" xlink:href="#BitstreamVeraSans-Roman-30"/>
      </g>
     </g>
    </g>
    <g id="xtick_2">
     <g id="line2d_3">
      <g>
       <use style="stroke:#000000;stroke-width:0.5;" x="101.828571429" xlink:href="#m2e6c6750f3" y="252.0"/>
      </g>
     </g>
     <g id="line2d_4">
      <g>
       <use style="stroke:#000000;stroke-width:0.5;" x="101.828571429" xlink:href="#mf72fd8f402" y="28.8"/>
      </g>
     </g>
     <g id="text_2">
      <!-- 4.5 -->
      <defs>
       <path d="M 10.796875 72.90625 
L 49.515625 72.90625 
L 49.515625 64.59375 
L 19.828125 64.59375 
L 19.828125 46.734375 
Q 21.96875 47.46875 24.109375 47.828125 
Q 26.265625 48.1875 28.421875 48.1875 
Q 40.625 48.1875 47.75 41.5 
Q 54.890625 34.8125 54.890625 23.390625 
Q 54.890625 11.625 47.5625 5.09375 
Q 40.234375 -1.421875 26.90625 -1.421875 
Q 22.3125 -1.421875 17.546875 -0.640625 
Q 12.796875 0.140625 7.71875 1.703125 
L 7.71875 11.625 
Q 12.109375 9.234375 16.796875 8.0625 
Q 21.484375 6.890625 26.703125 6.890625 
Q 35.15625 6.890625 40.078125 11.328125 
Q 45.015625 15.765625 45.015625 23.390625 
Q 45.015625 31 40.078125 35.4375 
Q 35.15625 39.890625 26.703125 39.890625 
Q 22.75 39.890625 18.8125 39.015625 
Q 14.890625 38.140625 10.796875 36.28125 
z
" id="BitstreamVeraSans-Roman-35"/>
      </defs>
      <g transform="translate(93.8770089286 263.5984375)scale(0.1 -0.1)">
       <use xlink:href="#BitstreamVeraSans-Roman-34"/>
       <use x="63.623046875" xlink:href="#BitstreamVeraSans-Roman-2e"/>
       <use x="95.41015625" xlink:href="#BitstreamVeraSans-Roman-35"/>
      </g>
     </g>
    </g>
    <g id="xtick_3">
     <g id="line2d_5">
      <g>
       <use style="stroke:#000000;stroke-width:0.5;" x="149.657142857" xlink:href="#m2e6c6750f3" y="252.0"/>
      </g>
     </g>
     <g id="line2d_6">
      <g>
       <use style="stroke:#000000;stroke-width:0.5;" x="149.657142857" xlink:href="#mf72fd8f402" y="28.8"/>
      </g>
     </g>
     <g id="text_3">
      <!-- 5.0 -->
      <g transform="translate(141.705580357 263.5984375)scale(0.1 -0.1)">
       <use xlink:href="#BitstreamVeraSans-Roman-35"/>
       <use x="63.623046875" xlink:href="#BitstreamVeraSans-Roman-2e"/>
       <use x="95.41015625" xlink:href="#BitstreamVeraSans-Roman-30"/>
      </g>
     </g>
    </g>
    <g id="xtick_4">
     <g id="line2d_7">
      <g>
       <use style="stroke:#000000;stroke-width:0.5;" x="197.485714286" xlink:href="#m2e6c6750f3" y="252.0"/>
      </g>
     </g>
     <g id="line2d_8">
      <g>
       <use style="stroke:#000000;stroke-width:0.5;" x="197.485714286" xlink:href="#mf72fd8f402" y="28.8"/>
      </g>
     </g>
     <g id="text_4">
      <!-- 5.5 -->
      <g transform="translate(189.534151786 263.5984375)scale(0.1 -0.1)">
       <use xlink:href="#BitstreamVeraSans-Roman-35"/>
       <use x="63.623046875" xlink:href="#BitstreamVeraSans-Roman-2e"/>
       <use x="95.41015625" xlink:href="#BitstreamVeraSans-Roman-35"/>
      </g>
     </g>
    </g>
    <g id="xtick_5">
     <g id="line2d_9">
      <g>
       <use style="stroke:#000000;stroke-width:0.5;" x="245.314285714" xlink:href="#m2e6c6750f3" y="252.0"/>
      </g>
     </g>
     <g id="line2d_10">
      <g>
       <use style="stroke:#000000;stroke-width:0.5;" x="245.314285714" xlink:href="#mf72fd8f402" y="28.8"/>
      </g>
     </g>
     <g id="text_5">
      <!-- 6.0 -->
      <defs>
       <path d="M 33.015625 40.375 
Q 26.375 40.375 22.484375 35.828125 
Q 18.609375 31.296875 18.609375 23.390625 
Q 18.609375 15.53125 22.484375 10.953125 
Q 26.375 6.390625 33.015625 6.390625 
Q 39.65625 6.390625 43.53125 10.953125 
Q 47.40625 15.53125 47.40625 23.390625 
Q 47.40625 31.296875 43.53125 35.828125 
Q 39.65625 40.375 33.015625 40.375 
M 52.59375 71.296875 
L 52.59375 62.3125 
Q 48.875 64.0625 45.09375 64.984375 
Q 41.3125 65.921875 37.59375 65.921875 
Q 27.828125 65.921875 22.671875 59.328125 
Q 17.53125 52.734375 16.796875 39.40625 
Q 19.671875 43.65625 24.015625 45.921875 
Q 28.375 48.1875 33.59375 48.1875 
Q 44.578125 48.1875 50.953125 41.515625 
Q 57.328125 34.859375 57.328125 23.390625 
Q 57.328125 12.15625 50.6875 5.359375 
Q 44.046875 -1.421875 33.015625 -1.421875 
Q 20.359375 -1.421875 13.671875 8.265625 
Q 6.984375 17.96875 6.984375 36.375 
Q 6.984375 53.65625 15.1875 63.9375 
Q 23.390625 74.21875 37.203125 74.21875 
Q 40.921875 74.21875 44.703125 73.484375 
Q 48.484375 72.75 52.59375 71.296875 
" id="BitstreamVeraSans-Roman-36"/>
      </defs>
      <g transform="translate(237.362723214 263.5984375)scale(0.1 -0.1)">
       <use xlink:href="#BitstreamVeraSans-Roman-36"/>
       <use x="63.623046875" xlink:href="#BitstreamVeraSans-Roman-2e"/>
       <use x="95.41015625" xlink:href="#BitstreamVeraSans-Roman-30"/>
      </g>
     </g>
    </g>
    <g id="xtick_6">
     <g id="line2d_11">
      <g>
       <use style="stroke:#000000;stroke-width:0.5;" x="293.142857143" xlink:href="#m2e6c6750f3" y="252.0"/>
      </g>
     </g>
     <g id="line2d_12">
      <g>
       <use style="stroke:#000000;stroke-width:0.5;" x="293.142857143" xlink:href="#mf72fd8f402" y="28.8"/>
      </g>
     </g>
     <g id="text_6">
      <!-- 6.5 -->
      <g transform="translate(285.191294643 263.5984375)scale(0.1 -0.1)">
       <use xlink:href="#BitstreamVeraSans-Roman-36"/>
       <use x="63.623046875" xlink:href="#BitstreamVeraSans-Roman-2e"/>
       <use x="95.41015625" xlink:href="#BitstreamVeraSans-Roman-35"/>
      </g>
     </g>
    </g>
    <g id="xtick_7">
     <g id="line2d_13">
      <g>
       <use style="stroke:#000000;stroke-width:0.5;" x="340.971428571" xlink:href="#m2e6c6750f3" y="252.0"/>
      </g>
     </g>
     <g id="line2d_14">
      <g>
       <use style="stroke:#000000;stroke-width:0.5;" x="340.971428571" xlink:href="#mf72fd8f402" y="28.8"/>
      </g>
     </g>
     <g id="text_7">
      <!-- 7.0 -->
      <defs>
       <path d="M 8.203125 72.90625 
L 55.078125 72.90625 
L 55.078125 68.703125 
L 28.609375 0 
L 18.3125 0 
L 43.21875 64.59375 
L 8.203125 64.59375 
z
" id="BitstreamVeraSans-Roman-37"/>
      </defs>
      <g transform="translate(333.019866071 263.5984375)scale(0.1 -0.1)">
       <use xlink:href="#BitstreamVeraSans-Roman-37"/>
       <use x="63.623046875" xlink:href="#BitstreamVeraSans-Roman-2e"/>
       <use x="95.41015625" xlink:href="#BitstreamVeraSans-Roman-30"/>
      </g>
     </g>
    </g>
    <g id="xtick_8">
     <g id="line2d_15">
      <g>
       <use style="stroke:#000000;stroke-width:0.5;" x="388.8" xlink:href="#m2e6c6750f3" y="252.0"/>
      </g>
     </g>
     <g id="line2d_16">
      <g>
       <use style="stroke:#000000;stroke-width:0.5;" x="388.8" xlink:href="#mf72fd8f402" y="28.8"/>
      </g>
     </g>
     <g id="text_8">
      <!-- 7.5 -->
      <g transform="translate(380.8484375 263.5984375)scale(0.1 -0.1)">
       <use xlink:href="#BitstreamVeraSans-Roman-37"/>
       <use x="63.623046875" xlink:href="#BitstreamVeraSans-Roman-2e"/>
       <use x="95.41015625" xlink:href="#BitstreamVeraSans-Roman-35"/>
      </g>
     </g>
    </g>
    <g id="text_9">
     <!-- sepal length -->
     <defs>
      <path id="BitstreamVeraSans-Roman-20"/>
      <path d="M 54.890625 33.015625 
L 54.890625 0 
L 45.90625 0 
L 45.90625 32.71875 
Q 45.90625 40.484375 42.875 44.328125 
Q 39.84375 48.1875 33.796875 48.1875 
Q 26.515625 48.1875 22.3125 43.546875 
Q 18.109375 38.921875 18.109375 30.90625 
L 18.109375 0 
L 9.078125 0 
L 9.078125 54.6875 
L 18.109375 54.6875 
L 18.109375 46.1875 
Q 21.34375 51.125 25.703125 53.5625 
Q 30.078125 56 35.796875 56 
Q 45.21875 56 50.046875 50.171875 
Q 54.890625 44.34375 54.890625 33.015625 
" id="BitstreamVeraSans-Roman-6e"/>
      <path d="M 18.3125 70.21875 
L 18.3125 54.6875 
L 36.8125 54.6875 
L 36.8125 47.703125 
L 18.3125 47.703125 
L 18.3125 18.015625 
Q 18.3125 11.328125 20.140625 9.421875 
Q 21.96875 7.515625 27.59375 7.515625 
L 36.8125 7.515625 
L 36.8125 0 
L 27.59375 0 
Q 17.1875 0 13.234375 3.875 
Q 9.28125 7.765625 9.28125 18.015625 
L 9.28125 47.703125 
L 2.6875 47.703125 
L 2.6875 54.6875 
L 9.28125 54.6875 
L 9.28125 70.21875 
z
" id="BitstreamVeraSans-Roman-74"/>
      <path d="M 9.421875 75.984375 
L 18.40625 75.984375 
L 18.40625 0 
L 9.421875 0 
z
" id="BitstreamVeraSans-Roman-6c"/>
      <path d="M 54.890625 33.015625 
L 54.890625 0 
L 45.90625 0 
L 45.90625 32.71875 
Q 45.90625 40.484375 42.875 44.328125 
Q 39.84375 48.1875 33.796875 48.1875 
Q 26.515625 48.1875 22.3125 43.546875 
Q 18.109375 38.921875 18.109375 30.90625 
L 18.109375 0 
L 9.078125 0 
L 9.078125 75.984375 
L 18.109375 75.984375 
L 18.109375 46.1875 
Q 21.34375 51.125 25.703125 53.5625 
Q 30.078125 56 35.796875 56 
Q 45.21875 56 50.046875 50.171875 
Q 54.890625 44.34375 54.890625 33.015625 
" id="BitstreamVeraSans-Roman-68"/>
      <path d="M 56.203125 29.59375 
L 56.203125 25.203125 
L 14.890625 25.203125 
Q 15.484375 15.921875 20.484375 11.0625 
Q 25.484375 6.203125 34.421875 6.203125 
Q 39.59375 6.203125 44.453125 7.46875 
Q 49.3125 8.734375 54.109375 11.28125 
L 54.109375 2.78125 
Q 49.265625 0.734375 44.1875 -0.34375 
Q 39.109375 -1.421875 33.890625 -1.421875 
Q 20.796875 -1.421875 13.15625 6.1875 
Q 5.515625 13.8125 5.515625 26.8125 
Q 5.515625 40.234375 12.765625 48.109375 
Q 20.015625 56 32.328125 56 
Q 43.359375 56 49.78125 48.890625 
Q 56.203125 41.796875 56.203125 29.59375 
M 47.21875 32.234375 
Q 47.125 39.59375 43.09375 43.984375 
Q 39.0625 48.390625 32.421875 48.390625 
Q 24.90625 48.390625 20.390625 44.140625 
Q 15.875 39.890625 15.1875 32.171875 
z
" id="BitstreamVeraSans-Roman-65"/>
      <path d="M 45.40625 27.984375 
Q 45.40625 37.75 41.375 43.109375 
Q 37.359375 48.484375 30.078125 48.484375 
Q 22.859375 48.484375 18.828125 43.109375 
Q 14.796875 37.75 14.796875 27.984375 
Q 14.796875 18.265625 18.828125 12.890625 
Q 22.859375 7.515625 30.078125 7.515625 
Q 37.359375 7.515625 41.375 12.890625 
Q 45.40625 18.265625 45.40625 27.984375 
M 54.390625 6.78125 
Q 54.390625 -7.171875 48.1875 -13.984375 
Q 42 -20.796875 29.203125 -20.796875 
Q 24.46875 -20.796875 20.265625 -20.09375 
Q 16.0625 -19.390625 12.109375 -17.921875 
L 12.109375 -9.1875 
Q 16.0625 -11.328125 19.921875 -12.34375 
Q 23.78125 -13.375 27.78125 -13.375 
Q 36.625 -13.375 41.015625 -8.765625 
Q 45.40625 -4.15625 45.40625 5.171875 
L 45.40625 9.625 
Q 42.625 4.78125 38.28125 2.390625 
Q 33.9375 0 27.875 0 
Q 17.828125 0 11.671875 7.65625 
Q 5.515625 15.328125 5.515625 27.984375 
Q 5.515625 40.671875 11.671875 48.328125 
Q 17.828125 56 27.875 56 
Q 33.9375 56 38.28125 53.609375 
Q 42.625 51.21875 45.40625 46.390625 
L 45.40625 54.6875 
L 54.390625 54.6875 
z
" id="BitstreamVeraSans-Roman-67"/>
      <path d="M 34.28125 27.484375 
Q 23.390625 27.484375 19.1875 25 
Q 14.984375 22.515625 14.984375 16.5 
Q 14.984375 11.71875 18.140625 8.90625 
Q 21.296875 6.109375 26.703125 6.109375 
Q 34.1875 6.109375 38.703125 11.40625 
Q 43.21875 16.703125 43.21875 25.484375 
L 43.21875 27.484375 
z
M 52.203125 31.203125 
L 52.203125 0 
L 43.21875 0 
L 43.21875 8.296875 
Q 40.140625 3.328125 35.546875 0.953125 
Q 30.953125 -1.421875 24.3125 -1.421875 
Q 15.921875 -1.421875 10.953125 3.296875 
Q 6 8.015625 6 15.921875 
Q 6 25.140625 12.171875 29.828125 
Q 18.359375 34.515625 30.609375 34.515625 
L 43.21875 34.515625 
L 43.21875 35.40625 
Q 43.21875 41.609375 39.140625 45 
Q 35.0625 48.390625 27.6875 48.390625 
Q 23 48.390625 18.546875 47.265625 
Q 14.109375 46.140625 10.015625 43.890625 
L 10.015625 52.203125 
Q 14.9375 54.109375 19.578125 55.046875 
Q 24.21875 56 28.609375 56 
Q 40.484375 56 46.34375 49.84375 
Q 52.203125 43.703125 52.203125 31.203125 
" id="BitstreamVeraSans-Roman-61"/>
      <path d="M 44.28125 53.078125 
L 44.28125 44.578125 
Q 40.484375 46.53125 36.375 47.5 
Q 32.28125 48.484375 27.875 48.484375 
Q 21.1875 48.484375 17.84375 46.4375 
Q 14.5 44.390625 14.5 40.28125 
Q 14.5 37.15625 16.890625 35.375 
Q 19.28125 33.59375 26.515625 31.984375 
L 29.59375 31.296875 
Q 39.15625 29.25 43.1875 25.515625 
Q 47.21875 21.78125 47.21875 15.09375 
Q 47.21875 7.46875 41.1875 3.015625 
Q 35.15625 -1.421875 24.609375 -1.421875 
Q 20.21875 -1.421875 15.453125 -0.5625 
Q 10.6875 0.296875 5.421875 2 
L 5.421875 11.28125 
Q 10.40625 8.6875 15.234375 7.390625 
Q 20.0625 6.109375 24.8125 6.109375 
Q 31.15625 6.109375 34.5625 8.28125 
Q 37.984375 10.453125 37.984375 14.40625 
Q 37.984375 18.0625 35.515625 20.015625 
Q 33.0625 21.96875 24.703125 23.78125 
L 21.578125 24.515625 
Q 13.234375 26.265625 9.515625 29.90625 
Q 5.8125 33.546875 5.8125 39.890625 
Q 5.8125 47.609375 11.28125 51.796875 
Q 16.75 56 26.8125 56 
Q 31.78125 56 36.171875 55.265625 
Q 40.578125 54.546875 44.28125 53.078125 
" id="BitstreamVeraSans-Roman-73"/>
      <path d="M 18.109375 8.203125 
L 18.109375 -20.796875 
L 9.078125 -20.796875 
L 9.078125 54.6875 
L 18.109375 54.6875 
L 18.109375 46.390625 
Q 20.953125 51.265625 25.265625 53.625 
Q 29.59375 56 35.59375 56 
Q 45.5625 56 51.78125 48.09375 
Q 58.015625 40.1875 58.015625 27.296875 
Q 58.015625 14.40625 51.78125 6.484375 
Q 45.5625 -1.421875 35.59375 -1.421875 
Q 29.59375 -1.421875 25.265625 0.953125 
Q 20.953125 3.328125 18.109375 8.203125 
M 48.6875 27.296875 
Q 48.6875 37.203125 44.609375 42.84375 
Q 40.53125 48.484375 33.40625 48.484375 
Q 26.265625 48.484375 22.1875 42.84375 
Q 18.109375 37.203125 18.109375 27.296875 
Q 18.109375 17.390625 22.1875 11.75 
Q 26.265625 6.109375 33.40625 6.109375 
Q 40.53125 6.109375 44.609375 11.75 
Q 48.6875 17.390625 48.6875 27.296875 
" id="BitstreamVeraSans-Roman-70"/>
     </defs>
     <g transform="translate(190.56484375 278.2765625)scale(0.1 -0.1)">
      <use xlink:href="#BitstreamVeraSans-Roman-73"/>
      <use x="52.099609375" xlink:href="#BitstreamVeraSans-Roman-65"/>
      <use x="113.623046875" xlink:href="#BitstreamVeraSans-Roman-70"/>
      <use x="177.099609375" xlink:href="#BitstreamVeraSans-Roman-61"/>
      <use x="238.37890625" xlink:href="#BitstreamVeraSans-Roman-6c"/>
      <use x="266.162109375" xlink:href="#BitstreamVeraSans-Roman-20"/>
      <use x="297.94921875" xlink:href="#BitstreamVeraSans-Roman-6c"/>
      <use x="325.732421875" xlink:href="#BitstreamVeraSans-Roman-65"/>
      <use x="387.255859375" xlink:href="#BitstreamVeraSans-Roman-6e"/>
      <use x="450.634765625" xlink:href="#BitstreamVeraSans-Roman-67"/>
      <use x="514.111328125" xlink:href="#BitstreamVeraSans-Roman-74"/>
      <use x="553.3203125" xlink:href="#BitstreamVeraSans-Roman-68"/>
     </g>
    </g>
   </g>
   <g id="matplotlib.axis_2">
    <g id="ytick_1">
     <g id="line2d_17">
      <defs>
       <path d="M 0 0 
L 4 0 
" id="m8ed3a2880c" style="stroke:#000000;stroke-width:0.5;"/>
      </defs>
      <g>
       <use style="stroke:#000000;stroke-width:0.5;" x="54.0" xlink:href="#m8ed3a2880c" y="252.0"/>
      </g>
     </g>
     <g id="line2d_18">
      <defs>
       <path d="M 0 0 
L -4 0 
" id="m01a997c579" style="stroke:#000000;stroke-width:0.5;"/>
      </defs>
      <g>
       <use style="stroke:#000000;stroke-width:0.5;" x="388.8" xlink:href="#m01a997c579" y="252.0"/>
      </g>
     </g>
     <g id="text_10">
      <!-- 1.5 -->
      <defs>
       <path d="M 12.40625 8.296875 
L 28.515625 8.296875 
L 28.515625 63.921875 
L 10.984375 60.40625 
L 10.984375 69.390625 
L 28.421875 72.90625 
L 38.28125 72.90625 
L 38.28125 8.296875 
L 54.390625 8.296875 
L 54.390625 0 
L 12.40625 0 
z
" id="BitstreamVeraSans-Roman-31"/>
      </defs>
      <g transform="translate(34.096875 254.759375)scale(0.1 -0.1)">
       <use xlink:href="#BitstreamVeraSans-Roman-31"/>
       <use x="63.623046875" xlink:href="#BitstreamVeraSans-Roman-2e"/>
       <use x="95.41015625" xlink:href="#BitstreamVeraSans-Roman-35"/>
      </g>
     </g>
    </g>
    <g id="ytick_2">
     <g id="line2d_19">
      <g>
       <use style="stroke:#000000;stroke-width:0.5;" x="54.0" xlink:href="#m8ed3a2880c" y="220.114285714"/>
      </g>
     </g>
     <g id="line2d_20">
      <g>
       <use style="stroke:#000000;stroke-width:0.5;" x="388.8" xlink:href="#m01a997c579" y="220.114285714"/>
      </g>
     </g>
     <g id="text_11">
      <!-- 2.0 -->
      <defs>
       <path d="M 19.1875 8.296875 
L 53.609375 8.296875 
L 53.609375 0 
L 7.328125 0 
L 7.328125 8.296875 
Q 12.9375 14.109375 22.625 23.890625 
Q 32.328125 33.6875 34.8125 36.53125 
Q 39.546875 41.84375 41.421875 45.53125 
Q 43.3125 49.21875 43.3125 52.78125 
Q 43.3125 58.59375 39.234375 62.25 
Q 35.15625 65.921875 28.609375 65.921875 
Q 23.96875 65.921875 18.8125 64.3125 
Q 13.671875 62.703125 7.8125 59.421875 
L 7.8125 69.390625 
Q 13.765625 71.78125 18.9375 73 
Q 24.125 74.21875 28.421875 74.21875 
Q 39.75 74.21875 46.484375 68.546875 
Q 53.21875 62.890625 53.21875 53.421875 
Q 53.21875 48.921875 51.53125 44.890625 
Q 49.859375 40.875 45.40625 35.40625 
Q 44.1875 33.984375 37.640625 27.21875 
Q 31.109375 20.453125 19.1875 8.296875 
" id="BitstreamVeraSans-Roman-32"/>
      </defs>
      <g transform="translate(34.096875 222.873660714)scale(0.1 -0.1)">
       <use xlink:href="#BitstreamVeraSans-Roman-32"/>
       <use x="63.623046875" xlink:href="#BitstreamVeraSans-Roman-2e"/>
       <use x="95.41015625" xlink:href="#BitstreamVeraSans-Roman-30"/>
      </g>
     </g>
    </g>
    <g id="ytick_3">
     <g id="line2d_21">
      <g>
       <use style="stroke:#000000;stroke-width:0.5;" x="54.0" xlink:href="#m8ed3a2880c" y="188.228571429"/>
      </g>
     </g>
     <g id="line2d_22">
      <g>
       <use style="stroke:#000000;stroke-width:0.5;" x="388.8" xlink:href="#m01a997c579" y="188.228571429"/>
      </g>
     </g>
     <g id="text_12">
      <!-- 2.5 -->
      <g transform="translate(34.096875 190.987946429)scale(0.1 -0.1)">
       <use xlink:href="#BitstreamVeraSans-Roman-32"/>
       <use x="63.623046875" xlink:href="#BitstreamVeraSans-Roman-2e"/>
       <use x="95.41015625" xlink:href="#BitstreamVeraSans-Roman-35"/>
      </g>
     </g>
    </g>
    <g id="ytick_4">
     <g id="line2d_23">
      <g>
       <use style="stroke:#000000;stroke-width:0.5;" x="54.0" xlink:href="#m8ed3a2880c" y="156.342857143"/>
      </g>
     </g>
     <g id="line2d_24">
      <g>
       <use style="stroke:#000000;stroke-width:0.5;" x="388.8" xlink:href="#m01a997c579" y="156.342857143"/>
      </g>
     </g>
     <g id="text_13">
      <!-- 3.0 -->
      <defs>
       <path d="M 40.578125 39.3125 
Q 47.65625 37.796875 51.625 33 
Q 55.609375 28.21875 55.609375 21.1875 
Q 55.609375 10.40625 48.1875 4.484375 
Q 40.765625 -1.421875 27.09375 -1.421875 
Q 22.515625 -1.421875 17.65625 -0.515625 
Q 12.796875 0.390625 7.625 2.203125 
L 7.625 11.71875 
Q 11.71875 9.328125 16.59375 8.109375 
Q 21.484375 6.890625 26.8125 6.890625 
Q 36.078125 6.890625 40.9375 10.546875 
Q 45.796875 14.203125 45.796875 21.1875 
Q 45.796875 27.640625 41.28125 31.265625 
Q 36.765625 34.90625 28.71875 34.90625 
L 20.21875 34.90625 
L 20.21875 43.015625 
L 29.109375 43.015625 
Q 36.375 43.015625 40.234375 45.921875 
Q 44.09375 48.828125 44.09375 54.296875 
Q 44.09375 59.90625 40.109375 62.90625 
Q 36.140625 65.921875 28.71875 65.921875 
Q 24.65625 65.921875 20.015625 65.03125 
Q 15.375 64.15625 9.8125 62.3125 
L 9.8125 71.09375 
Q 15.4375 72.65625 20.34375 73.4375 
Q 25.25 74.21875 29.59375 74.21875 
Q 40.828125 74.21875 47.359375 69.109375 
Q 53.90625 64.015625 53.90625 55.328125 
Q 53.90625 49.265625 50.4375 45.09375 
Q 46.96875 40.921875 40.578125 39.3125 
" id="BitstreamVeraSans-Roman-33"/>
      </defs>
      <g transform="translate(34.096875 159.102232143)scale(0.1 -0.1)">
       <use xlink:href="#BitstreamVeraSans-Roman-33"/>
       <use x="63.623046875" xlink:href="#BitstreamVeraSans-Roman-2e"/>
       <use x="95.41015625" xlink:href="#BitstreamVeraSans-Roman-30"/>
      </g>
     </g>
    </g>
    <g id="ytick_5">
     <g id="line2d_25">
      <g>
       <use style="stroke:#000000;stroke-width:0.5;" x="54.0" xlink:href="#m8ed3a2880c" y="124.457142857"/>
      </g>
     </g>
     <g id="line2d_26">
      <g>
       <use style="stroke:#000000;stroke-width:0.5;" x="388.8" xlink:href="#m01a997c579" y="124.457142857"/>
      </g>
     </g>
     <g id="text_14">
      <!-- 3.5 -->
      <g transform="translate(34.096875 127.216517857)scale(0.1 -0.1)">
       <use xlink:href="#BitstreamVeraSans-Roman-33"/>
       <use x="63.623046875" xlink:href="#BitstreamVeraSans-Roman-2e"/>
       <use x="95.41015625" xlink:href="#BitstreamVeraSans-Roman-35"/>
      </g>
     </g>
    </g>
    <g id="ytick_6">
     <g id="line2d_27">
      <g>
       <use style="stroke:#000000;stroke-width:0.5;" x="54.0" xlink:href="#m8ed3a2880c" y="92.5714285714"/>
      </g>
     </g>
     <g id="line2d_28">
      <g>
       <use style="stroke:#000000;stroke-width:0.5;" x="388.8" xlink:href="#m01a997c579" y="92.5714285714"/>
      </g>
     </g>
     <g id="text_15">
      <!-- 4.0 -->
      <g transform="translate(34.096875 95.3308035714)scale(0.1 -0.1)">
       <use xlink:href="#BitstreamVeraSans-Roman-34"/>
       <use x="63.623046875" xlink:href="#BitstreamVeraSans-Roman-2e"/>
       <use x="95.41015625" xlink:href="#BitstreamVeraSans-Roman-30"/>
      </g>
     </g>
    </g>
    <g id="ytick_7">
     <g id="line2d_29">
      <g>
       <use style="stroke:#000000;stroke-width:0.5;" x="54.0" xlink:href="#m8ed3a2880c" y="60.6857142857"/>
      </g>
     </g>
     <g id="line2d_30">
      <g>
       <use style="stroke:#000000;stroke-width:0.5;" x="388.8" xlink:href="#m01a997c579" y="60.6857142857"/>
      </g>
     </g>
     <g id="text_16">
      <!-- 4.5 -->
      <g transform="translate(34.096875 63.4450892857)scale(0.1 -0.1)">
       <use xlink:href="#BitstreamVeraSans-Roman-34"/>
       <use x="63.623046875" xlink:href="#BitstreamVeraSans-Roman-2e"/>
       <use x="95.41015625" xlink:href="#BitstreamVeraSans-Roman-35"/>
      </g>
     </g>
    </g>
    <g id="ytick_8">
     <g id="line2d_31">
      <g>
       <use style="stroke:#000000;stroke-width:0.5;" x="54.0" xlink:href="#m8ed3a2880c" y="28.8"/>
      </g>
     </g>
     <g id="line2d_32">
      <g>
       <use style="stroke:#000000;stroke-width:0.5;" x="388.8" xlink:href="#m01a997c579" y="28.8"/>
      </g>
     </g>
     <g id="text_17">
      <!-- 5.0 -->
      <g transform="translate(34.096875 31.559375)scale(0.1 -0.1)">
       <use xlink:href="#BitstreamVeraSans-Roman-35"/>
       <use x="63.623046875" xlink:href="#BitstreamVeraSans-Roman-2e"/>
       <use x="95.41015625" xlink:href="#BitstreamVeraSans-Roman-30"/>
      </g>
     </g>
    </g>
    <g id="text_18">
     <!-- sepal width -->
     <defs>
      <path d="M 4.203125 54.6875 
L 13.1875 54.6875 
L 24.421875 12.015625 
L 35.59375 54.6875 
L 46.1875 54.6875 
L 57.421875 12.015625 
L 68.609375 54.6875 
L 77.59375 54.6875 
L 63.28125 0 
L 52.6875 0 
L 40.921875 44.828125 
L 29.109375 0 
L 18.5 0 
z
" id="BitstreamVeraSans-Roman-77"/>
      <path d="M 9.421875 54.6875 
L 18.40625 54.6875 
L 18.40625 0 
L 9.421875 0 
z
M 9.421875 75.984375 
L 18.40625 75.984375 
L 18.40625 64.59375 
L 9.421875 64.59375 
z
" id="BitstreamVeraSans-Roman-69"/>
      <path d="M 45.40625 46.390625 
L 45.40625 75.984375 
L 54.390625 75.984375 
L 54.390625 0 
L 45.40625 0 
L 45.40625 8.203125 
Q 42.578125 3.328125 38.25 0.953125 
Q 33.9375 -1.421875 27.875 -1.421875 
Q 17.96875 -1.421875 11.734375 6.484375 
Q 5.515625 14.40625 5.515625 27.296875 
Q 5.515625 40.1875 11.734375 48.09375 
Q 17.96875 56 27.875 56 
Q 33.9375 56 38.25 53.625 
Q 42.578125 51.265625 45.40625 46.390625 
M 14.796875 27.296875 
Q 14.796875 17.390625 18.875 11.75 
Q 22.953125 6.109375 30.078125 6.109375 
Q 37.203125 6.109375 41.296875 11.75 
Q 45.40625 17.390625 45.40625 27.296875 
Q 45.40625 37.203125 41.296875 42.84375 
Q 37.203125 48.484375 30.078125 48.484375 
Q 22.953125 48.484375 18.875 42.84375 
Q 14.796875 37.203125 14.796875 27.296875 
" id="BitstreamVeraSans-Roman-64"/>
     </defs>
     <g transform="translate(27.0171875 169.07890625)rotate(-90.0)scale(0.1 -0.1)">
      <use xlink:href="#BitstreamVeraSans-Roman-73"/>
      <use x="52.099609375" xlink:href="#BitstreamVeraSans-Roman-65"/>
      <use x="113.623046875" xlink:href="#BitstreamVeraSans-Roman-70"/>
      <use x="177.099609375" xlink:href="#BitstreamVeraSans-Roman-61"/>
      <use x="238.37890625" xlink:href="#BitstreamVeraSans-Roman-6c"/>
      <use x="266.162109375" xlink:href="#BitstreamVeraSans-Roman-20"/>
      <use x="297.94921875" xlink:href="#BitstreamVeraSans-Roman-77"/>
      <use x="379.736328125" xlink:href="#BitstreamVeraSans-Roman-69"/>
      <use x="407.51953125" xlink:href="#BitstreamVeraSans-Roman-64"/>
      <use x="470.99609375" xlink:href="#BitstreamVeraSans-Roman-74"/>
      <use x="510.205078125" xlink:href="#BitstreamVeraSans-Roman-68"/>
     </g>
    </g>
   </g>
  </g>
 </g>
 <defs>
  <clipPath id="p825051827c">
   <rect height="223.2" width="334.8" x="54.0" y="28.8"/>
  </clipPath>
 </defs>
</svg>
