<?xml version="1.0" encoding="utf-8" standalone="no"?>
<!DOCTYPE svg PUBLIC "-//W3C//DTD SVG 1.1//EN"
  "http://www.w3.org/Graphics/SVG/1.1/DTD/svg11.dtd">
<!-- Created with matplotlib (http://matplotlib.org/) -->
<svg height="288pt" version="1.1" viewBox="0 0 432 288" width="432pt" xmlns="http://www.w3.org/2000/svg" xmlns:xlink="http://www.w3.org/1999/xlink">
 <defs>
  <style type="text/css">
*{stroke-linecap:butt;stroke-linejoin:round;stroke-miterlimit:100000;}
  </style>
 </defs>
 <g id="figure_1">
  <g id="patch_1">
   <path d="M 0 288 
L 432 288 
L 432 0 
L 0 0 
z
" style="fill:#ffffff;"/>
  </g>
  <g id="axes_1">
   <g id="patch_2">
    <path d="M 54 252 
L 388.8 252 
L 388.8 28.8 
L 54 28.8 
z
" style="fill:#ffffff;"/>
   </g>
   <g id="PathCollection_1">
    <defs>
     <path d="M 0 6.123724 
C 1.624031 6.123724 3.181764 5.47849 4.330127 4.330127 
C 5.47849 3.181764 6.123724 1.624031 6.123724 0 
C 6.123724 -1.624031 5.47849 -3.181764 4.330127 -4.330127 
C 3.181764 -5.47849 1.624031 -6.123724 0 -6.123724 
C -1.624031 -6.123724 -3.181764 -5.47849 -4.330127 -4.330127 
C -5.47849 -3.181764 -6.123724 -1.624031 -6.123724 0 
C -6.123724 1.624031 -5.47849 3.181764 -4.330127 4.330127 
C -3.181764 5.47849 -1.624031 6.123724 0 6.123724 
z
" id="C0_0_a1f9cc1553"/>
    </defs>
    <g clip-path="url(#p3d7192707c)">
     <use style="fill:none;stroke:#000000;" x="157.231717254" xlink:href="#C0_0_a1f9cc1553" y="171.438977882"/>
    </g>
    <g clip-path="url(#p3d7192707c)">
     <use style="fill:none;stroke:#000000;" x="198.512593518" xlink:href="#C0_0_a1f9cc1553" y="148.525096764"/>
    </g>
    <g clip-path="url(#p3d7192707c)">
     <use style="fill:none;stroke:#000000;" x="235.822695832" xlink:href="#C0_0_a1f9cc1553" y="131.625229623"/>
    </g>
    <g clip-path="url(#p3d7192707c)">
     <use style="fill:none;stroke:#000000;" x="209.728379141" xlink:href="#C0_0_a1f9cc1553" y="144.992399804"/>
    </g>
    <g clip-path="url(#p3d7192707c)">
     <use style="fill:none;stroke:#000000;" x="182.27859186" xlink:href="#C0_0_a1f9cc1553" y="160.373265356"/>
    </g>
    <g clip-path="url(#p3d7192707c)">
     <use style="fill:none;stroke:#000000;" x="188.47084398" xlink:href="#C0_0_a1f9cc1553" y="153.244066158"/>
    </g>
    <g clip-path="url(#p3d7192707c)">
     <use style="fill:none;stroke:#000000;" x="179.891843655" xlink:href="#C0_0_a1f9cc1553" y="153.833337008"/>
    </g>
    <g clip-path="url(#p3d7192707c)">
     <use style="fill:none;stroke:#000000;" x="213.200998206" xlink:href="#C0_0_a1f9cc1553" y="133.026073173"/>
    </g>
    <g clip-path="url(#p3d7192707c)">
     <use style="fill:none;stroke:#000000;" x="209.368425446" xlink:href="#C0_0_a1f9cc1553" y="136.832736599"/>
    </g>
    <g clip-path="url(#p3d7192707c)">
     <use style="fill:none;stroke:#000000;" x="164.280939017" xlink:href="#C0_0_a1f9cc1553" y="192.137629382"/>
    </g>
    <g clip-path="url(#p3d7192707c)">
     <use style="fill:none;stroke:#000000;" x="211.715636348" xlink:href="#C0_0_a1f9cc1553" y="171.052346851"/>
    </g>
    <g clip-path="url(#p3d7192707c)">
     <use style="fill:none;stroke:#000000;" x="261.642756255" xlink:href="#C0_0_a1f9cc1553" y="138.271836467"/>
    </g>
    <g clip-path="url(#p3d7192707c)">
     <use style="fill:none;stroke:#000000;" x="207.027813928" xlink:href="#C0_0_a1f9cc1553" y="145.170442436"/>
    </g>
    <g clip-path="url(#p3d7192707c)">
     <use style="fill:none;stroke:#000000;" x="198.719956346" xlink:href="#C0_0_a1f9cc1553" y="150.494406018"/>
    </g>
    <g clip-path="url(#p3d7192707c)">
     <use style="fill:none;stroke:#000000;" x="229.855705247" xlink:href="#C0_0_a1f9cc1553" y="130.376200066"/>
    </g>
    <g clip-path="url(#p3d7192707c)">
     <use style="fill:none;stroke:#000000;" x="175.523072306" xlink:href="#C0_0_a1f9cc1553" y="168.615002789"/>
    </g>
    <g clip-path="url(#p3d7192707c)">
     <use style="fill:none;stroke:#000000;" x="257.877457204" xlink:href="#C0_0_a1f9cc1553" y="124.605755606"/>
    </g>
    <g clip-path="url(#p3d7192707c)">
     <use style="fill:none;stroke:#000000;" x="147.818273009" xlink:href="#C0_0_a1f9cc1553" y="210.169334265"/>
    </g>
    <g clip-path="url(#p3d7192707c)">
     <use style="fill:none;stroke:#000000;" x="199.761397143" xlink:href="#C0_0_a1f9cc1553" y="161.909445028"/>
    </g>
   </g>
   <g id="PathCollection_2">
    <path clip-path="url(#p3d7192707c)" d="M 144.610248 152.948867 
C 145.796272 152.948867 146.933879 152.477655 147.772525 151.639009 
C 148.611171 150.800363 149.082384 149.662756 149.082384 148.476731 
C 149.082384 147.290707 148.611171 146.1531 147.772525 145.314454 
C 146.933879 144.475808 145.796272 144.004595 144.610248 144.004595 
C 143.424223 144.004595 142.286616 144.475808 141.44797 145.314454 
C 140.609324 146.1531 140.138112 147.290707 140.138112 148.476731 
C 140.138112 149.662756 140.609324 150.800363 141.44797 151.639009 
C 142.286616 152.477655 143.424223 152.948867 144.610248 152.948867 
z
" style="fill:#ff0000;stroke:#000000;"/>
    <path clip-path="url(#p3d7192707c)" d="M 157.231717 175.911114 
C 158.417742 175.911114 159.555349 175.439901 160.393995 174.601256 
C 161.232641 173.76261 161.703853 172.625002 161.703853 171.438978 
C 161.703853 170.252954 161.232641 169.115346 160.393995 168.2767 
C 159.555349 167.438054 158.417742 166.966842 157.231717 166.966842 
C 156.045693 166.966842 154.908085 167.438054 154.06944 168.2767 
C 153.230794 169.115346 152.759581 170.252954 152.759581 171.438978 
C 152.759581 172.625002 153.230794 173.76261 154.06944 174.601256 
C 154.908085 175.439901 156.045693 175.911114 157.231717 175.911114 
z
" style="fill:#ff0000;stroke:#000000;"/>
    <path clip-path="url(#p3d7192707c)" d="M 176.057852 134.055019 
C 177.243877 134.055019 178.381484 133.583807 179.22013 132.745161 
C 180.058776 131.906515 180.529988 130.768908 180.529988 129.582883 
C 180.529988 128.396859 180.058776 127.259251 179.22013 126.420606 
C 178.381484 125.58196 177.243877 125.110747 176.057852 125.110747 
C 174.871828 125.110747 173.73422 125.58196 172.895575 126.420606 
C 172.056929 127.259251 171.585716 128.396859 171.585716 129.582883 
C 171.585716 130.768908 172.056929 131.906515 172.895575 132.745161 
C 173.73422 133.583807 174.871828 134.055019 176.057852 134.055019 
z
" style="fill:#ff0000;stroke:#000000;"/>
    <path clip-path="url(#p3d7192707c)" d="M 149.117861 153.219809 
C 150.303886 153.219809 151.441493 152.748597 152.280139 151.909951 
C 153.118785 151.071305 153.589997 149.933697 153.589997 148.747673 
C 153.589997 147.561649 153.118785 146.424041 152.280139 145.585395 
C 151.441493 144.74675 150.303886 144.275537 149.117861 144.275537 
C 147.931837 144.275537 146.794229 144.74675 145.955584 145.585395 
C 145.116938 146.424041 144.645725 147.561649 144.645725 148.747673 
C 144.645725 149.933697 145.116938 151.071305 145.955584 151.909951 
C 146.794229 152.748597 147.931837 153.219809 149.117861 153.219809 
z
" style="fill:#ff0000;stroke:#000000;"/>
    <path clip-path="url(#p3d7192707c)" d="M 198.512594 152.997233 
C 199.698618 152.997233 200.836225 152.52602 201.674871 151.687374 
C 202.513517 150.848729 202.984729 149.711121 202.984729 148.525097 
C 202.984729 147.339072 202.513517 146.201465 201.674871 145.362819 
C 200.836225 144.524173 199.698618 144.052961 198.512594 144.052961 
C 197.326569 144.052961 196.188962 144.524173 195.350316 145.362819 
C 194.51167 146.201465 194.040458 147.339072 194.040458 148.525097 
C 194.040458 149.711121 194.51167 150.848729 195.350316 151.687374 
C 196.188962 152.52602 197.326569 152.997233 198.512594 152.997233 
z
" style="fill:#ff0000;stroke:#000000;"/>
    <path clip-path="url(#p3d7192707c)" d="M 198.666463 103.276685 
C 199.852487 103.276685 200.990094 102.805473 201.82874 101.966827 
C 202.667386 101.128181 203.138599 99.990573 203.138599 98.804549 
C 203.138599 97.618525 202.667386 96.480917 201.82874 95.642271 
C 200.990094 94.803626 199.852487 94.332413 198.666463 94.332413 
C 197.480438 94.332413 196.342831 94.803626 195.504185 95.642271 
C 194.665539 96.480917 194.194327 97.618525 194.194327 98.804549 
C 194.194327 99.990573 194.665539 101.128181 195.504185 101.966827 
C 196.342831 102.805473 197.480438 103.276685 198.666463 103.276685 
z
" style="fill:#ff0000;stroke:#000000;"/>
    <path clip-path="url(#p3d7192707c)" d="M 156.011095 160.982403 
C 157.197119 160.982403 158.334727 160.51119 159.173373 159.672545 
C 160.012018 158.833899 160.483231 157.696291 160.483231 156.510267 
C 160.483231 155.324243 160.012018 154.186635 159.173373 153.347989 
C 158.334727 152.509343 157.197119 152.038131 156.011095 152.038131 
C 154.825071 152.038131 153.687463 152.509343 152.848817 153.347989 
C 152.010171 154.186635 151.538959 155.324243 151.538959 156.510267 
C 151.538959 157.696291 152.010171 158.833899 152.848817 159.672545 
C 153.687463 160.51119 154.825071 160.982403 156.011095 160.982403 
z
" style="fill:#ff0000;stroke:#000000;"/>
    <path clip-path="url(#p3d7192707c)" d="M 170.409482 140.231998 
C 171.595507 140.231998 172.733114 139.760786 173.57176 138.92214 
C 174.410406 138.083494 174.881618 136.945886 174.881618 135.759862 
C 174.881618 134.573838 174.410406 133.43623 173.57176 132.597585 
C 172.733114 131.758939 171.595507 131.287726 170.409482 131.287726 
C 169.223458 131.287726 168.085851 131.758939 167.247205 132.597585 
C 166.408559 133.43623 165.937346 134.573838 165.937346 135.759862 
C 165.937346 136.945886 166.408559 138.083494 167.247205 138.92214 
C 168.085851 139.760786 169.223458 140.231998 170.409482 140.231998 
z
" style="fill:#ff0000;stroke:#000000;"/>
    <path clip-path="url(#p3d7192707c)" d="M 124.36967 178.912316 
C 125.555695 178.912316 126.693302 178.441103 127.531948 177.602458 
C 128.370594 176.763812 128.841806 175.626204 128.841806 174.44018 
C 128.841806 173.254156 128.370594 172.116548 127.531948 171.277902 
C 126.693302 170.439256 125.555695 169.968044 124.36967 169.968044 
C 123.183646 169.968044 122.046038 170.439256 121.207393 171.277902 
C 120.368747 172.116548 119.897534 173.254156 119.897534 174.44018 
C 119.897534 175.626204 120.368747 176.763812 121.207393 177.602458 
C 122.046038 178.441103 123.183646 178.912316 124.36967 178.912316 
z
" style="fill:#ff0000;stroke:#000000;"/>
    <path clip-path="url(#p3d7192707c)" d="M 181.52308 139.881202 
C 182.709104 139.881202 183.846711 139.40999 184.685357 138.571344 
C 185.524003 137.732698 185.995216 136.595091 185.995216 135.409067 
C 185.995216 134.223042 185.524003 133.085435 184.685357 132.246789 
C 183.846711 131.408143 182.709104 130.936931 181.52308 130.936931 
C 180.337055 130.936931 179.199448 131.408143 178.360802 132.246789 
C 177.522156 133.085435 177.050944 134.223042 177.050944 135.409067 
C 177.050944 136.595091 177.522156 137.732698 178.360802 138.571344 
C 179.199448 139.40999 180.337055 139.881202 181.52308 139.881202 
z
" style="fill:#ff0000;stroke:#000000;"/>
    <path clip-path="url(#p3d7192707c)" d="M 235.822696 136.097366 
C 237.00872 136.097366 238.146328 135.626153 238.984973 134.787507 
C 239.823619 133.948861 240.294832 132.811254 240.294832 131.62523 
C 240.294832 130.439205 239.823619 129.301598 238.984973 128.462952 
C 238.146328 127.624306 237.00872 127.153094 235.822696 127.153094 
C 234.636672 127.153094 233.499064 127.624306 232.660418 128.462952 
C 231.821772 129.301598 231.35056 130.439205 231.35056 131.62523 
C 231.35056 132.811254 231.821772 133.948861 232.660418 134.787507 
C 233.499064 135.626153 234.636672 136.097366 235.822696 136.097366 
z
" style="fill:#ff0000;stroke:#000000;"/>
    <path clip-path="url(#p3d7192707c)" d="M 176.758319 140.579115 
C 177.944344 140.579115 179.081951 140.107902 179.920597 139.269257 
C 180.759243 138.430611 181.230455 137.293003 181.230455 136.106979 
C 181.230455 134.920955 180.759243 133.783347 179.920597 132.944701 
C 179.081951 132.106055 177.944344 131.634843 176.758319 131.634843 
C 175.572295 131.634843 174.434688 132.106055 173.596042 132.944701 
C 172.757396 133.783347 172.286184 134.920955 172.286184 136.106979 
C 172.286184 137.293003 172.757396 138.430611 173.596042 139.269257 
C 174.434688 140.107902 175.572295 140.579115 176.758319 140.579115 
z
" style="fill:#ff0000;stroke:#000000;"/>
    <path clip-path="url(#p3d7192707c)" d="M 136.684358 180.578682 
C 137.870382 180.578682 139.007989 180.10747 139.846635 179.268824 
C 140.685281 178.430178 141.156494 177.292571 141.156494 176.106546 
C 141.156494 174.920522 140.685281 173.782914 139.846635 172.944269 
C 139.007989 172.105623 137.870382 171.63441 136.684358 171.63441 
C 135.498333 171.63441 134.360726 172.105623 133.52208 172.944269 
C 132.683434 173.782914 132.212222 174.920522 132.212222 176.106546 
C 132.212222 177.292571 132.683434 178.430178 133.52208 179.268824 
C 134.360726 180.10747 135.498333 180.578682 136.684358 180.578682 
z
" style="fill:#ff0000;stroke:#000000;"/>
    <path clip-path="url(#p3d7192707c)" d="M 144.275337 158.175326 
C 145.461361 158.175326 146.598968 157.704113 147.437614 156.865467 
C 148.27626 156.026821 148.747472 154.889214 148.747472 153.70319 
C 148.747472 152.517165 148.27626 151.379558 147.437614 150.540912 
C 146.598968 149.702266 145.461361 149.231054 144.275337 149.231054 
C 143.089312 149.231054 141.951705 149.702266 141.113059 150.540912 
C 140.274413 151.379558 139.803201 152.517165 139.803201 153.70319 
C 139.803201 154.889214 140.274413 156.026821 141.113059 156.865467 
C 141.951705 157.704113 143.089312 158.175326 144.275337 158.175326 
z
" style="fill:#ff0000;stroke:#000000;"/>
    <path clip-path="url(#p3d7192707c)" d="M 262.705993 91.30817 
C 263.892017 91.30817 265.029625 90.836957 265.868271 89.998312 
C 266.706917 89.159666 267.178129 88.022058 267.178129 86.836034 
C 267.178129 85.65001 266.706917 84.512402 265.868271 83.673756 
C 265.029625 82.83511 263.892017 82.363898 262.705993 82.363898 
C 261.519969 82.363898 260.382361 82.83511 259.543715 83.673756 
C 258.70507 84.512402 258.233857 85.65001 258.233857 86.836034 
C 258.233857 88.022058 258.70507 89.159666 259.543715 89.998312 
C 260.382361 90.836957 261.519969 91.30817 262.705993 91.30817 
z
" style="fill:#ff0000;stroke:#000000;"/>
    <path clip-path="url(#p3d7192707c)" d="M 227.512274 77.880056 
C 228.698299 77.880056 229.835906 77.408843 230.674552 76.570197 
C 231.513198 75.731552 231.98441 74.593944 231.98441 73.40792 
C 231.98441 72.221895 231.513198 71.084288 230.674552 70.245642 
C 229.835906 69.406996 228.698299 68.935784 227.512274 68.935784 
C 226.32625 68.935784 225.188643 69.406996 224.349997 70.245642 
C 223.511351 71.084288 223.040139 72.221895 223.040139 73.40792 
C 223.040139 74.593944 223.511351 75.731552 224.349997 76.570197 
C 225.188643 77.408843 226.32625 77.880056 227.512274 77.880056 
z
" style="fill:#ff0000;stroke:#000000;"/>
    <path clip-path="url(#p3d7192707c)" d="M 195.868345 122.24137 
C 197.054369 122.24137 198.191977 121.770158 199.030623 120.931512 
C 199.869269 120.092866 200.340481 118.955259 200.340481 117.769234 
C 200.340481 116.58321 199.869269 115.445603 199.030623 114.606957 
C 198.191977 113.768311 197.054369 113.297098 195.868345 113.297098 
C 194.682321 113.297098 193.544713 113.768311 192.706067 114.606957 
C 191.867422 115.445603 191.396209 116.58321 191.396209 117.769234 
C 191.396209 118.955259 191.867422 120.092866 192.706067 120.931512 
C 193.544713 121.770158 194.682321 122.24137 195.868345 122.24137 
z
" style="fill:#ff0000;stroke:#000000;"/>
    <path clip-path="url(#p3d7192707c)" d="M 195.1074 131.58845 
C 196.293425 131.58845 197.431032 131.117237 198.269678 130.278592 
C 199.108324 129.439946 199.579536 128.302338 199.579536 127.116314 
C 199.579536 125.93029 199.108324 124.792682 198.269678 123.954036 
C 197.431032 123.11539 196.293425 122.644178 195.1074 122.644178 
C 193.921376 122.644178 192.783768 123.11539 191.945123 123.954036 
C 191.106477 124.792682 190.635264 125.93029 190.635264 127.116314 
C 190.635264 128.302338 191.106477 129.439946 191.945123 130.278592 
C 192.783768 131.117237 193.921376 131.58845 195.1074 131.58845 
z
" style="fill:#ff0000;stroke:#000000;"/>
    <path clip-path="url(#p3d7192707c)" d="M 204.218821 113.100357 
C 205.404845 113.100357 206.542453 112.629145 207.381099 111.790499 
C 208.219744 110.951853 208.690957 109.814246 208.690957 108.628221 
C 208.690957 107.442197 208.219744 106.30459 207.381099 105.465944 
C 206.542453 104.627298 205.404845 104.156086 204.218821 104.156086 
C 203.032797 104.156086 201.895189 104.627298 201.056543 105.465944 
C 200.217897 106.30459 199.746685 107.442197 199.746685 108.628221 
C 199.746685 109.814246 200.217897 110.951853 201.056543 111.790499 
C 201.895189 112.629145 203.032797 113.100357 204.218821 113.100357 
z
" style="fill:#ff0000;stroke:#000000;"/>
    <path clip-path="url(#p3d7192707c)" d="M 193.550222 119.231747 
C 194.736246 119.231747 195.873854 118.760534 196.712499 117.921888 
C 197.551145 117.083242 198.022358 115.945635 198.022358 114.759611 
C 198.022358 113.573586 197.551145 112.435979 196.712499 111.597333 
C 195.873854 110.758687 194.736246 110.287475 193.550222 110.287475 
C 192.364197 110.287475 191.22659 110.758687 190.387944 111.597333 
C 189.549298 112.435979 189.078086 113.573586 189.078086 114.759611 
C 189.078086 115.945635 189.549298 117.083242 190.387944 117.921888 
C 191.22659 118.760534 192.364197 119.231747 193.550222 119.231747 
z
" style="fill:#ff0000;stroke:#000000;"/>
    <path clip-path="url(#p3d7192707c)" d="M 204.411948 137.608638 
C 205.597973 137.608638 206.73558 137.137426 207.574226 136.29878 
C 208.412872 135.460134 208.884084 134.322527 208.884084 133.136502 
C 208.884084 131.950478 208.412872 130.81287 207.574226 129.974225 
C 206.73558 129.135579 205.597973 128.664366 204.411948 128.664366 
C 203.225924 128.664366 202.088316 129.135579 201.249671 129.974225 
C 200.411025 130.81287 199.939812 131.950478 199.939812 133.136502 
C 199.939812 134.322527 200.411025 135.460134 201.249671 136.29878 
C 202.088316 137.137426 203.225924 137.608638 204.411948 137.608638 
z
" style="fill:#ff0000;stroke:#000000;"/>
    <path clip-path="url(#p3d7192707c)" d="M 218.025929 124.11317 
C 219.211954 124.11317 220.349561 123.641958 221.188207 122.803312 
C 222.026853 121.964666 222.498065 120.827058 222.498065 119.641034 
C 222.498065 118.45501 222.026853 117.317402 221.188207 116.478756 
C 220.349561 115.640111 219.211954 115.168898 218.025929 115.168898 
C 216.839905 115.168898 215.702298 115.640111 214.863652 116.478756 
C 214.025006 117.317402 213.553793 118.45501 213.553793 119.641034 
C 213.553793 120.827058 214.025006 121.964666 214.863652 122.803312 
C 215.702298 123.641958 216.839905 124.11317 218.025929 124.11317 
z
" style="fill:#ff0000;stroke:#000000;"/>
    <path clip-path="url(#p3d7192707c)" d="M 135.881014 115.204272 
C 137.067038 115.204272 138.204645 114.733059 139.043291 113.894414 
C 139.881937 113.055768 140.353149 111.91816 140.353149 110.732136 
C 140.353149 109.546112 139.881937 108.408504 139.043291 107.569858 
C 138.204645 106.731212 137.067038 106.26 135.881014 106.26 
C 134.694989 106.26 133.557382 106.731212 132.718736 107.569858 
C 131.88009 108.408504 131.408878 109.546112 131.408878 110.732136 
C 131.408878 111.91816 131.88009 113.055768 132.718736 113.894414 
C 133.557382 114.733059 134.694989 115.204272 135.881014 115.204272 
z
" style="fill:#ff0000;stroke:#000000;"/>
    <path clip-path="url(#p3d7192707c)" d="M 209.728379 149.464536 
C 210.914403 149.464536 212.052011 148.993323 212.890657 148.154677 
C 213.729303 147.316032 214.200515 146.178424 214.200515 144.9924 
C 214.200515 143.806375 213.729303 142.668768 212.890657 141.830122 
C 212.052011 140.991476 210.914403 140.520264 209.728379 140.520264 
C 208.542355 140.520264 207.404747 140.991476 206.566101 141.830122 
C 205.727456 142.668768 205.256243 143.806375 205.256243 144.9924 
C 205.256243 146.178424 205.727456 147.316032 206.566101 148.154677 
C 207.404747 148.993323 208.542355 149.464536 209.728379 149.464536 
z
" style="fill:#ff0000;stroke:#000000;"/>
    <path clip-path="url(#p3d7192707c)" d="M 160.372874 136.96489 
C 161.558898 136.96489 162.696506 136.493678 163.535152 135.655032 
C 164.373798 134.816386 164.84501 133.678779 164.84501 132.492754 
C 164.84501 131.30673 164.373798 130.169122 163.535152 129.330477 
C 162.696506 128.491831 161.558898 128.020618 160.372874 128.020618 
C 159.18685 128.020618 158.049242 128.491831 157.210596 129.330477 
C 156.371951 130.169122 155.900738 131.30673 155.900738 132.492754 
C 155.900738 133.678779 156.371951 134.816386 157.210596 135.655032 
C 158.049242 136.493678 159.18685 136.96489 160.372874 136.96489 
z
" style="fill:#ff0000;stroke:#000000;"/>
    <path clip-path="url(#p3d7192707c)" d="M 170.100637 146.336234 
C 171.286662 146.336234 172.424269 145.865022 173.262915 145.026376 
C 174.101561 144.18773 174.572773 143.050123 174.572773 141.864098 
C 174.572773 140.678074 174.101561 139.540466 173.262915 138.701821 
C 172.424269 137.863175 171.286662 137.391962 170.100637 137.391962 
C 168.914613 137.391962 167.777005 137.863175 166.93836 138.701821 
C 166.099714 139.540466 165.628501 140.678074 165.628501 141.864098 
C 165.628501 143.050123 166.099714 144.18773 166.93836 145.026376 
C 167.777005 145.865022 168.914613 146.336234 170.100637 146.336234 
z
" style="fill:#ff0000;stroke:#000000;"/>
    <path clip-path="url(#p3d7192707c)" d="M 198.903773 133.541982 
C 200.089797 133.541982 201.227405 133.070769 202.06605 132.232123 
C 202.904696 131.393478 203.375909 130.25587 203.375909 129.069846 
C 203.375909 127.883821 202.904696 126.746214 202.06605 125.907568 
C 201.227405 125.068922 200.089797 124.59771 198.903773 124.59771 
C 197.717748 124.59771 196.580141 125.068922 195.741495 125.907568 
C 194.902849 126.746214 194.431637 127.883821 194.431637 129.069846 
C 194.431637 130.25587 194.902849 131.393478 195.741495 132.232123 
C 196.580141 133.070769 197.717748 133.541982 198.903773 133.541982 
z
" style="fill:#ff0000;stroke:#000000;"/>
    <path clip-path="url(#p3d7192707c)" d="M 218.935071 118.654678 
C 220.121096 118.654678 221.258703 118.183466 222.097349 117.34482 
C 222.935995 116.506174 223.407207 115.368567 223.407207 114.182542 
C 223.407207 112.996518 222.935995 111.858911 222.097349 111.020265 
C 221.258703 110.181619 220.121096 109.710406 218.935071 109.710406 
C 217.749047 109.710406 216.611439 110.181619 215.772794 111.020265 
C 214.934148 111.858911 214.462935 112.996518 214.462935 114.182542 
C 214.462935 115.368567 214.934148 116.506174 215.772794 117.34482 
C 216.611439 118.183466 217.749047 118.654678 218.935071 118.654678 
z
" style="fill:#ff0000;stroke:#000000;"/>
    <path clip-path="url(#p3d7192707c)" d="M 179.321541 154.376933 
C 180.507566 154.376933 181.645173 153.905721 182.483819 153.067075 
C 183.322465 152.228429 183.793677 151.090822 183.793677 149.904797 
C 183.793677 148.718773 183.322465 147.581166 182.483819 146.74252 
C 181.645173 145.903874 180.507566 145.432661 179.321541 145.432661 
C 178.135517 145.432661 176.997909 145.903874 176.159264 146.74252 
C 175.320618 147.581166 174.849405 148.718773 174.849405 149.904797 
C 174.849405 151.090822 175.320618 152.228429 176.159264 153.067075 
C 176.997909 153.905721 178.135517 154.376933 179.321541 154.376933 
z
" style="fill:#ff0000;stroke:#000000;"/>
    <path clip-path="url(#p3d7192707c)" d="M 182.278592 164.845401 
C 183.464616 164.845401 184.602224 164.374189 185.44087 163.535543 
C 186.279515 162.696897 186.750728 161.55929 186.750728 160.373265 
C 186.750728 159.187241 186.279515 158.049634 185.44087 157.210988 
C 184.602224 156.372342 183.464616 155.901129 182.278592 155.901129 
C 181.092568 155.901129 179.95496 156.372342 179.116314 157.210988 
C 178.277668 158.049634 177.806456 159.187241 177.806456 160.373265 
C 177.806456 161.55929 178.277668 162.696897 179.116314 163.535543 
C 179.95496 164.374189 181.092568 164.845401 182.278592 164.845401 
z
" style="fill:#ff0000;stroke:#000000;"/>
    <path clip-path="url(#p3d7192707c)" d="M 171.855109 136.353733 
C 173.041133 136.353733 174.178741 135.88252 175.017386 135.043874 
C 175.856032 134.205228 176.327245 133.067621 176.327245 131.881597 
C 176.327245 130.695572 175.856032 129.557965 175.017386 128.719319 
C 174.178741 127.880673 173.041133 127.409461 171.855109 127.409461 
C 170.669084 127.409461 169.531477 127.880673 168.692831 128.719319 
C 167.854185 129.557965 167.382973 130.695572 167.382973 131.881597 
C 167.382973 133.067621 167.854185 134.205228 168.692831 135.043874 
C 169.531477 135.88252 170.669084 136.353733 171.855109 136.353733 
z
" style="fill:#ff0000;stroke:#000000;"/>
    <path clip-path="url(#p3d7192707c)" d="M 188.470844 157.716202 
C 189.656868 157.716202 190.794476 157.24499 191.633122 156.406344 
C 192.471767 155.567698 192.94298 154.43009 192.94298 153.244066 
C 192.94298 152.058042 192.471767 150.920434 191.633122 150.081788 
C 190.794476 149.243143 189.656868 148.77193 188.470844 148.77193 
C 187.28482 148.77193 186.147212 149.243143 185.308566 150.081788 
C 184.46992 150.920434 183.998708 152.058042 183.998708 153.244066 
C 183.998708 154.43009 184.46992 155.567698 185.308566 156.406344 
C 186.147212 157.24499 187.28482 157.716202 188.470844 157.716202 
z
" style="fill:#ff0000;stroke:#000000;"/>
    <path clip-path="url(#p3d7192707c)" d="M 204.237663 98.7418 
C 205.423688 98.7418 206.561295 98.270588 207.399941 97.431942 
C 208.238587 96.593296 208.709799 95.455689 208.709799 94.269664 
C 208.709799 93.08364 208.238587 91.946032 207.399941 91.107387 
C 206.561295 90.268741 205.423688 89.797528 204.237663 89.797528 
C 203.051639 89.797528 201.914032 90.268741 201.075386 91.107387 
C 200.23674 91.946032 199.765527 93.08364 199.765527 94.269664 
C 199.765527 95.455689 200.23674 96.593296 201.075386 97.431942 
C 201.914032 98.270588 203.051639 98.7418 204.237663 98.7418 
z
" style="fill:#ff0000;stroke:#000000;"/>
    <path clip-path="url(#p3d7192707c)" d="M 179.291448 84.202859 
C 180.477472 84.202859 181.61508 83.731646 182.453726 82.893001 
C 183.292372 82.054355 183.763584 80.916747 183.763584 79.730723 
C 183.763584 78.544699 183.292372 77.407091 182.453726 76.568445 
C 181.61508 75.729799 180.477472 75.258587 179.291448 75.258587 
C 178.105424 75.258587 176.967816 75.729799 176.129171 76.568445 
C 175.290525 77.407091 174.819312 78.544699 174.819312 79.730723 
C 174.819312 80.916747 175.290525 82.054355 176.129171 82.893001 
C 176.967816 83.731646 178.105424 84.202859 179.291448 84.202859 
z
" style="fill:#ff0000;stroke:#000000;"/>
    <path clip-path="url(#p3d7192707c)" d="M 179.891844 158.305473 
C 181.077868 158.305473 182.215475 157.834261 183.054121 156.995615 
C 183.892767 156.156969 184.36398 155.019361 184.36398 153.833337 
C 184.36398 152.647313 183.892767 151.509705 183.054121 150.671059 
C 182.215475 149.832414 181.077868 149.361201 179.891844 149.361201 
C 178.705819 149.361201 177.568212 149.832414 176.729566 150.671059 
C 175.89092 151.509705 175.419708 152.647313 175.419708 153.833337 
C 175.419708 155.019361 175.89092 156.156969 176.729566 156.995615 
C 177.568212 157.834261 178.705819 158.305473 179.891844 158.305473 
z
" style="fill:#ff0000;stroke:#000000;"/>
    <path clip-path="url(#p3d7192707c)" d="M 213.200998 137.498209 
C 214.387023 137.498209 215.52463 137.026997 216.363276 136.188351 
C 217.201922 135.349705 217.673134 134.212097 217.673134 133.026073 
C 217.673134 131.840049 217.201922 130.702441 216.363276 129.863796 
C 215.52463 129.02515 214.387023 128.553937 213.200998 128.553937 
C 212.014974 128.553937 210.877366 129.02515 210.038721 129.863796 
C 209.200075 130.702441 208.728862 131.840049 208.728862 133.026073 
C 208.728862 134.212097 209.200075 135.349705 210.038721 136.188351 
C 210.877366 137.026997 212.014974 137.498209 213.200998 137.498209 
z
" style="fill:#ff0000;stroke:#000000;"/>
    <path clip-path="url(#p3d7192707c)" d="M 185.033528 151.304176 
C 186.219552 151.304176 187.35716 150.832963 188.195805 149.994317 
C 189.034451 149.155671 189.505664 148.018064 189.505664 146.83204 
C 189.505664 145.646015 189.034451 144.508408 188.195805 143.669762 
C 187.35716 142.831116 186.219552 142.359904 185.033528 142.359904 
C 183.847503 142.359904 182.709896 142.831116 181.87125 143.669762 
C 181.032604 144.508408 180.561392 145.646015 180.561392 146.83204 
C 180.561392 148.018064 181.032604 149.155671 181.87125 149.994317 
C 182.709896 150.832963 183.847503 151.304176 185.033528 151.304176 
z
" style="fill:#ff0000;stroke:#000000;"/>
    <path clip-path="url(#p3d7192707c)" d="M 133.841589 153.836733 
C 135.027613 153.836733 136.165221 153.365521 137.003866 152.526875 
C 137.842512 151.688229 138.313725 150.550621 138.313725 149.364597 
C 138.313725 148.178573 137.842512 147.040965 137.003866 146.202319 
C 136.165221 145.363674 135.027613 144.892461 133.841589 144.892461 
C 132.655564 144.892461 131.517957 145.363674 130.679311 146.202319 
C 129.840665 147.040965 129.369453 148.178573 129.369453 149.364597 
C 129.369453 150.550621 129.840665 151.688229 130.679311 152.526875 
C 131.517957 153.365521 132.655564 153.836733 133.841589 153.836733 
z
" style="fill:#ff0000;stroke:#000000;"/>
    <path clip-path="url(#p3d7192707c)" d="M 108.502962 174.084804 
C 109.688986 174.084804 110.826594 173.613592 111.66524 172.774946 
C 112.503886 171.9363 112.975098 170.798693 112.975098 169.612668 
C 112.975098 168.426644 112.503886 167.289037 111.66524 166.450391 
C 110.826594 165.611745 109.688986 165.140533 108.502962 165.140533 
C 107.316938 165.140533 106.17933 165.611745 105.340684 166.450391 
C 104.502039 167.289037 104.030826 168.426644 104.030826 169.612668 
C 104.030826 170.798693 104.502039 171.9363 105.340684 172.774946 
C 106.17933 173.613592 107.316938 174.084804 108.502962 174.084804 
z
" style="fill:#ff0000;stroke:#000000;"/>
    <path clip-path="url(#p3d7192707c)" d="M 205.053027 142.13212 
C 206.239052 142.13212 207.376659 141.660907 208.215305 140.822262 
C 209.053951 139.983616 209.525163 138.846008 209.525163 137.659984 
C 209.525163 136.47396 209.053951 135.336352 208.215305 134.497706 
C 207.376659 133.65906 206.239052 133.187848 205.053027 133.187848 
C 203.867003 133.187848 202.729395 133.65906 201.89075 134.497706 
C 201.052104 135.336352 200.580891 136.47396 200.580891 137.659984 
C 200.580891 138.846008 201.052104 139.983616 201.89075 140.822262 
C 202.729395 141.660907 203.867003 142.13212 205.053027 142.13212 
z
" style="fill:#ff0000;stroke:#000000;"/>
    <path clip-path="url(#p3d7192707c)" d="M 209.368425 141.304873 
C 210.55445 141.304873 211.692057 140.83366 212.530703 139.995014 
C 213.369349 139.156368 213.840561 138.018761 213.840561 136.832737 
C 213.840561 135.646712 213.369349 134.509105 212.530703 133.670459 
C 211.692057 132.831813 210.55445 132.360601 209.368425 132.360601 
C 208.182401 132.360601 207.044794 132.831813 206.206148 133.670459 
C 205.367502 134.509105 204.896289 135.646712 204.896289 136.832737 
C 204.896289 138.018761 205.367502 139.156368 206.206148 139.995014 
C 207.044794 140.83366 208.182401 141.304873 209.368425 141.304873 
z
" style="fill:#ff0000;stroke:#000000;"/>
    <path clip-path="url(#p3d7192707c)" d="M 110.767463 195.38159 
C 111.953488 195.38159 113.091095 194.910378 113.929741 194.071732 
C 114.768387 193.233086 115.239599 192.095479 115.239599 190.909454 
C 115.239599 189.72343 114.768387 188.585823 113.929741 187.747177 
C 113.091095 186.908531 111.953488 186.437319 110.767463 186.437319 
C 109.581439 186.437319 108.443832 186.908531 107.605186 187.747177 
C 106.76654 188.585823 106.295327 189.72343 106.295327 190.909454 
C 106.295327 192.095479 106.76654 193.233086 107.605186 194.071732 
C 108.443832 194.910378 109.581439 195.38159 110.767463 195.38159 
z
" style="fill:#ff0000;stroke:#000000;"/>
    <path clip-path="url(#p3d7192707c)" d="M 134.088507 153.775929 
C 135.274532 153.775929 136.412139 153.304716 137.250785 152.46607 
C 138.089431 151.627425 138.560643 150.489817 138.560643 149.303793 
C 138.560643 148.117769 138.089431 146.980161 137.250785 146.141515 
C 136.412139 145.302869 135.274532 144.831657 134.088507 144.831657 
C 132.902483 144.831657 131.764876 145.302869 130.92623 146.141515 
C 130.087584 146.980161 129.616371 148.117769 129.616371 149.303793 
C 129.616371 150.489817 130.087584 151.627425 130.92623 152.46607 
C 131.764876 153.304716 132.902483 153.775929 134.088507 153.775929 
z
" style="fill:#ff0000;stroke:#000000;"/>
    <path clip-path="url(#p3d7192707c)" d="M 176.984671 154.12875 
C 178.170695 154.12875 179.308303 153.657537 180.146949 152.818891 
C 180.985594 151.980246 181.456807 150.842638 181.456807 149.656614 
C 181.456807 148.470589 180.985594 147.332982 180.146949 146.494336 
C 179.308303 145.65569 178.170695 145.184478 176.984671 145.184478 
C 175.798647 145.184478 174.661039 145.65569 173.822393 146.494336 
C 172.983747 147.332982 172.512535 148.470589 172.512535 149.656614 
C 172.512535 150.842638 172.983747 151.980246 173.822393 152.818891 
C 174.661039 153.657537 175.798647 154.12875 176.984671 154.12875 
z
" style="fill:#ff0000;stroke:#000000;"/>
    <path clip-path="url(#p3d7192707c)" d="M 219.577914 118.013599 
C 220.763938 118.013599 221.901546 117.542387 222.740192 116.703741 
C 223.578837 115.865095 224.05005 114.727488 224.05005 113.541463 
C 224.05005 112.355439 223.578837 111.217831 222.740192 110.379186 
C 221.901546 109.54054 220.763938 109.069327 219.577914 109.069327 
C 218.39189 109.069327 217.254282 109.54054 216.415636 110.379186 
C 215.57699 111.217831 215.105778 112.355439 215.105778 113.541463 
C 215.105778 114.727488 215.57699 115.865095 216.415636 116.703741 
C 217.254282 117.542387 218.39189 118.013599 219.577914 118.013599 
z
" style="fill:#ff0000;stroke:#000000;"/>
    <path clip-path="url(#p3d7192707c)" d="M 159.314697 158.021695 
C 160.500722 158.021695 161.638329 157.550482 162.476975 156.711837 
C 163.315621 155.873191 163.786833 154.735583 163.786833 153.549559 
C 163.786833 152.363535 163.315621 151.225927 162.476975 150.387281 
C 161.638329 149.548635 160.500722 149.077423 159.314697 149.077423 
C 158.128673 149.077423 156.991066 149.548635 156.15242 150.387281 
C 155.313774 151.225927 154.842561 152.363535 154.842561 153.549559 
C 154.842561 154.735583 155.313774 155.873191 156.15242 156.711837 
C 156.991066 157.550482 158.128673 158.021695 159.314697 158.021695 
z
" style="fill:#ff0000;stroke:#000000;"/>
    <path clip-path="url(#p3d7192707c)" d="M 155.79208 101.956721 
C 156.978104 101.956721 158.115712 101.485508 158.954357 100.646862 
C 159.793003 99.808217 160.264216 98.670609 160.264216 97.484585 
C 160.264216 96.29856 159.793003 95.160953 158.954357 94.322307 
C 158.115712 93.483661 156.978104 93.012449 155.79208 93.012449 
C 154.606055 93.012449 153.468448 93.483661 152.629802 94.322307 
C 151.791156 95.160953 151.319944 96.29856 151.319944 97.484585 
C 151.319944 98.670609 151.791156 99.808217 152.629802 100.646862 
C 153.468448 101.485508 154.606055 101.956721 155.79208 101.956721 
z
" style="fill:#ff0000;stroke:#000000;"/>
    <path clip-path="url(#p3d7192707c)" d="M 145.374489 173.061489 
C 146.560514 173.061489 147.698121 172.590277 148.536767 171.751631 
C 149.375413 170.912985 149.846625 169.775378 149.846625 168.589354 
C 149.846625 167.403329 149.375413 166.265722 148.536767 165.427076 
C 147.698121 164.58843 146.560514 164.117218 145.374489 164.117218 
C 144.188465 164.117218 143.050857 164.58843 142.212212 165.427076 
C 141.373566 166.265722 140.902353 167.403329 140.902353 168.589354 
C 140.902353 169.775378 141.373566 170.912985 142.212212 171.751631 
C 143.050857 172.590277 144.188465 173.061489 145.374489 173.061489 
z
" style="fill:#ff0000;stroke:#000000;"/>
    <path clip-path="url(#p3d7192707c)" d="M 187.803339 141.826297 
C 188.989363 141.826297 190.126971 141.355084 190.965616 140.516438 
C 191.804262 139.677792 192.275475 138.540185 192.275475 137.354161 
C 192.275475 136.168136 191.804262 135.030529 190.965616 134.191883 
C 190.126971 133.353237 188.989363 132.882025 187.803339 132.882025 
C 186.617315 132.882025 185.479707 133.353237 184.641061 134.191883 
C 183.802415 135.030529 183.331203 136.168136 183.331203 137.354161 
C 183.331203 138.540185 183.802415 139.677792 184.641061 140.516438 
C 185.479707 141.355084 186.617315 141.826297 187.803339 141.826297 
z
" style="fill:#ff0000;stroke:#000000;"/>
    <path clip-path="url(#p3d7192707c)" d="M 144.599549 165.15509 
C 145.785574 165.15509 146.923181 164.683877 147.761827 163.845231 
C 148.600473 163.006586 149.071685 161.868978 149.071685 160.682954 
C 149.071685 159.496929 148.600473 158.359322 147.761827 157.520676 
C 146.923181 156.68203 145.785574 156.210818 144.599549 156.210818 
C 143.413525 156.210818 142.275918 156.68203 141.437272 157.520676 
C 140.598626 158.359322 140.127413 159.496929 140.127413 160.682954 
C 140.127413 161.868978 140.598626 163.006586 141.437272 163.845231 
C 142.275918 164.683877 143.413525 165.15509 144.599549 165.15509 
z
" style="fill:#ff0000;stroke:#000000;"/>
    <path clip-path="url(#p3d7192707c)" d="M 322.699525 167.491426 
C 323.885549 167.491426 325.023157 167.020214 325.861803 166.181568 
C 326.700448 165.342922 327.171661 164.205315 327.171661 163.01929 
C 327.171661 161.833266 326.700448 160.695659 325.861803 159.857013 
C 325.023157 159.018367 323.885549 158.547154 322.699525 158.547154 
C 321.513501 158.547154 320.375893 159.018367 319.537247 159.857013 
C 318.698601 160.695659 318.227389 161.833266 318.227389 163.01929 
C 318.227389 164.205315 318.698601 165.342922 319.537247 166.181568 
C 320.375893 167.020214 321.513501 167.491426 322.699525 167.491426 
z
" style="fill:#0000ff;stroke:#000000;"/>
    <path clip-path="url(#p3d7192707c)" d="M 316.277654 138.005215 
C 317.463678 138.005215 318.601286 137.534003 319.439932 136.695357 
C 320.278578 135.856711 320.74979 134.719103 320.74979 133.533079 
C 320.74979 132.347055 320.278578 131.209447 319.439932 130.370801 
C 318.601286 129.532156 317.463678 129.060943 316.277654 129.060943 
C 315.09163 129.060943 313.954022 129.532156 313.115376 130.370801 
C 312.276731 131.209447 311.805518 132.347055 311.805518 133.533079 
C 311.805518 134.719103 312.276731 135.856711 313.115376 136.695357 
C 313.954022 137.534003 315.09163 138.005215 316.277654 138.005215 
z
" style="fill:#0000ff;stroke:#000000;"/>
    <path clip-path="url(#p3d7192707c)" d="M 314.745995 144.963731 
C 315.932019 144.963731 317.069627 144.492518 317.908273 143.653872 
C 318.746919 142.815226 319.218131 141.677619 319.218131 140.491595 
C 319.218131 139.30557 318.746919 138.167963 317.908273 137.329317 
C 317.069627 136.490671 315.932019 136.019459 314.745995 136.019459 
C 313.559971 136.019459 312.422363 136.490671 311.583717 137.329317 
C 310.745072 138.167963 310.273859 139.30557 310.273859 140.491595 
C 310.273859 141.677619 310.745072 142.815226 311.583717 143.653872 
C 312.422363 144.492518 313.559971 144.963731 314.745995 144.963731 
z
" style="fill:#0000ff;stroke:#000000;"/>
    <path clip-path="url(#p3d7192707c)" d="M 244.618141 181.569406 
C 245.804165 181.569406 246.941773 181.098194 247.780419 180.259548 
C 248.619065 179.420902 249.090277 178.283295 249.090277 177.09727 
C 249.090277 175.911246 248.619065 174.773639 247.780419 173.934993 
C 246.941773 173.096347 245.804165 172.625134 244.618141 172.625134 
C 243.432117 172.625134 242.294509 173.096347 241.455863 173.934993 
C 240.617218 174.773639 240.146005 175.911246 240.146005 177.09727 
C 240.146005 178.283295 240.617218 179.420902 241.455863 180.259548 
C 242.294509 181.098194 243.432117 181.569406 244.618141 181.569406 
z
" style="fill:#0000ff;stroke:#000000;"/>
    <path clip-path="url(#p3d7192707c)" d="M 274.578855 181.419297 
C 275.764879 181.419297 276.902487 180.948085 277.741132 180.109439 
C 278.579778 179.270793 279.050991 178.133185 279.050991 176.947161 
C 279.050991 175.761137 278.579778 174.623529 277.741132 173.784883 
C 276.902487 172.946238 275.764879 172.475025 274.578855 172.475025 
C 273.39283 172.475025 272.255223 172.946238 271.416577 173.784883 
C 270.577931 174.623529 270.106719 175.761137 270.106719 176.947161 
C 270.106719 178.133185 270.577931 179.270793 271.416577 180.109439 
C 272.255223 180.948085 273.39283 181.419297 274.578855 181.419297 
z
" style="fill:#0000ff;stroke:#000000;"/>
    <path clip-path="url(#p3d7192707c)" d="M 270.392584 169.729983 
C 271.578608 169.729983 272.716215 169.25877 273.554861 168.420124 
C 274.393507 167.581479 274.86472 166.443871 274.86472 165.257847 
C 274.86472 164.071822 274.393507 162.934215 273.554861 162.095569 
C 272.716215 161.256923 271.578608 160.785711 270.392584 160.785711 
C 269.206559 160.785711 268.068952 161.256923 267.230306 162.095569 
C 266.39166 162.934215 265.920448 164.071822 265.920448 165.257847 
C 265.920448 166.443871 266.39166 167.581479 267.230306 168.420124 
C 268.068952 169.25877 269.206559 169.729983 270.392584 169.729983 
z
" style="fill:#0000ff;stroke:#000000;"/>
    <path clip-path="url(#p3d7192707c)" d="M 330.135335 127.347834 
C 331.32136 127.347834 332.458967 126.876621 333.297613 126.037975 
C 334.136259 125.199329 334.607471 124.061722 334.607471 122.875698 
C 334.607471 121.689673 334.136259 120.552066 333.297613 119.71342 
C 332.458967 118.874774 331.32136 118.403562 330.135335 118.403562 
C 328.949311 118.403562 327.811704 118.874774 326.973058 119.71342 
C 326.134412 120.552066 325.663199 121.689673 325.663199 122.875698 
C 325.663199 124.061722 326.134412 125.199329 326.973058 126.037975 
C 327.811704 126.876621 328.949311 127.347834 330.135335 127.347834 
z
" style="fill:#0000ff;stroke:#000000;"/>
    <path clip-path="url(#p3d7192707c)" d="M 164.280939 196.609765 
C 165.466963 196.609765 166.604571 196.138553 167.443217 195.299907 
C 168.281863 194.461261 168.753075 193.323654 168.753075 192.137629 
C 168.753075 190.951605 168.281863 189.813998 167.443217 188.975352 
C 166.604571 188.136706 165.466963 187.665493 164.280939 187.665493 
C 163.094915 187.665493 161.957307 188.136706 161.118661 188.975352 
C 160.280016 189.813998 159.808803 190.951605 159.808803 192.137629 
C 159.808803 193.323654 160.280016 194.461261 161.118661 195.299907 
C 161.957307 196.138553 163.094915 196.609765 164.280939 196.609765 
z
" style="fill:#0000ff;stroke:#000000;"/>
    <path clip-path="url(#p3d7192707c)" d="M 283.974438 185.506929 
C 285.160462 185.506929 286.298069 185.035716 287.136715 184.19707 
C 287.975361 183.358425 288.446574 182.220817 288.446574 181.034793 
C 288.446574 179.848768 287.975361 178.711161 287.136715 177.872515 
C 286.298069 177.033869 285.160462 176.562657 283.974438 176.562657 
C 282.788413 176.562657 281.650806 177.033869 280.81216 177.872515 
C 279.973514 178.711161 279.502302 179.848768 279.502302 181.034793 
C 279.502302 182.220817 279.973514 183.358425 280.81216 184.19707 
C 281.650806 185.035716 282.788413 185.506929 283.974438 185.506929 
z
" style="fill:#0000ff;stroke:#000000;"/>
    <path clip-path="url(#p3d7192707c)" d="M 211.715636 175.524483 
C 212.901661 175.524483 214.039268 175.05327 214.877914 174.214625 
C 215.71656 173.375979 216.187772 172.238371 216.187772 171.052347 
C 216.187772 169.866323 215.71656 168.728715 214.877914 167.890069 
C 214.039268 167.051423 212.901661 166.580211 211.715636 166.580211 
C 210.529612 166.580211 209.392005 167.051423 208.553359 167.890069 
C 207.714713 168.728715 207.2435 169.866323 207.2435 171.052347 
C 207.2435 172.238371 207.714713 173.375979 208.553359 174.214625 
C 209.392005 175.05327 210.529612 175.524483 211.715636 175.524483 
z
" style="fill:#0000ff;stroke:#000000;"/>
    <path clip-path="url(#p3d7192707c)" d="M 171.65275 230.303939 
C 172.838774 230.303939 173.976382 229.832726 174.815028 228.99408 
C 175.653674 228.155435 176.124886 227.017827 176.124886 225.831803 
C 176.124886 224.645778 175.653674 223.508171 174.815028 222.669525 
C 173.976382 221.830879 172.838774 221.359667 171.65275 221.359667 
C 170.466726 221.359667 169.329118 221.830879 168.490472 222.669525 
C 167.651827 223.508171 167.180614 224.645778 167.180614 225.831803 
C 167.180614 227.017827 167.651827 228.155435 168.490472 228.99408 
C 169.329118 229.832726 170.466726 230.303939 171.65275 230.303939 
z
" style="fill:#0000ff;stroke:#000000;"/>
    <path clip-path="url(#p3d7192707c)" d="M 261.642756 142.743972 
C 262.828781 142.743972 263.966388 142.27276 264.805034 141.434114 
C 265.64368 140.595468 266.114892 139.457861 266.114892 138.271836 
C 266.114892 137.085812 265.64368 135.948205 264.805034 135.109559 
C 263.966388 134.270913 262.828781 133.799701 261.642756 133.799701 
C 260.456732 133.799701 259.319124 134.270913 258.480479 135.109559 
C 257.641833 135.948205 257.17062 137.085812 257.17062 138.271836 
C 257.17062 139.457861 257.641833 140.595468 258.480479 141.434114 
C 259.319124 142.27276 260.456732 142.743972 261.642756 142.743972 
z
" style="fill:#0000ff;stroke:#000000;"/>
    <path clip-path="url(#p3d7192707c)" d="M 232.444354 181.539831 
C 233.630378 181.539831 234.767986 181.068619 235.606632 180.229973 
C 236.445277 179.391327 236.91649 178.25372 236.91649 177.067695 
C 236.91649 175.881671 236.445277 174.744064 235.606632 173.905418 
C 234.767986 173.066772 233.630378 172.595559 232.444354 172.595559 
C 231.25833 172.595559 230.120722 173.066772 229.282076 173.905418 
C 228.44343 174.744064 227.972218 175.881671 227.972218 177.067695 
C 227.972218 178.25372 228.44343 179.391327 229.282076 180.229973 
C 230.120722 181.068619 231.25833 181.539831 232.444354 181.539831 
z
" style="fill:#0000ff;stroke:#000000;"/>
    <path clip-path="url(#p3d7192707c)" d="M 281.085948 189.47117 
C 282.271973 189.47117 283.40958 188.999958 284.248226 188.161312 
C 285.086872 187.322666 285.558084 186.185059 285.558084 184.999034 
C 285.558084 183.81301 285.086872 182.675402 284.248226 181.836757 
C 283.40958 180.998111 282.271973 180.526898 281.085948 180.526898 
C 279.899924 180.526898 278.762316 180.998111 277.923671 181.836757 
C 277.085025 182.675402 276.613812 183.81301 276.613812 184.999034 
C 276.613812 186.185059 277.085025 187.322666 277.923671 188.161312 
C 278.762316 188.999958 279.899924 189.47117 281.085948 189.47117 
z
" style="fill:#0000ff;stroke:#000000;"/>
    <path clip-path="url(#p3d7192707c)" d="M 207.027814 149.642578 
C 208.213838 149.642578 209.351446 149.171366 210.190092 148.33272 
C 211.028737 147.494074 211.49995 146.356467 211.49995 145.170442 
C 211.49995 143.984418 211.028737 142.846811 210.190092 142.008165 
C 209.351446 141.169519 208.213838 140.698306 207.027814 140.698306 
C 205.84179 140.698306 204.704182 141.169519 203.865536 142.008165 
C 203.02689 142.846811 202.555678 143.984418 202.555678 145.170442 
C 202.555678 146.356467 203.02689 147.494074 203.865536 148.33272 
C 204.704182 149.171366 205.84179 149.642578 207.027814 149.642578 
z
" style="fill:#0000ff;stroke:#000000;"/>
    <path clip-path="url(#p3d7192707c)" d="M 339.853087 165.018684 
C 341.039112 165.018684 342.176719 164.547472 343.015365 163.708826 
C 343.854011 162.87018 344.325223 161.732572 344.325223 160.546548 
C 344.325223 159.360524 343.854011 158.222916 343.015365 157.38427 
C 342.176719 156.545625 341.039112 156.074412 339.853087 156.074412 
C 338.667063 156.074412 337.529456 156.545625 336.69081 157.38427 
C 335.852164 158.222916 335.380951 159.360524 335.380951 160.546548 
C 335.380951 161.732572 335.852164 162.87018 336.69081 163.708826 
C 337.529456 164.547472 338.667063 165.018684 339.853087 165.018684 
z
" style="fill:#0000ff;stroke:#000000;"/>
    <path clip-path="url(#p3d7192707c)" d="M 198.719956 154.966542 
C 199.905981 154.966542 201.043588 154.49533 201.882234 153.656684 
C 202.72088 152.818038 203.192092 151.68043 203.192092 150.494406 
C 203.192092 149.308382 202.72088 148.170774 201.882234 147.332128 
C 201.043588 146.493483 199.905981 146.02227 198.719956 146.02227 
C 197.533932 146.02227 196.396325 146.493483 195.557679 147.332128 
C 194.719033 148.170774 194.24782 149.308382 194.24782 150.494406 
C 194.24782 151.68043 194.719033 152.818038 195.557679 153.656684 
C 196.396325 154.49533 197.533932 154.966542 198.719956 154.966542 
z
" style="fill:#0000ff;stroke:#000000;"/>
    <path clip-path="url(#p3d7192707c)" d="M 254.808687 195.817746 
C 255.994712 195.817746 257.132319 195.346534 257.970965 194.507888 
C 258.809611 193.669242 259.280823 192.531634 259.280823 191.34561 
C 259.280823 190.159586 258.809611 189.021978 257.970965 188.183332 
C 257.132319 187.344687 255.994712 186.873474 254.808687 186.873474 
C 253.622663 186.873474 252.485055 187.344687 251.64641 188.183332 
C 250.807764 189.021978 250.336551 190.159586 250.336551 191.34561 
C 250.336551 192.531634 250.807764 193.669242 251.64641 194.507888 
C 252.485055 195.346534 253.622663 195.817746 254.808687 195.817746 
z
" style="fill:#0000ff;stroke:#000000;"/>
    <path clip-path="url(#p3d7192707c)" d="M 307.350771 183.59734 
C 308.536795 183.59734 309.674403 183.126127 310.513048 182.287481 
C 311.351694 181.448835 311.822907 180.311228 311.822907 179.125204 
C 311.822907 177.939179 311.351694 176.801572 310.513048 175.962926 
C 309.674403 175.12428 308.536795 174.653068 307.350771 174.653068 
C 306.164746 174.653068 305.027139 175.12428 304.188493 175.962926 
C 303.349847 176.801572 302.878635 177.939179 302.878635 179.125204 
C 302.878635 180.311228 303.349847 181.448835 304.188493 182.287481 
C 305.027139 183.126127 306.164746 183.59734 307.350771 183.59734 
z
" style="fill:#0000ff;stroke:#000000;"/>
    <path clip-path="url(#p3d7192707c)" d="M 197.018592 206.675254 
C 198.204616 206.675254 199.342223 206.204042 200.180869 205.365396 
C 201.019515 204.52675 201.490728 203.389143 201.490728 202.203118 
C 201.490728 201.017094 201.019515 199.879487 200.180869 199.040841 
C 199.342223 198.202195 198.204616 197.730982 197.018592 197.730982 
C 195.832567 197.730982 194.69496 198.202195 193.856314 199.040841 
C 193.017668 199.879487 192.546456 201.017094 192.546456 202.203118 
C 192.546456 203.389143 193.017668 204.52675 193.856314 205.365396 
C 194.69496 206.204042 195.832567 206.675254 197.018592 206.675254 
z
" style="fill:#0000ff;stroke:#000000;"/>
    <path clip-path="url(#p3d7192707c)" d="M 229.855705 134.848336 
C 231.04173 134.848336 232.179337 134.377124 233.017983 133.538478 
C 233.856629 132.699832 234.327841 131.562224 234.327841 130.3762 
C 234.327841 129.190176 233.856629 128.052568 233.017983 127.213922 
C 232.179337 126.375277 231.04173 125.904064 229.855705 125.904064 
C 228.669681 125.904064 227.532073 126.375277 226.693428 127.213922 
C 225.854782 128.052568 225.383569 129.190176 225.383569 130.3762 
C 225.383569 131.562224 225.854782 132.699832 226.693428 133.538478 
C 227.532073 134.377124 228.669681 134.848336 229.855705 134.848336 
z
" style="fill:#0000ff;stroke:#000000;"/>
    <path clip-path="url(#p3d7192707c)" d="M 298.991221 163.804281 
C 300.177246 163.804281 301.314853 163.333069 302.153499 162.494423 
C 302.992145 161.655777 303.463357 160.51817 303.463357 159.332145 
C 303.463357 158.146121 302.992145 157.008513 302.153499 156.169868 
C 301.314853 155.331222 300.177246 154.860009 298.991221 154.860009 
C 297.805197 154.860009 296.66759 155.331222 295.828944 156.169868 
C 294.990298 157.008513 294.519086 158.146121 294.519086 159.332145 
C 294.519086 160.51817 294.990298 161.655777 295.828944 162.494423 
C 296.66759 163.333069 297.805197 163.804281 298.991221 163.804281 
z
" style="fill:#0000ff;stroke:#000000;"/>
    <path clip-path="url(#p3d7192707c)" d="M 324.470574 199.006472 
C 325.656598 199.006472 326.794206 198.535259 327.632852 197.696614 
C 328.471498 196.857968 328.94271 195.72036 328.94271 194.534336 
C 328.94271 193.348312 328.471498 192.210704 327.632852 191.372058 
C 326.794206 190.533412 325.656598 190.0622 324.470574 190.0622 
C 323.28455 190.0622 322.146942 190.533412 321.308296 191.372058 
C 320.469651 192.210704 319.998438 193.348312 319.998438 194.534336 
C 319.998438 195.72036 320.469651 196.857968 321.308296 197.696614 
C 322.146942 198.535259 323.28455 199.006472 324.470574 199.006472 
z
" style="fill:#0000ff;stroke:#000000;"/>
    <path clip-path="url(#p3d7192707c)" d="M 280.893669 164.386058 
C 282.079694 164.386058 283.217301 163.914846 284.055947 163.0762 
C 284.894593 162.237554 285.365805 161.099946 285.365805 159.913922 
C 285.365805 158.727898 284.894593 157.59029 284.055947 156.751644 
C 283.217301 155.912999 282.079694 155.441786 280.893669 155.441786 
C 279.707645 155.441786 278.570037 155.912999 277.731392 156.751644 
C 276.892746 157.59029 276.421533 158.727898 276.421533 159.913922 
C 276.421533 161.099946 276.892746 162.237554 277.731392 163.0762 
C 278.570037 163.914846 279.707645 164.386058 280.893669 164.386058 
z
" style="fill:#0000ff;stroke:#000000;"/>
    <path clip-path="url(#p3d7192707c)" d="M 338.29971 181.032484 
C 339.485735 181.032484 340.623342 180.561272 341.461988 179.722626 
C 342.300634 178.88398 342.771846 177.746373 342.771846 176.560348 
C 342.771846 175.374324 342.300634 174.236717 341.461988 173.398071 
C 340.623342 172.559425 339.485735 172.088212 338.29971 172.088212 
C 337.113686 172.088212 335.976078 172.559425 335.137433 173.398071 
C 334.298787 174.236717 333.827574 175.374324 333.827574 176.560348 
C 333.827574 177.746373 334.298787 178.88398 335.137433 179.722626 
C 335.976078 180.561272 337.113686 181.032484 338.29971 181.032484 
z
" style="fill:#0000ff;stroke:#000000;"/>
    <path clip-path="url(#p3d7192707c)" d="M 312.241101 162.399132 
C 313.427125 162.399132 314.564733 161.927919 315.403378 161.089273 
C 316.242024 160.250628 316.713237 159.11302 316.713237 157.926996 
C 316.713237 156.740971 316.242024 155.603364 315.403378 154.764718 
C 314.564733 153.926072 313.427125 153.45486 312.241101 153.45486 
C 311.055076 153.45486 309.917469 153.926072 309.078823 154.764718 
C 308.240177 155.603364 307.768965 156.740971 307.768965 157.926996 
C 307.768965 159.11302 308.240177 160.250628 309.078823 161.089273 
C 309.917469 161.927919 311.055076 162.399132 312.241101 162.399132 
z
" style="fill:#0000ff;stroke:#000000;"/>
    <path clip-path="url(#p3d7192707c)" d="M 358.883943 153.813748 
C 360.069968 153.813748 361.207575 153.342535 362.046221 152.503889 
C 362.884867 151.665244 363.356079 150.527636 363.356079 149.341612 
C 363.356079 148.155588 362.884867 147.01798 362.046221 146.179334 
C 361.207575 145.340688 360.069968 144.869476 358.883943 144.869476 
C 357.697919 144.869476 356.560311 145.340688 355.721666 146.179334 
C 354.88302 147.01798 354.411807 148.155588 354.411807 149.341612 
C 354.411807 150.527636 354.88302 151.665244 355.721666 152.503889 
C 356.560311 153.342535 357.697919 153.813748 358.883943 153.813748 
z
" style="fill:#0000ff;stroke:#000000;"/>
    <path clip-path="url(#p3d7192707c)" d="M 314.859044 169.69745 
C 316.045069 169.69745 317.182676 169.226238 318.021322 168.387592 
C 318.859968 167.548946 319.33118 166.411339 319.33118 165.225314 
C 319.33118 164.03929 318.859968 162.901682 318.021322 162.063037 
C 317.182676 161.224391 316.045069 160.753178 314.859044 160.753178 
C 313.67302 160.753178 312.535412 161.224391 311.696767 162.063037 
C 310.858121 162.901682 310.386908 164.03929 310.386908 165.225314 
C 310.386908 166.411339 310.858121 167.548946 311.696767 168.387592 
C 312.535412 169.226238 313.67302 169.69745 314.859044 169.69745 
z
" style="fill:#0000ff;stroke:#000000;"/>
    <path clip-path="url(#p3d7192707c)" d="M 263.479368 166.820549 
C 264.665392 166.820549 265.803 166.349337 266.641646 165.510691 
C 267.480291 164.672045 267.951504 163.534438 267.951504 162.348413 
C 267.951504 161.162389 267.480291 160.024781 266.641646 159.186136 
C 265.803 158.34749 264.665392 157.876277 263.479368 157.876277 
C 262.293344 157.876277 261.155736 158.34749 260.31709 159.186136 
C 259.478444 160.024781 259.007232 161.162389 259.007232 162.348413 
C 259.007232 163.534438 259.478444 164.672045 260.31709 165.510691 
C 261.155736 166.349337 262.293344 166.820549 263.479368 166.820549 
z
" style="fill:#0000ff;stroke:#000000;"/>
    <path clip-path="url(#p3d7192707c)" d="M 247.20526 173.421632 
C 248.391284 173.421632 249.528891 172.950419 250.367537 172.111773 
C 251.206183 171.273127 251.677396 170.13552 251.677396 168.949496 
C 251.677396 167.763471 251.206183 166.625864 250.367537 165.787218 
C 249.528891 164.948572 248.391284 164.47736 247.20526 164.47736 
C 246.019235 164.47736 244.881628 164.948572 244.042982 165.787218 
C 243.204336 166.625864 242.733124 167.763471 242.733124 168.949496 
C 242.733124 170.13552 243.204336 171.273127 244.042982 172.111773 
C 244.881628 172.950419 246.019235 173.421632 247.20526 173.421632 
z
" style="fill:#0000ff;stroke:#000000;"/>
    <path clip-path="url(#p3d7192707c)" d="M 216.013213 175.172393 
C 217.199238 175.172393 218.336845 174.70118 219.175491 173.862534 
C 220.014137 173.023889 220.485349 171.886281 220.485349 170.700257 
C 220.485349 169.514232 220.014137 168.376625 219.175491 167.537979 
C 218.336845 166.699333 217.199238 166.228121 216.013213 166.228121 
C 214.827189 166.228121 213.689581 166.699333 212.850936 167.537979 
C 212.01229 168.376625 211.541077 169.514232 211.541077 170.700257 
C 211.541077 171.886281 212.01229 173.023889 212.850936 173.862534 
C 213.689581 174.70118 214.827189 175.172393 216.013213 175.172393 
z
" style="fill:#0000ff;stroke:#000000;"/>
    <path clip-path="url(#p3d7192707c)" d="M 211.975722 193.496816 
C 213.161746 193.496816 214.299354 193.025604 215.138 192.186958 
C 215.976646 191.348312 216.447858 190.210704 216.447858 189.02468 
C 216.447858 187.838656 215.976646 186.701048 215.138 185.862402 
C 214.299354 185.023757 213.161746 184.552544 211.975722 184.552544 
C 210.789698 184.552544 209.65209 185.023757 208.813444 185.862402 
C 207.974799 186.701048 207.503586 187.838656 207.503586 189.02468 
C 207.503586 190.210704 207.974799 191.348312 208.813444 192.186958 
C 209.65209 193.025604 210.789698 193.496816 211.975722 193.496816 
z
" style="fill:#0000ff;stroke:#000000;"/>
    <path clip-path="url(#p3d7192707c)" d="M 263.375807 156.704197 
C 264.561832 156.704197 265.699439 156.232984 266.538085 155.394338 
C 267.376731 154.555692 267.847943 153.418085 267.847943 152.232061 
C 267.847943 151.046036 267.376731 149.908429 266.538085 149.069783 
C 265.699439 148.231137 264.561832 147.759925 263.375807 147.759925 
C 262.189783 147.759925 261.052176 148.231137 260.21353 149.069783 
C 259.374884 149.908429 258.903671 151.046036 258.903671 152.232061 
C 258.903671 153.418085 259.374884 154.555692 260.21353 155.394338 
C 261.052176 156.232984 262.189783 156.704197 263.375807 156.704197 
z
" style="fill:#0000ff;stroke:#000000;"/>
    <path clip-path="url(#p3d7192707c)" d="M 265.08163 178.622327 
C 266.267654 178.622327 267.405261 178.151114 268.243907 177.312469 
C 269.082553 176.473823 269.553765 175.336215 269.553765 174.150191 
C 269.553765 172.964167 269.082553 171.826559 268.243907 170.987913 
C 267.405261 170.149267 266.267654 169.678055 265.08163 169.678055 
C 263.895605 169.678055 262.757998 170.149267 261.919352 170.987913 
C 261.080706 171.826559 260.609494 172.964167 260.609494 174.150191 
C 260.609494 175.336215 261.080706 176.473823 261.919352 177.312469 
C 262.757998 178.151114 263.895605 178.622327 265.08163 178.622327 
z
" style="fill:#0000ff;stroke:#000000;"/>
    <path clip-path="url(#p3d7192707c)" d="M 175.523072 173.087139 
C 176.709097 173.087139 177.846704 172.615926 178.68535 171.77728 
C 179.523996 170.938635 179.995208 169.801027 179.995208 168.615003 
C 179.995208 167.428978 179.523996 166.291371 178.68535 165.452725 
C 177.846704 164.614079 176.709097 164.142867 175.523072 164.142867 
C 174.337048 164.142867 173.19944 164.614079 172.360795 165.452725 
C 171.522149 166.291371 171.050936 167.428978 171.050936 168.615003 
C 171.050936 169.801027 171.522149 170.938635 172.360795 171.77728 
C 173.19944 172.615926 174.337048 173.087139 175.523072 173.087139 
z
" style="fill:#0000ff;stroke:#000000;"/>
    <path clip-path="url(#p3d7192707c)" d="M 257.877457 129.077892 
C 259.063482 129.077892 260.201089 128.606679 261.039735 127.768033 
C 261.878381 126.929387 262.349593 125.79178 262.349593 124.605756 
C 262.349593 123.419731 261.878381 122.282124 261.039735 121.443478 
C 260.201089 120.604832 259.063482 120.13362 257.877457 120.13362 
C 256.691433 120.13362 255.553825 120.604832 254.71518 121.443478 
C 253.876534 122.282124 253.405321 123.419731 253.405321 124.605756 
C 253.405321 125.79178 253.876534 126.929387 254.71518 127.768033 
C 255.553825 128.606679 256.691433 129.077892 257.877457 129.077892 
z
" style="fill:#0000ff;stroke:#000000;"/>
    <path clip-path="url(#p3d7192707c)" d="M 365.151376 157.352297 
C 366.337401 157.352297 367.475008 156.881084 368.313654 156.042438 
C 369.1523 155.203792 369.623512 154.066185 369.623512 152.880161 
C 369.623512 151.694136 369.1523 150.556529 368.313654 149.717883 
C 367.475008 148.879237 366.337401 148.408025 365.151376 148.408025 
C 363.965352 148.408025 362.827745 148.879237 361.989099 149.717883 
C 361.150453 150.556529 360.67924 151.694136 360.67924 152.880161 
C 360.67924 154.066185 361.150453 155.203792 361.989099 156.042438 
C 362.827745 156.881084 363.965352 157.352297 365.151376 157.352297 
z
" style="fill:#0000ff;stroke:#000000;"/>
    <path clip-path="url(#p3d7192707c)" d="M 301.060173 184.087273 
C 302.246197 184.087273 303.383805 183.61606 304.222451 182.777414 
C 305.061097 181.938769 305.532309 180.801161 305.532309 179.615137 
C 305.532309 178.429112 305.061097 177.291505 304.222451 176.452859 
C 303.383805 175.614213 302.246197 175.143001 301.060173 175.143001 
C 299.874149 175.143001 298.736541 175.614213 297.897895 176.452859 
C 297.05925 177.291505 296.588037 178.429112 296.588037 179.615137 
C 296.588037 180.801161 297.05925 181.938769 297.897895 182.777414 
C 298.736541 183.61606 299.874149 184.087273 301.060173 184.087273 
z
" style="fill:#0000ff;stroke:#000000;"/>
    <path clip-path="url(#p3d7192707c)" d="M 260.018338 155.019191 
C 261.204363 155.019191 262.34197 154.547978 263.180616 153.709332 
C 264.019262 152.870686 264.490474 151.733079 264.490474 150.547055 
C 264.490474 149.36103 264.019262 148.223423 263.180616 147.384777 
C 262.34197 146.546131 261.204363 146.074919 260.018338 146.074919 
C 258.832314 146.074919 257.694706 146.546131 256.856061 147.384777 
C 256.017415 148.223423 255.546202 149.36103 255.546202 150.547055 
C 255.546202 151.733079 256.017415 152.870686 256.856061 153.709332 
C 257.694706 154.547978 258.832314 155.019191 260.018338 155.019191 
z
" style="fill:#0000ff;stroke:#000000;"/>
    <path clip-path="url(#p3d7192707c)" d="M 255.063126 207.39138 
C 256.24915 207.39138 257.386757 206.920168 258.225403 206.081522 
C 259.064049 205.242876 259.535262 204.105268 259.535262 202.919244 
C 259.535262 201.73322 259.064049 200.595612 258.225403 199.756966 
C 257.386757 198.918321 256.24915 198.447108 255.063126 198.447108 
C 253.877101 198.447108 252.739494 198.918321 251.900848 199.756966 
C 251.062202 200.595612 250.59099 201.73322 250.59099 202.919244 
C 250.59099 204.105268 251.062202 205.242876 251.900848 206.081522 
C 252.739494 206.920168 253.877101 207.39138 255.063126 207.39138 
z
" style="fill:#0000ff;stroke:#000000;"/>
    <path clip-path="url(#p3d7192707c)" d="M 242.924266 166.111144 
C 244.11029 166.111144 245.247898 165.639932 246.086544 164.801286 
C 246.925189 163.96264 247.396402 162.825033 247.396402 161.639008 
C 247.396402 160.452984 246.925189 159.315377 246.086544 158.476731 
C 245.247898 157.638085 244.11029 157.166872 242.924266 157.166872 
C 241.738242 157.166872 240.600634 157.638085 239.761988 158.476731 
C 238.923342 159.315377 238.45213 160.452984 238.45213 161.639008 
C 238.45213 162.825033 238.923342 163.96264 239.761988 164.801286 
C 240.600634 165.639932 241.738242 166.111144 242.924266 166.111144 
z
" style="fill:#0000ff;stroke:#000000;"/>
    <path clip-path="url(#p3d7192707c)" d="M 307.328844 140.349585 
C 308.514868 140.349585 309.652476 139.878372 310.491122 139.039727 
C 311.329768 138.201081 311.80098 137.063473 311.80098 135.877449 
C 311.80098 134.691425 311.329768 133.553817 310.491122 132.715171 
C 309.652476 131.876525 308.514868 131.405313 307.328844 131.405313 
C 306.14282 131.405313 305.005212 131.876525 304.166566 132.715171 
C 303.327921 133.553817 302.856708 134.691425 302.856708 135.877449 
C 302.856708 137.063473 303.327921 138.201081 304.166566 139.039727 
C 305.005212 139.878372 306.14282 140.349585 307.328844 140.349585 
z
" style="fill:#0000ff;stroke:#000000;"/>
    <path clip-path="url(#p3d7192707c)" d="M 280.348236 178.935981 
C 281.53426 178.935981 282.671867 178.464768 283.510513 177.626123 
C 284.349159 176.787477 284.820371 175.649869 284.820371 174.463845 
C 284.820371 173.277821 284.349159 172.140213 283.510513 171.301567 
C 282.671867 170.462921 281.53426 169.991709 280.348236 169.991709 
C 279.162211 169.991709 278.024604 170.462921 277.185958 171.301567 
C 276.347312 172.140213 275.8761 173.277821 275.8761 174.463845 
C 275.8761 175.649869 276.347312 176.787477 277.185958 177.626123 
C 278.024604 178.464768 279.162211 178.935981 280.348236 178.935981 
z
" style="fill:#0000ff;stroke:#000000;"/>
    <path clip-path="url(#p3d7192707c)" d="M 147.818273 214.64147 
C 149.004297 214.64147 150.141905 214.170258 150.980551 213.331612 
C 151.819197 212.492966 152.290409 211.355359 152.290409 210.169334 
C 152.290409 208.98331 151.819197 207.845702 150.980551 207.007057 
C 150.141905 206.168411 149.004297 205.697198 147.818273 205.697198 
C 146.632249 205.697198 145.494641 206.168411 144.655995 207.007057 
C 143.81735 207.845702 143.346137 208.98331 143.346137 210.169334 
C 143.346137 211.355359 143.81735 212.492966 144.655995 213.331612 
C 145.494641 214.170258 146.632249 214.64147 147.818273 214.64147 
z
" style="fill:#0000ff;stroke:#000000;"/>
    <path clip-path="url(#p3d7192707c)" d="M 216.607896 197.72043 
C 217.793921 197.72043 218.931528 197.249217 219.770174 196.410572 
C 220.60882 195.571926 221.080032 194.434318 221.080032 193.248294 
C 221.080032 192.06227 220.60882 190.924662 219.770174 190.086016 
C 218.931528 189.24737 217.793921 188.776158 216.607896 188.776158 
C 215.421872 188.776158 214.284265 189.24737 213.445619 190.086016 
C 212.606973 190.924662 212.13576 192.06227 212.13576 193.248294 
C 212.13576 194.434318 212.606973 195.571926 213.445619 196.410572 
C 214.284265 197.249217 215.421872 197.72043 216.607896 197.72043 
z
" style="fill:#0000ff;stroke:#000000;"/>
    <path clip-path="url(#p3d7192707c)" d="M 265.742521 156.204003 
C 266.928545 156.204003 268.066153 155.732791 268.904799 154.894145 
C 269.743444 154.055499 270.214657 152.917891 270.214657 151.731867 
C 270.214657 150.545843 269.743444 149.408235 268.904799 148.569589 
C 268.066153 147.730944 266.928545 147.259731 265.742521 147.259731 
C 264.556497 147.259731 263.418889 147.730944 262.580243 148.569589 
C 261.741597 149.408235 261.270385 150.545843 261.270385 151.731867 
C 261.270385 152.917891 261.741597 154.055499 262.580243 154.894145 
C 263.418889 155.732791 264.556497 156.204003 265.742521 156.204003 
z
" style="fill:#0000ff;stroke:#000000;"/>
    <path clip-path="url(#p3d7192707c)" d="M 272.908091 147.555753 
C 274.094115 147.555753 275.231723 147.084541 276.070369 146.245895 
C 276.909015 145.407249 277.380227 144.269642 277.380227 143.083618 
C 277.380227 141.897593 276.909015 140.759986 276.070369 139.92134 
C 275.231723 139.082694 274.094115 138.611482 272.908091 138.611482 
C 271.722067 138.611482 270.584459 139.082694 269.745814 139.92134 
C 268.907168 140.759986 268.435955 141.897593 268.435955 143.083618 
C 268.435955 144.269642 268.907168 145.407249 269.745814 146.245895 
C 270.584459 147.084541 271.722067 147.555753 272.908091 147.555753 
z
" style="fill:#0000ff;stroke:#000000;"/>
    <path clip-path="url(#p3d7192707c)" d="M 313.420509 180.506724 
C 314.606533 180.506724 315.744141 180.035512 316.582787 179.196866 
C 317.421432 178.35822 317.892645 177.220612 317.892645 176.034588 
C 317.892645 174.848564 317.421432 173.710956 316.582787 172.87231 
C 315.744141 172.033665 314.606533 171.562452 313.420509 171.562452 
C 312.234485 171.562452 311.096877 172.033665 310.258231 172.87231 
C 309.419585 173.710956 308.948373 174.848564 308.948373 176.034588 
C 308.948373 177.220612 309.419585 178.35822 310.258231 179.196866 
C 311.096877 180.035512 312.234485 180.506724 313.420509 180.506724 
z
" style="fill:#0000ff;stroke:#000000;"/>
    <path clip-path="url(#p3d7192707c)" d="M 199.761397 166.381581 
C 200.947421 166.381581 202.085029 165.910369 202.923675 165.071723 
C 203.762321 164.233077 204.233533 163.095469 204.233533 161.909445 
C 204.233533 160.723421 203.762321 159.585813 202.923675 158.747167 
C 202.085029 157.908522 200.947421 157.437309 199.761397 157.437309 
C 198.575373 157.437309 197.437765 157.908522 196.599119 158.747167 
C 195.760474 159.585813 195.289261 160.723421 195.289261 161.909445 
C 195.289261 163.095469 195.760474 164.233077 196.599119 165.071723 
C 197.437765 165.910369 198.575373 166.381581 199.761397 166.381581 
z
" style="fill:#0000ff;stroke:#000000;"/>
    <path clip-path="url(#p3d7192707c)" d="M 247.772905 172.801403 
C 248.958929 172.801403 250.096537 172.330191 250.935182 171.491545 
C 251.773828 170.652899 252.245041 169.515291 252.245041 168.329267 
C 252.245041 167.143243 251.773828 166.005635 250.935182 165.166989 
C 250.096537 164.328344 248.958929 163.857131 247.772905 163.857131 
C 246.58688 163.857131 245.449273 164.328344 244.610627 165.166989 
C 243.771981 166.005635 243.300769 167.143243 243.300769 168.329267 
C 243.300769 169.515291 243.771981 170.652899 244.610627 171.491545 
C 245.449273 172.330191 246.58688 172.801403 247.772905 172.801403 
z
" style="fill:#0000ff;stroke:#000000;"/>
   </g>
   <g id="line2d_1">
    <path clip-path="url(#p3d7192707c)" d="M 69.218182 239.757618 
L 75.429685 235.953673 
L 81.641187 232.149728 
L 87.85269 228.345783 
L 94.064193 224.541838 
L 100.275696 220.737893 
L 106.487199 216.933948 
L 112.698701 213.130003 
L 118.910204 209.326058 
L 125.121707 205.522113 
L 131.33321 201.718168 
L 137.544712 197.914223 
L 143.756215 194.110278 
L 149.967718 190.306333 
L 156.179221 186.502388 
L 162.390724 182.698443 
L 168.602226 178.894498 
L 174.813729 175.090553 
L 181.025232 171.286608 
L 187.236735 167.482663 
L 193.448237 163.678718 
L 199.65974 159.874773 
L 205.871243 156.070828 
L 212.082746 152.266883 
L 218.294249 148.462938 
L 224.505751 144.658993 
L 230.717254 140.855048 
L 236.928757 137.051103 
L 243.14026 133.247158 
L 249.351763 129.443213 
L 255.563265 125.639268 
L 261.774768 121.835323 
L 267.986271 118.031378 
L 274.197774 114.227433 
L 280.409276 110.423488 
L 286.620779 106.619543 
L 292.832282 102.815598 
L 299.043785 99.011653 
L 305.255288 95.207708 
L 311.46679 91.403763 
L 317.678293 87.599818 
L 323.889796 83.795873 
L 330.101299 79.991928 
L 336.312801 76.187983 
L 342.524304 72.384038 
L 348.735807 68.580093 
L 354.94731 64.776148 
L 361.158813 60.972203 
L 367.370315 57.168258 
L 373.581818 53.364312 
" style="fill:none;stroke:#000000;stroke-linecap:square;"/>
   </g>
   <g id="line2d_2">
    <path clip-path="url(#p3d7192707c)" d="M 69.218182 225.338761 
L 75.429685 221.534815 
L 81.641187 217.73087 
L 87.85269 213.926925 
L 94.064193 210.12298 
L 100.275696 206.319035 
L 106.487199 202.51509 
L 112.698701 198.711145 
L 118.910204 194.9072 
L 125.121707 191.103255 
L 131.33321 187.29931 
L 137.544712 183.495365 
L 143.756215 179.69142 
L 149.967718 175.887475 
L 156.179221 172.08353 
L 162.390724 168.279585 
L 168.602226 164.47564 
L 174.813729 160.671695 
L 181.025232 156.86775 
L 187.236735 153.063805 
L 193.448237 149.25986 
L 199.65974 145.455915 
L 205.871243 141.65197 
L 212.082746 137.848025 
L 218.294249 134.04408 
L 224.505751 130.240135 
L 230.717254 126.43619 
L 236.928757 122.632245 
L 243.14026 118.8283 
L 249.351763 115.024355 
L 255.563265 111.22041 
L 261.774768 107.416465 
L 267.986271 103.61252 
L 274.197774 99.808575 
L 280.409276 96.00463 
L 286.620779 92.200685 
L 292.832282 88.39674 
L 299.043785 84.592795 
L 305.255288 80.78885 
L 311.46679 76.984905 
L 317.678293 73.18096 
L 323.889796 69.377015 
L 330.101299 65.57307 
L 336.312801 61.769125 
L 342.524304 57.96518 
L 348.735807 54.161235 
L 354.94731 50.35729 
L 361.158813 46.553345 
L 367.370315 42.7494 
L 373.581818 38.945455 
" style="fill:none;stroke:#000000;stroke-dasharray:6.000000,6.000000;stroke-dashoffset:0.0;"/>
   </g>
   <g id="line2d_3">
    <path clip-path="url(#p3d7192707c)" d="M 69.218182 241.854545 
L 75.429685 238.0506 
L 81.641187 234.246655 
L 87.85269 230.44271 
L 94.064193 226.638765 
L 100.275696 222.83482 
L 106.487199 219.030875 
L 112.698701 215.22693 
L 118.910204 211.422985 
L 125.121707 207.61904 
L 131.33321 203.815095 
L 137.544712 200.01115 
L 143.756215 196.207205 
L 149.967718 192.40326 
L 156.179221 188.599315 
L 162.390724 184.79537 
L 168.602226 180.991425 
L 174.813729 177.18748 
L 181.025232 173.383535 
L 187.236735 169.57959 
L 193.448237 165.775645 
L 199.65974 161.9717 
L 205.871243 158.167755 
L 212.082746 154.36381 
L 218.294249 150.559865 
L 224.505751 146.75592 
L 230.717254 142.951975 
L 236.928757 139.14803 
L 243.14026 135.344085 
L 249.351763 131.54014 
L 255.563265 127.736195 
L 261.774768 123.93225 
L 267.986271 120.128305 
L 274.197774 116.32436 
L 280.409276 112.520415 
L 286.620779 108.71647 
L 292.832282 104.912525 
L 299.043785 101.10858 
L 305.255288 97.304635 
L 311.46679 93.50069 
L 317.678293 89.696745 
L 323.889796 85.8928 
L 330.101299 82.088855 
L 336.312801 78.28491 
L 342.524304 74.480965 
L 348.735807 70.67702 
L 354.94731 66.873075 
L 361.158813 63.06913 
L 367.370315 59.265185 
L 373.581818 55.461239 
" style="fill:none;stroke:#000000;stroke-dasharray:6.000000,6.000000;stroke-dashoffset:0.0;"/>
   </g>
   <g id="patch_3">
    <path d="M 54 28.8 
L 388.8 28.8 
" style="fill:none;stroke:#000000;stroke-linecap:square;stroke-linejoin:miter;"/>
   </g>
   <g id="patch_4">
    <path d="M 388.8 252 
L 388.8 28.8 
" style="fill:none;stroke:#000000;stroke-linecap:square;stroke-linejoin:miter;"/>
   </g>
   <g id="patch_5">
    <path d="M 54 252 
L 388.8 252 
" style="fill:none;stroke:#000000;stroke-linecap:square;stroke-linejoin:miter;"/>
   </g>
   <g id="patch_6">
    <path d="M 54 252 
L 54 28.8 
" style="fill:none;stroke:#000000;stroke-linecap:square;stroke-linejoin:miter;"/>
   </g>
   <g id="matplotlib.axis_1">
    <g id="xtick_1">
     <g id="line2d_4">
      <defs>
       <path d="M 0 0 
L 0 -4 
" id="m228c3968b0" style="stroke:#000000;stroke-width:0.5;"/>
      </defs>
      <g>
       <use style="stroke:#000000;stroke-width:0.5;" x="99.6545454545" xlink:href="#m228c3968b0" y="252.0"/>
      </g>
     </g>
     <g id="line2d_5">
      <defs>
       <path d="M 0 0 
L 0 4 
" id="m00c0b61842" style="stroke:#000000;stroke-width:0.5;"/>
      </defs>
      <g>
       <use style="stroke:#000000;stroke-width:0.5;" x="99.6545454545" xlink:href="#m00c0b61842" y="28.8"/>
      </g>
     </g>
     <g id="text_1">
      <!-- 2 -->
      <defs>
       <path d="M 10.59375 35.5 
L 73.1875 35.5 
L 73.1875 27.203125 
L 10.59375 27.203125 
z
" id="BitstreamVeraSans-Roman-2212"/>
       <path d="M 19.1875 8.296875 
L 53.609375 8.296875 
L 53.609375 0 
L 7.328125 0 
L 7.328125 8.296875 
Q 12.9375 14.109375 22.625 23.890625 
Q 32.328125 33.6875 34.8125 36.53125 
Q 39.546875 41.84375 41.421875 45.53125 
Q 43.3125 49.21875 43.3125 52.78125 
Q 43.3125 58.59375 39.234375 62.25 
Q 35.15625 65.921875 28.609375 65.921875 
Q 23.96875 65.921875 18.8125 64.3125 
Q 13.671875 62.703125 7.8125 59.421875 
L 7.8125 69.390625 
Q 13.765625 71.78125 18.9375 73 
Q 24.125 74.21875 28.421875 74.21875 
Q 39.75 74.21875 46.484375 68.546875 
Q 53.21875 62.890625 53.21875 53.421875 
Q 53.21875 48.921875 51.53125 44.890625 
Q 49.859375 40.875 45.40625 35.40625 
Q 44.1875 33.984375 37.640625 27.21875 
Q 31.109375 20.453125 19.1875 8.296875 
" id="BitstreamVeraSans-Roman-32"/>
      </defs>
      <g transform="translate(92.2834517045 263.5984375)scale(0.1 -0.1)">
       <use xlink:href="#BitstreamVeraSans-Roman-2212"/>
       <use x="83.7890625" xlink:href="#BitstreamVeraSans-Roman-32"/>
      </g>
     </g>
    </g>
    <g id="xtick_2">
     <g id="line2d_6">
      <g>
       <use style="stroke:#000000;stroke-width:0.5;" x="160.527272727" xlink:href="#m228c3968b0" y="252.0"/>
      </g>
     </g>
     <g id="line2d_7">
      <g>
       <use style="stroke:#000000;stroke-width:0.5;" x="160.527272727" xlink:href="#m00c0b61842" y="28.8"/>
      </g>
     </g>
     <g id="text_2">
      <!-- 1 -->
      <defs>
       <path d="M 12.40625 8.296875 
L 28.515625 8.296875 
L 28.515625 63.921875 
L 10.984375 60.40625 
L 10.984375 69.390625 
L 28.421875 72.90625 
L 38.28125 72.90625 
L 38.28125 8.296875 
L 54.390625 8.296875 
L 54.390625 0 
L 12.40625 0 
z
" id="BitstreamVeraSans-Roman-31"/>
      </defs>
      <g transform="translate(153.156178977 263.5984375)scale(0.1 -0.1)">
       <use xlink:href="#BitstreamVeraSans-Roman-2212"/>
       <use x="83.7890625" xlink:href="#BitstreamVeraSans-Roman-31"/>
      </g>
     </g>
    </g>
    <g id="xtick_3">
     <g id="line2d_8">
      <g>
       <use style="stroke:#000000;stroke-width:0.5;" x="221.4" xlink:href="#m228c3968b0" y="252.0"/>
      </g>
     </g>
     <g id="line2d_9">
      <g>
       <use style="stroke:#000000;stroke-width:0.5;" x="221.4" xlink:href="#m00c0b61842" y="28.8"/>
      </g>
     </g>
     <g id="text_3">
      <!-- 0 -->
      <defs>
       <path d="M 31.78125 66.40625 
Q 24.171875 66.40625 20.328125 58.90625 
Q 16.5 51.421875 16.5 36.375 
Q 16.5 21.390625 20.328125 13.890625 
Q 24.171875 6.390625 31.78125 6.390625 
Q 39.453125 6.390625 43.28125 13.890625 
Q 47.125 21.390625 47.125 36.375 
Q 47.125 51.421875 43.28125 58.90625 
Q 39.453125 66.40625 31.78125 66.40625 
M 31.78125 74.21875 
Q 44.046875 74.21875 50.515625 64.515625 
Q 56.984375 54.828125 56.984375 36.375 
Q 56.984375 17.96875 50.515625 8.265625 
Q 44.046875 -1.421875 31.78125 -1.421875 
Q 19.53125 -1.421875 13.0625 8.265625 
Q 6.59375 17.96875 6.59375 36.375 
Q 6.59375 54.828125 13.0625 64.515625 
Q 19.53125 74.21875 31.78125 74.21875 
" id="BitstreamVeraSans-Roman-30"/>
      </defs>
      <g transform="translate(218.21875 263.5984375)scale(0.1 -0.1)">
       <use xlink:href="#BitstreamVeraSans-Roman-30"/>
      </g>
     </g>
    </g>
    <g id="xtick_4">
     <g id="line2d_10">
      <g>
       <use style="stroke:#000000;stroke-width:0.5;" x="282.272727273" xlink:href="#m228c3968b0" y="252.0"/>
      </g>
     </g>
     <g id="line2d_11">
      <g>
       <use style="stroke:#000000;stroke-width:0.5;" x="282.272727273" xlink:href="#m00c0b61842" y="28.8"/>
      </g>
     </g>
     <g id="text_4">
      <!-- 1 -->
      <g transform="translate(279.091477273 263.5984375)scale(0.1 -0.1)">
       <use xlink:href="#BitstreamVeraSans-Roman-31"/>
      </g>
     </g>
    </g>
    <g id="xtick_5">
     <g id="line2d_12">
      <g>
       <use style="stroke:#000000;stroke-width:0.5;" x="343.145454545" xlink:href="#m228c3968b0" y="252.0"/>
      </g>
     </g>
     <g id="line2d_13">
      <g>
       <use style="stroke:#000000;stroke-width:0.5;" x="343.145454545" xlink:href="#m00c0b61842" y="28.8"/>
      </g>
     </g>
     <g id="text_5">
      <!-- 2 -->
      <g transform="translate(339.964204545 263.5984375)scale(0.1 -0.1)">
       <use xlink:href="#BitstreamVeraSans-Roman-32"/>
      </g>
     </g>
    </g>
    <g id="text_6">
     <!-- sepal length -->
     <defs>
      <path id="BitstreamVeraSans-Roman-20"/>
      <path d="M 54.890625 33.015625 
L 54.890625 0 
L 45.90625 0 
L 45.90625 32.71875 
Q 45.90625 40.484375 42.875 44.328125 
Q 39.84375 48.1875 33.796875 48.1875 
Q 26.515625 48.1875 22.3125 43.546875 
Q 18.109375 38.921875 18.109375 30.90625 
L 18.109375 0 
L 9.078125 0 
L 9.078125 54.6875 
L 18.109375 54.6875 
L 18.109375 46.1875 
Q 21.34375 51.125 25.703125 53.5625 
Q 30.078125 56 35.796875 56 
Q 45.21875 56 50.046875 50.171875 
Q 54.890625 44.34375 54.890625 33.015625 
" id="BitstreamVeraSans-Roman-6e"/>
      <path d="M 18.3125 70.21875 
L 18.3125 54.6875 
L 36.8125 54.6875 
L 36.8125 47.703125 
L 18.3125 47.703125 
L 18.3125 18.015625 
Q 18.3125 11.328125 20.140625 9.421875 
Q 21.96875 7.515625 27.59375 7.515625 
L 36.8125 7.515625 
L 36.8125 0 
L 27.59375 0 
Q 17.1875 0 13.234375 3.875 
Q 9.28125 7.765625 9.28125 18.015625 
L 9.28125 47.703125 
L 2.6875 47.703125 
L 2.6875 54.6875 
L 9.28125 54.6875 
L 9.28125 70.21875 
z
" id="BitstreamVeraSans-Roman-74"/>
      <path d="M 9.421875 75.984375 
L 18.40625 75.984375 
L 18.40625 0 
L 9.421875 0 
z
" id="BitstreamVeraSans-Roman-6c"/>
      <path d="M 54.890625 33.015625 
L 54.890625 0 
L 45.90625 0 
L 45.90625 32.71875 
Q 45.90625 40.484375 42.875 44.328125 
Q 39.84375 48.1875 33.796875 48.1875 
Q 26.515625 48.1875 22.3125 43.546875 
Q 18.109375 38.921875 18.109375 30.90625 
L 18.109375 0 
L 9.078125 0 
L 9.078125 75.984375 
L 18.109375 75.984375 
L 18.109375 46.1875 
Q 21.34375 51.125 25.703125 53.5625 
Q 30.078125 56 35.796875 56 
Q 45.21875 56 50.046875 50.171875 
Q 54.890625 44.34375 54.890625 33.015625 
" id="BitstreamVeraSans-Roman-68"/>
      <path d="M 56.203125 29.59375 
L 56.203125 25.203125 
L 14.890625 25.203125 
Q 15.484375 15.921875 20.484375 11.0625 
Q 25.484375 6.203125 34.421875 6.203125 
Q 39.59375 6.203125 44.453125 7.46875 
Q 49.3125 8.734375 54.109375 11.28125 
L 54.109375 2.78125 
Q 49.265625 0.734375 44.1875 -0.34375 
Q 39.109375 -1.421875 33.890625 -1.421875 
Q 20.796875 -1.421875 13.15625 6.1875 
Q 5.515625 13.8125 5.515625 26.8125 
Q 5.515625 40.234375 12.765625 48.109375 
Q 20.015625 56 32.328125 56 
Q 43.359375 56 49.78125 48.890625 
Q 56.203125 41.796875 56.203125 29.59375 
M 47.21875 32.234375 
Q 47.125 39.59375 43.09375 43.984375 
Q 39.0625 48.390625 32.421875 48.390625 
Q 24.90625 48.390625 20.390625 44.140625 
Q 15.875 39.890625 15.1875 32.171875 
z
" id="BitstreamVeraSans-Roman-65"/>
      <path d="M 45.40625 27.984375 
Q 45.40625 37.75 41.375 43.109375 
Q 37.359375 48.484375 30.078125 48.484375 
Q 22.859375 48.484375 18.828125 43.109375 
Q 14.796875 37.75 14.796875 27.984375 
Q 14.796875 18.265625 18.828125 12.890625 
Q 22.859375 7.515625 30.078125 7.515625 
Q 37.359375 7.515625 41.375 12.890625 
Q 45.40625 18.265625 45.40625 27.984375 
M 54.390625 6.78125 
Q 54.390625 -7.171875 48.1875 -13.984375 
Q 42 -20.796875 29.203125 -20.796875 
Q 24.46875 -20.796875 20.265625 -20.09375 
Q 16.0625 -19.390625 12.109375 -17.921875 
L 12.109375 -9.1875 
Q 16.0625 -11.328125 19.921875 -12.34375 
Q 23.78125 -13.375 27.78125 -13.375 
Q 36.625 -13.375 41.015625 -8.765625 
Q 45.40625 -4.15625 45.40625 5.171875 
L 45.40625 9.625 
Q 42.625 4.78125 38.28125 2.390625 
Q 33.9375 0 27.875 0 
Q 17.828125 0 11.671875 7.65625 
Q 5.515625 15.328125 5.515625 27.984375 
Q 5.515625 40.671875 11.671875 48.328125 
Q 17.828125 56 27.875 56 
Q 33.9375 56 38.28125 53.609375 
Q 42.625 51.21875 45.40625 46.390625 
L 45.40625 54.6875 
L 54.390625 54.6875 
z
" id="BitstreamVeraSans-Roman-67"/>
      <path d="M 34.28125 27.484375 
Q 23.390625 27.484375 19.1875 25 
Q 14.984375 22.515625 14.984375 16.5 
Q 14.984375 11.71875 18.140625 8.90625 
Q 21.296875 6.109375 26.703125 6.109375 
Q 34.1875 6.109375 38.703125 11.40625 
Q 43.21875 16.703125 43.21875 25.484375 
L 43.21875 27.484375 
z
M 52.203125 31.203125 
L 52.203125 0 
L 43.21875 0 
L 43.21875 8.296875 
Q 40.140625 3.328125 35.546875 0.953125 
Q 30.953125 -1.421875 24.3125 -1.421875 
Q 15.921875 -1.421875 10.953125 3.296875 
Q 6 8.015625 6 15.921875 
Q 6 25.140625 12.171875 29.828125 
Q 18.359375 34.515625 30.609375 34.515625 
L 43.21875 34.515625 
L 43.21875 35.40625 
Q 43.21875 41.609375 39.140625 45 
Q 35.0625 48.390625 27.6875 48.390625 
Q 23 48.390625 18.546875 47.265625 
Q 14.109375 46.140625 10.015625 43.890625 
L 10.015625 52.203125 
Q 14.9375 54.109375 19.578125 55.046875 
Q 24.21875 56 28.609375 56 
Q 40.484375 56 46.34375 49.84375 
Q 52.203125 43.703125 52.203125 31.203125 
" id="BitstreamVeraSans-Roman-61"/>
      <path d="M 44.28125 53.078125 
L 44.28125 44.578125 
Q 40.484375 46.53125 36.375 47.5 
Q 32.28125 48.484375 27.875 48.484375 
Q 21.1875 48.484375 17.84375 46.4375 
Q 14.5 44.390625 14.5 40.28125 
Q 14.5 37.15625 16.890625 35.375 
Q 19.28125 33.59375 26.515625 31.984375 
L 29.59375 31.296875 
Q 39.15625 29.25 43.1875 25.515625 
Q 47.21875 21.78125 47.21875 15.09375 
Q 47.21875 7.46875 41.1875 3.015625 
Q 35.15625 -1.421875 24.609375 -1.421875 
Q 20.21875 -1.421875 15.453125 -0.5625 
Q 10.6875 0.296875 5.421875 2 
L 5.421875 11.28125 
Q 10.40625 8.6875 15.234375 7.390625 
Q 20.0625 6.109375 24.8125 6.109375 
Q 31.15625 6.109375 34.5625 8.28125 
Q 37.984375 10.453125 37.984375 14.40625 
Q 37.984375 18.0625 35.515625 20.015625 
Q 33.0625 21.96875 24.703125 23.78125 
L 21.578125 24.515625 
Q 13.234375 26.265625 9.515625 29.90625 
Q 5.8125 33.546875 5.8125 39.890625 
Q 5.8125 47.609375 11.28125 51.796875 
Q 16.75 56 26.8125 56 
Q 31.78125 56 36.171875 55.265625 
Q 40.578125 54.546875 44.28125 53.078125 
" id="BitstreamVeraSans-Roman-73"/>
      <path d="M 18.109375 8.203125 
L 18.109375 -20.796875 
L 9.078125 -20.796875 
L 9.078125 54.6875 
L 18.109375 54.6875 
L 18.109375 46.390625 
Q 20.953125 51.265625 25.265625 53.625 
Q 29.59375 56 35.59375 56 
Q 45.5625 56 51.78125 48.09375 
Q 58.015625 40.1875 58.015625 27.296875 
Q 58.015625 14.40625 51.78125 6.484375 
Q 45.5625 -1.421875 35.59375 -1.421875 
Q 29.59375 -1.421875 25.265625 0.953125 
Q 20.953125 3.328125 18.109375 8.203125 
M 48.6875 27.296875 
Q 48.6875 37.203125 44.609375 42.84375 
Q 40.53125 48.484375 33.40625 48.484375 
Q 26.265625 48.484375 22.1875 42.84375 
Q 18.109375 37.203125 18.109375 27.296875 
Q 18.109375 17.390625 22.1875 11.75 
Q 26.265625 6.109375 33.40625 6.109375 
Q 40.53125 6.109375 44.609375 11.75 
Q 48.6875 17.390625 48.6875 27.296875 
" id="BitstreamVeraSans-Roman-70"/>
     </defs>
     <g transform="translate(190.56484375 278.2765625)scale(0.1 -0.1)">
      <use xlink:href="#BitstreamVeraSans-Roman-73"/>
      <use x="52.099609375" xlink:href="#BitstreamVeraSans-Roman-65"/>
      <use x="113.623046875" xlink:href="#BitstreamVeraSans-Roman-70"/>
      <use x="177.099609375" xlink:href="#BitstreamVeraSans-Roman-61"/>
      <use x="238.37890625" xlink:href="#BitstreamVeraSans-Roman-6c"/>
      <use x="266.162109375" xlink:href="#BitstreamVeraSans-Roman-20"/>
      <use x="297.94921875" xlink:href="#BitstreamVeraSans-Roman-6c"/>
      <use x="325.732421875" xlink:href="#BitstreamVeraSans-Roman-65"/>
      <use x="387.255859375" xlink:href="#BitstreamVeraSans-Roman-6e"/>
      <use x="450.634765625" xlink:href="#BitstreamVeraSans-Roman-67"/>
      <use x="514.111328125" xlink:href="#BitstreamVeraSans-Roman-74"/>
      <use x="553.3203125" xlink:href="#BitstreamVeraSans-Roman-68"/>
     </g>
    </g>
   </g>
   <g id="matplotlib.axis_2">
    <g id="ytick_1">
     <g id="line2d_14">
      <defs>
       <path d="M 0 0 
L 4 0 
" id="m5c16ef7724" style="stroke:#000000;stroke-width:0.5;"/>
      </defs>
      <g>
       <use style="stroke:#000000;stroke-width:0.5;" x="54.0" xlink:href="#m5c16ef7724" y="235.936335733"/>
      </g>
     </g>
     <g id="line2d_15">
      <defs>
       <path d="M 0 0 
L -4 0 
" id="m138249bfbf" style="stroke:#000000;stroke-width:0.5;"/>
      </defs>
      <g>
       <use style="stroke:#000000;stroke-width:0.5;" x="388.8" xlink:href="#m138249bfbf" y="235.936335733"/>
      </g>
     </g>
     <g id="text_7">
      <!-- 3 -->
      <defs>
       <path d="M 40.578125 39.3125 
Q 47.65625 37.796875 51.625 33 
Q 55.609375 28.21875 55.609375 21.1875 
Q 55.609375 10.40625 48.1875 4.484375 
Q 40.765625 -1.421875 27.09375 -1.421875 
Q 22.515625 -1.421875 17.65625 -0.515625 
Q 12.796875 0.390625 7.625 2.203125 
L 7.625 11.71875 
Q 11.71875 9.328125 16.59375 8.109375 
Q 21.484375 6.890625 26.8125 6.890625 
Q 36.078125 6.890625 40.9375 10.546875 
Q 45.796875 14.203125 45.796875 21.1875 
Q 45.796875 27.640625 41.28125 31.265625 
Q 36.765625 34.90625 28.71875 34.90625 
L 20.21875 34.90625 
L 20.21875 43.015625 
L 29.109375 43.015625 
Q 36.375 43.015625 40.234375 45.921875 
Q 44.09375 48.828125 44.09375 54.296875 
Q 44.09375 59.90625 40.109375 62.90625 
Q 36.140625 65.921875 28.71875 65.921875 
Q 24.65625 65.921875 20.015625 65.03125 
Q 15.375 64.15625 9.8125 62.3125 
L 9.8125 71.09375 
Q 15.4375 72.65625 20.34375 73.4375 
Q 25.25 74.21875 29.59375 74.21875 
Q 40.828125 74.21875 47.359375 69.109375 
Q 53.90625 64.015625 53.90625 55.328125 
Q 53.90625 49.265625 50.4375 45.09375 
Q 46.96875 40.921875 40.578125 39.3125 
" id="BitstreamVeraSans-Roman-33"/>
      </defs>
      <g transform="translate(35.2578125 238.695710733)scale(0.1 -0.1)">
       <use xlink:href="#BitstreamVeraSans-Roman-2212"/>
       <use x="83.7890625" xlink:href="#BitstreamVeraSans-Roman-33"/>
      </g>
     </g>
    </g>
    <g id="ytick_2">
     <g id="line2d_16">
      <g>
       <use style="stroke:#000000;stroke-width:0.5;" x="54.0" xlink:href="#m5c16ef7724" y="207.831859851"/>
      </g>
     </g>
     <g id="line2d_17">
      <g>
       <use style="stroke:#000000;stroke-width:0.5;" x="388.8" xlink:href="#m138249bfbf" y="207.831859851"/>
      </g>
     </g>
     <g id="text_8">
      <!-- 2 -->
      <g transform="translate(35.2578125 210.591234851)scale(0.1 -0.1)">
       <use xlink:href="#BitstreamVeraSans-Roman-2212"/>
       <use x="83.7890625" xlink:href="#BitstreamVeraSans-Roman-32"/>
      </g>
     </g>
    </g>
    <g id="ytick_3">
     <g id="line2d_18">
      <g>
       <use style="stroke:#000000;stroke-width:0.5;" x="54.0" xlink:href="#m5c16ef7724" y="179.727383969"/>
      </g>
     </g>
     <g id="line2d_19">
      <g>
       <use style="stroke:#000000;stroke-width:0.5;" x="388.8" xlink:href="#m138249bfbf" y="179.727383969"/>
      </g>
     </g>
     <g id="text_9">
      <!-- 1 -->
      <g transform="translate(35.2578125 182.486758969)scale(0.1 -0.1)">
       <use xlink:href="#BitstreamVeraSans-Roman-2212"/>
       <use x="83.7890625" xlink:href="#BitstreamVeraSans-Roman-31"/>
      </g>
     </g>
    </g>
    <g id="ytick_4">
     <g id="line2d_20">
      <g>
       <use style="stroke:#000000;stroke-width:0.5;" x="54.0" xlink:href="#m5c16ef7724" y="151.622908087"/>
      </g>
     </g>
     <g id="line2d_21">
      <g>
       <use style="stroke:#000000;stroke-width:0.5;" x="388.8" xlink:href="#m138249bfbf" y="151.622908087"/>
      </g>
     </g>
     <g id="text_10">
      <!-- 0 -->
      <g transform="translate(43.6375 154.382283087)scale(0.1 -0.1)">
       <use xlink:href="#BitstreamVeraSans-Roman-30"/>
      </g>
     </g>
    </g>
    <g id="ytick_5">
     <g id="line2d_22">
      <g>
       <use style="stroke:#000000;stroke-width:0.5;" x="54.0" xlink:href="#m5c16ef7724" y="123.518432205"/>
      </g>
     </g>
     <g id="line2d_23">
      <g>
       <use style="stroke:#000000;stroke-width:0.5;" x="388.8" xlink:href="#m138249bfbf" y="123.518432205"/>
      </g>
     </g>
     <g id="text_11">
      <!-- 1 -->
      <g transform="translate(43.6375 126.277807205)scale(0.1 -0.1)">
       <use xlink:href="#BitstreamVeraSans-Roman-31"/>
      </g>
     </g>
    </g>
    <g id="ytick_6">
     <g id="line2d_24">
      <g>
       <use style="stroke:#000000;stroke-width:0.5;" x="54.0" xlink:href="#m5c16ef7724" y="95.4139563229"/>
      </g>
     </g>
     <g id="line2d_25">
      <g>
       <use style="stroke:#000000;stroke-width:0.5;" x="388.8" xlink:href="#m138249bfbf" y="95.4139563229"/>
      </g>
     </g>
     <g id="text_12">
      <!-- 2 -->
      <g transform="translate(43.6375 98.1733313229)scale(0.1 -0.1)">
       <use xlink:href="#BitstreamVeraSans-Roman-32"/>
      </g>
     </g>
    </g>
    <g id="ytick_7">
     <g id="line2d_26">
      <g>
       <use style="stroke:#000000;stroke-width:0.5;" x="54.0" xlink:href="#m5c16ef7724" y="67.3094804409"/>
      </g>
     </g>
     <g id="line2d_27">
      <g>
       <use style="stroke:#000000;stroke-width:0.5;" x="388.8" xlink:href="#m138249bfbf" y="67.3094804409"/>
      </g>
     </g>
     <g id="text_13">
      <!-- 3 -->
      <g transform="translate(43.6375 70.0688554409)scale(0.1 -0.1)">
       <use xlink:href="#BitstreamVeraSans-Roman-33"/>
      </g>
     </g>
    </g>
    <g id="ytick_8">
     <g id="line2d_28">
      <g>
       <use style="stroke:#000000;stroke-width:0.5;" x="54.0" xlink:href="#m5c16ef7724" y="39.2050045589"/>
      </g>
     </g>
     <g id="line2d_29">
      <g>
       <use style="stroke:#000000;stroke-width:0.5;" x="388.8" xlink:href="#m138249bfbf" y="39.2050045589"/>
      </g>
     </g>
     <g id="text_14">
      <!-- 4 -->
      <defs>
       <path d="M 37.796875 64.3125 
L 12.890625 25.390625 
L 37.796875 25.390625 
z
M 35.203125 72.90625 
L 47.609375 72.90625 
L 47.609375 25.390625 
L 58.015625 25.390625 
L 58.015625 17.1875 
L 47.609375 17.1875 
L 47.609375 0 
L 37.796875 0 
L 37.796875 17.1875 
L 4.890625 17.1875 
L 4.890625 26.703125 
z
" id="BitstreamVeraSans-Roman-34"/>
      </defs>
      <g transform="translate(43.6375 41.9643795589)scale(0.1 -0.1)">
       <use xlink:href="#BitstreamVeraSans-Roman-34"/>
      </g>
     </g>
    </g>
    <g id="text_15">
     <!-- sepal width -->
     <defs>
      <path d="M 4.203125 54.6875 
L 13.1875 54.6875 
L 24.421875 12.015625 
L 35.59375 54.6875 
L 46.1875 54.6875 
L 57.421875 12.015625 
L 68.609375 54.6875 
L 77.59375 54.6875 
L 63.28125 0 
L 52.6875 0 
L 40.921875 44.828125 
L 29.109375 0 
L 18.5 0 
z
" id="BitstreamVeraSans-Roman-77"/>
      <path d="M 9.421875 54.6875 
L 18.40625 54.6875 
L 18.40625 0 
L 9.421875 0 
z
M 9.421875 75.984375 
L 18.40625 75.984375 
L 18.40625 64.59375 
L 9.421875 64.59375 
z
" id="BitstreamVeraSans-Roman-69"/>
      <path d="M 45.40625 46.390625 
L 45.40625 75.984375 
L 54.390625 75.984375 
L 54.390625 0 
L 45.40625 0 
L 45.40625 8.203125 
Q 42.578125 3.328125 38.25 0.953125 
Q 33.9375 -1.421875 27.875 -1.421875 
Q 17.96875 -1.421875 11.734375 6.484375 
Q 5.515625 14.40625 5.515625 27.296875 
Q 5.515625 40.1875 11.734375 48.09375 
Q 17.96875 56 27.875 56 
Q 33.9375 56 38.25 53.625 
Q 42.578125 51.265625 45.40625 46.390625 
M 14.796875 27.296875 
Q 14.796875 17.390625 18.875 11.75 
Q 22.953125 6.109375 30.078125 6.109375 
Q 37.203125 6.109375 41.296875 11.75 
Q 45.40625 17.390625 45.40625 27.296875 
Q 45.40625 37.203125 41.296875 42.84375 
Q 37.203125 48.484375 30.078125 48.484375 
Q 22.953125 48.484375 18.875 42.84375 
Q 14.796875 37.203125 14.796875 27.296875 
" id="BitstreamVeraSans-Roman-64"/>
     </defs>
     <g transform="translate(28.178125 169.07890625)rotate(-90.0)scale(0.1 -0.1)">
      <use xlink:href="#BitstreamVeraSans-Roman-73"/>
      <use x="52.099609375" xlink:href="#BitstreamVeraSans-Roman-65"/>
      <use x="113.623046875" xlink:href="#BitstreamVeraSans-Roman-70"/>
      <use x="177.099609375" xlink:href="#BitstreamVeraSans-Roman-61"/>
      <use x="238.37890625" xlink:href="#BitstreamVeraSans-Roman-6c"/>
      <use x="266.162109375" xlink:href="#BitstreamVeraSans-Roman-20"/>
      <use x="297.94921875" xlink:href="#BitstreamVeraSans-Roman-77"/>
      <use x="379.736328125" xlink:href="#BitstreamVeraSans-Roman-69"/>
      <use x="407.51953125" xlink:href="#BitstreamVeraSans-Roman-64"/>
      <use x="470.99609375" xlink:href="#BitstreamVeraSans-Roman-74"/>
      <use x="510.205078125" xlink:href="#BitstreamVeraSans-Roman-68"/>
     </g>
    </g>
   </g>
  </g>
 </g>
 <defs>
  <clipPath id="p3d7192707c">
   <rect height="223.2" width="334.8" x="54.0" y="28.8"/>
  </clipPath>
 </defs>
</svg>
