<?xml version="1.0" encoding="utf-8" standalone="no"?>
<!DOCTYPE svg PUBLIC "-//W3C//DTD SVG 1.1//EN"
  "http://www.w3.org/Graphics/SVG/1.1/DTD/svg11.dtd">
<!-- Created with matplotlib (http://matplotlib.org/) -->
<svg height="288pt" version="1.1" viewBox="0 0 432 288" width="432pt" xmlns="http://www.w3.org/2000/svg" xmlns:xlink="http://www.w3.org/1999/xlink">
 <defs>
  <style type="text/css">
*{stroke-linecap:butt;stroke-linejoin:round;stroke-miterlimit:100000;}
  </style>
 </defs>
 <g id="figure_1">
  <g id="patch_1">
   <path d="M 0 288 
L 432 288 
L 432 0 
L 0 0 
z
" style="fill:#ffffff;"/>
  </g>
  <g id="axes_1">
   <g id="patch_2">
    <path d="M 54 252 
L 388.8 252 
L 388.8 28.8 
L 54 28.8 
z
" style="fill:#ffffff;"/>
   </g>
   <g id="PathCollection_1">
    <defs>
     <path d="M 0 4.472136 
C 1.186024 4.472136 2.323632 4.000923 3.162278 3.162278 
C 4.000923 2.323632 4.472136 1.186024 4.472136 0 
C 4.472136 -1.186024 4.000923 -2.323632 3.162278 -3.162278 
C 2.323632 -4.000923 1.186024 -4.472136 0 -4.472136 
C -1.186024 -4.472136 -2.323632 -4.000923 -3.162278 -3.162278 
C -4.000923 -2.323632 -4.472136 -1.186024 -4.472136 0 
C -4.472136 1.186024 -4.000923 2.323632 -3.162278 3.162278 
C -2.323632 4.000923 -1.186024 4.472136 0 4.472136 
z
" id="C0_0_8decf28ad4"/>
    </defs>
    <g clip-path="url(#pc00c447c32)">
     <use style="fill:none;stroke:#000000;" x="190.316497916" xlink:href="#C0_0_8decf28ad4" y="141.878250217"/>
    </g>
    <g clip-path="url(#pc00c447c32)">
     <use style="fill:none;stroke:#000000;" x="207.17949827" xlink:href="#C0_0_8decf28ad4" y="146.744645138"/>
    </g>
    <g clip-path="url(#pc00c447c32)">
     <use style="fill:none;stroke:#000000;" x="250.358587936" xlink:href="#C0_0_8decf28ad4" y="139.739472916"/>
    </g>
    <g clip-path="url(#pc00c447c32)">
     <use style="fill:none;stroke:#000000;" x="257.523511343" xlink:href="#C0_0_8decf28ad4" y="141.671214073"/>
    </g>
   </g>
   <g id="PathCollection_2">
    <defs>
     <path d="M 0 2.236068 
C 0.593012 2.236068 1.161816 2.000462 1.581139 1.581139 
C 2.000462 1.161816 2.236068 0.593012 2.236068 0 
C 2.236068 -0.593012 2.000462 -1.161816 1.581139 -1.581139 
C 1.161816 -2.000462 0.593012 -2.236068 0 -2.236068 
C -0.593012 -2.236068 -1.161816 -2.000462 -1.581139 -1.581139 
C -2.000462 -1.161816 -2.236068 -0.593012 -2.236068 0 
C -2.236068 0.593012 -2.000462 1.161816 -1.581139 1.581139 
C -1.161816 2.000462 -0.593012 2.236068 0 2.236068 
z
" id="C1_0_0585e18324"/>
    </defs>
    <g clip-path="url(#pc00c447c32)">
     <use style="fill:#a6cee3;stroke:#000000;" x="214.218611403" xlink:href="#C1_0_0585e18324" y="153.48855293"/>
    </g>
    <g clip-path="url(#pc00c447c32)">
     <use style="fill:#a6cee3;stroke:#000000;" x="190.316497916" xlink:href="#C1_0_0585e18324" y="141.878250217"/>
    </g>
    <g clip-path="url(#pc00c447c32)">
     <use style="fill:#a6cee3;stroke:#000000;" x="217.368946827" xlink:href="#C1_0_0585e18324" y="162.176620323"/>
    </g>
    <g clip-path="url(#pc00c447c32)">
     <use style="fill:#a6cee3;stroke:#000000;" x="189.44450929" xlink:href="#C1_0_0585e18324" y="156.967188302"/>
    </g>
    <g clip-path="url(#pc00c447c32)">
     <use style="fill:#a6cee3;stroke:#000000;" x="157.38566622" xlink:href="#C1_0_0585e18324" y="153.422695262"/>
    </g>
    <g clip-path="url(#pc00c447c32)">
     <use style="fill:#a6cee3;stroke:#000000;" x="164.911435239" xlink:href="#C1_0_0585e18324" y="146.839794291"/>
    </g>
    <g clip-path="url(#pc00c447c32)">
     <use style="fill:#a6cee3;stroke:#000000;" x="183.690493671" xlink:href="#C1_0_0585e18324" y="155.245058243"/>
    </g>
    <g clip-path="url(#pc00c447c32)">
     <use style="fill:#a6cee3;stroke:#000000;" x="174.036855484" xlink:href="#C1_0_0585e18324" y="153.907888662"/>
    </g>
    <g clip-path="url(#pc00c447c32)">
     <use style="fill:#a6cee3;stroke:#000000;" x="206.001606699" xlink:href="#C1_0_0585e18324" y="157.30653438"/>
    </g>
    <g clip-path="url(#pc00c447c32)">
     <use style="fill:#a6cee3;stroke:#000000;" x="170.055915138" xlink:href="#C1_0_0585e18324" y="161.39965831"/>
    </g>
    <g clip-path="url(#pc00c447c32)">
     <use style="fill:#a6cee3;stroke:#000000;" x="82.8235463326" xlink:href="#C1_0_0585e18324" y="151.889864446"/>
    </g>
    <g clip-path="url(#pc00c447c32)">
     <use style="fill:#a6cee3;stroke:#000000;" x="186.837567216" xlink:href="#C1_0_0585e18324" y="160.693663787"/>
    </g>
    <g clip-path="url(#pc00c447c32)">
     <use style="fill:#a6cee3;stroke:#000000;" x="229.610349828" xlink:href="#C1_0_0585e18324" y="165.18581542"/>
    </g>
    <g clip-path="url(#pc00c447c32)">
     <use style="fill:#a6cee3;stroke:#000000;" x="161.919995599" xlink:href="#C1_0_0585e18324" y="157.193162128"/>
    </g>
    <g clip-path="url(#pc00c447c32)">
     <use style="fill:#a6cee3;stroke:#000000;" x="207.17949827" xlink:href="#C1_0_0585e18324" y="146.744645138"/>
    </g>
    <g clip-path="url(#pc00c447c32)">
     <use style="fill:#a6cee3;stroke:#000000;" x="165.24330892" xlink:href="#C1_0_0585e18324" y="153.627282762"/>
    </g>
    <g clip-path="url(#pc00c447c32)">
     <use style="fill:#a6cee3;stroke:#000000;" x="133.506302881" xlink:href="#C1_0_0585e18324" y="168.506237741"/>
    </g>
    <g clip-path="url(#pc00c447c32)">
     <use style="fill:#a6cee3;stroke:#000000;" x="149.938092037" xlink:href="#C1_0_0585e18324" y="155.026354915"/>
    </g>
    <g clip-path="url(#pc00c447c32)">
     <use style="fill:#a6cee3;stroke:#000000;" x="197.972847264" xlink:href="#C1_0_0585e18324" y="148.428594443"/>
    </g>
    <g clip-path="url(#pc00c447c32)">
     <use style="fill:#a6cee3;stroke:#000000;" x="148.738452867" xlink:href="#C1_0_0585e18324" y="157.919265866"/>
    </g>
    <g clip-path="url(#pc00c447c32)">
     <use style="fill:#b15928;stroke:#000000;" x="250.358587936" xlink:href="#C1_0_0585e18324" y="139.739472916"/>
    </g>
    <g clip-path="url(#pc00c447c32)">
     <use style="fill:#b15928;stroke:#000000;" x="230.340067289" xlink:href="#C1_0_0585e18324" y="118.478449517"/>
    </g>
    <g clip-path="url(#pc00c447c32)">
     <use style="fill:#b15928;stroke:#000000;" x="266.760768141" xlink:href="#C1_0_0585e18324" y="133.545937878"/>
    </g>
    <g clip-path="url(#pc00c447c32)">
     <use style="fill:#b15928;stroke:#000000;" x="244.142192132" xlink:href="#C1_0_0585e18324" y="125.878855955"/>
    </g>
    <g clip-path="url(#pc00c447c32)">
     <use style="fill:#b15928;stroke:#000000;" x="233.151545513" xlink:href="#C1_0_0585e18324" y="132.124660621"/>
    </g>
    <g clip-path="url(#pc00c447c32)">
     <use style="fill:#b15928;stroke:#000000;" x="255.017981392" xlink:href="#C1_0_0585e18324" y="128.342459258"/>
    </g>
    <g clip-path="url(#pc00c447c32)">
     <use style="fill:#b15928;stroke:#000000;" x="266.725676358" xlink:href="#C1_0_0585e18324" y="138.229565427"/>
    </g>
    <g clip-path="url(#pc00c447c32)">
     <use style="fill:#b15928;stroke:#000000;" x="281.414962723" xlink:href="#C1_0_0585e18324" y="128.081146631"/>
    </g>
    <g clip-path="url(#pc00c447c32)">
     <use style="fill:#b15928;stroke:#000000;" x="284.297269641" xlink:href="#C1_0_0585e18324" y="128.874998867"/>
    </g>
    <g clip-path="url(#pc00c447c32)">
     <use style="fill:#b15928;stroke:#000000;" x="262.966269367" xlink:href="#C1_0_0585e18324" y="133.070779836"/>
    </g>
    <g clip-path="url(#pc00c447c32)">
     <use style="fill:#b15928;stroke:#000000;" x="261.805476553" xlink:href="#C1_0_0585e18324" y="133.05067174"/>
    </g>
    <g clip-path="url(#pc00c447c32)">
     <use style="fill:#b15928;stroke:#000000;" x="257.523511343" xlink:href="#C1_0_0585e18324" y="141.671214073"/>
    </g>
    <g clip-path="url(#pc00c447c32)">
     <use style="fill:#b15928;stroke:#000000;" x="287.672933857" xlink:href="#C1_0_0585e18324" y="133.317020227"/>
    </g>
    <g clip-path="url(#pc00c447c32)">
     <use style="fill:#b15928;stroke:#000000;" x="232.655417585" xlink:href="#C1_0_0585e18324" y="127.863853439"/>
    </g>
    <g clip-path="url(#pc00c447c32)">
     <use style="fill:#b15928;stroke:#000000;" x="254.657864328" xlink:href="#C1_0_0585e18324" y="130.455175785"/>
    </g>
    <g clip-path="url(#pc00c447c32)">
     <use style="fill:#b15928;stroke:#000000;" x="304.463592747" xlink:href="#C1_0_0585e18324" y="129.9692675"/>
    </g>
    <g clip-path="url(#pc00c447c32)">
     <use style="fill:#b15928;stroke:#000000;" x="316.951940835" xlink:href="#C1_0_0585e18324" y="138.571387679"/>
    </g>
    <g clip-path="url(#pc00c447c32)">
     <use style="fill:#b15928;stroke:#000000;" x="294.51854377" xlink:href="#C1_0_0585e18324" y="135.102205163"/>
    </g>
    <g clip-path="url(#pc00c447c32)">
     <use style="fill:#b15928;stroke:#000000;" x="255.768828587" xlink:href="#C1_0_0585e18324" y="134.433867808"/>
    </g>
    <g clip-path="url(#pc00c447c32)">
     <use style="fill:#b15928;stroke:#000000;" x="272.790201113" xlink:href="#C1_0_0585e18324" y="130.428558793"/>
    </g>
   </g>
   <g id="line2d_1">
    <path clip-path="url(#pc00c447c32)" d="M 69.218182 56.791635 
L 75.429685 60.180181 
L 81.641187 63.568728 
L 87.85269 66.957274 
L 94.064193 70.345821 
L 100.275696 73.734367 
L 106.487199 77.122913 
L 112.698701 80.51146 
L 118.910204 83.900006 
L 125.121707 87.288552 
L 131.33321 90.677099 
L 137.544712 94.065645 
L 143.756215 97.454192 
L 149.967718 100.842738 
L 156.179221 104.231284 
L 162.390724 107.619831 
L 168.602226 111.008377 
L 174.813729 114.396923 
L 181.025232 117.78547 
L 187.236735 121.174016 
L 193.448237 124.562563 
L 199.65974 127.951109 
L 205.871243 131.339655 
L 212.082746 134.728202 
L 218.294249 138.116748 
L 224.505751 141.505294 
L 230.717254 144.893841 
L 236.928757 148.282387 
L 243.14026 151.670934 
L 249.351763 155.05948 
L 255.563265 158.448026 
L 261.774768 161.836573 
L 267.986271 165.225119 
L 274.197774 168.613665 
L 280.409276 172.002212 
L 286.620779 175.390758 
L 292.832282 178.779304 
L 299.043785 182.167851 
L 305.255288 185.556397 
L 311.46679 188.944944 
L 317.678293 192.33349 
L 323.889796 195.722036 
L 330.101299 199.110583 
L 336.312801 202.499129 
L 342.524304 205.887675 
L 348.735807 209.276222 
L 354.94731 212.664768 
L 361.158813 216.053315 
L 367.370315 219.441861 
L 373.581818 222.830407 
" style="fill:none;stroke:#000000;stroke-dasharray:6.000000,6.000000;stroke-dashoffset:0.0;"/>
   </g>
   <g id="line2d_2">
    <path clip-path="url(#pc00c447c32)" d="M 69.218182 75.815773 
L 75.429685 79.20432 
L 81.641187 82.592866 
L 87.85269 85.981412 
L 94.064193 89.369959 
L 100.275696 92.758505 
L 106.487199 96.147051 
L 112.698701 99.535598 
L 118.910204 102.924144 
L 125.121707 106.312691 
L 131.33321 109.701237 
L 137.544712 113.089783 
L 143.756215 116.47833 
L 149.967718 119.866876 
L 156.179221 123.255422 
L 162.390724 126.643969 
L 168.602226 130.032515 
L 174.813729 133.421062 
L 181.025232 136.809608 
L 187.236735 140.198154 
L 193.448237 143.586701 
L 199.65974 146.975247 
L 205.871243 150.363793 
L 212.082746 153.75234 
L 218.294249 157.140886 
L 224.505751 160.529433 
L 230.717254 163.917979 
L 236.928757 167.306525 
L 243.14026 170.695072 
L 249.351763 174.083618 
L 255.563265 177.472164 
L 261.774768 180.860711 
L 267.986271 184.249257 
L 274.197774 187.637804 
L 280.409276 191.02635 
L 286.620779 194.414896 
L 292.832282 197.803443 
L 299.043785 201.191989 
L 305.255288 204.580535 
L 311.46679 207.969082 
L 317.678293 211.357628 
L 323.889796 214.746174 
L 330.101299 218.134721 
L 336.312801 221.523267 
L 342.524304 224.911814 
L 348.735807 228.30036 
L 354.94731 231.688906 
L 361.158813 235.077453 
L 367.370315 238.465999 
L 373.581818 241.854545 
" style="fill:none;stroke:#000000;stroke-linecap:square;"/>
   </g>
   <g id="line2d_3">
    <path clip-path="url(#pc00c447c32)" d="M 69.218182 38.945455 
L 75.429685 42.334001 
L 81.641187 45.722547 
L 87.85269 49.111094 
L 94.064193 52.49964 
L 100.275696 55.888186 
L 106.487199 59.276733 
L 112.698701 62.665279 
L 118.910204 66.053826 
L 125.121707 69.442372 
L 131.33321 72.830918 
L 137.544712 76.219465 
L 143.756215 79.608011 
L 149.967718 82.996557 
L 156.179221 86.385104 
L 162.390724 89.77365 
L 168.602226 93.162196 
L 174.813729 96.550743 
L 181.025232 99.939289 
L 187.236735 103.327836 
L 193.448237 106.716382 
L 199.65974 110.104928 
L 205.871243 113.493475 
L 212.082746 116.882021 
L 218.294249 120.270567 
L 224.505751 123.659114 
L 230.717254 127.04766 
L 236.928757 130.436207 
L 243.14026 133.824753 
L 249.351763 137.213299 
L 255.563265 140.601846 
L 261.774768 143.990392 
L 267.986271 147.378938 
L 274.197774 150.767485 
L 280.409276 154.156031 
L 286.620779 157.544578 
L 292.832282 160.933124 
L 299.043785 164.32167 
L 305.255288 167.710217 
L 311.46679 171.098763 
L 317.678293 174.487309 
L 323.889796 177.875856 
L 330.101299 181.264402 
L 336.312801 184.652949 
L 342.524304 188.041495 
L 348.735807 191.430041 
L 354.94731 194.818588 
L 361.158813 198.207134 
L 367.370315 201.59568 
L 373.581818 204.984227 
" style="fill:none;stroke:#000000;stroke-linecap:square;"/>
   </g>
   <g id="patch_3">
    <path d="M 54 28.8 
L 388.8 28.8 
" style="fill:none;stroke:#000000;stroke-linecap:square;stroke-linejoin:miter;"/>
   </g>
   <g id="patch_4">
    <path d="M 388.8 252 
L 388.8 28.8 
" style="fill:none;stroke:#000000;stroke-linecap:square;stroke-linejoin:miter;"/>
   </g>
   <g id="patch_5">
    <path d="M 54 252 
L 388.8 252 
" style="fill:none;stroke:#000000;stroke-linecap:square;stroke-linejoin:miter;"/>
   </g>
   <g id="patch_6">
    <path d="M 54 252 
L 54 28.8 
" style="fill:none;stroke:#000000;stroke-linecap:square;stroke-linejoin:miter;"/>
   </g>
   <g id="matplotlib.axis_1">
    <g id="xtick_1">
     <g id="line2d_4">
      <defs>
       <path d="M 0 0 
L 0 -4 
" id="m5adc3cb61e" style="stroke:#000000;stroke-width:0.5;"/>
      </defs>
      <g>
       <use style="stroke:#000000;stroke-width:0.5;" x="99.6545454545" xlink:href="#m5adc3cb61e" y="252.0"/>
      </g>
     </g>
     <g id="line2d_5">
      <defs>
       <path d="M 0 0 
L 0 4 
" id="m9dfd6edbde" style="stroke:#000000;stroke-width:0.5;"/>
      </defs>
      <g>
       <use style="stroke:#000000;stroke-width:0.5;" x="99.6545454545" xlink:href="#m9dfd6edbde" y="28.8"/>
      </g>
     </g>
     <g id="text_1">
      <!-- −4 -->
      <defs>
       <path d="M 10.59375 35.5 
L 73.1875 35.5 
L 73.1875 27.203125 
L 10.59375 27.203125 
z
" id="BitstreamVeraSans-Roman-2212"/>
       <path d="M 37.796875 64.3125 
L 12.890625 25.390625 
L 37.796875 25.390625 
z
M 35.203125 72.90625 
L 47.609375 72.90625 
L 47.609375 25.390625 
L 58.015625 25.390625 
L 58.015625 17.1875 
L 47.609375 17.1875 
L 47.609375 0 
L 37.796875 0 
L 37.796875 17.1875 
L 4.890625 17.1875 
L 4.890625 26.703125 
z
" id="BitstreamVeraSans-Roman-34"/>
      </defs>
      <g transform="translate(92.2834517045 263.5984375)scale(0.1 -0.1)">
       <use xlink:href="#BitstreamVeraSans-Roman-2212"/>
       <use x="83.7890625" xlink:href="#BitstreamVeraSans-Roman-34"/>
      </g>
     </g>
    </g>
    <g id="xtick_2">
     <g id="line2d_6">
      <g>
       <use style="stroke:#000000;stroke-width:0.5;" x="160.527272727" xlink:href="#m5adc3cb61e" y="252.0"/>
      </g>
     </g>
     <g id="line2d_7">
      <g>
       <use style="stroke:#000000;stroke-width:0.5;" x="160.527272727" xlink:href="#m9dfd6edbde" y="28.8"/>
      </g>
     </g>
     <g id="text_2">
      <!-- −2 -->
      <defs>
       <path d="M 19.1875 8.296875 
L 53.609375 8.296875 
L 53.609375 0 
L 7.328125 0 
L 7.328125 8.296875 
Q 12.9375 14.109375 22.625 23.890625 
Q 32.328125 33.6875 34.8125 36.53125 
Q 39.546875 41.84375 41.421875 45.53125 
Q 43.3125 49.21875 43.3125 52.78125 
Q 43.3125 58.59375 39.234375 62.25 
Q 35.15625 65.921875 28.609375 65.921875 
Q 23.96875 65.921875 18.8125 64.3125 
Q 13.671875 62.703125 7.8125 59.421875 
L 7.8125 69.390625 
Q 13.765625 71.78125 18.9375 73 
Q 24.125 74.21875 28.421875 74.21875 
Q 39.75 74.21875 46.484375 68.546875 
Q 53.21875 62.890625 53.21875 53.421875 
Q 53.21875 48.921875 51.53125 44.890625 
Q 49.859375 40.875 45.40625 35.40625 
Q 44.1875 33.984375 37.640625 27.21875 
Q 31.109375 20.453125 19.1875 8.296875 
" id="BitstreamVeraSans-Roman-32"/>
      </defs>
      <g transform="translate(153.156178977 263.5984375)scale(0.1 -0.1)">
       <use xlink:href="#BitstreamVeraSans-Roman-2212"/>
       <use x="83.7890625" xlink:href="#BitstreamVeraSans-Roman-32"/>
      </g>
     </g>
    </g>
    <g id="xtick_3">
     <g id="line2d_8">
      <g>
       <use style="stroke:#000000;stroke-width:0.5;" x="221.4" xlink:href="#m5adc3cb61e" y="252.0"/>
      </g>
     </g>
     <g id="line2d_9">
      <g>
       <use style="stroke:#000000;stroke-width:0.5;" x="221.4" xlink:href="#m9dfd6edbde" y="28.8"/>
      </g>
     </g>
     <g id="text_3">
      <!-- 0 -->
      <defs>
       <path d="M 31.78125 66.40625 
Q 24.171875 66.40625 20.328125 58.90625 
Q 16.5 51.421875 16.5 36.375 
Q 16.5 21.390625 20.328125 13.890625 
Q 24.171875 6.390625 31.78125 6.390625 
Q 39.453125 6.390625 43.28125 13.890625 
Q 47.125 21.390625 47.125 36.375 
Q 47.125 51.421875 43.28125 58.90625 
Q 39.453125 66.40625 31.78125 66.40625 
M 31.78125 74.21875 
Q 44.046875 74.21875 50.515625 64.515625 
Q 56.984375 54.828125 56.984375 36.375 
Q 56.984375 17.96875 50.515625 8.265625 
Q 44.046875 -1.421875 31.78125 -1.421875 
Q 19.53125 -1.421875 13.0625 8.265625 
Q 6.59375 17.96875 6.59375 36.375 
Q 6.59375 54.828125 13.0625 64.515625 
Q 19.53125 74.21875 31.78125 74.21875 
" id="BitstreamVeraSans-Roman-30"/>
      </defs>
      <g transform="translate(218.21875 263.5984375)scale(0.1 -0.1)">
       <use xlink:href="#BitstreamVeraSans-Roman-30"/>
      </g>
     </g>
    </g>
    <g id="xtick_4">
     <g id="line2d_10">
      <g>
       <use style="stroke:#000000;stroke-width:0.5;" x="282.272727273" xlink:href="#m5adc3cb61e" y="252.0"/>
      </g>
     </g>
     <g id="line2d_11">
      <g>
       <use style="stroke:#000000;stroke-width:0.5;" x="282.272727273" xlink:href="#m9dfd6edbde" y="28.8"/>
      </g>
     </g>
     <g id="text_4">
      <!-- 2 -->
      <g transform="translate(279.091477273 263.5984375)scale(0.1 -0.1)">
       <use xlink:href="#BitstreamVeraSans-Roman-32"/>
      </g>
     </g>
    </g>
    <g id="xtick_5">
     <g id="line2d_12">
      <g>
       <use style="stroke:#000000;stroke-width:0.5;" x="343.145454545" xlink:href="#m5adc3cb61e" y="252.0"/>
      </g>
     </g>
     <g id="line2d_13">
      <g>
       <use style="stroke:#000000;stroke-width:0.5;" x="343.145454545" xlink:href="#m9dfd6edbde" y="28.8"/>
      </g>
     </g>
     <g id="text_5">
      <!-- 4 -->
      <g transform="translate(339.964204545 263.5984375)scale(0.1 -0.1)">
       <use xlink:href="#BitstreamVeraSans-Roman-34"/>
      </g>
     </g>
    </g>
   </g>
   <g id="matplotlib.axis_2">
    <g id="ytick_1">
     <g id="line2d_14">
      <defs>
       <path d="M 0 0 
L 4 0 
" id="m1f10e600c9" style="stroke:#000000;stroke-width:0.5;"/>
      </defs>
      <g>
       <use style="stroke:#000000;stroke-width:0.5;" x="54.0" xlink:href="#m1f10e600c9" y="238.009028634"/>
      </g>
     </g>
     <g id="line2d_15">
      <defs>
       <path d="M 0 0 
L -4 0 
" id="mcb3c83fcdf" style="stroke:#000000;stroke-width:0.5;"/>
      </defs>
      <g>
       <use style="stroke:#000000;stroke-width:0.5;" x="388.8" xlink:href="#mcb3c83fcdf" y="238.009028634"/>
      </g>
     </g>
     <g id="text_6">
      <!-- −15 -->
      <defs>
       <path d="M 12.40625 8.296875 
L 28.515625 8.296875 
L 28.515625 63.921875 
L 10.984375 60.40625 
L 10.984375 69.390625 
L 28.421875 72.90625 
L 38.28125 72.90625 
L 38.28125 8.296875 
L 54.390625 8.296875 
L 54.390625 0 
L 12.40625 0 
z
" id="BitstreamVeraSans-Roman-31"/>
       <path d="M 10.796875 72.90625 
L 49.515625 72.90625 
L 49.515625 64.59375 
L 19.828125 64.59375 
L 19.828125 46.734375 
Q 21.96875 47.46875 24.109375 47.828125 
Q 26.265625 48.1875 28.421875 48.1875 
Q 40.625 48.1875 47.75 41.5 
Q 54.890625 34.8125 54.890625 23.390625 
Q 54.890625 11.625 47.5625 5.09375 
Q 40.234375 -1.421875 26.90625 -1.421875 
Q 22.3125 -1.421875 17.546875 -0.640625 
Q 12.796875 0.140625 7.71875 1.703125 
L 7.71875 11.625 
Q 12.109375 9.234375 16.796875 8.0625 
Q 21.484375 6.890625 26.703125 6.890625 
Q 35.15625 6.890625 40.078125 11.328125 
Q 45.015625 15.765625 45.015625 23.390625 
Q 45.015625 31 40.078125 35.4375 
Q 35.15625 39.890625 26.703125 39.890625 
Q 22.75 39.890625 18.8125 39.015625 
Q 14.890625 38.140625 10.796875 36.28125 
z
" id="BitstreamVeraSans-Roman-35"/>
      </defs>
      <g transform="translate(28.8953125 240.768403634)scale(0.1 -0.1)">
       <use xlink:href="#BitstreamVeraSans-Roman-2212"/>
       <use x="83.7890625" xlink:href="#BitstreamVeraSans-Roman-31"/>
       <use x="147.412109375" xlink:href="#BitstreamVeraSans-Roman-35"/>
      </g>
     </g>
    </g>
    <g id="ytick_2">
     <g id="line2d_16">
      <g>
       <use style="stroke:#000000;stroke-width:0.5;" x="54.0" xlink:href="#m1f10e600c9" y="206.471907692"/>
      </g>
     </g>
     <g id="line2d_17">
      <g>
       <use style="stroke:#000000;stroke-width:0.5;" x="388.8" xlink:href="#mcb3c83fcdf" y="206.471907692"/>
      </g>
     </g>
     <g id="text_7">
      <!-- −10 -->
      <g transform="translate(28.8953125 209.231282692)scale(0.1 -0.1)">
       <use xlink:href="#BitstreamVeraSans-Roman-2212"/>
       <use x="83.7890625" xlink:href="#BitstreamVeraSans-Roman-31"/>
       <use x="147.412109375" xlink:href="#BitstreamVeraSans-Roman-30"/>
      </g>
     </g>
    </g>
    <g id="ytick_3">
     <g id="line2d_18">
      <g>
       <use style="stroke:#000000;stroke-width:0.5;" x="54.0" xlink:href="#m1f10e600c9" y="174.93478675"/>
      </g>
     </g>
     <g id="line2d_19">
      <g>
       <use style="stroke:#000000;stroke-width:0.5;" x="388.8" xlink:href="#mcb3c83fcdf" y="174.93478675"/>
      </g>
     </g>
     <g id="text_8">
      <!-- −5 -->
      <g transform="translate(35.2578125 177.69416175)scale(0.1 -0.1)">
       <use xlink:href="#BitstreamVeraSans-Roman-2212"/>
       <use x="83.7890625" xlink:href="#BitstreamVeraSans-Roman-35"/>
      </g>
     </g>
    </g>
    <g id="ytick_4">
     <g id="line2d_20">
      <g>
       <use style="stroke:#000000;stroke-width:0.5;" x="54.0" xlink:href="#m1f10e600c9" y="143.397665808"/>
      </g>
     </g>
     <g id="line2d_21">
      <g>
       <use style="stroke:#000000;stroke-width:0.5;" x="388.8" xlink:href="#mcb3c83fcdf" y="143.397665808"/>
      </g>
     </g>
     <g id="text_9">
      <!-- 0 -->
      <g transform="translate(43.6375 146.157040808)scale(0.1 -0.1)">
       <use xlink:href="#BitstreamVeraSans-Roman-30"/>
      </g>
     </g>
    </g>
    <g id="ytick_5">
     <g id="line2d_22">
      <g>
       <use style="stroke:#000000;stroke-width:0.5;" x="54.0" xlink:href="#m1f10e600c9" y="111.860544866"/>
      </g>
     </g>
     <g id="line2d_23">
      <g>
       <use style="stroke:#000000;stroke-width:0.5;" x="388.8" xlink:href="#mcb3c83fcdf" y="111.860544866"/>
      </g>
     </g>
     <g id="text_10">
      <!-- 5 -->
      <g transform="translate(43.6375 114.619919866)scale(0.1 -0.1)">
       <use xlink:href="#BitstreamVeraSans-Roman-35"/>
      </g>
     </g>
    </g>
    <g id="ytick_6">
     <g id="line2d_24">
      <g>
       <use style="stroke:#000000;stroke-width:0.5;" x="54.0" xlink:href="#m1f10e600c9" y="80.3234239242"/>
      </g>
     </g>
     <g id="line2d_25">
      <g>
       <use style="stroke:#000000;stroke-width:0.5;" x="388.8" xlink:href="#mcb3c83fcdf" y="80.3234239242"/>
      </g>
     </g>
     <g id="text_11">
      <!-- 10 -->
      <g transform="translate(37.275 83.0827989242)scale(0.1 -0.1)">
       <use xlink:href="#BitstreamVeraSans-Roman-31"/>
       <use x="63.623046875" xlink:href="#BitstreamVeraSans-Roman-30"/>
      </g>
     </g>
    </g>
    <g id="ytick_7">
     <g id="line2d_26">
      <g>
       <use style="stroke:#000000;stroke-width:0.5;" x="54.0" xlink:href="#m1f10e600c9" y="48.7863029821"/>
      </g>
     </g>
     <g id="line2d_27">
      <g>
       <use style="stroke:#000000;stroke-width:0.5;" x="388.8" xlink:href="#mcb3c83fcdf" y="48.7863029821"/>
      </g>
     </g>
     <g id="text_12">
      <!-- 15 -->
      <g transform="translate(37.275 51.5456779821)scale(0.1 -0.1)">
       <use xlink:href="#BitstreamVeraSans-Roman-31"/>
       <use x="63.623046875" xlink:href="#BitstreamVeraSans-Roman-35"/>
      </g>
     </g>
    </g>
   </g>
  </g>
 </g>
 <defs>
  <clipPath id="pc00c447c32">
   <rect height="223.2" width="334.8" x="54.0" y="28.8"/>
  </clipPath>
 </defs>
</svg>
