<?xml version="1.0" encoding="utf-8" standalone="no"?>
<!DOCTYPE svg PUBLIC "-//W3C//DTD SVG 1.1//EN"
  "http://www.w3.org/Graphics/SVG/1.1/DTD/svg11.dtd">
<!-- Created with matplotlib (http://matplotlib.org/) -->
<svg height="288pt" version="1.1" viewBox="0 0 432 288" width="432pt" xmlns="http://www.w3.org/2000/svg" xmlns:xlink="http://www.w3.org/1999/xlink">
 <defs>
  <style type="text/css">
*{stroke-linecap:butt;stroke-linejoin:round;stroke-miterlimit:100000;}
  </style>
 </defs>
 <g id="figure_1">
  <g id="patch_1">
   <path d="M 0 288 
L 432 288 
L 432 0 
L 0 0 
z
" style="fill:#ffffff;"/>
  </g>
  <g id="axes_1">
   <g id="patch_2">
    <path d="M 54 252 
L 388.8 252 
L 388.8 28.8 
L 54 28.8 
z
" style="fill:#ffffff;"/>
   </g>
   <g id="PathCollection_1">
    <defs>
     <path d="M 0 4.472136 
C 1.186024 4.472136 2.323632 4.000923 3.162278 3.162278 
C 4.000923 2.323632 4.472136 1.186024 4.472136 0 
C 4.472136 -1.186024 4.000923 -2.323632 3.162278 -3.162278 
C 2.323632 -4.000923 1.186024 -4.472136 0 -4.472136 
C -1.186024 -4.472136 -2.323632 -4.000923 -3.162278 -3.162278 
C -4.000923 -2.323632 -4.472136 -1.186024 -4.472136 0 
C -4.472136 1.186024 -4.000923 2.323632 -3.162278 3.162278 
C -2.323632 4.000923 -1.186024 4.472136 0 4.472136 
z
" id="C0_0_dd41fe7a01"/>
    </defs>
    <g clip-path="url(#p310f90afc6)">
     <use style="fill:none;stroke:#000000;" x="190.316497916" xlink:href="#C0_0_dd41fe7a01" y="141.951308066"/>
    </g>
    <g clip-path="url(#p310f90afc6)">
     <use style="fill:none;stroke:#000000;" x="207.17949827" xlink:href="#C0_0_dd41fe7a01" y="150.299385573"/>
    </g>
    <g clip-path="url(#p310f90afc6)">
     <use style="fill:none;stroke:#000000;" x="250.358587936" xlink:href="#C0_0_dd41fe7a01" y="138.282333607"/>
    </g>
    <g clip-path="url(#p310f90afc6)">
     <use style="fill:none;stroke:#000000;" x="257.523511343" xlink:href="#C0_0_dd41fe7a01" y="141.596147048"/>
    </g>
   </g>
   <g id="PathCollection_2">
    <defs>
     <path d="M 0 2.236068 
C 0.593012 2.236068 1.161816 2.000462 1.581139 1.581139 
C 2.000462 1.161816 2.236068 0.593012 2.236068 0 
C 2.236068 -0.593012 2.000462 -1.161816 1.581139 -1.581139 
C 1.161816 -2.000462 0.593012 -2.236068 0 -2.236068 
C -0.593012 -2.236068 -1.161816 -2.000462 -1.581139 -1.581139 
C -2.000462 -1.161816 -2.236068 -0.593012 -2.236068 0 
C -2.236068 0.593012 -2.000462 1.161816 -1.581139 1.581139 
C -1.161816 2.000462 -0.593012 2.236068 0 2.236068 
z
" id="C1_0_03fc9c7a15"/>
    </defs>
    <g clip-path="url(#p310f90afc6)">
     <use style="fill:#a6cee3;stroke:#000000;" x="214.218611403" xlink:href="#C1_0_03fc9c7a15" y="161.868250379"/>
    </g>
    <g clip-path="url(#p310f90afc6)">
     <use style="fill:#a6cee3;stroke:#000000;" x="190.316497916" xlink:href="#C1_0_03fc9c7a15" y="141.951308066"/>
    </g>
    <g clip-path="url(#p310f90afc6)">
     <use style="fill:#a6cee3;stroke:#000000;" x="217.368946827" xlink:href="#C1_0_03fc9c7a15" y="176.7722319"/>
    </g>
    <g clip-path="url(#p310f90afc6)">
     <use style="fill:#a6cee3;stroke:#000000;" x="189.44450929" xlink:href="#C1_0_03fc9c7a15" y="167.835689967"/>
    </g>
    <g clip-path="url(#p310f90afc6)">
     <use style="fill:#a6cee3;stroke:#000000;" x="157.38566622" xlink:href="#C1_0_03fc9c7a15" y="161.755274568"/>
    </g>
    <g clip-path="url(#p310f90afc6)">
     <use style="fill:#a6cee3;stroke:#000000;" x="164.911435239" xlink:href="#C1_0_03fc9c7a15" y="150.462609584"/>
    </g>
    <g clip-path="url(#p310f90afc6)">
     <use style="fill:#a6cee3;stroke:#000000;" x="183.690493671" xlink:href="#C1_0_03fc9c7a15" y="164.88145476"/>
    </g>
    <g clip-path="url(#p310f90afc6)">
     <use style="fill:#a6cee3;stroke:#000000;" x="174.036855484" xlink:href="#C1_0_03fc9c7a15" y="162.587601613"/>
    </g>
    <g clip-path="url(#p310f90afc6)">
     <use style="fill:#a6cee3;stroke:#000000;" x="206.001606699" xlink:href="#C1_0_03fc9c7a15" y="168.417822615"/>
    </g>
    <g clip-path="url(#p310f90afc6)">
     <use style="fill:#a6cee3;stroke:#000000;" x="170.055915138" xlink:href="#C1_0_03fc9c7a15" y="175.439389168"/>
    </g>
    <g clip-path="url(#p310f90afc6)">
     <use style="fill:#a6cee3;stroke:#000000;" x="82.8235463326" xlink:href="#C1_0_03fc9c7a15" y="159.125773538"/>
    </g>
    <g clip-path="url(#p310f90afc6)">
     <use style="fill:#a6cee3;stroke:#000000;" x="186.837567216" xlink:href="#C1_0_03fc9c7a15" y="174.228287911"/>
    </g>
    <g clip-path="url(#p310f90afc6)">
     <use style="fill:#a6cee3;stroke:#000000;" x="229.610349828" xlink:href="#C1_0_03fc9c7a15" y="181.934368205"/>
    </g>
    <g clip-path="url(#p310f90afc6)">
     <use style="fill:#a6cee3;stroke:#000000;" x="161.919995599" xlink:href="#C1_0_03fc9c7a15" y="168.223337712"/>
    </g>
    <g clip-path="url(#p310f90afc6)">
     <use style="fill:#a6cee3;stroke:#000000;" x="207.17949827" xlink:href="#C1_0_03fc9c7a15" y="150.299385573"/>
    </g>
    <g clip-path="url(#p310f90afc6)">
     <use style="fill:#a6cee3;stroke:#000000;" x="165.24330892" xlink:href="#C1_0_03fc9c7a15" y="162.106235049"/>
    </g>
    <g clip-path="url(#p310f90afc6)">
     <use style="fill:#a6cee3;stroke:#000000;" x="133.506302881" xlink:href="#C1_0_03fc9c7a15" y="187.630400554"/>
    </g>
    <g clip-path="url(#p310f90afc6)">
     <use style="fill:#a6cee3;stroke:#000000;" x="149.938092037" xlink:href="#C1_0_03fc9c7a15" y="164.506279223"/>
    </g>
    <g clip-path="url(#p310f90afc6)">
     <use style="fill:#a6cee3;stroke:#000000;" x="197.972847264" xlink:href="#C1_0_03fc9c7a15" y="153.188123446"/>
    </g>
    <g clip-path="url(#p310f90afc6)">
     <use style="fill:#a6cee3;stroke:#000000;" x="148.738452867" xlink:href="#C1_0_03fc9c7a15" y="169.468935404"/>
    </g>
    <g clip-path="url(#p310f90afc6)">
     <use style="fill:#b15928;stroke:#000000;" x="250.358587936" xlink:href="#C1_0_03fc9c7a15" y="138.282333607"/>
    </g>
    <g clip-path="url(#p310f90afc6)">
     <use style="fill:#b15928;stroke:#000000;" x="230.340067289" xlink:href="#C1_0_03fc9c7a15" y="101.810022159"/>
    </g>
    <g clip-path="url(#p310f90afc6)">
     <use style="fill:#b15928;stroke:#000000;" x="266.760768141" xlink:href="#C1_0_03fc9c7a15" y="127.65760804"/>
    </g>
    <g clip-path="url(#p310f90afc6)">
     <use style="fill:#b15928;stroke:#000000;" x="244.142192132" xlink:href="#C1_0_03fc9c7a15" y="114.505080311"/>
    </g>
    <g clip-path="url(#p310f90afc6)">
     <use style="fill:#b15928;stroke:#000000;" x="233.151545513" xlink:href="#C1_0_03fc9c7a15" y="125.219472029"/>
    </g>
    <g clip-path="url(#p310f90afc6)">
     <use style="fill:#b15928;stroke:#000000;" x="255.017981392" xlink:href="#C1_0_03fc9c7a15" y="118.731278894"/>
    </g>
    <g clip-path="url(#p310f90afc6)">
     <use style="fill:#b15928;stroke:#000000;" x="266.725676358" xlink:href="#C1_0_03fc9c7a15" y="135.692156494"/>
    </g>
    <g clip-path="url(#p310f90afc6)">
     <use style="fill:#b15928;stroke:#000000;" x="281.414962723" xlink:href="#C1_0_03fc9c7a15" y="118.283009055"/>
    </g>
    <g clip-path="url(#p310f90afc6)">
     <use style="fill:#b15928;stroke:#000000;" x="284.297269641" xlink:href="#C1_0_03fc9c7a15" y="119.644826193"/>
    </g>
    <g clip-path="url(#p310f90afc6)">
     <use style="fill:#b15928;stroke:#000000;" x="262.966269367" xlink:href="#C1_0_03fc9c7a15" y="126.842496191"/>
    </g>
    <g clip-path="url(#p310f90afc6)">
     <use style="fill:#b15928;stroke:#000000;" x="261.805476553" xlink:href="#C1_0_03fc9c7a15" y="126.808001673"/>
    </g>
    <g clip-path="url(#p310f90afc6)">
     <use style="fill:#b15928;stroke:#000000;" x="257.523511343" xlink:href="#C1_0_03fc9c7a15" y="141.596147048"/>
    </g>
    <g clip-path="url(#p310f90afc6)">
     <use style="fill:#b15928;stroke:#000000;" x="287.672933857" xlink:href="#C1_0_03fc9c7a15" y="127.264910299"/>
    </g>
    <g clip-path="url(#p310f90afc6)">
     <use style="fill:#b15928;stroke:#000000;" x="232.655417585" xlink:href="#C1_0_03fc9c7a15" y="117.910252542"/>
    </g>
    <g clip-path="url(#p310f90afc6)">
     <use style="fill:#b15928;stroke:#000000;" x="254.657864328" xlink:href="#C1_0_03fc9c7a15" y="122.355547291"/>
    </g>
    <g clip-path="url(#p310f90afc6)">
     <use style="fill:#b15928;stroke:#000000;" x="304.463592747" xlink:href="#C1_0_03fc9c7a15" y="121.521993892"/>
    </g>
    <g clip-path="url(#p310f90afc6)">
     <use style="fill:#b15928;stroke:#000000;" x="316.951940835" xlink:href="#C1_0_03fc9c7a15" y="136.278536905"/>
    </g>
    <g clip-path="url(#p310f90afc6)">
     <use style="fill:#b15928;stroke:#000000;" x="294.51854377" xlink:href="#C1_0_03fc9c7a15" y="130.327313259"/>
    </g>
    <g clip-path="url(#p310f90afc6)">
     <use style="fill:#b15928;stroke:#000000;" x="255.768828587" xlink:href="#C1_0_03fc9c7a15" y="129.18081115"/>
    </g>
    <g clip-path="url(#p310f90afc6)">
     <use style="fill:#b15928;stroke:#000000;" x="272.790201113" xlink:href="#C1_0_03fc9c7a15" y="122.309887061"/>
    </g>
   </g>
   <g id="line2d_1">
    <path clip-path="url(#p310f90afc6)" d="M 69.218182 57.378171 
L 75.429685 60.764241 
L 81.641187 64.150311 
L 87.85269 67.536381 
L 94.064193 70.922451 
L 100.275696 74.308522 
L 106.487199 77.694592 
L 112.698701 81.080662 
L 118.910204 84.466732 
L 125.121707 87.852802 
L 131.33321 91.238873 
L 137.544712 94.624943 
L 143.756215 98.011013 
L 149.967718 101.397083 
L 156.179221 104.783153 
L 162.390724 108.169224 
L 168.602226 111.555294 
L 174.813729 114.941364 
L 181.025232 118.327434 
L 187.236735 121.713504 
L 193.448237 125.099574 
L 199.65974 128.485645 
L 205.871243 131.871715 
L 212.082746 135.257785 
L 218.294249 138.643855 
L 224.505751 142.029925 
L 230.717254 145.415996 
L 236.928757 148.802066 
L 243.14026 152.188136 
L 249.351763 155.574206 
L 255.563265 158.960276 
L 261.774768 162.346347 
L 267.986271 165.732417 
L 274.197774 169.118487 
L 280.409276 172.504557 
L 286.620779 175.890627 
L 292.832282 179.276697 
L 299.043785 182.662768 
L 305.255288 186.048838 
L 311.46679 189.434908 
L 317.678293 192.820978 
L 323.889796 196.207048 
L 330.101299 199.593119 
L 336.312801 202.979189 
L 342.524304 206.365259 
L 348.735807 209.751329 
L 354.94731 213.137399 
L 361.158813 216.523469 
L 367.370315 219.90954 
L 373.581818 223.29561 
" style="fill:none;stroke:#000000;stroke-dasharray:6.000000,6.000000;stroke-dashoffset:0.0;"/>
   </g>
   <g id="line2d_2">
    <path clip-path="url(#p310f90afc6)" d="M 69.218182 75.937106 
L 75.429685 79.323177 
L 81.641187 82.709247 
L 87.85269 86.095317 
L 94.064193 89.481387 
L 100.275696 92.867457 
L 106.487199 96.253527 
L 112.698701 99.639598 
L 118.910204 103.025668 
L 125.121707 106.411738 
L 131.33321 109.797808 
L 137.544712 113.183878 
L 143.756215 116.569949 
L 149.967718 119.956019 
L 156.179221 123.342089 
L 162.390724 126.728159 
L 168.602226 130.114229 
L 174.813729 133.5003 
L 181.025232 136.88637 
L 187.236735 140.27244 
L 193.448237 143.65851 
L 199.65974 147.04458 
L 205.871243 150.43065 
L 212.082746 153.816721 
L 218.294249 157.202791 
L 224.505751 160.588861 
L 230.717254 163.974931 
L 236.928757 167.361001 
L 243.14026 170.747072 
L 249.351763 174.133142 
L 255.563265 177.519212 
L 261.774768 180.905282 
L 267.986271 184.291352 
L 274.197774 187.677422 
L 280.409276 191.063493 
L 286.620779 194.449563 
L 292.832282 197.835633 
L 299.043785 201.221703 
L 305.255288 204.607773 
L 311.46679 207.993844 
L 317.678293 211.379914 
L 323.889796 214.765984 
L 330.101299 218.152054 
L 336.312801 221.538124 
L 342.524304 224.924195 
L 348.735807 228.310265 
L 354.94731 231.696335 
L 361.158813 235.082405 
L 367.370315 238.468475 
L 373.581818 241.854545 
" style="fill:none;stroke:#000000;stroke-linecap:square;"/>
   </g>
   <g id="line2d_3">
    <path clip-path="url(#p310f90afc6)" d="M 69.218182 38.945455 
L 75.429685 42.331525 
L 81.641187 45.717595 
L 87.85269 49.103665 
L 94.064193 52.489735 
L 100.275696 55.875805 
L 106.487199 59.261876 
L 112.698701 62.647946 
L 118.910204 66.034016 
L 125.121707 69.420086 
L 131.33321 72.806156 
L 137.544712 76.192227 
L 143.756215 79.578297 
L 149.967718 82.964367 
L 156.179221 86.350437 
L 162.390724 89.736507 
L 168.602226 93.122578 
L 174.813729 96.508648 
L 181.025232 99.894718 
L 187.236735 103.280788 
L 193.448237 106.666858 
L 199.65974 110.052928 
L 205.871243 113.438999 
L 212.082746 116.825069 
L 218.294249 120.211139 
L 224.505751 123.597209 
L 230.717254 126.983279 
L 236.928757 130.36935 
L 243.14026 133.75542 
L 249.351763 137.14149 
L 255.563265 140.52756 
L 261.774768 143.91363 
L 267.986271 147.2997 
L 274.197774 150.685771 
L 280.409276 154.071841 
L 286.620779 157.457911 
L 292.832282 160.843981 
L 299.043785 164.230051 
L 305.255288 167.616122 
L 311.46679 171.002192 
L 317.678293 174.388262 
L 323.889796 177.774332 
L 330.101299 181.160402 
L 336.312801 184.546473 
L 342.524304 187.932543 
L 348.735807 191.318613 
L 354.94731 194.704683 
L 361.158813 198.090753 
L 367.370315 201.476823 
L 373.581818 204.862894 
" style="fill:none;stroke:#000000;stroke-linecap:square;"/>
   </g>
   <g id="patch_3">
    <path d="M 54 28.8 
L 388.8 28.8 
" style="fill:none;stroke:#000000;stroke-linecap:square;stroke-linejoin:miter;"/>
   </g>
   <g id="patch_4">
    <path d="M 388.8 252 
L 388.8 28.8 
" style="fill:none;stroke:#000000;stroke-linecap:square;stroke-linejoin:miter;"/>
   </g>
   <g id="patch_5">
    <path d="M 54 252 
L 388.8 252 
" style="fill:none;stroke:#000000;stroke-linecap:square;stroke-linejoin:miter;"/>
   </g>
   <g id="patch_6">
    <path d="M 54 252 
L 54 28.8 
" style="fill:none;stroke:#000000;stroke-linecap:square;stroke-linejoin:miter;"/>
   </g>
   <g id="matplotlib.axis_1">
    <g id="xtick_1">
     <g id="line2d_4">
      <defs>
       <path d="M 0 0 
L 0 -4 
" id="m1f935c71d6" style="stroke:#000000;stroke-width:0.5;"/>
      </defs>
      <g>
       <use style="stroke:#000000;stroke-width:0.5;" x="99.6545454545" xlink:href="#m1f935c71d6" y="252.0"/>
      </g>
     </g>
     <g id="line2d_5">
      <defs>
       <path d="M 0 0 
L 0 4 
" id="m189e86083a" style="stroke:#000000;stroke-width:0.5;"/>
      </defs>
      <g>
       <use style="stroke:#000000;stroke-width:0.5;" x="99.6545454545" xlink:href="#m189e86083a" y="28.8"/>
      </g>
     </g>
     <g id="text_1">
      <!-- −4 -->
      <defs>
       <path d="M 10.59375 35.5 
L 73.1875 35.5 
L 73.1875 27.203125 
L 10.59375 27.203125 
z
" id="BitstreamVeraSans-Roman-2212"/>
       <path d="M 37.796875 64.3125 
L 12.890625 25.390625 
L 37.796875 25.390625 
z
M 35.203125 72.90625 
L 47.609375 72.90625 
L 47.609375 25.390625 
L 58.015625 25.390625 
L 58.015625 17.1875 
L 47.609375 17.1875 
L 47.609375 0 
L 37.796875 0 
L 37.796875 17.1875 
L 4.890625 17.1875 
L 4.890625 26.703125 
z
" id="BitstreamVeraSans-Roman-34"/>
      </defs>
      <g transform="translate(92.2834517045 263.5984375)scale(0.1 -0.1)">
       <use xlink:href="#BitstreamVeraSans-Roman-2212"/>
       <use x="83.7890625" xlink:href="#BitstreamVeraSans-Roman-34"/>
      </g>
     </g>
    </g>
    <g id="xtick_2">
     <g id="line2d_6">
      <g>
       <use style="stroke:#000000;stroke-width:0.5;" x="160.527272727" xlink:href="#m1f935c71d6" y="252.0"/>
      </g>
     </g>
     <g id="line2d_7">
      <g>
       <use style="stroke:#000000;stroke-width:0.5;" x="160.527272727" xlink:href="#m189e86083a" y="28.8"/>
      </g>
     </g>
     <g id="text_2">
      <!-- −2 -->
      <defs>
       <path d="M 19.1875 8.296875 
L 53.609375 8.296875 
L 53.609375 0 
L 7.328125 0 
L 7.328125 8.296875 
Q 12.9375 14.109375 22.625 23.890625 
Q 32.328125 33.6875 34.8125 36.53125 
Q 39.546875 41.84375 41.421875 45.53125 
Q 43.3125 49.21875 43.3125 52.78125 
Q 43.3125 58.59375 39.234375 62.25 
Q 35.15625 65.921875 28.609375 65.921875 
Q 23.96875 65.921875 18.8125 64.3125 
Q 13.671875 62.703125 7.8125 59.421875 
L 7.8125 69.390625 
Q 13.765625 71.78125 18.9375 73 
Q 24.125 74.21875 28.421875 74.21875 
Q 39.75 74.21875 46.484375 68.546875 
Q 53.21875 62.890625 53.21875 53.421875 
Q 53.21875 48.921875 51.53125 44.890625 
Q 49.859375 40.875 45.40625 35.40625 
Q 44.1875 33.984375 37.640625 27.21875 
Q 31.109375 20.453125 19.1875 8.296875 
" id="BitstreamVeraSans-Roman-32"/>
      </defs>
      <g transform="translate(153.156178977 263.5984375)scale(0.1 -0.1)">
       <use xlink:href="#BitstreamVeraSans-Roman-2212"/>
       <use x="83.7890625" xlink:href="#BitstreamVeraSans-Roman-32"/>
      </g>
     </g>
    </g>
    <g id="xtick_3">
     <g id="line2d_8">
      <g>
       <use style="stroke:#000000;stroke-width:0.5;" x="221.4" xlink:href="#m1f935c71d6" y="252.0"/>
      </g>
     </g>
     <g id="line2d_9">
      <g>
       <use style="stroke:#000000;stroke-width:0.5;" x="221.4" xlink:href="#m189e86083a" y="28.8"/>
      </g>
     </g>
     <g id="text_3">
      <!-- 0 -->
      <defs>
       <path d="M 31.78125 66.40625 
Q 24.171875 66.40625 20.328125 58.90625 
Q 16.5 51.421875 16.5 36.375 
Q 16.5 21.390625 20.328125 13.890625 
Q 24.171875 6.390625 31.78125 6.390625 
Q 39.453125 6.390625 43.28125 13.890625 
Q 47.125 21.390625 47.125 36.375 
Q 47.125 51.421875 43.28125 58.90625 
Q 39.453125 66.40625 31.78125 66.40625 
M 31.78125 74.21875 
Q 44.046875 74.21875 50.515625 64.515625 
Q 56.984375 54.828125 56.984375 36.375 
Q 56.984375 17.96875 50.515625 8.265625 
Q 44.046875 -1.421875 31.78125 -1.421875 
Q 19.53125 -1.421875 13.0625 8.265625 
Q 6.59375 17.96875 6.59375 36.375 
Q 6.59375 54.828125 13.0625 64.515625 
Q 19.53125 74.21875 31.78125 74.21875 
" id="BitstreamVeraSans-Roman-30"/>
      </defs>
      <g transform="translate(218.21875 263.5984375)scale(0.1 -0.1)">
       <use xlink:href="#BitstreamVeraSans-Roman-30"/>
      </g>
     </g>
    </g>
    <g id="xtick_4">
     <g id="line2d_10">
      <g>
       <use style="stroke:#000000;stroke-width:0.5;" x="282.272727273" xlink:href="#m1f935c71d6" y="252.0"/>
      </g>
     </g>
     <g id="line2d_11">
      <g>
       <use style="stroke:#000000;stroke-width:0.5;" x="282.272727273" xlink:href="#m189e86083a" y="28.8"/>
      </g>
     </g>
     <g id="text_4">
      <!-- 2 -->
      <g transform="translate(279.091477273 263.5984375)scale(0.1 -0.1)">
       <use xlink:href="#BitstreamVeraSans-Roman-32"/>
      </g>
     </g>
    </g>
    <g id="xtick_5">
     <g id="line2d_12">
      <g>
       <use style="stroke:#000000;stroke-width:0.5;" x="343.145454545" xlink:href="#m1f935c71d6" y="252.0"/>
      </g>
     </g>
     <g id="line2d_13">
      <g>
       <use style="stroke:#000000;stroke-width:0.5;" x="343.145454545" xlink:href="#m189e86083a" y="28.8"/>
      </g>
     </g>
     <g id="text_5">
      <!-- 4 -->
      <g transform="translate(339.964204545 263.5984375)scale(0.1 -0.1)">
       <use xlink:href="#BitstreamVeraSans-Roman-34"/>
      </g>
     </g>
    </g>
   </g>
   <g id="matplotlib.axis_2">
    <g id="ytick_1">
     <g id="line2d_14">
      <defs>
       <path d="M 0 0 
L 4 0 
" id="m4a49506de4" style="stroke:#000000;stroke-width:0.5;"/>
      </defs>
      <g>
       <use style="stroke:#000000;stroke-width:0.5;" x="54.0" xlink:href="#m4a49506de4" y="198.658281819"/>
      </g>
     </g>
     <g id="line2d_15">
      <defs>
       <path d="M 0 0 
L -4 0 
" id="mdf00938675" style="stroke:#000000;stroke-width:0.5;"/>
      </defs>
      <g>
       <use style="stroke:#000000;stroke-width:0.5;" x="388.8" xlink:href="#mdf00938675" y="198.658281819"/>
      </g>
     </g>
     <g id="text_6">
      <!-- −5 -->
      <defs>
       <path d="M 10.796875 72.90625 
L 49.515625 72.90625 
L 49.515625 64.59375 
L 19.828125 64.59375 
L 19.828125 46.734375 
Q 21.96875 47.46875 24.109375 47.828125 
Q 26.265625 48.1875 28.421875 48.1875 
Q 40.625 48.1875 47.75 41.5 
Q 54.890625 34.8125 54.890625 23.390625 
Q 54.890625 11.625 47.5625 5.09375 
Q 40.234375 -1.421875 26.90625 -1.421875 
Q 22.3125 -1.421875 17.546875 -0.640625 
Q 12.796875 0.140625 7.71875 1.703125 
L 7.71875 11.625 
Q 12.109375 9.234375 16.796875 8.0625 
Q 21.484375 6.890625 26.703125 6.890625 
Q 35.15625 6.890625 40.078125 11.328125 
Q 45.015625 15.765625 45.015625 23.390625 
Q 45.015625 31 40.078125 35.4375 
Q 35.15625 39.890625 26.703125 39.890625 
Q 22.75 39.890625 18.8125 39.015625 
Q 14.890625 38.140625 10.796875 36.28125 
z
" id="BitstreamVeraSans-Roman-35"/>
      </defs>
      <g transform="translate(35.2578125 201.417656819)scale(0.1 -0.1)">
       <use xlink:href="#BitstreamVeraSans-Roman-2212"/>
       <use x="83.7890625" xlink:href="#BitstreamVeraSans-Roman-35"/>
      </g>
     </g>
    </g>
    <g id="ytick_2">
     <g id="line2d_16">
      <g>
       <use style="stroke:#000000;stroke-width:0.5;" x="54.0" xlink:href="#m4a49506de4" y="144.557795893"/>
      </g>
     </g>
     <g id="line2d_17">
      <g>
       <use style="stroke:#000000;stroke-width:0.5;" x="388.8" xlink:href="#mdf00938675" y="144.557795893"/>
      </g>
     </g>
     <g id="text_7">
      <!-- 0 -->
      <g transform="translate(43.6375 147.317170893)scale(0.1 -0.1)">
       <use xlink:href="#BitstreamVeraSans-Roman-30"/>
      </g>
     </g>
    </g>
    <g id="ytick_3">
     <g id="line2d_18">
      <g>
       <use style="stroke:#000000;stroke-width:0.5;" x="54.0" xlink:href="#m4a49506de4" y="90.4573099661"/>
      </g>
     </g>
     <g id="line2d_19">
      <g>
       <use style="stroke:#000000;stroke-width:0.5;" x="388.8" xlink:href="#mdf00938675" y="90.4573099661"/>
      </g>
     </g>
     <g id="text_8">
      <!-- 5 -->
      <g transform="translate(43.6375 93.2166849661)scale(0.1 -0.1)">
       <use xlink:href="#BitstreamVeraSans-Roman-35"/>
      </g>
     </g>
    </g>
    <g id="ytick_4">
     <g id="line2d_20">
      <g>
       <use style="stroke:#000000;stroke-width:0.5;" x="54.0" xlink:href="#m4a49506de4" y="36.3568240396"/>
      </g>
     </g>
     <g id="line2d_21">
      <g>
       <use style="stroke:#000000;stroke-width:0.5;" x="388.8" xlink:href="#mdf00938675" y="36.3568240396"/>
      </g>
     </g>
     <g id="text_9">
      <!-- 10 -->
      <defs>
       <path d="M 12.40625 8.296875 
L 28.515625 8.296875 
L 28.515625 63.921875 
L 10.984375 60.40625 
L 10.984375 69.390625 
L 28.421875 72.90625 
L 38.28125 72.90625 
L 38.28125 8.296875 
L 54.390625 8.296875 
L 54.390625 0 
L 12.40625 0 
z
" id="BitstreamVeraSans-Roman-31"/>
      </defs>
      <g transform="translate(37.275 39.1161990396)scale(0.1 -0.1)">
       <use xlink:href="#BitstreamVeraSans-Roman-31"/>
       <use x="63.623046875" xlink:href="#BitstreamVeraSans-Roman-30"/>
      </g>
     </g>
    </g>
   </g>
  </g>
 </g>
 <defs>
  <clipPath id="p310f90afc6">
   <rect height="223.2" width="334.8" x="54.0" y="28.8"/>
  </clipPath>
 </defs>
</svg>
