<?xml version="1.0" encoding="utf-8" standalone="no"?>
<!DOCTYPE svg PUBLIC "-//W3C//DTD SVG 1.1//EN"
  "http://www.w3.org/Graphics/SVG/1.1/DTD/svg11.dtd">
<!-- Created with matplotlib (http://matplotlib.org/) -->
<svg height="288pt" version="1.1" viewBox="0 0 432 288" width="432pt" xmlns="http://www.w3.org/2000/svg" xmlns:xlink="http://www.w3.org/1999/xlink">
 <defs>
  <style type="text/css">
*{stroke-linecap:butt;stroke-linejoin:round;stroke-miterlimit:100000;}
  </style>
 </defs>
 <g id="figure_1">
  <g id="patch_1">
   <path d="M 0 288 
L 432 288 
L 432 0 
L 0 0 
z
" style="fill:#ffffff;"/>
  </g>
  <g id="axes_1">
   <g id="patch_2">
    <path d="M 54 252 
L 388.8 252 
L 388.8 28.8 
L 54 28.8 
z
" style="fill:#ffffff;"/>
   </g>
   <g id="PathCollection_1">
    <defs>
     <path d="M 0 4.472136 
C 1.186024 4.472136 2.323632 4.000923 3.162278 3.162278 
C 4.000923 2.323632 4.472136 1.186024 4.472136 0 
C 4.472136 -1.186024 4.000923 -2.323632 3.162278 -3.162278 
C 2.323632 -4.000923 1.186024 -4.472136 0 -4.472136 
C -1.186024 -4.472136 -2.323632 -4.000923 -3.162278 -3.162278 
C -4.000923 -2.323632 -4.472136 -1.186024 -4.472136 0 
C -4.472136 1.186024 -4.000923 2.323632 -3.162278 3.162278 
C -2.323632 4.000923 -1.186024 4.472136 0 4.472136 
z
" id="C0_0_19383cf188"/>
    </defs>
    <g clip-path="url(#p18216f2a42)">
     <use style="fill:none;stroke:#000000;" x="148.738452867" xlink:href="#C0_0_19383cf188" y="144.714012783"/>
    </g>
    <g clip-path="url(#p18216f2a42)">
     <use style="fill:none;stroke:#000000;" x="257.523511343" xlink:href="#C0_0_19383cf188" y="120.300223405"/>
    </g>
   </g>
   <g id="PathCollection_2">
    <defs>
     <path d="M 0 2.236068 
C 0.593012 2.236068 1.161816 2.000462 1.581139 1.581139 
C 2.000462 1.161816 2.236068 0.593012 2.236068 0 
C 2.236068 -0.593012 2.000462 -1.161816 1.581139 -1.581139 
C 1.161816 -2.000462 0.593012 -2.236068 0 -2.236068 
C -0.593012 -2.236068 -1.161816 -2.000462 -1.581139 -1.581139 
C -2.000462 -1.161816 -2.236068 -0.593012 -2.236068 0 
C -2.236068 0.593012 -2.000462 1.161816 -1.581139 1.581139 
C -1.161816 2.000462 -0.593012 2.236068 0 2.236068 
z
" id="C1_0_9a0927df04"/>
    </defs>
    <g clip-path="url(#p18216f2a42)">
     <use style="fill:#a6cee3;stroke:#000000;" x="214.218611403" xlink:href="#C1_0_9a0927df04" y="138.056568937"/>
    </g>
    <g clip-path="url(#p18216f2a42)">
     <use style="fill:#a6cee3;stroke:#000000;" x="190.316497916" xlink:href="#C1_0_9a0927df04" y="120.611309119"/>
    </g>
    <g clip-path="url(#p18216f2a42)">
     <use style="fill:#a6cee3;stroke:#000000;" x="217.368946827" xlink:href="#C1_0_9a0927df04" y="151.110973868"/>
    </g>
    <g clip-path="url(#p18216f2a42)">
     <use style="fill:#a6cee3;stroke:#000000;" x="189.44450929" xlink:href="#C1_0_9a0927df04" y="143.283452281"/>
    </g>
    <g clip-path="url(#p18216f2a42)">
     <use style="fill:#a6cee3;stroke:#000000;" x="157.38566622" xlink:href="#C1_0_9a0927df04" y="137.957613367"/>
    </g>
    <g clip-path="url(#p18216f2a42)">
     <use style="fill:#a6cee3;stroke:#000000;" x="164.911435239" xlink:href="#C1_0_9a0927df04" y="128.066362412"/>
    </g>
    <g clip-path="url(#p18216f2a42)">
     <use style="fill:#a6cee3;stroke:#000000;" x="183.690493671" xlink:href="#C1_0_9a0927df04" y="140.695836173"/>
    </g>
    <g clip-path="url(#p18216f2a42)">
     <use style="fill:#a6cee3;stroke:#000000;" x="174.036855484" xlink:href="#C1_0_9a0927df04" y="138.686649045"/>
    </g>
    <g clip-path="url(#p18216f2a42)">
     <use style="fill:#a6cee3;stroke:#000000;" x="206.001606699" xlink:href="#C1_0_9a0927df04" y="143.793342562"/>
    </g>
    <g clip-path="url(#p18216f2a42)">
     <use style="fill:#a6cee3;stroke:#000000;" x="170.055915138" xlink:href="#C1_0_9a0927df04" y="149.943536247"/>
    </g>
    <g clip-path="url(#p18216f2a42)">
     <use style="fill:#a6cee3;stroke:#000000;" x="82.8235463326" xlink:href="#C1_0_9a0927df04" y="135.654432089"/>
    </g>
    <g clip-path="url(#p18216f2a42)">
     <use style="fill:#a6cee3;stroke:#000000;" x="186.837567216" xlink:href="#C1_0_9a0927df04" y="148.882732045"/>
    </g>
    <g clip-path="url(#p18216f2a42)">
     <use style="fill:#a6cee3;stroke:#000000;" x="229.610349828" xlink:href="#C1_0_9a0927df04" y="155.632491661"/>
    </g>
    <g clip-path="url(#p18216f2a42)">
     <use style="fill:#a6cee3;stroke:#000000;" x="161.919995599" xlink:href="#C1_0_9a0927df04" y="143.622993137"/>
    </g>
    <g clip-path="url(#p18216f2a42)">
     <use style="fill:#a6cee3;stroke:#000000;" x="207.17949827" xlink:href="#C1_0_9a0927df04" y="127.923394418"/>
    </g>
    <g clip-path="url(#p18216f2a42)">
     <use style="fill:#a6cee3;stroke:#000000;" x="165.24330892" xlink:href="#C1_0_9a0927df04" y="138.265019829"/>
    </g>
    <g clip-path="url(#p18216f2a42)">
     <use style="fill:#a6cee3;stroke:#000000;" x="133.506302881" xlink:href="#C1_0_9a0927df04" y="160.621649268"/>
    </g>
    <g clip-path="url(#p18216f2a42)">
     <use style="fill:#a6cee3;stroke:#000000;" x="149.938092037" xlink:href="#C1_0_9a0927df04" y="140.367219731"/>
    </g>
    <g clip-path="url(#p18216f2a42)">
     <use style="fill:#a6cee3;stroke:#000000;" x="197.972847264" xlink:href="#C1_0_9a0927df04" y="130.453641378"/>
    </g>
    <g clip-path="url(#p18216f2a42)">
     <use style="fill:#a6cee3;stroke:#000000;" x="148.738452867" xlink:href="#C1_0_9a0927df04" y="144.714012783"/>
    </g>
    <g clip-path="url(#p18216f2a42)">
     <use style="fill:#b15928;stroke:#000000;" x="250.358587936" xlink:href="#C1_0_9a0927df04" y="117.397652541"/>
    </g>
    <g clip-path="url(#p18216f2a42)">
     <use style="fill:#b15928;stroke:#000000;" x="230.340067289" xlink:href="#C1_0_9a0927df04" y="85.4515365481"/>
    </g>
    <g clip-path="url(#p18216f2a42)">
     <use style="fill:#b15928;stroke:#000000;" x="266.760768141" xlink:href="#C1_0_9a0927df04" y="108.091450058"/>
    </g>
    <g clip-path="url(#p18216f2a42)">
     <use style="fill:#b15928;stroke:#000000;" x="244.142192132" xlink:href="#C1_0_9a0927df04" y="96.5711443866"/>
    </g>
    <g clip-path="url(#p18216f2a42)">
     <use style="fill:#b15928;stroke:#000000;" x="233.151545513" xlink:href="#C1_0_9a0927df04" y="105.955885496"/>
    </g>
    <g clip-path="url(#p18216f2a42)">
     <use style="fill:#b15928;stroke:#000000;" x="255.017981392" xlink:href="#C1_0_9a0927df04" y="100.272873857"/>
    </g>
    <g clip-path="url(#p18216f2a42)">
     <use style="fill:#b15928;stroke:#000000;" x="266.725676358" xlink:href="#C1_0_9a0927df04" y="115.128915101"/>
    </g>
    <g clip-path="url(#p18216f2a42)">
     <use style="fill:#b15928;stroke:#000000;" x="281.414962723" xlink:href="#C1_0_9a0927df04" y="99.8802340789"/>
    </g>
    <g clip-path="url(#p18216f2a42)">
     <use style="fill:#b15928;stroke:#000000;" x="284.297269641" xlink:href="#C1_0_9a0927df04" y="101.073050396"/>
    </g>
    <g clip-path="url(#p18216f2a42)">
     <use style="fill:#b15928;stroke:#000000;" x="262.966269367" xlink:href="#C1_0_9a0927df04" y="107.377493178"/>
    </g>
    <g clip-path="url(#p18216f2a42)">
     <use style="fill:#b15928;stroke:#000000;" x="261.805476553" xlink:href="#C1_0_9a0927df04" y="107.347279412"/>
    </g>
    <g clip-path="url(#p18216f2a42)">
     <use style="fill:#b15928;stroke:#000000;" x="257.523511343" xlink:href="#C1_0_9a0927df04" y="120.300223405"/>
    </g>
    <g clip-path="url(#p18216f2a42)">
     <use style="fill:#b15928;stroke:#000000;" x="287.672933857" xlink:href="#C1_0_9a0927df04" y="107.747485908"/>
    </g>
    <g clip-path="url(#p18216f2a42)">
     <use style="fill:#b15928;stroke:#000000;" x="232.655417585" xlink:href="#C1_0_9a0927df04" y="99.5537364605"/>
    </g>
    <g clip-path="url(#p18216f2a42)">
     <use style="fill:#b15928;stroke:#000000;" x="254.657864328" xlink:href="#C1_0_9a0927df04" y="103.447372374"/>
    </g>
    <g clip-path="url(#p18216f2a42)">
     <use style="fill:#b15928;stroke:#000000;" x="304.463592747" xlink:href="#C1_0_9a0927df04" y="102.717262531"/>
    </g>
    <g clip-path="url(#p18216f2a42)">
     <use style="fill:#b15928;stroke:#000000;" x="316.951940835" xlink:href="#C1_0_9a0927df04" y="115.642525999"/>
    </g>
    <g clip-path="url(#p18216f2a42)">
     <use style="fill:#b15928;stroke:#000000;" x="294.51854377" xlink:href="#C1_0_9a0927df04" y="110.429846206"/>
    </g>
    <g clip-path="url(#p18216f2a42)">
     <use style="fill:#b15928;stroke:#000000;" x="255.768828587" xlink:href="#C1_0_9a0927df04" y="109.42562443"/>
    </g>
    <g clip-path="url(#p18216f2a42)">
     <use style="fill:#b15928;stroke:#000000;" x="272.790201113" xlink:href="#C1_0_9a0927df04" y="103.407378555"/>
    </g>
   </g>
   <g id="line2d_1">
    <path clip-path="url(#p18216f2a42)" d="M 69.218182 74.651906 
L 75.429685 77.335501 
L 81.641187 80.019097 
L 87.85269 82.702693 
L 94.064193 85.386289 
L 100.275696 88.069884 
L 106.487199 90.75348 
L 112.698701 93.437076 
L 118.910204 96.120671 
L 125.121707 98.804267 
L 131.33321 101.487863 
L 137.544712 104.171459 
L 143.756215 106.855054 
L 149.967718 109.53865 
L 156.179221 112.222246 
L 162.390724 114.905841 
L 168.602226 117.589437 
L 174.813729 120.273033 
L 181.025232 122.956628 
L 187.236735 125.640224 
L 193.448237 128.32382 
L 199.65974 131.007416 
L 205.871243 133.691011 
L 212.082746 136.374607 
L 218.294249 139.058203 
L 224.505751 141.741798 
L 230.717254 144.425394 
L 236.928757 147.10899 
L 243.14026 149.792585 
L 249.351763 152.476181 
L 255.563265 155.159777 
L 261.774768 157.843373 
L 267.986271 160.526968 
L 274.197774 163.210564 
L 280.409276 165.89416 
L 286.620779 168.577755 
L 292.832282 171.261351 
L 299.043785 173.944947 
L 305.255288 176.628542 
L 311.46679 179.312138 
L 317.678293 181.995734 
L 323.889796 184.67933 
L 330.101299 187.362925 
L 336.312801 190.046521 
L 342.524304 192.730117 
L 348.735807 195.413712 
L 354.94731 198.097308 
L 361.158813 200.780904 
L 367.370315 203.4645 
L 373.581818 206.148095 
" style="fill:none;stroke:#000000;stroke-dasharray:6.000000,6.000000;stroke-dashoffset:0.0;"/>
   </g>
   <g id="line2d_2">
    <path clip-path="url(#p18216f2a42)" d="M 69.218182 110.358356 
L 75.429685 113.041952 
L 81.641187 115.725547 
L 87.85269 118.409143 
L 94.064193 121.092739 
L 100.275696 123.776335 
L 106.487199 126.45993 
L 112.698701 129.143526 
L 118.910204 131.827122 
L 125.121707 134.510717 
L 131.33321 137.194313 
L 137.544712 139.877909 
L 143.756215 142.561504 
L 149.967718 145.2451 
L 156.179221 147.928696 
L 162.390724 150.612292 
L 168.602226 153.295887 
L 174.813729 155.979483 
L 181.025232 158.663079 
L 187.236735 161.346674 
L 193.448237 164.03027 
L 199.65974 166.713866 
L 205.871243 169.397461 
L 212.082746 172.081057 
L 218.294249 174.764653 
L 224.505751 177.448249 
L 230.717254 180.131844 
L 236.928757 182.81544 
L 243.14026 185.499036 
L 249.351763 188.182631 
L 255.563265 190.866227 
L 261.774768 193.549823 
L 267.986271 196.233419 
L 274.197774 198.917014 
L 280.409276 201.60061 
L 286.620779 204.284206 
L 292.832282 206.967801 
L 299.043785 209.651397 
L 305.255288 212.334993 
L 311.46679 215.018588 
L 317.678293 217.702184 
L 323.889796 220.38578 
L 330.101299 223.069376 
L 336.312801 225.752971 
L 342.524304 228.436567 
L 348.735807 231.120163 
L 354.94731 233.803758 
L 361.158813 236.487354 
L 367.370315 239.17095 
L 373.581818 241.854545 
" style="fill:none;stroke:#000000;stroke-linecap:square;"/>
   </g>
   <g id="line2d_3">
    <path clip-path="url(#p18216f2a42)" d="M 69.218182 38.945455 
L 75.429685 41.62905 
L 81.641187 44.312646 
L 87.85269 46.996242 
L 94.064193 49.679837 
L 100.275696 52.363433 
L 106.487199 55.047029 
L 112.698701 57.730624 
L 118.910204 60.41422 
L 125.121707 63.097816 
L 131.33321 65.781412 
L 137.544712 68.465007 
L 143.756215 71.148603 
L 149.967718 73.832199 
L 156.179221 76.515794 
L 162.390724 79.19939 
L 168.602226 81.882986 
L 174.813729 84.566581 
L 181.025232 87.250177 
L 187.236735 89.933773 
L 193.448237 92.617369 
L 199.65974 95.300964 
L 205.871243 97.98456 
L 212.082746 100.668156 
L 218.294249 103.351751 
L 224.505751 106.035347 
L 230.717254 108.718943 
L 236.928757 111.402539 
L 243.14026 114.086134 
L 249.351763 116.76973 
L 255.563265 119.453326 
L 261.774768 122.136921 
L 267.986271 124.820517 
L 274.197774 127.504113 
L 280.409276 130.187708 
L 286.620779 132.871304 
L 292.832282 135.5549 
L 299.043785 138.238496 
L 305.255288 140.922091 
L 311.46679 143.605687 
L 317.678293 146.289283 
L 323.889796 148.972878 
L 330.101299 151.656474 
L 336.312801 154.34007 
L 342.524304 157.023665 
L 348.735807 159.707261 
L 354.94731 162.390857 
L 361.158813 165.074453 
L 367.370315 167.758048 
L 373.581818 170.441644 
" style="fill:none;stroke:#000000;stroke-linecap:square;"/>
   </g>
   <g id="patch_3">
    <path d="M 54 28.8 
L 388.8 28.8 
" style="fill:none;stroke:#000000;stroke-linecap:square;stroke-linejoin:miter;"/>
   </g>
   <g id="patch_4">
    <path d="M 388.8 252 
L 388.8 28.8 
" style="fill:none;stroke:#000000;stroke-linecap:square;stroke-linejoin:miter;"/>
   </g>
   <g id="patch_5">
    <path d="M 54 252 
L 388.8 252 
" style="fill:none;stroke:#000000;stroke-linecap:square;stroke-linejoin:miter;"/>
   </g>
   <g id="patch_6">
    <path d="M 54 252 
L 54 28.8 
" style="fill:none;stroke:#000000;stroke-linecap:square;stroke-linejoin:miter;"/>
   </g>
   <g id="matplotlib.axis_1">
    <g id="xtick_1">
     <g id="line2d_4">
      <defs>
       <path d="M 0 0 
L 0 -4 
" id="m923767fe17" style="stroke:#000000;stroke-width:0.5;"/>
      </defs>
      <g>
       <use style="stroke:#000000;stroke-width:0.5;" x="99.6545454545" xlink:href="#m923767fe17" y="252.0"/>
      </g>
     </g>
     <g id="line2d_5">
      <defs>
       <path d="M 0 0 
L 0 4 
" id="macab217d7b" style="stroke:#000000;stroke-width:0.5;"/>
      </defs>
      <g>
       <use style="stroke:#000000;stroke-width:0.5;" x="99.6545454545" xlink:href="#macab217d7b" y="28.8"/>
      </g>
     </g>
     <g id="text_1">
      <!-- −4 -->
      <defs>
       <path d="M 10.59375 35.5 
L 73.1875 35.5 
L 73.1875 27.203125 
L 10.59375 27.203125 
z
" id="BitstreamVeraSans-Roman-2212"/>
       <path d="M 37.796875 64.3125 
L 12.890625 25.390625 
L 37.796875 25.390625 
z
M 35.203125 72.90625 
L 47.609375 72.90625 
L 47.609375 25.390625 
L 58.015625 25.390625 
L 58.015625 17.1875 
L 47.609375 17.1875 
L 47.609375 0 
L 37.796875 0 
L 37.796875 17.1875 
L 4.890625 17.1875 
L 4.890625 26.703125 
z
" id="BitstreamVeraSans-Roman-34"/>
      </defs>
      <g transform="translate(92.2834517045 263.5984375)scale(0.1 -0.1)">
       <use xlink:href="#BitstreamVeraSans-Roman-2212"/>
       <use x="83.7890625" xlink:href="#BitstreamVeraSans-Roman-34"/>
      </g>
     </g>
    </g>
    <g id="xtick_2">
     <g id="line2d_6">
      <g>
       <use style="stroke:#000000;stroke-width:0.5;" x="160.527272727" xlink:href="#m923767fe17" y="252.0"/>
      </g>
     </g>
     <g id="line2d_7">
      <g>
       <use style="stroke:#000000;stroke-width:0.5;" x="160.527272727" xlink:href="#macab217d7b" y="28.8"/>
      </g>
     </g>
     <g id="text_2">
      <!-- −2 -->
      <defs>
       <path d="M 19.1875 8.296875 
L 53.609375 8.296875 
L 53.609375 0 
L 7.328125 0 
L 7.328125 8.296875 
Q 12.9375 14.109375 22.625 23.890625 
Q 32.328125 33.6875 34.8125 36.53125 
Q 39.546875 41.84375 41.421875 45.53125 
Q 43.3125 49.21875 43.3125 52.78125 
Q 43.3125 58.59375 39.234375 62.25 
Q 35.15625 65.921875 28.609375 65.921875 
Q 23.96875 65.921875 18.8125 64.3125 
Q 13.671875 62.703125 7.8125 59.421875 
L 7.8125 69.390625 
Q 13.765625 71.78125 18.9375 73 
Q 24.125 74.21875 28.421875 74.21875 
Q 39.75 74.21875 46.484375 68.546875 
Q 53.21875 62.890625 53.21875 53.421875 
Q 53.21875 48.921875 51.53125 44.890625 
Q 49.859375 40.875 45.40625 35.40625 
Q 44.1875 33.984375 37.640625 27.21875 
Q 31.109375 20.453125 19.1875 8.296875 
" id="BitstreamVeraSans-Roman-32"/>
      </defs>
      <g transform="translate(153.156178977 263.5984375)scale(0.1 -0.1)">
       <use xlink:href="#BitstreamVeraSans-Roman-2212"/>
       <use x="83.7890625" xlink:href="#BitstreamVeraSans-Roman-32"/>
      </g>
     </g>
    </g>
    <g id="xtick_3">
     <g id="line2d_8">
      <g>
       <use style="stroke:#000000;stroke-width:0.5;" x="221.4" xlink:href="#m923767fe17" y="252.0"/>
      </g>
     </g>
     <g id="line2d_9">
      <g>
       <use style="stroke:#000000;stroke-width:0.5;" x="221.4" xlink:href="#macab217d7b" y="28.8"/>
      </g>
     </g>
     <g id="text_3">
      <!-- 0 -->
      <defs>
       <path d="M 31.78125 66.40625 
Q 24.171875 66.40625 20.328125 58.90625 
Q 16.5 51.421875 16.5 36.375 
Q 16.5 21.390625 20.328125 13.890625 
Q 24.171875 6.390625 31.78125 6.390625 
Q 39.453125 6.390625 43.28125 13.890625 
Q 47.125 21.390625 47.125 36.375 
Q 47.125 51.421875 43.28125 58.90625 
Q 39.453125 66.40625 31.78125 66.40625 
M 31.78125 74.21875 
Q 44.046875 74.21875 50.515625 64.515625 
Q 56.984375 54.828125 56.984375 36.375 
Q 56.984375 17.96875 50.515625 8.265625 
Q 44.046875 -1.421875 31.78125 -1.421875 
Q 19.53125 -1.421875 13.0625 8.265625 
Q 6.59375 17.96875 6.59375 36.375 
Q 6.59375 54.828125 13.0625 64.515625 
Q 19.53125 74.21875 31.78125 74.21875 
" id="BitstreamVeraSans-Roman-30"/>
      </defs>
      <g transform="translate(218.21875 263.5984375)scale(0.1 -0.1)">
       <use xlink:href="#BitstreamVeraSans-Roman-30"/>
      </g>
     </g>
    </g>
    <g id="xtick_4">
     <g id="line2d_10">
      <g>
       <use style="stroke:#000000;stroke-width:0.5;" x="282.272727273" xlink:href="#m923767fe17" y="252.0"/>
      </g>
     </g>
     <g id="line2d_11">
      <g>
       <use style="stroke:#000000;stroke-width:0.5;" x="282.272727273" xlink:href="#macab217d7b" y="28.8"/>
      </g>
     </g>
     <g id="text_4">
      <!-- 2 -->
      <g transform="translate(279.091477273 263.5984375)scale(0.1 -0.1)">
       <use xlink:href="#BitstreamVeraSans-Roman-32"/>
      </g>
     </g>
    </g>
    <g id="xtick_5">
     <g id="line2d_12">
      <g>
       <use style="stroke:#000000;stroke-width:0.5;" x="343.145454545" xlink:href="#m923767fe17" y="252.0"/>
      </g>
     </g>
     <g id="line2d_13">
      <g>
       <use style="stroke:#000000;stroke-width:0.5;" x="343.145454545" xlink:href="#macab217d7b" y="28.8"/>
      </g>
     </g>
     <g id="text_5">
      <!-- 4 -->
      <g transform="translate(339.964204545 263.5984375)scale(0.1 -0.1)">
       <use xlink:href="#BitstreamVeraSans-Roman-34"/>
      </g>
     </g>
    </g>
   </g>
   <g id="matplotlib.axis_2">
    <g id="ytick_1">
     <g id="line2d_14">
      <defs>
       <path d="M 0 0 
L 4 0 
" id="m090eef1d5c" style="stroke:#000000;stroke-width:0.5;"/>
      </defs>
      <g>
       <use style="stroke:#000000;stroke-width:0.5;" x="54.0" xlink:href="#m090eef1d5c" y="217.667618939"/>
      </g>
     </g>
     <g id="line2d_15">
      <defs>
       <path d="M 0 0 
L -4 0 
" id="mb17a90ef21" style="stroke:#000000;stroke-width:0.5;"/>
      </defs>
      <g>
       <use style="stroke:#000000;stroke-width:0.5;" x="388.8" xlink:href="#mb17a90ef21" y="217.667618939"/>
      </g>
     </g>
     <g id="text_6">
      <!-- −10 -->
      <defs>
       <path d="M 12.40625 8.296875 
L 28.515625 8.296875 
L 28.515625 63.921875 
L 10.984375 60.40625 
L 10.984375 69.390625 
L 28.421875 72.90625 
L 38.28125 72.90625 
L 38.28125 8.296875 
L 54.390625 8.296875 
L 54.390625 0 
L 12.40625 0 
z
" id="BitstreamVeraSans-Roman-31"/>
      </defs>
      <g transform="translate(28.8953125 220.426993939)scale(0.1 -0.1)">
       <use xlink:href="#BitstreamVeraSans-Roman-2212"/>
       <use x="83.7890625" xlink:href="#BitstreamVeraSans-Roman-31"/>
       <use x="147.412109375" xlink:href="#BitstreamVeraSans-Roman-30"/>
      </g>
     </g>
    </g>
    <g id="ytick_2">
     <g id="line2d_16">
      <g>
       <use style="stroke:#000000;stroke-width:0.5;" x="54.0" xlink:href="#m090eef1d5c" y="170.28097603"/>
      </g>
     </g>
     <g id="line2d_17">
      <g>
       <use style="stroke:#000000;stroke-width:0.5;" x="388.8" xlink:href="#mb17a90ef21" y="170.28097603"/>
      </g>
     </g>
     <g id="text_7">
      <!-- −5 -->
      <defs>
       <path d="M 10.796875 72.90625 
L 49.515625 72.90625 
L 49.515625 64.59375 
L 19.828125 64.59375 
L 19.828125 46.734375 
Q 21.96875 47.46875 24.109375 47.828125 
Q 26.265625 48.1875 28.421875 48.1875 
Q 40.625 48.1875 47.75 41.5 
Q 54.890625 34.8125 54.890625 23.390625 
Q 54.890625 11.625 47.5625 5.09375 
Q 40.234375 -1.421875 26.90625 -1.421875 
Q 22.3125 -1.421875 17.546875 -0.640625 
Q 12.796875 0.140625 7.71875 1.703125 
L 7.71875 11.625 
Q 12.109375 9.234375 16.796875 8.0625 
Q 21.484375 6.890625 26.703125 6.890625 
Q 35.15625 6.890625 40.078125 11.328125 
Q 45.015625 15.765625 45.015625 23.390625 
Q 45.015625 31 40.078125 35.4375 
Q 35.15625 39.890625 26.703125 39.890625 
Q 22.75 39.890625 18.8125 39.015625 
Q 14.890625 38.140625 10.796875 36.28125 
z
" id="BitstreamVeraSans-Roman-35"/>
      </defs>
      <g transform="translate(35.2578125 173.04035103)scale(0.1 -0.1)">
       <use xlink:href="#BitstreamVeraSans-Roman-2212"/>
       <use x="83.7890625" xlink:href="#BitstreamVeraSans-Roman-35"/>
      </g>
     </g>
    </g>
    <g id="ytick_3">
     <g id="line2d_18">
      <g>
       <use style="stroke:#000000;stroke-width:0.5;" x="54.0" xlink:href="#m090eef1d5c" y="122.894333121"/>
      </g>
     </g>
     <g id="line2d_19">
      <g>
       <use style="stroke:#000000;stroke-width:0.5;" x="388.8" xlink:href="#mb17a90ef21" y="122.894333121"/>
      </g>
     </g>
     <g id="text_8">
      <!-- 0 -->
      <g transform="translate(43.6375 125.653708121)scale(0.1 -0.1)">
       <use xlink:href="#BitstreamVeraSans-Roman-30"/>
      </g>
     </g>
    </g>
    <g id="ytick_4">
     <g id="line2d_20">
      <g>
       <use style="stroke:#000000;stroke-width:0.5;" x="54.0" xlink:href="#m090eef1d5c" y="75.5076902127"/>
      </g>
     </g>
     <g id="line2d_21">
      <g>
       <use style="stroke:#000000;stroke-width:0.5;" x="388.8" xlink:href="#mb17a90ef21" y="75.5076902127"/>
      </g>
     </g>
     <g id="text_9">
      <!-- 5 -->
      <g transform="translate(43.6375 78.2670652127)scale(0.1 -0.1)">
       <use xlink:href="#BitstreamVeraSans-Roman-35"/>
      </g>
     </g>
    </g>
   </g>
  </g>
 </g>
 <defs>
  <clipPath id="p18216f2a42">
   <rect height="223.2" width="334.8" x="54.0" y="28.8"/>
  </clipPath>
 </defs>
</svg>
