<?xml version="1.0" encoding="utf-8" standalone="no"?>
<!DOCTYPE svg PUBLIC "-//W3C//DTD SVG 1.1//EN"
  "http://www.w3.org/Graphics/SVG/1.1/DTD/svg11.dtd">
<!-- Created with matplotlib (http://matplotlib.org/) -->
<svg height="288pt" version="1.1" viewBox="0 0 432 288" width="432pt" xmlns="http://www.w3.org/2000/svg" xmlns:xlink="http://www.w3.org/1999/xlink">
 <defs>
  <style type="text/css">
*{stroke-linecap:butt;stroke-linejoin:round;stroke-miterlimit:100000;}
  </style>
 </defs>
 <g id="figure_1">
  <g id="patch_1">
   <path d="M 0 288 
L 432 288 
L 432 0 
L 0 0 
z
" style="fill:#ffffff;"/>
  </g>
  <g id="axes_1">
   <g id="patch_2">
    <path d="M 54 252 
L 388.8 252 
L 388.8 28.8 
L 54 28.8 
z
" style="fill:#ffffff;"/>
   </g>
   <g id="PathCollection_1">
    <defs>
     <path d="M 0 4.472136 
C 1.186024 4.472136 2.323632 4.000923 3.162278 3.162278 
C 4.000923 2.323632 4.472136 1.186024 4.472136 0 
C 4.472136 -1.186024 4.000923 -2.323632 3.162278 -3.162278 
C 2.323632 -4.000923 1.186024 -4.472136 0 -4.472136 
C -1.186024 -4.472136 -2.323632 -4.000923 -3.162278 -3.162278 
C -4.000923 -2.323632 -4.472136 -1.186024 -4.472136 0 
C -4.472136 1.186024 -4.000923 2.323632 -3.162278 3.162278 
C -2.323632 4.000923 -1.186024 4.472136 0 4.472136 
z
" id="C0_0_5785abcfca"/>
    </defs>
    <g clip-path="url(#pe09910b40d)">
     <use style="fill:none;stroke:#000000;" x="190.316497916" xlink:href="#C0_0_5785abcfca" y="141.965584469"/>
    </g>
    <g clip-path="url(#pe09910b40d)">
     <use style="fill:none;stroke:#000000;" x="207.17949827" xlink:href="#C0_0_5785abcfca" y="150.994025601"/>
    </g>
    <g clip-path="url(#pe09910b40d)">
     <use style="fill:none;stroke:#000000;" x="250.358587936" xlink:href="#C0_0_5785abcfca" y="137.997590654"/>
    </g>
    <g clip-path="url(#pe09910b40d)">
     <use style="fill:none;stroke:#000000;" x="257.523511343" xlink:href="#C0_0_5785abcfca" y="141.581478028"/>
    </g>
   </g>
   <g id="PathCollection_2">
    <defs>
     <path d="M 0 2.236068 
C 0.593012 2.236068 1.161816 2.000462 1.581139 1.581139 
C 2.000462 1.161816 2.236068 0.593012 2.236068 0 
C 2.236068 -0.593012 2.000462 -1.161816 1.581139 -1.581139 
C 1.161816 -2.000462 0.593012 -2.236068 0 -2.236068 
C -0.593012 -2.236068 -1.161816 -2.000462 -1.581139 -1.581139 
C -2.000462 -1.161816 -2.236068 -0.593012 -2.236068 0 
C -2.236068 0.593012 -2.000462 1.161816 -1.581139 1.581139 
C -1.161816 2.000462 -0.593012 2.236068 0 2.236068 
z
" id="C1_0_45e856b42a"/>
    </defs>
    <g clip-path="url(#pe09910b40d)">
     <use style="fill:#a6cee3;stroke:#000000;" x="214.218611403" xlink:href="#C1_0_45e856b42a" y="163.505746387"/>
    </g>
    <g clip-path="url(#pe09910b40d)">
     <use style="fill:#a6cee3;stroke:#000000;" x="190.316497916" xlink:href="#C1_0_45e856b42a" y="141.965584469"/>
    </g>
    <g clip-path="url(#pe09910b40d)">
     <use style="fill:#a6cee3;stroke:#000000;" x="217.368946827" xlink:href="#C1_0_45e856b42a" y="179.624394026"/>
    </g>
    <g clip-path="url(#pe09910b40d)">
     <use style="fill:#a6cee3;stroke:#000000;" x="189.44450929" xlink:href="#C1_0_45e856b42a" y="169.959528947"/>
    </g>
    <g clip-path="url(#pe09910b40d)">
     <use style="fill:#a6cee3;stroke:#000000;" x="157.38566622" xlink:href="#C1_0_45e856b42a" y="163.38356311"/>
    </g>
    <g clip-path="url(#pe09910b40d)">
     <use style="fill:#a6cee3;stroke:#000000;" x="164.911435239" xlink:href="#C1_0_45e856b42a" y="151.170552277"/>
    </g>
    <g clip-path="url(#pe09910b40d)">
     <use style="fill:#a6cee3;stroke:#000000;" x="183.690493671" xlink:href="#C1_0_45e856b42a" y="166.764525231"/>
    </g>
    <g clip-path="url(#pe09910b40d)">
     <use style="fill:#a6cee3;stroke:#000000;" x="174.036855484" xlink:href="#C1_0_45e856b42a" y="164.283724341"/>
    </g>
    <g clip-path="url(#pe09910b40d)">
     <use style="fill:#a6cee3;stroke:#000000;" x="206.001606699" xlink:href="#C1_0_45e856b42a" y="170.589105079"/>
    </g>
    <g clip-path="url(#pe09910b40d)">
     <use style="fill:#a6cee3;stroke:#000000;" x="170.055915138" xlink:href="#C1_0_45e856b42a" y="178.182925359"/>
    </g>
    <g clip-path="url(#pe09910b40d)">
     <use style="fill:#a6cee3;stroke:#000000;" x="82.8235463326" xlink:href="#C1_0_45e856b42a" y="160.539759225"/>
    </g>
    <g clip-path="url(#pe09910b40d)">
     <use style="fill:#a6cee3;stroke:#000000;" x="186.837567216" xlink:href="#C1_0_45e856b42a" y="176.873120031"/>
    </g>
    <g clip-path="url(#pe09910b40d)">
     <use style="fill:#a6cee3;stroke:#000000;" x="229.610349828" xlink:href="#C1_0_45e856b42a" y="185.207241538"/>
    </g>
    <g clip-path="url(#pe09910b40d)">
     <use style="fill:#a6cee3;stroke:#000000;" x="161.919995599" xlink:href="#C1_0_45e856b42a" y="170.378769765"/>
    </g>
    <g clip-path="url(#pe09910b40d)">
     <use style="fill:#a6cee3;stroke:#000000;" x="207.17949827" xlink:href="#C1_0_45e856b42a" y="150.994025601"/>
    </g>
    <g clip-path="url(#pe09910b40d)">
     <use style="fill:#a6cee3;stroke:#000000;" x="165.24330892" xlink:href="#C1_0_45e856b42a" y="163.763126674"/>
    </g>
    <g clip-path="url(#pe09910b40d)">
     <use style="fill:#a6cee3;stroke:#000000;" x="133.506302881" xlink:href="#C1_0_45e856b42a" y="191.367497321"/>
    </g>
    <g clip-path="url(#pe09910b40d)">
     <use style="fill:#a6cee3;stroke:#000000;" x="149.938092037" xlink:href="#C1_0_45e856b42a" y="166.358773098"/>
    </g>
    <g clip-path="url(#pe09910b40d)">
     <use style="fill:#a6cee3;stroke:#000000;" x="197.972847264" xlink:href="#C1_0_45e856b42a" y="154.118193987"/>
    </g>
    <g clip-path="url(#pe09910b40d)">
     <use style="fill:#a6cee3;stroke:#000000;" x="148.738452867" xlink:href="#C1_0_45e856b42a" y="171.725882969"/>
    </g>
    <g clip-path="url(#pe09910b40d)">
     <use style="fill:#b15928;stroke:#000000;" x="250.358587936" xlink:href="#C1_0_45e856b42a" y="137.997590654"/>
    </g>
    <g clip-path="url(#pe09910b40d)">
     <use style="fill:#b15928;stroke:#000000;" x="230.340067289" xlink:href="#C1_0_45e856b42a" y="98.5528063207"/>
    </g>
    <g clip-path="url(#pe09910b40d)">
     <use style="fill:#b15928;stroke:#000000;" x="266.760768141" xlink:href="#C1_0_45e856b42a" y="126.506955924"/>
    </g>
    <g clip-path="url(#pe09910b40d)">
     <use style="fill:#b15928;stroke:#000000;" x="244.142192132" xlink:href="#C1_0_45e856b42a" y="112.282504578"/>
    </g>
    <g clip-path="url(#pe09910b40d)">
     <use style="fill:#b15928;stroke:#000000;" x="233.151545513" xlink:href="#C1_0_45e856b42a" y="123.870113199"/>
    </g>
    <g clip-path="url(#pe09910b40d)">
     <use style="fill:#b15928;stroke:#000000;" x="255.017981392" xlink:href="#C1_0_45e856b42a" y="116.853135969"/>
    </g>
    <g clip-path="url(#pe09910b40d)">
     <use style="fill:#b15928;stroke:#000000;" x="266.725676358" xlink:href="#C1_0_45e856b42a" y="135.196315562"/>
    </g>
    <g clip-path="url(#pe09910b40d)">
     <use style="fill:#b15928;stroke:#000000;" x="281.414962723" xlink:href="#C1_0_45e856b42a" y="116.368332391"/>
    </g>
    <g clip-path="url(#pe09910b40d)">
     <use style="fill:#b15928;stroke:#000000;" x="284.297269641" xlink:href="#C1_0_45e856b42a" y="117.84113686"/>
    </g>
    <g clip-path="url(#pe09910b40d)">
     <use style="fill:#b15928;stroke:#000000;" x="262.966269367" xlink:href="#C1_0_45e856b42a" y="125.625412918"/>
    </g>
    <g clip-path="url(#pe09910b40d)">
     <use style="fill:#b15928;stroke:#000000;" x="261.805476553" xlink:href="#C1_0_45e856b42a" y="125.588107116"/>
    </g>
    <g clip-path="url(#pe09910b40d)">
     <use style="fill:#b15928;stroke:#000000;" x="257.523511343" xlink:href="#C1_0_45e856b42a" y="141.581478028"/>
    </g>
    <g clip-path="url(#pe09910b40d)">
     <use style="fill:#b15928;stroke:#000000;" x="287.672933857" xlink:href="#C1_0_45e856b42a" y="126.082253538"/>
    </g>
    <g clip-path="url(#pe09910b40d)">
     <use style="fill:#b15928;stroke:#000000;" x="232.655417585" xlink:href="#C1_0_45e856b42a" y="115.965196431"/>
    </g>
    <g clip-path="url(#pe09910b40d)">
     <use style="fill:#b15928;stroke:#000000;" x="254.657864328" xlink:href="#C1_0_45e856b42a" y="120.772780204"/>
    </g>
    <g clip-path="url(#pe09910b40d)">
     <use style="fill:#b15928;stroke:#000000;" x="304.463592747" xlink:href="#C1_0_45e856b42a" y="119.871292672"/>
    </g>
    <g clip-path="url(#pe09910b40d)">
     <use style="fill:#b15928;stroke:#000000;" x="316.951940835" xlink:href="#C1_0_45e856b42a" y="135.830485647"/>
    </g>
    <g clip-path="url(#pe09910b40d)">
     <use style="fill:#b15928;stroke:#000000;" x="294.51854377" xlink:href="#C1_0_45e856b42a" y="129.394240618"/>
    </g>
    <g clip-path="url(#pe09910b40d)">
     <use style="fill:#b15928;stroke:#000000;" x="255.768828587" xlink:href="#C1_0_45e856b42a" y="128.154299232"/>
    </g>
    <g clip-path="url(#pe09910b40d)">
     <use style="fill:#b15928;stroke:#000000;" x="272.790201113" xlink:href="#C1_0_45e856b42a" y="120.72339869"/>
    </g>
   </g>
   <g id="line2d_1">
    <path clip-path="url(#pe09910b40d)" d="M 69.218182 57.492787 
L 75.429685 60.878373 
L 81.641187 64.26396 
L 87.85269 67.649546 
L 94.064193 71.035132 
L 100.275696 74.420719 
L 106.487199 77.806305 
L 112.698701 81.191891 
L 118.910204 84.577478 
L 125.121707 87.963064 
L 131.33321 91.34865 
L 137.544712 94.734236 
L 143.756215 98.119823 
L 149.967718 101.505409 
L 156.179221 104.890995 
L 162.390724 108.276582 
L 168.602226 111.662168 
L 174.813729 115.047754 
L 181.025232 118.433341 
L 187.236735 121.818927 
L 193.448237 125.204513 
L 199.65974 128.5901 
L 205.871243 131.975686 
L 212.082746 135.361272 
L 218.294249 138.746858 
L 224.505751 142.132445 
L 230.717254 145.518031 
L 236.928757 148.903617 
L 243.14026 152.289204 
L 249.351763 155.67479 
L 255.563265 159.060376 
L 261.774768 162.445963 
L 267.986271 165.831549 
L 274.197774 169.217135 
L 280.409276 172.602722 
L 286.620779 175.988308 
L 292.832282 179.373894 
L 299.043785 182.75948 
L 305.255288 186.145067 
L 311.46679 189.530653 
L 317.678293 192.916239 
L 323.889796 196.301826 
L 330.101299 199.687412 
L 336.312801 203.072998 
L 342.524304 206.458585 
L 348.735807 209.844171 
L 354.94731 213.229757 
L 361.158813 216.615344 
L 367.370315 220.00093 
L 373.581818 223.386516 
" style="fill:none;stroke:#000000;stroke-dasharray:6.000000,6.000000;stroke-dashoffset:0.0;"/>
   </g>
   <g id="line2d_2">
    <path clip-path="url(#pe09910b40d)" d="M 69.218182 75.960816 
L 75.429685 79.346403 
L 81.641187 82.731989 
L 87.85269 86.117575 
L 94.064193 89.503162 
L 100.275696 92.888748 
L 106.487199 96.274334 
L 112.698701 99.65992 
L 118.910204 103.045507 
L 125.121707 106.431093 
L 131.33321 109.816679 
L 137.544712 113.202266 
L 143.756215 116.587852 
L 149.967718 119.973438 
L 156.179221 123.359025 
L 162.390724 126.744611 
L 168.602226 130.130197 
L 174.813729 133.515784 
L 181.025232 136.90137 
L 187.236735 140.286956 
L 193.448237 143.672543 
L 199.65974 147.058129 
L 205.871243 150.443715 
L 212.082746 153.829301 
L 218.294249 157.214888 
L 224.505751 160.600474 
L 230.717254 163.98606 
L 236.928757 167.371647 
L 243.14026 170.757233 
L 249.351763 174.142819 
L 255.563265 177.528406 
L 261.774768 180.913992 
L 267.986271 184.299578 
L 274.197774 187.685165 
L 280.409276 191.070751 
L 286.620779 194.456337 
L 292.832282 197.841923 
L 299.043785 201.22751 
L 305.255288 204.613096 
L 311.46679 207.998682 
L 317.678293 211.384269 
L 323.889796 214.769855 
L 330.101299 218.155441 
L 336.312801 221.541028 
L 342.524304 224.926614 
L 348.735807 228.3122 
L 354.94731 231.697787 
L 361.158813 235.083373 
L 367.370315 238.468959 
L 373.581818 241.854545 
" style="fill:none;stroke:#000000;stroke-linecap:square;"/>
   </g>
   <g id="line2d_3">
    <path clip-path="url(#pe09910b40d)" d="M 69.218182 38.945455 
L 75.429685 42.331041 
L 81.641187 45.716627 
L 87.85269 49.102213 
L 94.064193 52.4878 
L 100.275696 55.873386 
L 106.487199 59.258972 
L 112.698701 62.644559 
L 118.910204 66.030145 
L 125.121707 69.415731 
L 131.33321 72.801318 
L 137.544712 76.186904 
L 143.756215 79.57249 
L 149.967718 82.958077 
L 156.179221 86.343663 
L 162.390724 89.729249 
L 168.602226 93.114835 
L 174.813729 96.500422 
L 181.025232 99.886008 
L 187.236735 103.271594 
L 193.448237 106.657181 
L 199.65974 110.042767 
L 205.871243 113.428353 
L 212.082746 116.81394 
L 218.294249 120.199526 
L 224.505751 123.585112 
L 230.717254 126.970699 
L 236.928757 130.356285 
L 243.14026 133.741871 
L 249.351763 137.127457 
L 255.563265 140.513044 
L 261.774768 143.89863 
L 267.986271 147.284216 
L 274.197774 150.669803 
L 280.409276 154.055389 
L 286.620779 157.440975 
L 292.832282 160.826562 
L 299.043785 164.212148 
L 305.255288 167.597734 
L 311.46679 170.983321 
L 317.678293 174.368907 
L 323.889796 177.754493 
L 330.101299 181.14008 
L 336.312801 184.525666 
L 342.524304 187.911252 
L 348.735807 191.296838 
L 354.94731 194.682425 
L 361.158813 198.068011 
L 367.370315 201.453597 
L 373.581818 204.839184 
" style="fill:none;stroke:#000000;stroke-linecap:square;"/>
   </g>
   <g id="patch_3">
    <path d="M 54 28.8 
L 388.8 28.8 
" style="fill:none;stroke:#000000;stroke-linecap:square;stroke-linejoin:miter;"/>
   </g>
   <g id="patch_4">
    <path d="M 388.8 252 
L 388.8 28.8 
" style="fill:none;stroke:#000000;stroke-linecap:square;stroke-linejoin:miter;"/>
   </g>
   <g id="patch_5">
    <path d="M 54 252 
L 388.8 252 
" style="fill:none;stroke:#000000;stroke-linecap:square;stroke-linejoin:miter;"/>
   </g>
   <g id="patch_6">
    <path d="M 54 252 
L 54 28.8 
" style="fill:none;stroke:#000000;stroke-linecap:square;stroke-linejoin:miter;"/>
   </g>
   <g id="matplotlib.axis_1">
    <g id="xtick_1">
     <g id="line2d_4">
      <defs>
       <path d="M 0 0 
L 0 -4 
" id="me92405af75" style="stroke:#000000;stroke-width:0.5;"/>
      </defs>
      <g>
       <use style="stroke:#000000;stroke-width:0.5;" x="99.6545454545" xlink:href="#me92405af75" y="252.0"/>
      </g>
     </g>
     <g id="line2d_5">
      <defs>
       <path d="M 0 0 
L 0 4 
" id="m39c604694e" style="stroke:#000000;stroke-width:0.5;"/>
      </defs>
      <g>
       <use style="stroke:#000000;stroke-width:0.5;" x="99.6545454545" xlink:href="#m39c604694e" y="28.8"/>
      </g>
     </g>
     <g id="text_1">
      <!-- −4 -->
      <defs>
       <path d="M 10.59375 35.5 
L 73.1875 35.5 
L 73.1875 27.203125 
L 10.59375 27.203125 
z
" id="BitstreamVeraSans-Roman-2212"/>
       <path d="M 37.796875 64.3125 
L 12.890625 25.390625 
L 37.796875 25.390625 
z
M 35.203125 72.90625 
L 47.609375 72.90625 
L 47.609375 25.390625 
L 58.015625 25.390625 
L 58.015625 17.1875 
L 47.609375 17.1875 
L 47.609375 0 
L 37.796875 0 
L 37.796875 17.1875 
L 4.890625 17.1875 
L 4.890625 26.703125 
z
" id="BitstreamVeraSans-Roman-34"/>
      </defs>
      <g transform="translate(92.2834517045 263.5984375)scale(0.1 -0.1)">
       <use xlink:href="#BitstreamVeraSans-Roman-2212"/>
       <use x="83.7890625" xlink:href="#BitstreamVeraSans-Roman-34"/>
      </g>
     </g>
    </g>
    <g id="xtick_2">
     <g id="line2d_6">
      <g>
       <use style="stroke:#000000;stroke-width:0.5;" x="160.527272727" xlink:href="#me92405af75" y="252.0"/>
      </g>
     </g>
     <g id="line2d_7">
      <g>
       <use style="stroke:#000000;stroke-width:0.5;" x="160.527272727" xlink:href="#m39c604694e" y="28.8"/>
      </g>
     </g>
     <g id="text_2">
      <!-- −2 -->
      <defs>
       <path d="M 19.1875 8.296875 
L 53.609375 8.296875 
L 53.609375 0 
L 7.328125 0 
L 7.328125 8.296875 
Q 12.9375 14.109375 22.625 23.890625 
Q 32.328125 33.6875 34.8125 36.53125 
Q 39.546875 41.84375 41.421875 45.53125 
Q 43.3125 49.21875 43.3125 52.78125 
Q 43.3125 58.59375 39.234375 62.25 
Q 35.15625 65.921875 28.609375 65.921875 
Q 23.96875 65.921875 18.8125 64.3125 
Q 13.671875 62.703125 7.8125 59.421875 
L 7.8125 69.390625 
Q 13.765625 71.78125 18.9375 73 
Q 24.125 74.21875 28.421875 74.21875 
Q 39.75 74.21875 46.484375 68.546875 
Q 53.21875 62.890625 53.21875 53.421875 
Q 53.21875 48.921875 51.53125 44.890625 
Q 49.859375 40.875 45.40625 35.40625 
Q 44.1875 33.984375 37.640625 27.21875 
Q 31.109375 20.453125 19.1875 8.296875 
" id="BitstreamVeraSans-Roman-32"/>
      </defs>
      <g transform="translate(153.156178977 263.5984375)scale(0.1 -0.1)">
       <use xlink:href="#BitstreamVeraSans-Roman-2212"/>
       <use x="83.7890625" xlink:href="#BitstreamVeraSans-Roman-32"/>
      </g>
     </g>
    </g>
    <g id="xtick_3">
     <g id="line2d_8">
      <g>
       <use style="stroke:#000000;stroke-width:0.5;" x="221.4" xlink:href="#me92405af75" y="252.0"/>
      </g>
     </g>
     <g id="line2d_9">
      <g>
       <use style="stroke:#000000;stroke-width:0.5;" x="221.4" xlink:href="#m39c604694e" y="28.8"/>
      </g>
     </g>
     <g id="text_3">
      <!-- 0 -->
      <defs>
       <path d="M 31.78125 66.40625 
Q 24.171875 66.40625 20.328125 58.90625 
Q 16.5 51.421875 16.5 36.375 
Q 16.5 21.390625 20.328125 13.890625 
Q 24.171875 6.390625 31.78125 6.390625 
Q 39.453125 6.390625 43.28125 13.890625 
Q 47.125 21.390625 47.125 36.375 
Q 47.125 51.421875 43.28125 58.90625 
Q 39.453125 66.40625 31.78125 66.40625 
M 31.78125 74.21875 
Q 44.046875 74.21875 50.515625 64.515625 
Q 56.984375 54.828125 56.984375 36.375 
Q 56.984375 17.96875 50.515625 8.265625 
Q 44.046875 -1.421875 31.78125 -1.421875 
Q 19.53125 -1.421875 13.0625 8.265625 
Q 6.59375 17.96875 6.59375 36.375 
Q 6.59375 54.828125 13.0625 64.515625 
Q 19.53125 74.21875 31.78125 74.21875 
" id="BitstreamVeraSans-Roman-30"/>
      </defs>
      <g transform="translate(218.21875 263.5984375)scale(0.1 -0.1)">
       <use xlink:href="#BitstreamVeraSans-Roman-30"/>
      </g>
     </g>
    </g>
    <g id="xtick_4">
     <g id="line2d_10">
      <g>
       <use style="stroke:#000000;stroke-width:0.5;" x="282.272727273" xlink:href="#me92405af75" y="252.0"/>
      </g>
     </g>
     <g id="line2d_11">
      <g>
       <use style="stroke:#000000;stroke-width:0.5;" x="282.272727273" xlink:href="#m39c604694e" y="28.8"/>
      </g>
     </g>
     <g id="text_4">
      <!-- 2 -->
      <g transform="translate(279.091477273 263.5984375)scale(0.1 -0.1)">
       <use xlink:href="#BitstreamVeraSans-Roman-32"/>
      </g>
     </g>
    </g>
    <g id="xtick_5">
     <g id="line2d_12">
      <g>
       <use style="stroke:#000000;stroke-width:0.5;" x="343.145454545" xlink:href="#me92405af75" y="252.0"/>
      </g>
     </g>
     <g id="line2d_13">
      <g>
       <use style="stroke:#000000;stroke-width:0.5;" x="343.145454545" xlink:href="#m39c604694e" y="28.8"/>
      </g>
     </g>
     <g id="text_5">
      <!-- 4 -->
      <g transform="translate(339.964204545 263.5984375)scale(0.1 -0.1)">
       <use xlink:href="#BitstreamVeraSans-Roman-34"/>
      </g>
     </g>
    </g>
   </g>
   <g id="matplotlib.axis_2">
    <g id="ytick_1">
     <g id="line2d_14">
      <defs>
       <path d="M 0 0 
L 4 0 
" id="m54727c26ee" style="stroke:#000000;stroke-width:0.5;"/>
      </defs>
      <g>
       <use style="stroke:#000000;stroke-width:0.5;" x="54.0" xlink:href="#m54727c26ee" y="203.294144712"/>
      </g>
     </g>
     <g id="line2d_15">
      <defs>
       <path d="M 0 0 
L -4 0 
" id="mfa7716988d" style="stroke:#000000;stroke-width:0.5;"/>
      </defs>
      <g>
       <use style="stroke:#000000;stroke-width:0.5;" x="388.8" xlink:href="#mfa7716988d" y="203.294144712"/>
      </g>
     </g>
     <g id="text_6">
      <!-- −5 -->
      <defs>
       <path d="M 10.796875 72.90625 
L 49.515625 72.90625 
L 49.515625 64.59375 
L 19.828125 64.59375 
L 19.828125 46.734375 
Q 21.96875 47.46875 24.109375 47.828125 
Q 26.265625 48.1875 28.421875 48.1875 
Q 40.625 48.1875 47.75 41.5 
Q 54.890625 34.8125 54.890625 23.390625 
Q 54.890625 11.625 47.5625 5.09375 
Q 40.234375 -1.421875 26.90625 -1.421875 
Q 22.3125 -1.421875 17.546875 -0.640625 
Q 12.796875 0.140625 7.71875 1.703125 
L 7.71875 11.625 
Q 12.109375 9.234375 16.796875 8.0625 
Q 21.484375 6.890625 26.703125 6.890625 
Q 35.15625 6.890625 40.078125 11.328125 
Q 45.015625 15.765625 45.015625 23.390625 
Q 45.015625 31 40.078125 35.4375 
Q 35.15625 39.890625 26.703125 39.890625 
Q 22.75 39.890625 18.8125 39.015625 
Q 14.890625 38.140625 10.796875 36.28125 
z
" id="BitstreamVeraSans-Roman-35"/>
      </defs>
      <g transform="translate(35.2578125 206.053519712)scale(0.1 -0.1)">
       <use xlink:href="#BitstreamVeraSans-Roman-2212"/>
       <use x="83.7890625" xlink:href="#BitstreamVeraSans-Roman-35"/>
      </g>
     </g>
    </g>
    <g id="ytick_2">
     <g id="line2d_16">
      <g>
       <use style="stroke:#000000;stroke-width:0.5;" x="54.0" xlink:href="#m54727c26ee" y="144.784499588"/>
      </g>
     </g>
     <g id="line2d_17">
      <g>
       <use style="stroke:#000000;stroke-width:0.5;" x="388.8" xlink:href="#mfa7716988d" y="144.784499588"/>
      </g>
     </g>
     <g id="text_7">
      <!-- 0 -->
      <g transform="translate(43.6375 147.543874588)scale(0.1 -0.1)">
       <use xlink:href="#BitstreamVeraSans-Roman-30"/>
      </g>
     </g>
    </g>
    <g id="ytick_3">
     <g id="line2d_18">
      <g>
       <use style="stroke:#000000;stroke-width:0.5;" x="54.0" xlink:href="#m54727c26ee" y="86.2748544647"/>
      </g>
     </g>
     <g id="line2d_19">
      <g>
       <use style="stroke:#000000;stroke-width:0.5;" x="388.8" xlink:href="#mfa7716988d" y="86.2748544647"/>
      </g>
     </g>
     <g id="text_8">
      <!-- 5 -->
      <g transform="translate(43.6375 89.0342294647)scale(0.1 -0.1)">
       <use xlink:href="#BitstreamVeraSans-Roman-35"/>
      </g>
     </g>
    </g>
   </g>
  </g>
 </g>
 <defs>
  <clipPath id="pe09910b40d">
   <rect height="223.2" width="334.8" x="54.0" y="28.8"/>
  </clipPath>
 </defs>
</svg>
