<?xml version="1.0" encoding="utf-8" standalone="no"?>
<!DOCTYPE svg PUBLIC "-//W3C//DTD SVG 1.1//EN"
  "http://www.w3.org/Graphics/SVG/1.1/DTD/svg11.dtd">
<!-- Created with matplotlib (http://matplotlib.org/) -->
<svg height="288pt" version="1.1" viewBox="0 0 432 288" width="432pt" xmlns="http://www.w3.org/2000/svg" xmlns:xlink="http://www.w3.org/1999/xlink">
 <defs>
  <style type="text/css">
*{stroke-linecap:butt;stroke-linejoin:round;stroke-miterlimit:100000;}
  </style>
 </defs>
 <g id="figure_1">
  <g id="patch_1">
   <path d="M 0 288 
L 432 288 
L 432 0 
L 0 0 
z
" style="fill:#ffffff;"/>
  </g>
  <g id="axes_1">
   <g id="patch_2">
    <path d="M 54 252 
L 388.8 252 
L 388.8 28.8 
L 54 28.8 
z
" style="fill:#ffffff;"/>
   </g>
   <g id="PathCollection_1">
    <defs>
     <path d="M 0 4.472136 
C 1.186024 4.472136 2.323632 4.000923 3.162278 3.162278 
C 4.000923 2.323632 4.472136 1.186024 4.472136 0 
C 4.472136 -1.186024 4.000923 -2.323632 3.162278 -3.162278 
C 2.323632 -4.000923 1.186024 -4.472136 0 -4.472136 
C -1.186024 -4.472136 -2.323632 -4.000923 -3.162278 -3.162278 
C -4.000923 -2.323632 -4.472136 -1.186024 -4.472136 0 
C -4.472136 1.186024 -4.000923 2.323632 -3.162278 3.162278 
C -2.323632 4.000923 -1.186024 4.472136 0 4.472136 
z
" id="C0_0_e75033363e"/>
    </defs>
    <g clip-path="url(#p2647854db4)">
     <use style="fill:none;stroke:#000000;" x="190.316497916" xlink:href="#C0_0_e75033363e" y="141.893033439"/>
    </g>
    <g clip-path="url(#p2647854db4)">
     <use style="fill:none;stroke:#000000;" x="207.17949827" xlink:href="#C0_0_e75033363e" y="151.32443543"/>
    </g>
    <g clip-path="url(#p2647854db4)">
     <use style="fill:none;stroke:#000000;" x="250.358587936" xlink:href="#C0_0_e75033363e" y="137.747938597"/>
    </g>
   </g>
   <g id="PathCollection_2">
    <defs>
     <path d="M 0 2.236068 
C 0.593012 2.236068 1.161816 2.000462 1.581139 1.581139 
C 2.000462 1.161816 2.236068 0.593012 2.236068 0 
C 2.236068 -0.593012 2.000462 -1.161816 1.581139 -1.581139 
C 1.161816 -2.000462 0.593012 -2.236068 0 -2.236068 
C -0.593012 -2.236068 -1.161816 -2.000462 -1.581139 -1.581139 
C -2.000462 -1.161816 -2.236068 -0.593012 -2.236068 0 
C -2.236068 0.593012 -2.000462 1.161816 -1.581139 1.581139 
C -1.161816 2.000462 -0.593012 2.236068 0 2.236068 
z
" id="C1_0_a43ca0c4ed"/>
    </defs>
    <g clip-path="url(#p2647854db4)">
     <use style="fill:#a6cee3;stroke:#000000;" x="214.218611403" xlink:href="#C1_0_a43ca0c4ed" y="164.394584154"/>
    </g>
    <g clip-path="url(#p2647854db4)">
     <use style="fill:#a6cee3;stroke:#000000;" x="190.316497916" xlink:href="#C1_0_a43ca0c4ed" y="141.893033439"/>
    </g>
    <g clip-path="url(#p2647854db4)">
     <use style="fill:#a6cee3;stroke:#000000;" x="217.368946827" xlink:href="#C1_0_a43ca0c4ed" y="181.232645478"/>
    </g>
    <g clip-path="url(#p2647854db4)">
     <use style="fill:#a6cee3;stroke:#000000;" x="189.44450929" xlink:href="#C1_0_a43ca0c4ed" y="171.136414421"/>
    </g>
    <g clip-path="url(#p2647854db4)">
     <use style="fill:#a6cee3;stroke:#000000;" x="157.38566622" xlink:href="#C1_0_a43ca0c4ed" y="164.266947547"/>
    </g>
    <g clip-path="url(#p2647854db4)">
     <use style="fill:#a6cee3;stroke:#000000;" x="164.911435239" xlink:href="#C1_0_a43ca0c4ed" y="151.508840913"/>
    </g>
    <g clip-path="url(#p2647854db4)">
     <use style="fill:#a6cee3;stroke:#000000;" x="183.690493671" xlink:href="#C1_0_a43ca0c4ed" y="167.798810069"/>
    </g>
    <g clip-path="url(#p2647854db4)">
     <use style="fill:#a6cee3;stroke:#000000;" x="174.036855484" xlink:href="#C1_0_a43ca0c4ed" y="165.20728512"/>
    </g>
    <g clip-path="url(#p2647854db4)">
     <use style="fill:#a6cee3;stroke:#000000;" x="206.001606699" xlink:href="#C1_0_a43ca0c4ed" y="171.794090038"/>
    </g>
    <g clip-path="url(#p2647854db4)">
     <use style="fill:#a6cee3;stroke:#000000;" x="170.055915138" xlink:href="#C1_0_a43ca0c4ed" y="179.726840627"/>
    </g>
    <g clip-path="url(#p2647854db4)">
     <use style="fill:#a6cee3;stroke:#000000;" x="82.8235463326" xlink:href="#C1_0_a43ca0c4ed" y="161.296217911"/>
    </g>
    <g clip-path="url(#p2647854db4)">
     <use style="fill:#a6cee3;stroke:#000000;" x="186.837567216" xlink:href="#C1_0_a43ca0c4ed" y="178.358575564"/>
    </g>
    <g clip-path="url(#p2647854db4)">
     <use style="fill:#a6cee3;stroke:#000000;" x="229.610349828" xlink:href="#C1_0_a43ca0c4ed" y="187.064668789"/>
    </g>
    <g clip-path="url(#p2647854db4)">
     <use style="fill:#a6cee3;stroke:#000000;" x="161.919995599" xlink:href="#C1_0_a43ca0c4ed" y="171.574366957"/>
    </g>
    <g clip-path="url(#p2647854db4)">
     <use style="fill:#a6cee3;stroke:#000000;" x="207.17949827" xlink:href="#C1_0_a43ca0c4ed" y="151.32443543"/>
    </g>
    <g clip-path="url(#p2647854db4)">
     <use style="fill:#a6cee3;stroke:#000000;" x="165.24330892" xlink:href="#C1_0_a43ca0c4ed" y="164.663451937"/>
    </g>
    <g clip-path="url(#p2647854db4)">
     <use style="fill:#a6cee3;stroke:#000000;" x="133.506302881" xlink:href="#C1_0_a43ca0c4ed" y="193.499871479"/>
    </g>
    <g clip-path="url(#p2647854db4)">
     <use style="fill:#a6cee3;stroke:#000000;" x="149.938092037" xlink:href="#C1_0_a43ca0c4ed" y="167.374948252"/>
    </g>
    <g clip-path="url(#p2647854db4)">
     <use style="fill:#a6cee3;stroke:#000000;" x="197.972847264" xlink:href="#C1_0_a43ca0c4ed" y="154.588042902"/>
    </g>
    <g clip-path="url(#p2647854db4)">
     <use style="fill:#a6cee3;stroke:#000000;" x="148.738452867" xlink:href="#C1_0_a43ca0c4ed" y="172.981605036"/>
    </g>
    <g clip-path="url(#p2647854db4)">
     <use style="fill:#b15928;stroke:#000000;" x="250.358587936" xlink:href="#C1_0_a43ca0c4ed" y="137.747938597"/>
    </g>
    <g clip-path="url(#p2647854db4)">
     <use style="fill:#b15928;stroke:#000000;" x="230.340067289" xlink:href="#C1_0_a43ca0c4ed" y="96.5426394681"/>
    </g>
    <g clip-path="url(#p2647854db4)">
     <use style="fill:#b15928;stroke:#000000;" x="266.760768141" xlink:href="#C1_0_a43ca0c4ed" y="125.744449435"/>
    </g>
    <g clip-path="url(#p2647854db4)">
     <use style="fill:#b15928;stroke:#000000;" x="244.142192132" xlink:href="#C1_0_a43ca0c4ed" y="110.885126902"/>
    </g>
    <g clip-path="url(#p2647854db4)">
     <use style="fill:#b15928;stroke:#000000;" x="233.151545513" xlink:href="#C1_0_a43ca0c4ed" y="122.989918131"/>
    </g>
    <g clip-path="url(#p2647854db4)">
     <use style="fill:#b15928;stroke:#000000;" x="255.017981392" xlink:href="#C1_0_a43ca0c4ed" y="115.659756473"/>
    </g>
    <g clip-path="url(#p2647854db4)">
     <use style="fill:#b15928;stroke:#000000;" x="266.725676358" xlink:href="#C1_0_a43ca0c4ed" y="134.821635917"/>
    </g>
    <g clip-path="url(#p2647854db4)">
     <use style="fill:#b15928;stroke:#000000;" x="281.414962723" xlink:href="#C1_0_a43ca0c4ed" y="115.153314955"/>
    </g>
    <g clip-path="url(#p2647854db4)">
     <use style="fill:#b15928;stroke:#000000;" x="284.297269641" xlink:href="#C1_0_a43ca0c4ed" y="116.691854199"/>
    </g>
    <g clip-path="url(#p2647854db4)">
     <use style="fill:#b15928;stroke:#000000;" x="262.966269367" xlink:href="#C1_0_a43ca0c4ed" y="124.823561062"/>
    </g>
    <g clip-path="url(#p2647854db4)">
     <use style="fill:#b15928;stroke:#000000;" x="261.805476553" xlink:href="#C1_0_a43ca0c4ed" y="124.784590214"/>
    </g>
    <g clip-path="url(#p2647854db4)">
     <use style="fill:#b15928;stroke:#000000;" x="257.523511343" xlink:href="#C1_0_a43ca0c4ed" y="141.491783412"/>
    </g>
    <g clip-path="url(#p2647854db4)">
     <use style="fill:#b15928;stroke:#000000;" x="287.672933857" xlink:href="#C1_0_a43ca0c4ed" y="125.300791569"/>
    </g>
    <g clip-path="url(#p2647854db4)">
     <use style="fill:#b15928;stroke:#000000;" x="232.655417585" xlink:href="#C1_0_a43ca0c4ed" y="114.732186075"/>
    </g>
    <g clip-path="url(#p2647854db4)">
     <use style="fill:#b15928;stroke:#000000;" x="254.657864328" xlink:href="#C1_0_a43ca0c4ed" y="119.754343778"/>
    </g>
    <g clip-path="url(#p2647854db4)">
     <use style="fill:#b15928;stroke:#000000;" x="304.463592747" xlink:href="#C1_0_a43ca0c4ed" y="118.812620707"/>
    </g>
    <g clip-path="url(#p2647854db4)">
     <use style="fill:#b15928;stroke:#000000;" x="316.951940835" xlink:href="#C1_0_a43ca0c4ed" y="135.484110525"/>
    </g>
    <g clip-path="url(#p2647854db4)">
     <use style="fill:#b15928;stroke:#000000;" x="294.51854377" xlink:href="#C1_0_a43ca0c4ed" y="128.760600532"/>
    </g>
    <g clip-path="url(#p2647854db4)">
     <use style="fill:#b15928;stroke:#000000;" x="255.768828587" xlink:href="#C1_0_a43ca0c4ed" y="127.465317604"/>
    </g>
    <g clip-path="url(#p2647854db4)">
     <use style="fill:#b15928;stroke:#000000;" x="272.790201113" xlink:href="#C1_0_a43ca0c4ed" y="119.702758249"/>
    </g>
   </g>
   <g id="line2d_1">
    <path clip-path="url(#p2647854db4)" d="M 69.218182 57.405367 
L 75.429685 60.793413 
L 81.641187 64.181458 
L 87.85269 67.569503 
L 94.064193 70.957549 
L 100.275696 74.345594 
L 106.487199 77.733639 
L 112.698701 81.121685 
L 118.910204 84.50973 
L 125.121707 87.897775 
L 131.33321 91.285821 
L 137.544712 94.673866 
L 143.756215 98.061911 
L 149.967718 101.449957 
L 156.179221 104.838002 
L 162.390724 108.226047 
L 168.602226 111.614093 
L 174.813729 115.002138 
L 181.025232 118.390183 
L 187.236735 121.778228 
L 193.448237 125.166274 
L 199.65974 128.554319 
L 205.871243 131.942364 
L 212.082746 135.33041 
L 218.294249 138.718455 
L 224.505751 142.1065 
L 230.717254 145.494546 
L 236.928757 148.882591 
L 243.14026 152.270636 
L 249.351763 155.658682 
L 255.563265 159.046727 
L 261.774768 162.434772 
L 267.986271 165.822818 
L 274.197774 169.210863 
L 280.409276 172.598908 
L 286.620779 175.986954 
L 292.832282 179.374999 
L 299.043785 182.763044 
L 305.255288 186.151089 
L 311.46679 189.539135 
L 317.678293 192.92718 
L 323.889796 196.315225 
L 330.101299 199.703271 
L 336.312801 203.091316 
L 342.524304 206.479361 
L 348.735807 209.867407 
L 354.94731 213.255452 
L 361.158813 216.643497 
L 367.370315 220.031543 
L 373.581818 223.419588 
" style="fill:none;stroke:#000000;stroke-dasharray:6.000000,6.000000;stroke-dashoffset:0.0;"/>
   </g>
   <g id="line2d_2">
    <path clip-path="url(#p2647854db4)" d="M 69.218182 75.840325 
L 75.429685 79.22837 
L 81.641187 82.616416 
L 87.85269 86.004461 
L 94.064193 89.392506 
L 100.275696 92.780552 
L 106.487199 96.168597 
L 112.698701 99.556642 
L 118.910204 102.944687 
L 125.121707 106.332733 
L 131.33321 109.720778 
L 137.544712 113.108823 
L 143.756215 116.496869 
L 149.967718 119.884914 
L 156.179221 123.272959 
L 162.390724 126.661005 
L 168.602226 130.04905 
L 174.813729 133.437095 
L 181.025232 136.825141 
L 187.236735 140.213186 
L 193.448237 143.601231 
L 199.65974 146.989277 
L 205.871243 150.377322 
L 212.082746 153.765367 
L 218.294249 157.153413 
L 224.505751 160.541458 
L 230.717254 163.929503 
L 236.928757 167.317548 
L 243.14026 170.705594 
L 249.351763 174.093639 
L 255.563265 177.481684 
L 261.774768 180.86973 
L 267.986271 184.257775 
L 274.197774 187.64582 
L 280.409276 191.033866 
L 286.620779 194.421911 
L 292.832282 197.809956 
L 299.043785 201.198002 
L 305.255288 204.586047 
L 311.46679 207.974092 
L 317.678293 211.362138 
L 323.889796 214.750183 
L 330.101299 218.138228 
L 336.312801 221.526274 
L 342.524304 224.914319 
L 348.735807 228.302364 
L 354.94731 231.69041 
L 361.158813 235.078455 
L 367.370315 238.4665 
L 373.581818 241.854545 
" style="fill:none;stroke:#000000;stroke-linecap:square;"/>
   </g>
   <g id="line2d_3">
    <path clip-path="url(#p2647854db4)" d="M 69.218182 38.945455 
L 75.429685 42.3335 
L 81.641187 45.721545 
L 87.85269 49.10959 
L 94.064193 52.497636 
L 100.275696 55.885681 
L 106.487199 59.273726 
L 112.698701 62.661772 
L 118.910204 66.049817 
L 125.121707 69.437862 
L 131.33321 72.825908 
L 137.544712 76.213953 
L 143.756215 79.601998 
L 149.967718 82.990044 
L 156.179221 86.378089 
L 162.390724 89.766134 
L 168.602226 93.15418 
L 174.813729 96.542225 
L 181.025232 99.93027 
L 187.236735 103.318316 
L 193.448237 106.706361 
L 199.65974 110.094406 
L 205.871243 113.482452 
L 212.082746 116.870497 
L 218.294249 120.258542 
L 224.505751 123.646587 
L 230.717254 127.034633 
L 236.928757 130.422678 
L 243.14026 133.810723 
L 249.351763 137.198769 
L 255.563265 140.586814 
L 261.774768 143.974859 
L 267.986271 147.362905 
L 274.197774 150.75095 
L 280.409276 154.138995 
L 286.620779 157.527041 
L 292.832282 160.915086 
L 299.043785 164.303131 
L 305.255288 167.691177 
L 311.46679 171.079222 
L 317.678293 174.467267 
L 323.889796 177.855313 
L 330.101299 181.243358 
L 336.312801 184.631403 
L 342.524304 188.019448 
L 348.735807 191.407494 
L 354.94731 194.795539 
L 361.158813 198.183584 
L 367.370315 201.57163 
L 373.581818 204.959675 
" style="fill:none;stroke:#000000;stroke-linecap:square;"/>
   </g>
   <g id="patch_3">
    <path d="M 54 28.8 
L 388.8 28.8 
" style="fill:none;stroke:#000000;stroke-linecap:square;stroke-linejoin:miter;"/>
   </g>
   <g id="patch_4">
    <path d="M 388.8 252 
L 388.8 28.8 
" style="fill:none;stroke:#000000;stroke-linecap:square;stroke-linejoin:miter;"/>
   </g>
   <g id="patch_5">
    <path d="M 54 252 
L 388.8 252 
" style="fill:none;stroke:#000000;stroke-linecap:square;stroke-linejoin:miter;"/>
   </g>
   <g id="patch_6">
    <path d="M 54 252 
L 54 28.8 
" style="fill:none;stroke:#000000;stroke-linecap:square;stroke-linejoin:miter;"/>
   </g>
   <g id="matplotlib.axis_1">
    <g id="xtick_1">
     <g id="line2d_4">
      <defs>
       <path d="M 0 0 
L 0 -4 
" id="m6b790e0d38" style="stroke:#000000;stroke-width:0.5;"/>
      </defs>
      <g>
       <use style="stroke:#000000;stroke-width:0.5;" x="99.6545454545" xlink:href="#m6b790e0d38" y="252.0"/>
      </g>
     </g>
     <g id="line2d_5">
      <defs>
       <path d="M 0 0 
L 0 4 
" id="md55c8299d0" style="stroke:#000000;stroke-width:0.5;"/>
      </defs>
      <g>
       <use style="stroke:#000000;stroke-width:0.5;" x="99.6545454545" xlink:href="#md55c8299d0" y="28.8"/>
      </g>
     </g>
     <g id="text_1">
      <!-- −4 -->
      <defs>
       <path d="M 10.59375 35.5 
L 73.1875 35.5 
L 73.1875 27.203125 
L 10.59375 27.203125 
z
" id="BitstreamVeraSans-Roman-2212"/>
       <path d="M 37.796875 64.3125 
L 12.890625 25.390625 
L 37.796875 25.390625 
z
M 35.203125 72.90625 
L 47.609375 72.90625 
L 47.609375 25.390625 
L 58.015625 25.390625 
L 58.015625 17.1875 
L 47.609375 17.1875 
L 47.609375 0 
L 37.796875 0 
L 37.796875 17.1875 
L 4.890625 17.1875 
L 4.890625 26.703125 
z
" id="BitstreamVeraSans-Roman-34"/>
      </defs>
      <g transform="translate(92.2834517045 263.5984375)scale(0.1 -0.1)">
       <use xlink:href="#BitstreamVeraSans-Roman-2212"/>
       <use x="83.7890625" xlink:href="#BitstreamVeraSans-Roman-34"/>
      </g>
     </g>
    </g>
    <g id="xtick_2">
     <g id="line2d_6">
      <g>
       <use style="stroke:#000000;stroke-width:0.5;" x="160.527272727" xlink:href="#m6b790e0d38" y="252.0"/>
      </g>
     </g>
     <g id="line2d_7">
      <g>
       <use style="stroke:#000000;stroke-width:0.5;" x="160.527272727" xlink:href="#md55c8299d0" y="28.8"/>
      </g>
     </g>
     <g id="text_2">
      <!-- −2 -->
      <defs>
       <path d="M 19.1875 8.296875 
L 53.609375 8.296875 
L 53.609375 0 
L 7.328125 0 
L 7.328125 8.296875 
Q 12.9375 14.109375 22.625 23.890625 
Q 32.328125 33.6875 34.8125 36.53125 
Q 39.546875 41.84375 41.421875 45.53125 
Q 43.3125 49.21875 43.3125 52.78125 
Q 43.3125 58.59375 39.234375 62.25 
Q 35.15625 65.921875 28.609375 65.921875 
Q 23.96875 65.921875 18.8125 64.3125 
Q 13.671875 62.703125 7.8125 59.421875 
L 7.8125 69.390625 
Q 13.765625 71.78125 18.9375 73 
Q 24.125 74.21875 28.421875 74.21875 
Q 39.75 74.21875 46.484375 68.546875 
Q 53.21875 62.890625 53.21875 53.421875 
Q 53.21875 48.921875 51.53125 44.890625 
Q 49.859375 40.875 45.40625 35.40625 
Q 44.1875 33.984375 37.640625 27.21875 
Q 31.109375 20.453125 19.1875 8.296875 
" id="BitstreamVeraSans-Roman-32"/>
      </defs>
      <g transform="translate(153.156178977 263.5984375)scale(0.1 -0.1)">
       <use xlink:href="#BitstreamVeraSans-Roman-2212"/>
       <use x="83.7890625" xlink:href="#BitstreamVeraSans-Roman-32"/>
      </g>
     </g>
    </g>
    <g id="xtick_3">
     <g id="line2d_8">
      <g>
       <use style="stroke:#000000;stroke-width:0.5;" x="221.4" xlink:href="#m6b790e0d38" y="252.0"/>
      </g>
     </g>
     <g id="line2d_9">
      <g>
       <use style="stroke:#000000;stroke-width:0.5;" x="221.4" xlink:href="#md55c8299d0" y="28.8"/>
      </g>
     </g>
     <g id="text_3">
      <!-- 0 -->
      <defs>
       <path d="M 31.78125 66.40625 
Q 24.171875 66.40625 20.328125 58.90625 
Q 16.5 51.421875 16.5 36.375 
Q 16.5 21.390625 20.328125 13.890625 
Q 24.171875 6.390625 31.78125 6.390625 
Q 39.453125 6.390625 43.28125 13.890625 
Q 47.125 21.390625 47.125 36.375 
Q 47.125 51.421875 43.28125 58.90625 
Q 39.453125 66.40625 31.78125 66.40625 
M 31.78125 74.21875 
Q 44.046875 74.21875 50.515625 64.515625 
Q 56.984375 54.828125 56.984375 36.375 
Q 56.984375 17.96875 50.515625 8.265625 
Q 44.046875 -1.421875 31.78125 -1.421875 
Q 19.53125 -1.421875 13.0625 8.265625 
Q 6.59375 17.96875 6.59375 36.375 
Q 6.59375 54.828125 13.0625 64.515625 
Q 19.53125 74.21875 31.78125 74.21875 
" id="BitstreamVeraSans-Roman-30"/>
      </defs>
      <g transform="translate(218.21875 263.5984375)scale(0.1 -0.1)">
       <use xlink:href="#BitstreamVeraSans-Roman-30"/>
      </g>
     </g>
    </g>
    <g id="xtick_4">
     <g id="line2d_10">
      <g>
       <use style="stroke:#000000;stroke-width:0.5;" x="282.272727273" xlink:href="#m6b790e0d38" y="252.0"/>
      </g>
     </g>
     <g id="line2d_11">
      <g>
       <use style="stroke:#000000;stroke-width:0.5;" x="282.272727273" xlink:href="#md55c8299d0" y="28.8"/>
      </g>
     </g>
     <g id="text_4">
      <!-- 2 -->
      <g transform="translate(279.091477273 263.5984375)scale(0.1 -0.1)">
       <use xlink:href="#BitstreamVeraSans-Roman-32"/>
      </g>
     </g>
    </g>
    <g id="xtick_5">
     <g id="line2d_12">
      <g>
       <use style="stroke:#000000;stroke-width:0.5;" x="343.145454545" xlink:href="#m6b790e0d38" y="252.0"/>
      </g>
     </g>
     <g id="line2d_13">
      <g>
       <use style="stroke:#000000;stroke-width:0.5;" x="343.145454545" xlink:href="#md55c8299d0" y="28.8"/>
      </g>
     </g>
     <g id="text_5">
      <!-- 4 -->
      <g transform="translate(339.964204545 263.5984375)scale(0.1 -0.1)">
       <use xlink:href="#BitstreamVeraSans-Roman-34"/>
      </g>
     </g>
    </g>
   </g>
   <g id="matplotlib.axis_2">
    <g id="ytick_1">
     <g id="line2d_14">
      <defs>
       <path d="M 0 0 
L 4 0 
" id="mc76ded6636" style="stroke:#000000;stroke-width:0.5;"/>
      </defs>
      <g>
       <use style="stroke:#000000;stroke-width:0.5;" x="54.0" xlink:href="#mc76ded6636" y="205.958833587"/>
      </g>
     </g>
     <g id="line2d_15">
      <defs>
       <path d="M 0 0 
L -4 0 
" id="me4741d798e" style="stroke:#000000;stroke-width:0.5;"/>
      </defs>
      <g>
       <use style="stroke:#000000;stroke-width:0.5;" x="388.8" xlink:href="#me4741d798e" y="205.958833587"/>
      </g>
     </g>
     <g id="text_6">
      <!-- −5 -->
      <defs>
       <path d="M 10.796875 72.90625 
L 49.515625 72.90625 
L 49.515625 64.59375 
L 19.828125 64.59375 
L 19.828125 46.734375 
Q 21.96875 47.46875 24.109375 47.828125 
Q 26.265625 48.1875 28.421875 48.1875 
Q 40.625 48.1875 47.75 41.5 
Q 54.890625 34.8125 54.890625 23.390625 
Q 54.890625 11.625 47.5625 5.09375 
Q 40.234375 -1.421875 26.90625 -1.421875 
Q 22.3125 -1.421875 17.546875 -0.640625 
Q 12.796875 0.140625 7.71875 1.703125 
L 7.71875 11.625 
Q 12.109375 9.234375 16.796875 8.0625 
Q 21.484375 6.890625 26.703125 6.890625 
Q 35.15625 6.890625 40.078125 11.328125 
Q 45.015625 15.765625 45.015625 23.390625 
Q 45.015625 31 40.078125 35.4375 
Q 35.15625 39.890625 26.703125 39.890625 
Q 22.75 39.890625 18.8125 39.015625 
Q 14.890625 38.140625 10.796875 36.28125 
z
" id="BitstreamVeraSans-Roman-35"/>
      </defs>
      <g transform="translate(35.2578125 208.718208587)scale(0.1 -0.1)">
       <use xlink:href="#BitstreamVeraSans-Roman-2212"/>
       <use x="83.7890625" xlink:href="#BitstreamVeraSans-Roman-35"/>
      </g>
     </g>
    </g>
    <g id="ytick_2">
     <g id="line2d_16">
      <g>
       <use style="stroke:#000000;stroke-width:0.5;" x="54.0" xlink:href="#mc76ded6636" y="144.837763463"/>
      </g>
     </g>
     <g id="line2d_17">
      <g>
       <use style="stroke:#000000;stroke-width:0.5;" x="388.8" xlink:href="#me4741d798e" y="144.837763463"/>
      </g>
     </g>
     <g id="text_7">
      <!-- 0 -->
      <g transform="translate(43.6375 147.597138463)scale(0.1 -0.1)">
       <use xlink:href="#BitstreamVeraSans-Roman-30"/>
      </g>
     </g>
    </g>
    <g id="ytick_3">
     <g id="line2d_18">
      <g>
       <use style="stroke:#000000;stroke-width:0.5;" x="54.0" xlink:href="#mc76ded6636" y="83.7166933395"/>
      </g>
     </g>
     <g id="line2d_19">
      <g>
       <use style="stroke:#000000;stroke-width:0.5;" x="388.8" xlink:href="#me4741d798e" y="83.7166933395"/>
      </g>
     </g>
     <g id="text_8">
      <!-- 5 -->
      <g transform="translate(43.6375 86.4760683395)scale(0.1 -0.1)">
       <use xlink:href="#BitstreamVeraSans-Roman-35"/>
      </g>
     </g>
    </g>
   </g>
  </g>
 </g>
 <defs>
  <clipPath id="p2647854db4">
   <rect height="223.2" width="334.8" x="54.0" y="28.8"/>
  </clipPath>
 </defs>
</svg>
