<?xml version="1.0" encoding="utf-8" standalone="no"?>
<!DOCTYPE svg PUBLIC "-//W3C//DTD SVG 1.1//EN"
  "http://www.w3.org/Graphics/SVG/1.1/DTD/svg11.dtd">
<!-- Created with matplotlib (http://matplotlib.org/) -->
<svg height="288pt" version="1.1" viewBox="0 0 432 288" width="432pt" xmlns="http://www.w3.org/2000/svg" xmlns:xlink="http://www.w3.org/1999/xlink">
 <defs>
  <style type="text/css">
*{stroke-linecap:butt;stroke-linejoin:round;stroke-miterlimit:100000;}
  </style>
 </defs>
 <g id="figure_1">
  <g id="patch_1">
   <path d="M 0 288 
L 432 288 
L 432 0 
L 0 0 
z
" style="fill:#ffffff;"/>
  </g>
  <g id="axes_1">
   <g id="patch_2">
    <path d="M 54 252 
L 388.8 252 
L 388.8 28.8 
L 54 28.8 
z
" style="fill:#ffffff;"/>
   </g>
   <g id="PathCollection_1">
    <defs>
     <path d="M 0 4.472136 
C 1.186024 4.472136 2.323632 4.000923 3.162278 3.162278 
C 4.000923 2.323632 4.472136 1.186024 4.472136 0 
C 4.472136 -1.186024 4.000923 -2.323632 3.162278 -3.162278 
C 2.323632 -4.000923 1.186024 -4.472136 0 -4.472136 
C -1.186024 -4.472136 -2.323632 -4.000923 -3.162278 -3.162278 
C -4.000923 -2.323632 -4.472136 -1.186024 -4.472136 0 
C -4.472136 1.186024 -4.000923 2.323632 -3.162278 3.162278 
C -2.323632 4.000923 -1.186024 4.472136 0 4.472136 
z
" id="C0_0_bc09b9f7ae"/>
    </defs>
    <g clip-path="url(#p996414cd89)">
     <use style="fill:none;stroke:#000000;" x="190.316497916" xlink:href="#C0_0_bc09b9f7ae" y="141.843271768"/>
    </g>
    <g clip-path="url(#p996414cd89)">
     <use style="fill:none;stroke:#000000;" x="207.17949827" xlink:href="#C0_0_bc09b9f7ae" y="151.04953947"/>
    </g>
    <g clip-path="url(#p996414cd89)">
     <use style="fill:none;stroke:#000000;" x="250.358587936" xlink:href="#C0_0_bc09b9f7ae" y="137.797123294"/>
    </g>
   </g>
   <g id="PathCollection_2">
    <defs>
     <path d="M 0 2.236068 
C 0.593012 2.236068 1.161816 2.000462 1.581139 1.581139 
C 2.000462 1.161816 2.236068 0.593012 2.236068 0 
C 2.236068 -0.593012 2.000462 -1.161816 1.581139 -1.581139 
C 1.161816 -2.000462 0.593012 -2.236068 0 -2.236068 
C -0.593012 -2.236068 -1.161816 -2.000462 -1.581139 -1.581139 
C -2.000462 -1.161816 -2.236068 -0.593012 -2.236068 0 
C -2.236068 0.593012 -2.000462 1.161816 -1.581139 1.581139 
C -1.161816 2.000462 -0.593012 2.236068 0 2.236068 
z
" id="C1_0_6c3580ee3f"/>
    </defs>
    <g clip-path="url(#p996414cd89)">
     <use style="fill:#a6cee3;stroke:#000000;" x="214.218611403" xlink:href="#C1_0_6c3580ee3f" y="163.807694427"/>
    </g>
    <g clip-path="url(#p996414cd89)">
     <use style="fill:#a6cee3;stroke:#000000;" x="190.316497916" xlink:href="#C1_0_6c3580ee3f" y="141.843271768"/>
    </g>
    <g clip-path="url(#p996414cd89)">
     <use style="fill:#a6cee3;stroke:#000000;" x="217.368946827" xlink:href="#C1_0_6c3580ee3f" y="180.243819223"/>
    </g>
    <g clip-path="url(#p996414cd89)">
     <use style="fill:#a6cee3;stroke:#000000;" x="189.44450929" xlink:href="#C1_0_6c3580ee3f" y="170.388592399"/>
    </g>
    <g clip-path="url(#p996414cd89)">
     <use style="fill:#a6cee3;stroke:#000000;" x="157.38566622" xlink:href="#C1_0_6c3580ee3f" y="163.683104596"/>
    </g>
    <g clip-path="url(#p996414cd89)">
     <use style="fill:#a6cee3;stroke:#000000;" x="164.911435239" xlink:href="#C1_0_6c3580ee3f" y="151.229543062"/>
    </g>
    <g clip-path="url(#p996414cd89)">
     <use style="fill:#a6cee3;stroke:#000000;" x="183.690493671" xlink:href="#C1_0_6c3580ee3f" y="167.130659043"/>
    </g>
    <g clip-path="url(#p996414cd89)">
     <use style="fill:#a6cee3;stroke:#000000;" x="174.036855484" xlink:href="#C1_0_6c3580ee3f" y="164.600995641"/>
    </g>
    <g clip-path="url(#p996414cd89)">
     <use style="fill:#a6cee3;stroke:#000000;" x="206.001606699" xlink:href="#C1_0_6c3580ee3f" y="171.03056883"/>
    </g>
    <g clip-path="url(#p996414cd89)">
     <use style="fill:#a6cee3;stroke:#000000;" x="170.055915138" xlink:href="#C1_0_6c3580ee3f" y="178.773959008"/>
    </g>
    <g clip-path="url(#p996414cd89)">
     <use style="fill:#a6cee3;stroke:#000000;" x="82.8235463326" xlink:href="#C1_0_6c3580ee3f" y="160.783288395"/>
    </g>
    <g clip-path="url(#p996414cd89)">
     <use style="fill:#a6cee3;stroke:#000000;" x="186.837567216" xlink:href="#C1_0_6c3580ee3f" y="177.438355407"/>
    </g>
    <g clip-path="url(#p996414cd89)">
     <use style="fill:#a6cee3;stroke:#000000;" x="229.610349828" xlink:href="#C1_0_6c3580ee3f" y="185.936627981"/>
    </g>
    <g clip-path="url(#p996414cd89)">
     <use style="fill:#a6cee3;stroke:#000000;" x="161.919995599" xlink:href="#C1_0_6c3580ee3f" y="170.816090696"/>
    </g>
    <g clip-path="url(#p996414cd89)">
     <use style="fill:#a6cee3;stroke:#000000;" x="207.17949827" xlink:href="#C1_0_6c3580ee3f" y="151.04953947"/>
    </g>
    <g clip-path="url(#p996414cd89)">
     <use style="fill:#a6cee3;stroke:#000000;" x="165.24330892" xlink:href="#C1_0_6c3580ee3f" y="164.070144144"/>
    </g>
    <g clip-path="url(#p996414cd89)">
     <use style="fill:#a6cee3;stroke:#000000;" x="133.506302881" xlink:href="#C1_0_6c3580ee3f" y="192.218217796"/>
    </g>
    <g clip-path="url(#p996414cd89)">
     <use style="fill:#a6cee3;stroke:#000000;" x="149.938092037" xlink:href="#C1_0_6c3580ee3f" y="166.716915109"/>
    </g>
    <g clip-path="url(#p996414cd89)">
     <use style="fill:#a6cee3;stroke:#000000;" x="197.972847264" xlink:href="#C1_0_6c3580ee3f" y="154.235242305"/>
    </g>
    <g clip-path="url(#p996414cd89)">
     <use style="fill:#a6cee3;stroke:#000000;" x="148.738452867" xlink:href="#C1_0_6c3580ee3f" y="172.189736999"/>
    </g>
    <g clip-path="url(#p996414cd89)">
     <use style="fill:#b15928;stroke:#000000;" x="250.358587936" xlink:href="#C1_0_6c3580ee3f" y="137.797123294"/>
    </g>
    <g clip-path="url(#p996414cd89)">
     <use style="fill:#b15928;stroke:#000000;" x="230.340067289" xlink:href="#C1_0_6c3580ee3f" y="97.5754240295"/>
    </g>
    <g clip-path="url(#p996414cd89)">
     <use style="fill:#b15928;stroke:#000000;" x="266.760768141" xlink:href="#C1_0_6c3580ee3f" y="126.080165976"/>
    </g>
    <g clip-path="url(#p996414cd89)">
     <use style="fill:#b15928;stroke:#000000;" x="244.142192132" xlink:href="#C1_0_6c3580ee3f" y="111.575546064"/>
    </g>
    <g clip-path="url(#p996414cd89)">
     <use style="fill:#b15928;stroke:#000000;" x="233.151545513" xlink:href="#C1_0_6c3580ee3f" y="123.391387297"/>
    </g>
    <g clip-path="url(#p996414cd89)">
     <use style="fill:#b15928;stroke:#000000;" x="255.017981392" xlink:href="#C1_0_6c3580ee3f" y="116.236201824"/>
    </g>
    <g clip-path="url(#p996414cd89)">
     <use style="fill:#b15928;stroke:#000000;" x="266.725676358" xlink:href="#C1_0_6c3580ee3f" y="134.940673545"/>
    </g>
    <g clip-path="url(#p996414cd89)">
     <use style="fill:#b15928;stroke:#000000;" x="281.414962723" xlink:href="#C1_0_6c3580ee3f" y="115.741849425"/>
    </g>
    <g clip-path="url(#p996414cd89)">
     <use style="fill:#b15928;stroke:#000000;" x="284.297269641" xlink:href="#C1_0_6c3580ee3f" y="117.243662641"/>
    </g>
    <g clip-path="url(#p996414cd89)">
     <use style="fill:#b15928;stroke:#000000;" x="262.966269367" xlink:href="#C1_0_6c3580ee3f" y="125.181259865"/>
    </g>
    <g clip-path="url(#p996414cd89)">
     <use style="fill:#b15928;stroke:#000000;" x="261.805476553" xlink:href="#C1_0_6c3580ee3f" y="125.143219278"/>
    </g>
    <g clip-path="url(#p996414cd89)">
     <use style="fill:#b15928;stroke:#000000;" x="257.523511343" xlink:href="#C1_0_6c3580ee3f" y="141.451599865"/>
    </g>
    <g clip-path="url(#p996414cd89)">
     <use style="fill:#b15928;stroke:#000000;" x="287.672933857" xlink:href="#C1_0_6c3580ee3f" y="125.647098539"/>
    </g>
    <g clip-path="url(#p996414cd89)">
     <use style="fill:#b15928;stroke:#000000;" x="232.655417585" xlink:href="#C1_0_6c3580ee3f" y="115.330773192"/>
    </g>
    <g clip-path="url(#p996414cd89)">
     <use style="fill:#b15928;stroke:#000000;" x="254.657864328" xlink:href="#C1_0_6c3580ee3f" y="120.233048411"/>
    </g>
    <g clip-path="url(#p996414cd89)">
     <use style="fill:#b15928;stroke:#000000;" x="304.463592747" xlink:href="#C1_0_6c3580ee3f" y="119.313804941"/>
    </g>
    <g clip-path="url(#p996414cd89)">
     <use style="fill:#b15928;stroke:#000000;" x="316.951940835" xlink:href="#C1_0_6c3580ee3f" y="135.587334412"/>
    </g>
    <g clip-path="url(#p996414cd89)">
     <use style="fill:#b15928;stroke:#000000;" x="294.51854377" xlink:href="#C1_0_6c3580ee3f" y="129.024319395"/>
    </g>
    <g clip-path="url(#p996414cd89)">
     <use style="fill:#b15928;stroke:#000000;" x="255.768828587" xlink:href="#C1_0_6c3580ee3f" y="127.759955794"/>
    </g>
    <g clip-path="url(#p996414cd89)">
     <use style="fill:#b15928;stroke:#000000;" x="272.790201113" xlink:href="#C1_0_6c3580ee3f" y="120.182694265"/>
    </g>
   </g>
   <g id="line2d_1">
    <path clip-path="url(#p996414cd89)" d="M 69.218182 57.352204 
L 75.429685 60.741936 
L 81.641187 64.131668 
L 87.85269 67.5214 
L 94.064193 70.911132 
L 100.275696 74.300864 
L 106.487199 77.690596 
L 112.698701 81.080327 
L 118.910204 84.470059 
L 125.121707 87.859791 
L 131.33321 91.249523 
L 137.544712 94.639255 
L 143.756215 98.028987 
L 149.967718 101.418719 
L 156.179221 104.808451 
L 162.390724 108.198183 
L 168.602226 111.587915 
L 174.813729 114.977647 
L 181.025232 118.367379 
L 187.236735 121.75711 
L 193.448237 125.146842 
L 199.65974 128.536574 
L 205.871243 131.926306 
L 212.082746 135.316038 
L 218.294249 138.70577 
L 224.505751 142.095502 
L 230.717254 145.485234 
L 236.928757 148.874966 
L 243.14026 152.264698 
L 249.351763 155.65443 
L 255.563265 159.044162 
L 261.774768 162.433893 
L 267.986271 165.823625 
L 274.197774 169.213357 
L 280.409276 172.603089 
L 286.620779 175.992821 
L 292.832282 179.382553 
L 299.043785 182.772285 
L 305.255288 186.162017 
L 311.46679 189.551749 
L 317.678293 192.941481 
L 323.889796 196.331213 
L 330.101299 199.720944 
L 336.312801 203.110676 
L 342.524304 206.500408 
L 348.735807 209.89014 
L 354.94731 213.279872 
L 361.158813 216.669604 
L 367.370315 220.059336 
L 373.581818 223.449068 
" style="fill:none;stroke:#000000;stroke-dasharray:6.000000,6.000000;stroke-dashoffset:0.0;"/>
   </g>
   <g id="line2d_2">
    <path clip-path="url(#p996414cd89)" d="M 69.218182 75.757682 
L 75.429685 79.147414 
L 81.641187 82.537145 
L 87.85269 85.926877 
L 94.064193 89.316609 
L 100.275696 92.706341 
L 106.487199 96.096073 
L 112.698701 99.485805 
L 118.910204 102.875537 
L 125.121707 106.265269 
L 131.33321 109.655001 
L 137.544712 113.044733 
L 143.756215 116.434465 
L 149.967718 119.824197 
L 156.179221 123.213928 
L 162.390724 126.60366 
L 168.602226 129.993392 
L 174.813729 133.383124 
L 181.025232 136.772856 
L 187.236735 140.162588 
L 193.448237 143.55232 
L 199.65974 146.942052 
L 205.871243 150.331784 
L 212.082746 153.721516 
L 218.294249 157.111248 
L 224.505751 160.50098 
L 230.717254 163.890711 
L 236.928757 167.280443 
L 243.14026 170.670175 
L 249.351763 174.059907 
L 255.563265 177.449639 
L 261.774768 180.839371 
L 267.986271 184.229103 
L 274.197774 187.618835 
L 280.409276 191.008567 
L 286.620779 194.398299 
L 292.832282 197.788031 
L 299.043785 201.177762 
L 305.255288 204.567494 
L 311.46679 207.957226 
L 317.678293 211.346958 
L 323.889796 214.73669 
L 330.101299 218.126422 
L 336.312801 221.516154 
L 342.524304 224.905886 
L 348.735807 228.295618 
L 354.94731 231.68535 
L 361.158813 235.075082 
L 367.370315 238.464814 
L 373.581818 241.854545 
" style="fill:none;stroke:#000000;stroke-linecap:square;"/>
   </g>
   <g id="line2d_3">
    <path clip-path="url(#p996414cd89)" d="M 69.218182 38.945455 
L 75.429685 42.335186 
L 81.641187 45.724918 
L 87.85269 49.11465 
L 94.064193 52.504382 
L 100.275696 55.894114 
L 106.487199 59.283846 
L 112.698701 62.673578 
L 118.910204 66.06331 
L 125.121707 69.453042 
L 131.33321 72.842774 
L 137.544712 76.232506 
L 143.756215 79.622238 
L 149.967718 83.011969 
L 156.179221 86.401701 
L 162.390724 89.791433 
L 168.602226 93.181165 
L 174.813729 96.570897 
L 181.025232 99.960629 
L 187.236735 103.350361 
L 193.448237 106.740093 
L 199.65974 110.129825 
L 205.871243 113.519557 
L 212.082746 116.909289 
L 218.294249 120.29902 
L 224.505751 123.688752 
L 230.717254 127.078484 
L 236.928757 130.468216 
L 243.14026 133.857948 
L 249.351763 137.24768 
L 255.563265 140.637412 
L 261.774768 144.027144 
L 267.986271 147.416876 
L 274.197774 150.806608 
L 280.409276 154.19634 
L 286.620779 157.586072 
L 292.832282 160.975803 
L 299.043785 164.365535 
L 305.255288 167.755267 
L 311.46679 171.144999 
L 317.678293 174.534731 
L 323.889796 177.924463 
L 330.101299 181.314195 
L 336.312801 184.703927 
L 342.524304 188.093659 
L 348.735807 191.483391 
L 354.94731 194.873123 
L 361.158813 198.262855 
L 367.370315 201.652586 
L 373.581818 205.042318 
" style="fill:none;stroke:#000000;stroke-linecap:square;"/>
   </g>
   <g id="patch_3">
    <path d="M 54 28.8 
L 388.8 28.8 
" style="fill:none;stroke:#000000;stroke-linecap:square;stroke-linejoin:miter;"/>
   </g>
   <g id="patch_4">
    <path d="M 388.8 252 
L 388.8 28.8 
" style="fill:none;stroke:#000000;stroke-linecap:square;stroke-linejoin:miter;"/>
   </g>
   <g id="patch_5">
    <path d="M 54 252 
L 388.8 252 
" style="fill:none;stroke:#000000;stroke-linecap:square;stroke-linejoin:miter;"/>
   </g>
   <g id="patch_6">
    <path d="M 54 252 
L 54 28.8 
" style="fill:none;stroke:#000000;stroke-linecap:square;stroke-linejoin:miter;"/>
   </g>
   <g id="matplotlib.axis_1">
    <g id="xtick_1">
     <g id="line2d_4">
      <defs>
       <path d="M 0 0 
L 0 -4 
" id="m6bbae572f8" style="stroke:#000000;stroke-width:0.5;"/>
      </defs>
      <g>
       <use style="stroke:#000000;stroke-width:0.5;" x="99.6545454545" xlink:href="#m6bbae572f8" y="252.0"/>
      </g>
     </g>
     <g id="line2d_5">
      <defs>
       <path d="M 0 0 
L 0 4 
" id="md5a03ba3e1" style="stroke:#000000;stroke-width:0.5;"/>
      </defs>
      <g>
       <use style="stroke:#000000;stroke-width:0.5;" x="99.6545454545" xlink:href="#md5a03ba3e1" y="28.8"/>
      </g>
     </g>
     <g id="text_1">
      <!-- −4 -->
      <defs>
       <path d="M 10.59375 35.5 
L 73.1875 35.5 
L 73.1875 27.203125 
L 10.59375 27.203125 
z
" id="BitstreamVeraSans-Roman-2212"/>
       <path d="M 37.796875 64.3125 
L 12.890625 25.390625 
L 37.796875 25.390625 
z
M 35.203125 72.90625 
L 47.609375 72.90625 
L 47.609375 25.390625 
L 58.015625 25.390625 
L 58.015625 17.1875 
L 47.609375 17.1875 
L 47.609375 0 
L 37.796875 0 
L 37.796875 17.1875 
L 4.890625 17.1875 
L 4.890625 26.703125 
z
" id="BitstreamVeraSans-Roman-34"/>
      </defs>
      <g transform="translate(92.2834517045 263.5984375)scale(0.1 -0.1)">
       <use xlink:href="#BitstreamVeraSans-Roman-2212"/>
       <use x="83.7890625" xlink:href="#BitstreamVeraSans-Roman-34"/>
      </g>
     </g>
    </g>
    <g id="xtick_2">
     <g id="line2d_6">
      <g>
       <use style="stroke:#000000;stroke-width:0.5;" x="160.527272727" xlink:href="#m6bbae572f8" y="252.0"/>
      </g>
     </g>
     <g id="line2d_7">
      <g>
       <use style="stroke:#000000;stroke-width:0.5;" x="160.527272727" xlink:href="#md5a03ba3e1" y="28.8"/>
      </g>
     </g>
     <g id="text_2">
      <!-- −2 -->
      <defs>
       <path d="M 19.1875 8.296875 
L 53.609375 8.296875 
L 53.609375 0 
L 7.328125 0 
L 7.328125 8.296875 
Q 12.9375 14.109375 22.625 23.890625 
Q 32.328125 33.6875 34.8125 36.53125 
Q 39.546875 41.84375 41.421875 45.53125 
Q 43.3125 49.21875 43.3125 52.78125 
Q 43.3125 58.59375 39.234375 62.25 
Q 35.15625 65.921875 28.609375 65.921875 
Q 23.96875 65.921875 18.8125 64.3125 
Q 13.671875 62.703125 7.8125 59.421875 
L 7.8125 69.390625 
Q 13.765625 71.78125 18.9375 73 
Q 24.125 74.21875 28.421875 74.21875 
Q 39.75 74.21875 46.484375 68.546875 
Q 53.21875 62.890625 53.21875 53.421875 
Q 53.21875 48.921875 51.53125 44.890625 
Q 49.859375 40.875 45.40625 35.40625 
Q 44.1875 33.984375 37.640625 27.21875 
Q 31.109375 20.453125 19.1875 8.296875 
" id="BitstreamVeraSans-Roman-32"/>
      </defs>
      <g transform="translate(153.156178977 263.5984375)scale(0.1 -0.1)">
       <use xlink:href="#BitstreamVeraSans-Roman-2212"/>
       <use x="83.7890625" xlink:href="#BitstreamVeraSans-Roman-32"/>
      </g>
     </g>
    </g>
    <g id="xtick_3">
     <g id="line2d_8">
      <g>
       <use style="stroke:#000000;stroke-width:0.5;" x="221.4" xlink:href="#m6bbae572f8" y="252.0"/>
      </g>
     </g>
     <g id="line2d_9">
      <g>
       <use style="stroke:#000000;stroke-width:0.5;" x="221.4" xlink:href="#md5a03ba3e1" y="28.8"/>
      </g>
     </g>
     <g id="text_3">
      <!-- 0 -->
      <defs>
       <path d="M 31.78125 66.40625 
Q 24.171875 66.40625 20.328125 58.90625 
Q 16.5 51.421875 16.5 36.375 
Q 16.5 21.390625 20.328125 13.890625 
Q 24.171875 6.390625 31.78125 6.390625 
Q 39.453125 6.390625 43.28125 13.890625 
Q 47.125 21.390625 47.125 36.375 
Q 47.125 51.421875 43.28125 58.90625 
Q 39.453125 66.40625 31.78125 66.40625 
M 31.78125 74.21875 
Q 44.046875 74.21875 50.515625 64.515625 
Q 56.984375 54.828125 56.984375 36.375 
Q 56.984375 17.96875 50.515625 8.265625 
Q 44.046875 -1.421875 31.78125 -1.421875 
Q 19.53125 -1.421875 13.0625 8.265625 
Q 6.59375 17.96875 6.59375 36.375 
Q 6.59375 54.828125 13.0625 64.515625 
Q 19.53125 74.21875 31.78125 74.21875 
" id="BitstreamVeraSans-Roman-30"/>
      </defs>
      <g transform="translate(218.21875 263.5984375)scale(0.1 -0.1)">
       <use xlink:href="#BitstreamVeraSans-Roman-30"/>
      </g>
     </g>
    </g>
    <g id="xtick_4">
     <g id="line2d_10">
      <g>
       <use style="stroke:#000000;stroke-width:0.5;" x="282.272727273" xlink:href="#m6bbae572f8" y="252.0"/>
      </g>
     </g>
     <g id="line2d_11">
      <g>
       <use style="stroke:#000000;stroke-width:0.5;" x="282.272727273" xlink:href="#md5a03ba3e1" y="28.8"/>
      </g>
     </g>
     <g id="text_4">
      <!-- 2 -->
      <g transform="translate(279.091477273 263.5984375)scale(0.1 -0.1)">
       <use xlink:href="#BitstreamVeraSans-Roman-32"/>
      </g>
     </g>
    </g>
    <g id="xtick_5">
     <g id="line2d_12">
      <g>
       <use style="stroke:#000000;stroke-width:0.5;" x="343.145454545" xlink:href="#m6bbae572f8" y="252.0"/>
      </g>
     </g>
     <g id="line2d_13">
      <g>
       <use style="stroke:#000000;stroke-width:0.5;" x="343.145454545" xlink:href="#md5a03ba3e1" y="28.8"/>
      </g>
     </g>
     <g id="text_5">
      <!-- 4 -->
      <g transform="translate(339.964204545 263.5984375)scale(0.1 -0.1)">
       <use xlink:href="#BitstreamVeraSans-Roman-34"/>
      </g>
     </g>
    </g>
   </g>
   <g id="matplotlib.axis_2">
    <g id="ytick_1">
     <g id="line2d_14">
      <defs>
       <path d="M 0 0 
L 4 0 
" id="m908410e334" style="stroke:#000000;stroke-width:0.5;"/>
      </defs>
      <g>
       <use style="stroke:#000000;stroke-width:0.5;" x="54.0" xlink:href="#m908410e334" y="204.379775596"/>
      </g>
     </g>
     <g id="line2d_15">
      <defs>
       <path d="M 0 0 
L -4 0 
" id="m7f02fde6cf" style="stroke:#000000;stroke-width:0.5;"/>
      </defs>
      <g>
       <use style="stroke:#000000;stroke-width:0.5;" x="388.8" xlink:href="#m7f02fde6cf" y="204.379775596"/>
      </g>
     </g>
     <g id="text_6">
      <!-- −5 -->
      <defs>
       <path d="M 10.796875 72.90625 
L 49.515625 72.90625 
L 49.515625 64.59375 
L 19.828125 64.59375 
L 19.828125 46.734375 
Q 21.96875 47.46875 24.109375 47.828125 
Q 26.265625 48.1875 28.421875 48.1875 
Q 40.625 48.1875 47.75 41.5 
Q 54.890625 34.8125 54.890625 23.390625 
Q 54.890625 11.625 47.5625 5.09375 
Q 40.234375 -1.421875 26.90625 -1.421875 
Q 22.3125 -1.421875 17.546875 -0.640625 
Q 12.796875 0.140625 7.71875 1.703125 
L 7.71875 11.625 
Q 12.109375 9.234375 16.796875 8.0625 
Q 21.484375 6.890625 26.703125 6.890625 
Q 35.15625 6.890625 40.078125 11.328125 
Q 45.015625 15.765625 45.015625 23.390625 
Q 45.015625 31 40.078125 35.4375 
Q 35.15625 39.890625 26.703125 39.890625 
Q 22.75 39.890625 18.8125 39.015625 
Q 14.890625 38.140625 10.796875 36.28125 
z
" id="BitstreamVeraSans-Roman-35"/>
      </defs>
      <g transform="translate(35.2578125 207.139150596)scale(0.1 -0.1)">
       <use xlink:href="#BitstreamVeraSans-Roman-2212"/>
       <use x="83.7890625" xlink:href="#BitstreamVeraSans-Roman-35"/>
      </g>
     </g>
    </g>
    <g id="ytick_2">
     <g id="line2d_16">
      <g>
       <use style="stroke:#000000;stroke-width:0.5;" x="54.0" xlink:href="#m908410e334" y="144.717708987"/>
      </g>
     </g>
     <g id="line2d_17">
      <g>
       <use style="stroke:#000000;stroke-width:0.5;" x="388.8" xlink:href="#m7f02fde6cf" y="144.717708987"/>
      </g>
     </g>
     <g id="text_7">
      <!-- 0 -->
      <g transform="translate(43.6375 147.477083987)scale(0.1 -0.1)">
       <use xlink:href="#BitstreamVeraSans-Roman-30"/>
      </g>
     </g>
    </g>
    <g id="ytick_3">
     <g id="line2d_18">
      <g>
       <use style="stroke:#000000;stroke-width:0.5;" x="54.0" xlink:href="#m908410e334" y="85.055642378"/>
      </g>
     </g>
     <g id="line2d_19">
      <g>
       <use style="stroke:#000000;stroke-width:0.5;" x="388.8" xlink:href="#m7f02fde6cf" y="85.055642378"/>
      </g>
     </g>
     <g id="text_8">
      <!-- 5 -->
      <g transform="translate(43.6375 87.815017378)scale(0.1 -0.1)">
       <use xlink:href="#BitstreamVeraSans-Roman-35"/>
      </g>
     </g>
    </g>
   </g>
  </g>
 </g>
 <defs>
  <clipPath id="p996414cd89">
   <rect height="223.2" width="334.8" x="54.0" y="28.8"/>
  </clipPath>
 </defs>
</svg>
