<?xml version="1.0" encoding="utf-8" standalone="no"?>
<!DOCTYPE svg PUBLIC "-//W3C//DTD SVG 1.1//EN"
  "http://www.w3.org/Graphics/SVG/1.1/DTD/svg11.dtd">
<!-- Created with matplotlib (http://matplotlib.org/) -->
<svg height="288pt" version="1.1" viewBox="0 0 432 288" width="432pt" xmlns="http://www.w3.org/2000/svg" xmlns:xlink="http://www.w3.org/1999/xlink">
 <defs>
  <style type="text/css">
*{stroke-linecap:butt;stroke-linejoin:round;stroke-miterlimit:100000;}
  </style>
 </defs>
 <g id="figure_1">
  <g id="patch_1">
   <path d="M 0 288 
L 432 288 
L 432 0 
L 0 0 
z
" style="fill:#ffffff;"/>
  </g>
  <g id="axes_1">
   <g id="patch_2">
    <path d="M 54 252 
L 388.8 252 
L 388.8 28.8 
L 54 28.8 
z
" style="fill:#ffffff;"/>
   </g>
   <g id="PathCollection_1">
    <defs>
     <path d="M 0 4.472136 
C 1.186024 4.472136 2.323632 4.000923 3.162278 3.162278 
C 4.000923 2.323632 4.472136 1.186024 4.472136 0 
C 4.472136 -1.186024 4.000923 -2.323632 3.162278 -3.162278 
C 2.323632 -4.000923 1.186024 -4.472136 0 -4.472136 
C -1.186024 -4.472136 -2.323632 -4.000923 -3.162278 -3.162278 
C -4.000923 -2.323632 -4.472136 -1.186024 -4.472136 0 
C -4.472136 1.186024 -4.000923 2.323632 -3.162278 3.162278 
C -2.323632 4.000923 -1.186024 4.472136 0 4.472136 
z
" id="C0_0_0097925d10"/>
    </defs>
    <g clip-path="url(#pecaeac8a82)">
     <use style="fill:none;stroke:#000000;" x="190.316497916" xlink:href="#C0_0_0097925d10" y="141.87947219"/>
    </g>
    <g clip-path="url(#pecaeac8a82)">
     <use style="fill:none;stroke:#000000;" x="148.738452867" xlink:href="#C0_0_0097925d10" y="158.112446791"/>
    </g>
    <g clip-path="url(#pecaeac8a82)">
     <use style="fill:none;stroke:#000000;" x="250.358587936" xlink:href="#C0_0_0097925d10" y="139.715100659"/>
    </g>
    <g clip-path="url(#pecaeac8a82)">
     <use style="fill:none;stroke:#000000;" x="257.523511343" xlink:href="#C0_0_0097925d10" y="141.669958495"/>
    </g>
   </g>
   <g id="PathCollection_2">
    <defs>
     <path d="M 0 2.236068 
C 0.593012 2.236068 1.161816 2.000462 1.581139 1.581139 
C 2.000462 1.161816 2.236068 0.593012 2.236068 0 
C 2.236068 -0.593012 2.000462 -1.161816 1.581139 -1.581139 
C 1.161816 -2.000462 0.593012 -2.236068 0 -2.236068 
C -0.593012 -2.236068 -1.161816 -2.000462 -1.581139 -1.581139 
C -2.000462 -1.161816 -2.236068 -0.593012 -2.236068 0 
C -2.236068 0.593012 -2.000462 1.161816 -1.581139 1.581139 
C -1.161816 2.000462 -0.593012 2.236068 0 2.236068 
z
" id="C1_0_996399f836"/>
    </defs>
    <g clip-path="url(#pecaeac8a82)">
     <use style="fill:#a6cee3;stroke:#000000;" x="214.218611403" xlink:href="#C1_0_996399f836" y="153.628712585"/>
    </g>
    <g clip-path="url(#pecaeac8a82)">
     <use style="fill:#a6cee3;stroke:#000000;" x="190.316497916" xlink:href="#C1_0_996399f836" y="141.87947219"/>
    </g>
    <g clip-path="url(#pecaeac8a82)">
     <use style="fill:#a6cee3;stroke:#000000;" x="217.368946827" xlink:href="#C1_0_996399f836" y="162.420747979"/>
    </g>
    <g clip-path="url(#pecaeac8a82)">
     <use style="fill:#a6cee3;stroke:#000000;" x="189.44450929" xlink:href="#C1_0_996399f836" y="157.148975945"/>
    </g>
    <g clip-path="url(#pecaeac8a82)">
     <use style="fill:#a6cee3;stroke:#000000;" x="157.38566622" xlink:href="#C1_0_996399f836" y="153.562066815"/>
    </g>
    <g clip-path="url(#pecaeac8a82)">
     <use style="fill:#a6cee3;stroke:#000000;" x="164.911435239" xlink:href="#C1_0_996399f836" y="146.900389861"/>
    </g>
    <g clip-path="url(#pecaeac8a82)">
     <use style="fill:#a6cee3;stroke:#000000;" x="183.690493671" xlink:href="#C1_0_996399f836" y="155.406237573"/>
    </g>
    <g clip-path="url(#pecaeac8a82)">
     <use style="fill:#a6cee3;stroke:#000000;" x="174.036855484" xlink:href="#C1_0_996399f836" y="154.053066406"/>
    </g>
    <g clip-path="url(#pecaeac8a82)">
     <use style="fill:#a6cee3;stroke:#000000;" x="206.001606699" xlink:href="#C1_0_996399f836" y="157.492382896"/>
    </g>
    <g clip-path="url(#pecaeac8a82)">
     <use style="fill:#a6cee3;stroke:#000000;" x="170.055915138" xlink:href="#C1_0_996399f836" y="161.634488249"/>
    </g>
    <g clip-path="url(#pecaeac8a82)">
     <use style="fill:#a6cee3;stroke:#000000;" x="82.8235463326" xlink:href="#C1_0_996399f836" y="152.010892984"/>
    </g>
    <g clip-path="url(#pecaeac8a82)">
     <use style="fill:#a6cee3;stroke:#000000;" x="186.837567216" xlink:href="#C1_0_996399f836" y="160.92004526"/>
    </g>
    <g clip-path="url(#pecaeac8a82)">
     <use style="fill:#a6cee3;stroke:#000000;" x="229.610349828" xlink:href="#C1_0_996399f836" y="165.465953385"/>
    </g>
    <g clip-path="url(#pecaeac8a82)">
     <use style="fill:#a6cee3;stroke:#000000;" x="161.919995599" xlink:href="#C1_0_996399f836" y="157.377653946"/>
    </g>
    <g clip-path="url(#pecaeac8a82)">
     <use style="fill:#a6cee3;stroke:#000000;" x="207.17949827" xlink:href="#C1_0_996399f836" y="146.804102082"/>
    </g>
    <g clip-path="url(#pecaeac8a82)">
     <use style="fill:#a6cee3;stroke:#000000;" x="165.24330892" xlink:href="#C1_0_996399f836" y="153.769102564"/>
    </g>
    <g clip-path="url(#pecaeac8a82)">
     <use style="fill:#a6cee3;stroke:#000000;" x="133.506302881" xlink:href="#C1_0_996399f836" y="168.826110396"/>
    </g>
    <g clip-path="url(#pecaeac8a82)">
     <use style="fill:#a6cee3;stroke:#000000;" x="149.938092037" xlink:href="#C1_0_996399f836" y="155.184917075"/>
    </g>
    <g clip-path="url(#pecaeac8a82)">
     <use style="fill:#a6cee3;stroke:#000000;" x="197.972847264" xlink:href="#C1_0_996399f836" y="148.5082028"/>
    </g>
    <g clip-path="url(#pecaeac8a82)">
     <use style="fill:#a6cee3;stroke:#000000;" x="148.738452867" xlink:href="#C1_0_996399f836" y="158.112446791"/>
    </g>
    <g clip-path="url(#pecaeac8a82)">
     <use style="fill:#b15928;stroke:#000000;" x="250.358587936" xlink:href="#C1_0_996399f836" y="139.715100659"/>
    </g>
    <g clip-path="url(#pecaeac8a82)">
     <use style="fill:#b15928;stroke:#000000;" x="230.340067289" xlink:href="#C1_0_996399f836" y="118.199651738"/>
    </g>
    <g clip-path="url(#pecaeac8a82)">
     <use style="fill:#b15928;stroke:#000000;" x="266.760768141" xlink:href="#C1_0_996399f836" y="133.447449085"/>
    </g>
    <g clip-path="url(#pecaeac8a82)">
     <use style="fill:#b15928;stroke:#000000;" x="244.142192132" xlink:href="#C1_0_996399f836" y="125.688617049"/>
    </g>
    <g clip-path="url(#pecaeac8a82)">
     <use style="fill:#b15928;stroke:#000000;" x="233.151545513" xlink:href="#C1_0_996399f836" y="132.009163747"/>
    </g>
    <g clip-path="url(#pecaeac8a82)">
     <use style="fill:#b15928;stroke:#000000;" x="255.017981392" xlink:href="#C1_0_996399f836" y="128.181701696"/>
    </g>
    <g clip-path="url(#pecaeac8a82)">
     <use style="fill:#b15928;stroke:#000000;" x="266.725676358" xlink:href="#C1_0_996399f836" y="138.187124472"/>
    </g>
    <g clip-path="url(#pecaeac8a82)">
     <use style="fill:#b15928;stroke:#000000;" x="281.414962723" xlink:href="#C1_0_996399f836" y="127.917262004"/>
    </g>
    <g clip-path="url(#pecaeac8a82)">
     <use style="fill:#b15928;stroke:#000000;" x="284.297269641" xlink:href="#C1_0_996399f836" y="128.720614078"/>
    </g>
    <g clip-path="url(#pecaeac8a82)">
     <use style="fill:#b15928;stroke:#000000;" x="262.966269367" xlink:href="#C1_0_996399f836" y="132.966604942"/>
    </g>
    <g clip-path="url(#pecaeac8a82)">
     <use style="fill:#b15928;stroke:#000000;" x="261.805476553" xlink:href="#C1_0_996399f836" y="132.946256217"/>
    </g>
    <g clip-path="url(#pecaeac8a82)">
     <use style="fill:#b15928;stroke:#000000;" x="257.523511343" xlink:href="#C1_0_996399f836" y="141.669958495"/>
    </g>
    <g clip-path="url(#pecaeac8a82)">
     <use style="fill:#b15928;stroke:#000000;" x="287.672933857" xlink:href="#C1_0_996399f836" y="133.215792032"/>
    </g>
    <g clip-path="url(#pecaeac8a82)">
     <use style="fill:#b15928;stroke:#000000;" x="232.655417585" xlink:href="#C1_0_996399f836" y="127.697368517"/>
    </g>
    <g clip-path="url(#pecaeac8a82)">
     <use style="fill:#b15928;stroke:#000000;" x="254.657864328" xlink:href="#C1_0_996399f836" y="130.319700591"/>
    </g>
    <g clip-path="url(#pecaeac8a82)">
     <use style="fill:#b15928;stroke:#000000;" x="304.463592747" xlink:href="#C1_0_996399f836" y="129.827977559"/>
    </g>
    <g clip-path="url(#pecaeac8a82)">
     <use style="fill:#b15928;stroke:#000000;" x="316.951940835" xlink:href="#C1_0_996399f836" y="138.533037228"/>
    </g>
    <g clip-path="url(#pecaeac8a82)">
     <use style="fill:#b15928;stroke:#000000;" x="294.51854377" xlink:href="#C1_0_996399f836" y="135.022339845"/>
    </g>
    <g clip-path="url(#pecaeac8a82)">
     <use style="fill:#b15928;stroke:#000000;" x="255.768828587" xlink:href="#C1_0_996399f836" y="134.346004659"/>
    </g>
    <g clip-path="url(#pecaeac8a82)">
     <use style="fill:#b15928;stroke:#000000;" x="272.790201113" xlink:href="#C1_0_996399f836" y="130.29276508"/>
    </g>
   </g>
   <g id="line2d_1">
    <path clip-path="url(#pecaeac8a82)" d="M 69.218182 67.598736 
L 75.429685 70.98724 
L 81.641187 74.375745 
L 87.85269 77.76425 
L 94.064193 81.152755 
L 100.275696 84.54126 
L 106.487199 87.929765 
L 112.698701 91.31827 
L 118.910204 94.706775 
L 125.121707 98.09528 
L 131.33321 101.483785 
L 137.544712 104.87229 
L 143.756215 108.260795 
L 149.967718 111.6493 
L 156.179221 115.037805 
L 162.390724 118.42631 
L 168.602226 121.814815 
L 174.813729 125.20332 
L 181.025232 128.591825 
L 187.236735 131.98033 
L 193.448237 135.368835 
L 199.65974 138.75734 
L 205.871243 142.145845 
L 212.082746 145.53435 
L 218.294249 148.922854 
L 224.505751 152.311359 
L 230.717254 155.699864 
L 236.928757 159.088369 
L 243.14026 162.476874 
L 249.351763 165.865379 
L 255.563265 169.253884 
L 261.774768 172.642389 
L 267.986271 176.030894 
L 274.197774 179.419399 
L 280.409276 182.807904 
L 286.620779 186.196409 
L 292.832282 189.584914 
L 299.043785 192.973419 
L 305.255288 196.361924 
L 311.46679 199.750429 
L 317.678293 203.138934 
L 323.889796 206.527439 
L 330.101299 209.915944 
L 336.312801 213.304449 
L 342.524304 216.692954 
L 348.735807 220.081459 
L 354.94731 223.469963 
L 361.158813 226.858468 
L 367.370315 230.246973 
L 373.581818 233.635478 
" style="fill:none;stroke:#000000;stroke-dasharray:6.000000,6.000000;stroke-dashoffset:0.0;"/>
   </g>
   <g id="line2d_2">
    <path clip-path="url(#pecaeac8a82)" d="M 69.218182 75.817803 
L 75.429685 79.206308 
L 81.641187 82.594813 
L 87.85269 85.983318 
L 94.064193 89.371822 
L 100.275696 92.760327 
L 106.487199 96.148832 
L 112.698701 99.537337 
L 118.910204 102.925842 
L 125.121707 106.314347 
L 131.33321 109.702852 
L 137.544712 113.091357 
L 143.756215 116.479862 
L 149.967718 119.868367 
L 156.179221 123.256872 
L 162.390724 126.645377 
L 168.602226 130.033882 
L 174.813729 133.422387 
L 181.025232 136.810892 
L 187.236735 140.199397 
L 193.448237 143.587902 
L 199.65974 146.976407 
L 205.871243 150.364912 
L 212.082746 153.753417 
L 218.294249 157.141922 
L 224.505751 160.530427 
L 230.717254 163.918931 
L 236.928757 167.307436 
L 243.14026 170.695941 
L 249.351763 174.084446 
L 255.563265 177.472951 
L 261.774768 180.861456 
L 267.986271 184.249961 
L 274.197774 187.638466 
L 280.409276 191.026971 
L 286.620779 194.415476 
L 292.832282 197.803981 
L 299.043785 201.192486 
L 305.255288 204.580991 
L 311.46679 207.969496 
L 317.678293 211.358001 
L 323.889796 214.746506 
L 330.101299 218.135011 
L 336.312801 221.523516 
L 342.524304 224.912021 
L 348.735807 228.300526 
L 354.94731 231.689031 
L 361.158813 235.077536 
L 367.370315 238.46604 
L 373.581818 241.854545 
" style="fill:none;stroke:#000000;stroke-linecap:square;"/>
   </g>
   <g id="line2d_3">
    <path clip-path="url(#pecaeac8a82)" d="M 69.218182 38.945455 
L 75.429685 42.33396 
L 81.641187 45.722464 
L 87.85269 49.110969 
L 94.064193 52.499474 
L 100.275696 55.887979 
L 106.487199 59.276484 
L 112.698701 62.664989 
L 118.910204 66.053494 
L 125.121707 69.441999 
L 131.33321 72.830504 
L 137.544712 76.219009 
L 143.756215 79.607514 
L 149.967718 82.996019 
L 156.179221 86.384524 
L 162.390724 89.773029 
L 168.602226 93.161534 
L 174.813729 96.550039 
L 181.025232 99.938544 
L 187.236735 103.327049 
L 193.448237 106.715554 
L 199.65974 110.104059 
L 205.871243 113.492564 
L 212.082746 116.881069 
L 218.294249 120.269573 
L 224.505751 123.658078 
L 230.717254 127.046583 
L 236.928757 130.435088 
L 243.14026 133.823593 
L 249.351763 137.212098 
L 255.563265 140.600603 
L 261.774768 143.989108 
L 267.986271 147.377613 
L 274.197774 150.766118 
L 280.409276 154.154623 
L 286.620779 157.543128 
L 292.832282 160.931633 
L 299.043785 164.320138 
L 305.255288 167.708643 
L 311.46679 171.097148 
L 317.678293 174.485653 
L 323.889796 177.874158 
L 330.101299 181.262663 
L 336.312801 184.651168 
L 342.524304 188.039673 
L 348.735807 191.428178 
L 354.94731 194.816682 
L 361.158813 198.205187 
L 367.370315 201.593692 
L 373.581818 204.982197 
" style="fill:none;stroke:#000000;stroke-linecap:square;"/>
   </g>
   <g id="patch_3">
    <path d="M 54 28.8 
L 388.8 28.8 
" style="fill:none;stroke:#000000;stroke-linecap:square;stroke-linejoin:miter;"/>
   </g>
   <g id="patch_4">
    <path d="M 388.8 252 
L 388.8 28.8 
" style="fill:none;stroke:#000000;stroke-linecap:square;stroke-linejoin:miter;"/>
   </g>
   <g id="patch_5">
    <path d="M 54 252 
L 388.8 252 
" style="fill:none;stroke:#000000;stroke-linecap:square;stroke-linejoin:miter;"/>
   </g>
   <g id="patch_6">
    <path d="M 54 252 
L 54 28.8 
" style="fill:none;stroke:#000000;stroke-linecap:square;stroke-linejoin:miter;"/>
   </g>
   <g id="matplotlib.axis_1">
    <g id="xtick_1">
     <g id="line2d_4">
      <defs>
       <path d="M 0 0 
L 0 -4 
" id="m59bd439caf" style="stroke:#000000;stroke-width:0.5;"/>
      </defs>
      <g>
       <use style="stroke:#000000;stroke-width:0.5;" x="99.6545454545" xlink:href="#m59bd439caf" y="252.0"/>
      </g>
     </g>
     <g id="line2d_5">
      <defs>
       <path d="M 0 0 
L 0 4 
" id="m1c33256f6a" style="stroke:#000000;stroke-width:0.5;"/>
      </defs>
      <g>
       <use style="stroke:#000000;stroke-width:0.5;" x="99.6545454545" xlink:href="#m1c33256f6a" y="28.8"/>
      </g>
     </g>
     <g id="text_1">
      <!-- −4 -->
      <defs>
       <path d="M 10.59375 35.5 
L 73.1875 35.5 
L 73.1875 27.203125 
L 10.59375 27.203125 
z
" id="BitstreamVeraSans-Roman-2212"/>
       <path d="M 37.796875 64.3125 
L 12.890625 25.390625 
L 37.796875 25.390625 
z
M 35.203125 72.90625 
L 47.609375 72.90625 
L 47.609375 25.390625 
L 58.015625 25.390625 
L 58.015625 17.1875 
L 47.609375 17.1875 
L 47.609375 0 
L 37.796875 0 
L 37.796875 17.1875 
L 4.890625 17.1875 
L 4.890625 26.703125 
z
" id="BitstreamVeraSans-Roman-34"/>
      </defs>
      <g transform="translate(92.2834517045 263.5984375)scale(0.1 -0.1)">
       <use xlink:href="#BitstreamVeraSans-Roman-2212"/>
       <use x="83.7890625" xlink:href="#BitstreamVeraSans-Roman-34"/>
      </g>
     </g>
    </g>
    <g id="xtick_2">
     <g id="line2d_6">
      <g>
       <use style="stroke:#000000;stroke-width:0.5;" x="160.527272727" xlink:href="#m59bd439caf" y="252.0"/>
      </g>
     </g>
     <g id="line2d_7">
      <g>
       <use style="stroke:#000000;stroke-width:0.5;" x="160.527272727" xlink:href="#m1c33256f6a" y="28.8"/>
      </g>
     </g>
     <g id="text_2">
      <!-- −2 -->
      <defs>
       <path d="M 19.1875 8.296875 
L 53.609375 8.296875 
L 53.609375 0 
L 7.328125 0 
L 7.328125 8.296875 
Q 12.9375 14.109375 22.625 23.890625 
Q 32.328125 33.6875 34.8125 36.53125 
Q 39.546875 41.84375 41.421875 45.53125 
Q 43.3125 49.21875 43.3125 52.78125 
Q 43.3125 58.59375 39.234375 62.25 
Q 35.15625 65.921875 28.609375 65.921875 
Q 23.96875 65.921875 18.8125 64.3125 
Q 13.671875 62.703125 7.8125 59.421875 
L 7.8125 69.390625 
Q 13.765625 71.78125 18.9375 73 
Q 24.125 74.21875 28.421875 74.21875 
Q 39.75 74.21875 46.484375 68.546875 
Q 53.21875 62.890625 53.21875 53.421875 
Q 53.21875 48.921875 51.53125 44.890625 
Q 49.859375 40.875 45.40625 35.40625 
Q 44.1875 33.984375 37.640625 27.21875 
Q 31.109375 20.453125 19.1875 8.296875 
" id="BitstreamVeraSans-Roman-32"/>
      </defs>
      <g transform="translate(153.156178977 263.5984375)scale(0.1 -0.1)">
       <use xlink:href="#BitstreamVeraSans-Roman-2212"/>
       <use x="83.7890625" xlink:href="#BitstreamVeraSans-Roman-32"/>
      </g>
     </g>
    </g>
    <g id="xtick_3">
     <g id="line2d_8">
      <g>
       <use style="stroke:#000000;stroke-width:0.5;" x="221.4" xlink:href="#m59bd439caf" y="252.0"/>
      </g>
     </g>
     <g id="line2d_9">
      <g>
       <use style="stroke:#000000;stroke-width:0.5;" x="221.4" xlink:href="#m1c33256f6a" y="28.8"/>
      </g>
     </g>
     <g id="text_3">
      <!-- 0 -->
      <defs>
       <path d="M 31.78125 66.40625 
Q 24.171875 66.40625 20.328125 58.90625 
Q 16.5 51.421875 16.5 36.375 
Q 16.5 21.390625 20.328125 13.890625 
Q 24.171875 6.390625 31.78125 6.390625 
Q 39.453125 6.390625 43.28125 13.890625 
Q 47.125 21.390625 47.125 36.375 
Q 47.125 51.421875 43.28125 58.90625 
Q 39.453125 66.40625 31.78125 66.40625 
M 31.78125 74.21875 
Q 44.046875 74.21875 50.515625 64.515625 
Q 56.984375 54.828125 56.984375 36.375 
Q 56.984375 17.96875 50.515625 8.265625 
Q 44.046875 -1.421875 31.78125 -1.421875 
Q 19.53125 -1.421875 13.0625 8.265625 
Q 6.59375 17.96875 6.59375 36.375 
Q 6.59375 54.828125 13.0625 64.515625 
Q 19.53125 74.21875 31.78125 74.21875 
" id="BitstreamVeraSans-Roman-30"/>
      </defs>
      <g transform="translate(218.21875 263.5984375)scale(0.1 -0.1)">
       <use xlink:href="#BitstreamVeraSans-Roman-30"/>
      </g>
     </g>
    </g>
    <g id="xtick_4">
     <g id="line2d_10">
      <g>
       <use style="stroke:#000000;stroke-width:0.5;" x="282.272727273" xlink:href="#m59bd439caf" y="252.0"/>
      </g>
     </g>
     <g id="line2d_11">
      <g>
       <use style="stroke:#000000;stroke-width:0.5;" x="282.272727273" xlink:href="#m1c33256f6a" y="28.8"/>
      </g>
     </g>
     <g id="text_4">
      <!-- 2 -->
      <g transform="translate(279.091477273 263.5984375)scale(0.1 -0.1)">
       <use xlink:href="#BitstreamVeraSans-Roman-32"/>
      </g>
     </g>
    </g>
    <g id="xtick_5">
     <g id="line2d_12">
      <g>
       <use style="stroke:#000000;stroke-width:0.5;" x="343.145454545" xlink:href="#m59bd439caf" y="252.0"/>
      </g>
     </g>
     <g id="line2d_13">
      <g>
       <use style="stroke:#000000;stroke-width:0.5;" x="343.145454545" xlink:href="#m1c33256f6a" y="28.8"/>
      </g>
     </g>
     <g id="text_5">
      <!-- 4 -->
      <g transform="translate(339.964204545 263.5984375)scale(0.1 -0.1)">
       <use xlink:href="#BitstreamVeraSans-Roman-34"/>
      </g>
     </g>
    </g>
   </g>
   <g id="matplotlib.axis_2">
    <g id="ytick_1">
     <g id="line2d_14">
      <defs>
       <path d="M 0 0 
L 4 0 
" id="m2fb7050780" style="stroke:#000000;stroke-width:0.5;"/>
      </defs>
      <g>
       <use style="stroke:#000000;stroke-width:0.5;" x="54.0" xlink:href="#m2fb7050780" y="239.160624368"/>
      </g>
     </g>
     <g id="line2d_15">
      <defs>
       <path d="M 0 0 
L -4 0 
" id="m94a9b4c98d" style="stroke:#000000;stroke-width:0.5;"/>
      </defs>
      <g>
       <use style="stroke:#000000;stroke-width:0.5;" x="388.8" xlink:href="#m94a9b4c98d" y="239.160624368"/>
      </g>
     </g>
     <g id="text_6">
      <!-- −15 -->
      <defs>
       <path d="M 12.40625 8.296875 
L 28.515625 8.296875 
L 28.515625 63.921875 
L 10.984375 60.40625 
L 10.984375 69.390625 
L 28.421875 72.90625 
L 38.28125 72.90625 
L 38.28125 8.296875 
L 54.390625 8.296875 
L 54.390625 0 
L 12.40625 0 
z
" id="BitstreamVeraSans-Roman-31"/>
       <path d="M 10.796875 72.90625 
L 49.515625 72.90625 
L 49.515625 64.59375 
L 19.828125 64.59375 
L 19.828125 46.734375 
Q 21.96875 47.46875 24.109375 47.828125 
Q 26.265625 48.1875 28.421875 48.1875 
Q 40.625 48.1875 47.75 41.5 
Q 54.890625 34.8125 54.890625 23.390625 
Q 54.890625 11.625 47.5625 5.09375 
Q 40.234375 -1.421875 26.90625 -1.421875 
Q 22.3125 -1.421875 17.546875 -0.640625 
Q 12.796875 0.140625 7.71875 1.703125 
L 7.71875 11.625 
Q 12.109375 9.234375 16.796875 8.0625 
Q 21.484375 6.890625 26.703125 6.890625 
Q 35.15625 6.890625 40.078125 11.328125 
Q 45.015625 15.765625 45.015625 23.390625 
Q 45.015625 31 40.078125 35.4375 
Q 35.15625 39.890625 26.703125 39.890625 
Q 22.75 39.890625 18.8125 39.015625 
Q 14.890625 38.140625 10.796875 36.28125 
z
" id="BitstreamVeraSans-Roman-35"/>
      </defs>
      <g transform="translate(28.8953125 241.919999368)scale(0.1 -0.1)">
       <use xlink:href="#BitstreamVeraSans-Roman-2212"/>
       <use x="83.7890625" xlink:href="#BitstreamVeraSans-Roman-31"/>
       <use x="147.412109375" xlink:href="#BitstreamVeraSans-Roman-35"/>
      </g>
     </g>
    </g>
    <g id="ytick_2">
     <g id="line2d_16">
      <g>
       <use style="stroke:#000000;stroke-width:0.5;" x="54.0" xlink:href="#m2fb7050780" y="207.246106332"/>
      </g>
     </g>
     <g id="line2d_17">
      <g>
       <use style="stroke:#000000;stroke-width:0.5;" x="388.8" xlink:href="#m94a9b4c98d" y="207.246106332"/>
      </g>
     </g>
     <g id="text_7">
      <!-- −10 -->
      <g transform="translate(28.8953125 210.005481332)scale(0.1 -0.1)">
       <use xlink:href="#BitstreamVeraSans-Roman-2212"/>
       <use x="83.7890625" xlink:href="#BitstreamVeraSans-Roman-31"/>
       <use x="147.412109375" xlink:href="#BitstreamVeraSans-Roman-30"/>
      </g>
     </g>
    </g>
    <g id="ytick_3">
     <g id="line2d_18">
      <g>
       <use style="stroke:#000000;stroke-width:0.5;" x="54.0" xlink:href="#m2fb7050780" y="175.331588296"/>
      </g>
     </g>
     <g id="line2d_19">
      <g>
       <use style="stroke:#000000;stroke-width:0.5;" x="388.8" xlink:href="#m94a9b4c98d" y="175.331588296"/>
      </g>
     </g>
     <g id="text_8">
      <!-- −5 -->
      <g transform="translate(35.2578125 178.090963296)scale(0.1 -0.1)">
       <use xlink:href="#BitstreamVeraSans-Roman-2212"/>
       <use x="83.7890625" xlink:href="#BitstreamVeraSans-Roman-35"/>
      </g>
     </g>
    </g>
    <g id="ytick_4">
     <g id="line2d_20">
      <g>
       <use style="stroke:#000000;stroke-width:0.5;" x="54.0" xlink:href="#m2fb7050780" y="143.41707026"/>
      </g>
     </g>
     <g id="line2d_21">
      <g>
       <use style="stroke:#000000;stroke-width:0.5;" x="388.8" xlink:href="#m94a9b4c98d" y="143.41707026"/>
      </g>
     </g>
     <g id="text_9">
      <!-- 0 -->
      <g transform="translate(43.6375 146.17644526)scale(0.1 -0.1)">
       <use xlink:href="#BitstreamVeraSans-Roman-30"/>
      </g>
     </g>
    </g>
    <g id="ytick_5">
     <g id="line2d_22">
      <g>
       <use style="stroke:#000000;stroke-width:0.5;" x="54.0" xlink:href="#m2fb7050780" y="111.502552224"/>
      </g>
     </g>
     <g id="line2d_23">
      <g>
       <use style="stroke:#000000;stroke-width:0.5;" x="388.8" xlink:href="#m94a9b4c98d" y="111.502552224"/>
      </g>
     </g>
     <g id="text_10">
      <!-- 5 -->
      <g transform="translate(43.6375 114.261927224)scale(0.1 -0.1)">
       <use xlink:href="#BitstreamVeraSans-Roman-35"/>
      </g>
     </g>
    </g>
    <g id="ytick_6">
     <g id="line2d_24">
      <g>
       <use style="stroke:#000000;stroke-width:0.5;" x="54.0" xlink:href="#m2fb7050780" y="79.5880341876"/>
      </g>
     </g>
     <g id="line2d_25">
      <g>
       <use style="stroke:#000000;stroke-width:0.5;" x="388.8" xlink:href="#m94a9b4c98d" y="79.5880341876"/>
      </g>
     </g>
     <g id="text_11">
      <!-- 10 -->
      <g transform="translate(37.275 82.3474091876)scale(0.1 -0.1)">
       <use xlink:href="#BitstreamVeraSans-Roman-31"/>
       <use x="63.623046875" xlink:href="#BitstreamVeraSans-Roman-30"/>
      </g>
     </g>
    </g>
    <g id="ytick_7">
     <g id="line2d_26">
      <g>
       <use style="stroke:#000000;stroke-width:0.5;" x="54.0" xlink:href="#m2fb7050780" y="47.6735161515"/>
      </g>
     </g>
     <g id="line2d_27">
      <g>
       <use style="stroke:#000000;stroke-width:0.5;" x="388.8" xlink:href="#m94a9b4c98d" y="47.6735161515"/>
      </g>
     </g>
     <g id="text_12">
      <!-- 15 -->
      <g transform="translate(37.275 50.4328911515)scale(0.1 -0.1)">
       <use xlink:href="#BitstreamVeraSans-Roman-31"/>
       <use x="63.623046875" xlink:href="#BitstreamVeraSans-Roman-35"/>
      </g>
     </g>
    </g>
   </g>
  </g>
 </g>
 <defs>
  <clipPath id="pecaeac8a82">
   <rect height="223.2" width="334.8" x="54.0" y="28.8"/>
  </clipPath>
 </defs>
</svg>
