<?xml version="1.0" encoding="utf-8" standalone="no"?>
<!DOCTYPE svg PUBLIC "-//W3C//DTD SVG 1.1//EN"
  "http://www.w3.org/Graphics/SVG/1.1/DTD/svg11.dtd">
<!-- Created with matplotlib (http://matplotlib.org/) -->
<svg height="288pt" version="1.1" viewBox="0 0 432 288" width="432pt" xmlns="http://www.w3.org/2000/svg" xmlns:xlink="http://www.w3.org/1999/xlink">
 <defs>
  <style type="text/css">
*{stroke-linecap:butt;stroke-linejoin:round;stroke-miterlimit:100000;}
  </style>
 </defs>
 <g id="figure_1">
  <g id="patch_1">
   <path d="M 0 288 
L 432 288 
L 432 0 
L 0 0 
z
" style="fill:#ffffff;"/>
  </g>
  <g id="axes_1">
   <g id="patch_2">
    <path d="M 54 252 
L 388.8 252 
L 388.8 28.8 
L 54 28.8 
z
" style="fill:#ffffff;"/>
   </g>
   <g id="PathCollection_1">
    <defs>
     <path d="M 0 4.472136 
C 1.186024 4.472136 2.323632 4.000923 3.162278 3.162278 
C 4.000923 2.323632 4.472136 1.186024 4.472136 0 
C 4.472136 -1.186024 4.000923 -2.323632 3.162278 -3.162278 
C 2.323632 -4.000923 1.186024 -4.472136 0 -4.472136 
C -1.186024 -4.472136 -2.323632 -4.000923 -3.162278 -3.162278 
C -4.000923 -2.323632 -4.472136 -1.186024 -4.472136 0 
C -4.472136 1.186024 -4.000923 2.323632 -3.162278 3.162278 
C -2.323632 4.000923 -1.186024 4.472136 0 4.472136 
z
" id="C0_0_fc2857e413"/>
    </defs>
    <g clip-path="url(#p645335bcb2)">
     <use style="fill:none;stroke:#000000;" x="190.316497916" xlink:href="#C0_0_fc2857e413" y="141.842445026"/>
    </g>
    <g clip-path="url(#p645335bcb2)">
     <use style="fill:none;stroke:#000000;" x="207.17949827" xlink:href="#C0_0_fc2857e413" y="151.044972344"/>
    </g>
    <g clip-path="url(#p645335bcb2)">
     <use style="fill:none;stroke:#000000;" x="250.358587936" xlink:href="#C0_0_fc2857e413" y="137.797940449"/>
    </g>
   </g>
   <g id="PathCollection_2">
    <defs>
     <path d="M 0 2.236068 
C 0.593012 2.236068 1.161816 2.000462 1.581139 1.581139 
C 2.000462 1.161816 2.236068 0.593012 2.236068 0 
C 2.236068 -0.593012 2.000462 -1.161816 1.581139 -1.581139 
C 1.161816 -2.000462 0.593012 -2.236068 0 -2.236068 
C -0.593012 -2.236068 -1.161816 -2.000462 -1.581139 -1.581139 
C -2.000462 -1.161816 -2.236068 -0.593012 -2.236068 0 
C -2.236068 0.593012 -2.000462 1.161816 -1.581139 1.581139 
C -1.161816 2.000462 -0.593012 2.236068 0 2.236068 
z
" id="C1_0_469a8e29cd"/>
    </defs>
    <g clip-path="url(#p645335bcb2)">
     <use style="fill:#a6cee3;stroke:#000000;" x="214.218611403" xlink:href="#C1_0_469a8e29cd" y="163.797943831"/>
    </g>
    <g clip-path="url(#p645335bcb2)">
     <use style="fill:#a6cee3;stroke:#000000;" x="190.316497916" xlink:href="#C1_0_469a8e29cd" y="141.842445026"/>
    </g>
    <g clip-path="url(#p645335bcb2)">
     <use style="fill:#a6cee3;stroke:#000000;" x="217.368946827" xlink:href="#C1_0_469a8e29cd" y="180.227390847"/>
    </g>
    <g clip-path="url(#p645335bcb2)">
     <use style="fill:#a6cee3;stroke:#000000;" x="189.44450929" xlink:href="#C1_0_469a8e29cd" y="170.376168071"/>
    </g>
    <g clip-path="url(#p645335bcb2)">
     <use style="fill:#a6cee3;stroke:#000000;" x="157.38566622" xlink:href="#C1_0_469a8e29cd" y="163.673404619"/>
    </g>
    <g clip-path="url(#p645335bcb2)">
     <use style="fill:#a6cee3;stroke:#000000;" x="164.911435239" xlink:href="#C1_0_469a8e29cd" y="151.224902803"/>
    </g>
    <g clip-path="url(#p645335bcb2)">
     <use style="fill:#a6cee3;stroke:#000000;" x="183.690493671" xlink:href="#C1_0_469a8e29cd" y="167.11955837"/>
    </g>
    <g clip-path="url(#p645335bcb2)">
     <use style="fill:#a6cee3;stroke:#000000;" x="174.036855484" xlink:href="#C1_0_469a8e29cd" y="164.590922738"/>
    </g>
    <g clip-path="url(#p645335bcb2)">
     <use style="fill:#a6cee3;stroke:#000000;" x="206.001606699" xlink:href="#C1_0_469a8e29cd" y="171.017883676"/>
    </g>
    <g clip-path="url(#p645335bcb2)">
     <use style="fill:#a6cee3;stroke:#000000;" x="170.055915138" xlink:href="#C1_0_469a8e29cd" y="178.758127817"/>
    </g>
    <g clip-path="url(#p645335bcb2)">
     <use style="fill:#a6cee3;stroke:#000000;" x="82.8235463326" xlink:href="#C1_0_469a8e29cd" y="160.774766575"/>
    </g>
    <g clip-path="url(#p645335bcb2)">
     <use style="fill:#a6cee3;stroke:#000000;" x="186.837567216" xlink:href="#C1_0_469a8e29cd" y="177.423066854"/>
    </g>
    <g clip-path="url(#p645335bcb2)">
     <use style="fill:#a6cee3;stroke:#000000;" x="229.610349828" xlink:href="#C1_0_469a8e29cd" y="185.917886692"/>
    </g>
    <g clip-path="url(#p645335bcb2)">
     <use style="fill:#a6cee3;stroke:#000000;" x="161.919995599" xlink:href="#C1_0_469a8e29cd" y="170.803492681"/>
    </g>
    <g clip-path="url(#p645335bcb2)">
     <use style="fill:#a6cee3;stroke:#000000;" x="207.17949827" xlink:href="#C1_0_469a8e29cd" y="151.044972344"/>
    </g>
    <g clip-path="url(#p645335bcb2)">
     <use style="fill:#a6cee3;stroke:#000000;" x="165.24330892" xlink:href="#C1_0_469a8e29cd" y="164.060286918"/>
    </g>
    <g clip-path="url(#p645335bcb2)">
     <use style="fill:#a6cee3;stroke:#000000;" x="133.506302881" xlink:href="#C1_0_469a8e29cd" y="192.196924379"/>
    </g>
    <g clip-path="url(#p645335bcb2)">
     <use style="fill:#a6cee3;stroke:#000000;" x="149.938092037" xlink:href="#C1_0_469a8e29cd" y="166.705982535"/>
    </g>
    <g clip-path="url(#p645335bcb2)">
     <use style="fill:#a6cee3;stroke:#000000;" x="197.972847264" xlink:href="#C1_0_469a8e29cd" y="154.22938087"/>
    </g>
    <g clip-path="url(#p645335bcb2)">
     <use style="fill:#a6cee3;stroke:#000000;" x="148.738452867" xlink:href="#C1_0_469a8e29cd" y="172.17658089"/>
    </g>
    <g clip-path="url(#p645335bcb2)">
     <use style="fill:#b15928;stroke:#000000;" x="250.358587936" xlink:href="#C1_0_469a8e29cd" y="137.797940449"/>
    </g>
    <g clip-path="url(#p645335bcb2)">
     <use style="fill:#b15928;stroke:#000000;" x="230.340067289" xlink:href="#C1_0_469a8e29cd" y="97.5925827298"/>
    </g>
    <g clip-path="url(#p645335bcb2)">
     <use style="fill:#b15928;stroke:#000000;" x="266.760768141" xlink:href="#C1_0_469a8e29cd" y="126.085743576"/>
    </g>
    <g clip-path="url(#p645335bcb2)">
     <use style="fill:#b15928;stroke:#000000;" x="244.142192132" xlink:href="#C1_0_469a8e29cd" y="111.5870167"/>
    </g>
    <g clip-path="url(#p645335bcb2)">
     <use style="fill:#b15928;stroke:#000000;" x="233.151545513" xlink:href="#C1_0_469a8e29cd" y="123.398057313"/>
    </g>
    <g clip-path="url(#p645335bcb2)">
     <use style="fill:#b15928;stroke:#000000;" x="255.017981392" xlink:href="#C1_0_469a8e29cd" y="116.245778897"/>
    </g>
    <g clip-path="url(#p645335bcb2)">
     <use style="fill:#b15928;stroke:#000000;" x="266.725676358" xlink:href="#C1_0_469a8e29cd" y="134.942651238"/>
    </g>
    <g clip-path="url(#p645335bcb2)">
     <use style="fill:#b15928;stroke:#000000;" x="281.414962723" xlink:href="#C1_0_469a8e29cd" y="115.751627347"/>
    </g>
    <g clip-path="url(#p645335bcb2)">
     <use style="fill:#b15928;stroke:#000000;" x="284.297269641" xlink:href="#C1_0_469a8e29cd" y="117.252830396"/>
    </g>
    <g clip-path="url(#p645335bcb2)">
     <use style="fill:#b15928;stroke:#000000;" x="262.966269367" xlink:href="#C1_0_469a8e29cd" y="125.187202679"/>
    </g>
    <g clip-path="url(#p645335bcb2)">
     <use style="fill:#b15928;stroke:#000000;" x="261.805476553" xlink:href="#C1_0_469a8e29cd" y="125.149177547"/>
    </g>
    <g clip-path="url(#p645335bcb2)">
     <use style="fill:#b15928;stroke:#000000;" x="257.523511343" xlink:href="#C1_0_469a8e29cd" y="141.450932254"/>
    </g>
    <g clip-path="url(#p645335bcb2)">
     <use style="fill:#b15928;stroke:#000000;" x="287.672933857" xlink:href="#C1_0_469a8e29cd" y="125.652852089"/>
    </g>
    <g clip-path="url(#p645335bcb2)">
     <use style="fill:#b15928;stroke:#000000;" x="232.655417585" xlink:href="#C1_0_469a8e29cd" y="115.340718129"/>
    </g>
    <g clip-path="url(#p645335bcb2)">
     <use style="fill:#b15928;stroke:#000000;" x="254.657864328" xlink:href="#C1_0_469a8e29cd" y="120.241001617"/>
    </g>
    <g clip-path="url(#p645335bcb2)">
     <use style="fill:#b15928;stroke:#000000;" x="304.463592747" xlink:href="#C1_0_469a8e29cd" y="119.322131624"/>
    </g>
    <g clip-path="url(#p645335bcb2)">
     <use style="fill:#b15928;stroke:#000000;" x="316.951940835" xlink:href="#C1_0_469a8e29cd" y="135.589049376"/>
    </g>
    <g clip-path="url(#p645335bcb2)">
     <use style="fill:#b15928;stroke:#000000;" x="294.51854377" xlink:href="#C1_0_469a8e29cd" y="129.028700825"/>
    </g>
    <g clip-path="url(#p645335bcb2)">
     <use style="fill:#b15928;stroke:#000000;" x="255.768828587" xlink:href="#C1_0_469a8e29cd" y="127.764850918"/>
    </g>
    <g clip-path="url(#p645335bcb2)">
     <use style="fill:#b15928;stroke:#000000;" x="272.790201113" xlink:href="#C1_0_469a8e29cd" y="120.190667931"/>
    </g>
   </g>
   <g id="line2d_1">
    <path clip-path="url(#p645335bcb2)" d="M 69.218182 57.321618 
L 75.429685 60.711378 
L 81.641187 64.101138 
L 87.85269 67.490897 
L 94.064193 70.880657 
L 100.275696 74.270417 
L 106.487199 77.660177 
L 112.698701 81.049937 
L 118.910204 84.439697 
L 125.121707 87.829457 
L 131.33321 91.219217 
L 137.544712 94.608977 
L 143.756215 97.998737 
L 149.967718 101.388497 
L 156.179221 104.778257 
L 162.390724 108.168017 
L 168.602226 111.557777 
L 174.813729 114.947537 
L 181.025232 118.337297 
L 187.236735 121.727056 
L 193.448237 125.116816 
L 199.65974 128.506576 
L 205.871243 131.896336 
L 212.082746 135.286096 
L 218.294249 138.675856 
L 224.505751 142.065616 
L 230.717254 145.455376 
L 236.928757 148.845136 
L 243.14026 152.234896 
L 249.351763 155.624656 
L 255.563265 159.014416 
L 261.774768 162.404176 
L 267.986271 165.793936 
L 274.197774 169.183696 
L 280.409276 172.573455 
L 286.620779 175.963215 
L 292.832282 179.352975 
L 299.043785 182.742735 
L 305.255288 186.132495 
L 311.46679 189.522255 
L 317.678293 192.912015 
L 323.889796 196.301775 
L 330.101299 199.691535 
L 336.312801 203.081295 
L 342.524304 206.471055 
L 348.735807 209.860815 
L 354.94731 213.250575 
L 361.158813 216.640335 
L 367.370315 220.030095 
L 373.581818 223.419855 
" style="fill:none;stroke:#000000;stroke-dasharray:6.000000,6.000000;stroke-dashoffset:0.0;"/>
   </g>
   <g id="line2d_2">
    <path clip-path="url(#p645335bcb2)" d="M 69.218182 75.756309 
L 75.429685 79.146069 
L 81.641187 82.535829 
L 87.85269 85.925588 
L 94.064193 89.315348 
L 100.275696 92.705108 
L 106.487199 96.094868 
L 112.698701 99.484628 
L 118.910204 102.874388 
L 125.121707 106.264148 
L 131.33321 109.653908 
L 137.544712 113.043668 
L 143.756215 116.433428 
L 149.967718 119.823188 
L 156.179221 123.212948 
L 162.390724 126.602708 
L 168.602226 129.992468 
L 174.813729 133.382228 
L 181.025232 136.771987 
L 187.236735 140.161747 
L 193.448237 143.551507 
L 199.65974 146.941267 
L 205.871243 150.331027 
L 212.082746 153.720787 
L 218.294249 157.110547 
L 224.505751 160.500307 
L 230.717254 163.890067 
L 236.928757 167.279827 
L 243.14026 170.669587 
L 249.351763 174.059347 
L 255.563265 177.449107 
L 261.774768 180.838867 
L 267.986271 184.228627 
L 274.197774 187.618386 
L 280.409276 191.008146 
L 286.620779 194.397906 
L 292.832282 197.787666 
L 299.043785 201.177426 
L 305.255288 204.567186 
L 311.46679 207.956946 
L 317.678293 211.346706 
L 323.889796 214.736466 
L 330.101299 218.126226 
L 336.312801 221.515986 
L 342.524304 224.905746 
L 348.735807 228.295506 
L 354.94731 231.685266 
L 361.158813 235.075026 
L 367.370315 238.464786 
L 373.581818 241.854545 
" style="fill:none;stroke:#000000;stroke-linecap:square;"/>
   </g>
   <g id="line2d_3">
    <path clip-path="url(#p645335bcb2)" d="M 69.218182 38.945455 
L 75.429685 42.335214 
L 81.641187 45.724974 
L 87.85269 49.114734 
L 94.064193 52.504494 
L 100.275696 55.894254 
L 106.487199 59.284014 
L 112.698701 62.673774 
L 118.910204 66.063534 
L 125.121707 69.453294 
L 131.33321 72.843054 
L 137.544712 76.232814 
L 143.756215 79.622574 
L 149.967718 83.012334 
L 156.179221 86.402094 
L 162.390724 89.791854 
L 168.602226 93.181614 
L 174.813729 96.571373 
L 181.025232 99.961133 
L 187.236735 103.350893 
L 193.448237 106.740653 
L 199.65974 110.130413 
L 205.871243 113.520173 
L 212.082746 116.909933 
L 218.294249 120.299693 
L 224.505751 123.689453 
L 230.717254 127.079213 
L 236.928757 130.468973 
L 243.14026 133.858733 
L 249.351763 137.248493 
L 255.563265 140.638253 
L 261.774768 144.028013 
L 267.986271 147.417772 
L 274.197774 150.807532 
L 280.409276 154.197292 
L 286.620779 157.587052 
L 292.832282 160.976812 
L 299.043785 164.366572 
L 305.255288 167.756332 
L 311.46679 171.146092 
L 317.678293 174.535852 
L 323.889796 177.925612 
L 330.101299 181.315372 
L 336.312801 184.705132 
L 342.524304 188.094892 
L 348.735807 191.484652 
L 354.94731 194.874412 
L 361.158813 198.264171 
L 367.370315 201.653931 
L 373.581818 205.043691 
" style="fill:none;stroke:#000000;stroke-linecap:square;"/>
   </g>
   <g id="patch_3">
    <path d="M 54 28.8 
L 388.8 28.8 
" style="fill:none;stroke:#000000;stroke-linecap:square;stroke-linejoin:miter;"/>
   </g>
   <g id="patch_4">
    <path d="M 388.8 252 
L 388.8 28.8 
" style="fill:none;stroke:#000000;stroke-linecap:square;stroke-linejoin:miter;"/>
   </g>
   <g id="patch_5">
    <path d="M 54 252 
L 388.8 252 
" style="fill:none;stroke:#000000;stroke-linecap:square;stroke-linejoin:miter;"/>
   </g>
   <g id="patch_6">
    <path d="M 54 252 
L 54 28.8 
" style="fill:none;stroke:#000000;stroke-linecap:square;stroke-linejoin:miter;"/>
   </g>
   <g id="matplotlib.axis_1">
    <g id="xtick_1">
     <g id="line2d_4">
      <defs>
       <path d="M 0 0 
L 0 -4 
" id="ma10937c6ea" style="stroke:#000000;stroke-width:0.5;"/>
      </defs>
      <g>
       <use style="stroke:#000000;stroke-width:0.5;" x="99.6545454545" xlink:href="#ma10937c6ea" y="252.0"/>
      </g>
     </g>
     <g id="line2d_5">
      <defs>
       <path d="M 0 0 
L 0 4 
" id="mf296ee865b" style="stroke:#000000;stroke-width:0.5;"/>
      </defs>
      <g>
       <use style="stroke:#000000;stroke-width:0.5;" x="99.6545454545" xlink:href="#mf296ee865b" y="28.8"/>
      </g>
     </g>
     <g id="text_1">
      <!-- −4 -->
      <defs>
       <path d="M 10.59375 35.5 
L 73.1875 35.5 
L 73.1875 27.203125 
L 10.59375 27.203125 
z
" id="BitstreamVeraSans-Roman-2212"/>
       <path d="M 37.796875 64.3125 
L 12.890625 25.390625 
L 37.796875 25.390625 
z
M 35.203125 72.90625 
L 47.609375 72.90625 
L 47.609375 25.390625 
L 58.015625 25.390625 
L 58.015625 17.1875 
L 47.609375 17.1875 
L 47.609375 0 
L 37.796875 0 
L 37.796875 17.1875 
L 4.890625 17.1875 
L 4.890625 26.703125 
z
" id="BitstreamVeraSans-Roman-34"/>
      </defs>
      <g transform="translate(92.2834517045 263.5984375)scale(0.1 -0.1)">
       <use xlink:href="#BitstreamVeraSans-Roman-2212"/>
       <use x="83.7890625" xlink:href="#BitstreamVeraSans-Roman-34"/>
      </g>
     </g>
    </g>
    <g id="xtick_2">
     <g id="line2d_6">
      <g>
       <use style="stroke:#000000;stroke-width:0.5;" x="160.527272727" xlink:href="#ma10937c6ea" y="252.0"/>
      </g>
     </g>
     <g id="line2d_7">
      <g>
       <use style="stroke:#000000;stroke-width:0.5;" x="160.527272727" xlink:href="#mf296ee865b" y="28.8"/>
      </g>
     </g>
     <g id="text_2">
      <!-- −2 -->
      <defs>
       <path d="M 19.1875 8.296875 
L 53.609375 8.296875 
L 53.609375 0 
L 7.328125 0 
L 7.328125 8.296875 
Q 12.9375 14.109375 22.625 23.890625 
Q 32.328125 33.6875 34.8125 36.53125 
Q 39.546875 41.84375 41.421875 45.53125 
Q 43.3125 49.21875 43.3125 52.78125 
Q 43.3125 58.59375 39.234375 62.25 
Q 35.15625 65.921875 28.609375 65.921875 
Q 23.96875 65.921875 18.8125 64.3125 
Q 13.671875 62.703125 7.8125 59.421875 
L 7.8125 69.390625 
Q 13.765625 71.78125 18.9375 73 
Q 24.125 74.21875 28.421875 74.21875 
Q 39.75 74.21875 46.484375 68.546875 
Q 53.21875 62.890625 53.21875 53.421875 
Q 53.21875 48.921875 51.53125 44.890625 
Q 49.859375 40.875 45.40625 35.40625 
Q 44.1875 33.984375 37.640625 27.21875 
Q 31.109375 20.453125 19.1875 8.296875 
" id="BitstreamVeraSans-Roman-32"/>
      </defs>
      <g transform="translate(153.156178977 263.5984375)scale(0.1 -0.1)">
       <use xlink:href="#BitstreamVeraSans-Roman-2212"/>
       <use x="83.7890625" xlink:href="#BitstreamVeraSans-Roman-32"/>
      </g>
     </g>
    </g>
    <g id="xtick_3">
     <g id="line2d_8">
      <g>
       <use style="stroke:#000000;stroke-width:0.5;" x="221.4" xlink:href="#ma10937c6ea" y="252.0"/>
      </g>
     </g>
     <g id="line2d_9">
      <g>
       <use style="stroke:#000000;stroke-width:0.5;" x="221.4" xlink:href="#mf296ee865b" y="28.8"/>
      </g>
     </g>
     <g id="text_3">
      <!-- 0 -->
      <defs>
       <path d="M 31.78125 66.40625 
Q 24.171875 66.40625 20.328125 58.90625 
Q 16.5 51.421875 16.5 36.375 
Q 16.5 21.390625 20.328125 13.890625 
Q 24.171875 6.390625 31.78125 6.390625 
Q 39.453125 6.390625 43.28125 13.890625 
Q 47.125 21.390625 47.125 36.375 
Q 47.125 51.421875 43.28125 58.90625 
Q 39.453125 66.40625 31.78125 66.40625 
M 31.78125 74.21875 
Q 44.046875 74.21875 50.515625 64.515625 
Q 56.984375 54.828125 56.984375 36.375 
Q 56.984375 17.96875 50.515625 8.265625 
Q 44.046875 -1.421875 31.78125 -1.421875 
Q 19.53125 -1.421875 13.0625 8.265625 
Q 6.59375 17.96875 6.59375 36.375 
Q 6.59375 54.828125 13.0625 64.515625 
Q 19.53125 74.21875 31.78125 74.21875 
" id="BitstreamVeraSans-Roman-30"/>
      </defs>
      <g transform="translate(218.21875 263.5984375)scale(0.1 -0.1)">
       <use xlink:href="#BitstreamVeraSans-Roman-30"/>
      </g>
     </g>
    </g>
    <g id="xtick_4">
     <g id="line2d_10">
      <g>
       <use style="stroke:#000000;stroke-width:0.5;" x="282.272727273" xlink:href="#ma10937c6ea" y="252.0"/>
      </g>
     </g>
     <g id="line2d_11">
      <g>
       <use style="stroke:#000000;stroke-width:0.5;" x="282.272727273" xlink:href="#mf296ee865b" y="28.8"/>
      </g>
     </g>
     <g id="text_4">
      <!-- 2 -->
      <g transform="translate(279.091477273 263.5984375)scale(0.1 -0.1)">
       <use xlink:href="#BitstreamVeraSans-Roman-32"/>
      </g>
     </g>
    </g>
    <g id="xtick_5">
     <g id="line2d_12">
      <g>
       <use style="stroke:#000000;stroke-width:0.5;" x="343.145454545" xlink:href="#ma10937c6ea" y="252.0"/>
      </g>
     </g>
     <g id="line2d_13">
      <g>
       <use style="stroke:#000000;stroke-width:0.5;" x="343.145454545" xlink:href="#mf296ee865b" y="28.8"/>
      </g>
     </g>
     <g id="text_5">
      <!-- 4 -->
      <g transform="translate(339.964204545 263.5984375)scale(0.1 -0.1)">
       <use xlink:href="#BitstreamVeraSans-Roman-34"/>
      </g>
     </g>
    </g>
   </g>
   <g id="matplotlib.axis_2">
    <g id="ytick_1">
     <g id="line2d_14">
      <defs>
       <path d="M 0 0 
L 4 0 
" id="maea2b9f1a3" style="stroke:#000000;stroke-width:0.5;"/>
      </defs>
      <g>
       <use style="stroke:#000000;stroke-width:0.5;" x="54.0" xlink:href="#maea2b9f1a3" y="204.353541099"/>
      </g>
     </g>
     <g id="line2d_15">
      <defs>
       <path d="M 0 0 
L -4 0 
" id="meacac77c00" style="stroke:#000000;stroke-width:0.5;"/>
      </defs>
      <g>
       <use style="stroke:#000000;stroke-width:0.5;" x="388.8" xlink:href="#meacac77c00" y="204.353541099"/>
      </g>
     </g>
     <g id="text_6">
      <!-- −5 -->
      <defs>
       <path d="M 10.796875 72.90625 
L 49.515625 72.90625 
L 49.515625 64.59375 
L 19.828125 64.59375 
L 19.828125 46.734375 
Q 21.96875 47.46875 24.109375 47.828125 
Q 26.265625 48.1875 28.421875 48.1875 
Q 40.625 48.1875 47.75 41.5 
Q 54.890625 34.8125 54.890625 23.390625 
Q 54.890625 11.625 47.5625 5.09375 
Q 40.234375 -1.421875 26.90625 -1.421875 
Q 22.3125 -1.421875 17.546875 -0.640625 
Q 12.796875 0.140625 7.71875 1.703125 
L 7.71875 11.625 
Q 12.109375 9.234375 16.796875 8.0625 
Q 21.484375 6.890625 26.703125 6.890625 
Q 35.15625 6.890625 40.078125 11.328125 
Q 45.015625 15.765625 45.015625 23.390625 
Q 45.015625 31 40.078125 35.4375 
Q 35.15625 39.890625 26.703125 39.890625 
Q 22.75 39.890625 18.8125 39.015625 
Q 14.890625 38.140625 10.796875 36.28125 
z
" id="BitstreamVeraSans-Roman-35"/>
      </defs>
      <g transform="translate(35.2578125 207.112916099)scale(0.1 -0.1)">
       <use xlink:href="#BitstreamVeraSans-Roman-2212"/>
       <use x="83.7890625" xlink:href="#BitstreamVeraSans-Roman-35"/>
      </g>
     </g>
    </g>
    <g id="ytick_2">
     <g id="line2d_16">
      <g>
       <use style="stroke:#000000;stroke-width:0.5;" x="54.0" xlink:href="#maea2b9f1a3" y="144.7157144"/>
      </g>
     </g>
     <g id="line2d_17">
      <g>
       <use style="stroke:#000000;stroke-width:0.5;" x="388.8" xlink:href="#meacac77c00" y="144.7157144"/>
      </g>
     </g>
     <g id="text_7">
      <!-- 0 -->
      <g transform="translate(43.6375 147.4750894)scale(0.1 -0.1)">
       <use xlink:href="#BitstreamVeraSans-Roman-30"/>
      </g>
     </g>
    </g>
    <g id="ytick_3">
     <g id="line2d_18">
      <g>
       <use style="stroke:#000000;stroke-width:0.5;" x="54.0" xlink:href="#maea2b9f1a3" y="85.0778877002"/>
      </g>
     </g>
     <g id="line2d_19">
      <g>
       <use style="stroke:#000000;stroke-width:0.5;" x="388.8" xlink:href="#meacac77c00" y="85.0778877002"/>
      </g>
     </g>
     <g id="text_8">
      <!-- 5 -->
      <g transform="translate(43.6375 87.8372627002)scale(0.1 -0.1)">
       <use xlink:href="#BitstreamVeraSans-Roman-35"/>
      </g>
     </g>
    </g>
   </g>
  </g>
 </g>
 <defs>
  <clipPath id="p645335bcb2">
   <rect height="223.2" width="334.8" x="54.0" y="28.8"/>
  </clipPath>
 </defs>
</svg>
