<?xml version="1.0" encoding="UTF-8" standalone="no"?>
<!-- Created with Inkscape (http://www.inkscape.org/) -->
<svg
   xmlns:dc="http://purl.org/dc/elements/1.1/"
   xmlns:cc="http://web.resource.org/cc/"
   xmlns:rdf="http://www.w3.org/1999/02/22-rdf-syntax-ns#"
   xmlns:svg="http://www.w3.org/2000/svg"
   xmlns="http://www.w3.org/2000/svg"
   xmlns:sodipodi="http://sodipodi.sourceforge.net/DTD/sodipodi-0.dtd"
   xmlns:inkscape="http://www.inkscape.org/namespaces/inkscape"
   width="352.2514"
   height="426.33762"
   id="svg2"
   sodipodi:version="0.32"
   inkscape:version="0.45.1"
   version="1.0"
   inkscape:export-filename="C:\Documents and Settings\user\Desktop\neuron.png"
   inkscape:export-xdpi="90"
   inkscape:export-ydpi="90"
   sodipodi:docbase="C:\Documents and Settings\user\My Documents\School\Fall 2007\Artificial Intellegence"
   sodipodi:docname="neuron.svg"
   inkscape:output_extension="org.inkscape.output.svg.inkscape">
  <defs
     id="defs4" />
  <sodipodi:namedview
     id="base"
     pagecolor="#ffffff"
     bordercolor="#666666"
     borderopacity="1.0"
     gridtolerance="10000"
     guidetolerance="10"
     objecttolerance="10"
     inkscape:pageopacity="0.0"
     inkscape:pageshadow="2"
     inkscape:zoom="1.4"
     inkscape:cx="254.02815"
     inkscape:cy="120"
     inkscape:document-units="px"
     inkscape:current-layer="layer1"
     inkscape:window-width="1024"
     inkscape:window-height="721"
     inkscape:window-x="-4"
     inkscape:window-y="-4" />
  <metadata
     id="metadata7">
    <rdf:RDF>
      <cc:Work
         rdf:about="">
        <dc:format>image/svg+xml</dc:format>
        <dc:type
           rdf:resource="http://purl.org/dc/dcmitype/StillImage" />
      </cc:Work>
    </rdf:RDF>
  </metadata>
  <g
     inkscape:label="Layer 1"
     inkscape:groupmode="layer"
     id="layer1"
     transform="translate(-66.529851,-131.84879)">
    <path
       sodipodi:type="arc"
       style="fill:#0000ff;fill-opacity:0;stroke:#797979;stroke-width:2;stroke-miterlimit:4;stroke-dasharray:none;stroke-dashoffset:0;stroke-opacity:1"
       id="path2160"
       sodipodi:cx="257.14285"
       sodipodi:cy="355.21933"
       sodipodi:rx="85.714287"
       sodipodi:ry="85.714287"
       d="M 342.85714 355.21933 A 85.714287 85.714287 0 1 1  171.42857,355.21933 A 85.714287 85.714287 0 1 1  342.85714 355.21933 z" />
    <path
       style="fill:none;fill-rule:evenodd;stroke:#000000;stroke-width:1px;stroke-linecap:butt;stroke-linejoin:miter;stroke-opacity:1"
       d="M 174.28571,166.6479 L 204.28571,288.07647"
       id="path2162" />
    <path
       style="fill:none;fill-rule:evenodd;stroke:#000000;stroke-width:1px;stroke-linecap:butt;stroke-linejoin:miter;stroke-opacity:1"
       d="M 245.71429,163.79075 L 251.42857,269.50504"
       id="path2164" />
    <path
       style="fill:none;fill-rule:evenodd;stroke:#000000;stroke-width:1px;stroke-linecap:butt;stroke-linejoin:miter;stroke-opacity:1"
       d="M 340,163.79075 L 294.28571,278.07647"
       id="path2166" />
    <path
       style="fill:none;fill-rule:evenodd;stroke:#000000;stroke-width:1px;stroke-linecap:butt;stroke-linejoin:miter;stroke-opacity:1"
       d="M 400,209.50504 L 331.42857,313.79075"
       id="path2168" />
    <path
       style="fill:none;fill-rule:evenodd;stroke:#000000;stroke-width:1px;stroke-linecap:butt;stroke-linejoin:miter;stroke-opacity:1"
       d="M 257.14286,556.6479 L 257.14286,439.50504"
       id="path2172" />
    <path
       style="fill:none;fill-rule:evenodd;stroke:#000000;stroke-width:1px;stroke-linecap:butt;stroke-linejoin:miter;stroke-opacity:1"
       d="M 80,212.36218 L 182.85714,306.6479"
       id="path2174" />
    <path
       style="fill:none;fill-rule:evenodd;stroke:#000000;stroke-width:1;stroke-linecap:butt;stroke-linejoin:miter;stroke-miterlimit:4;stroke-dasharray:1, 2;stroke-dashoffset:0;stroke-opacity:1"
       d="M 171.42857,356.6479 L 344.28571,355.21933"
       id="path2176" />
    <path
       style="font-size:16px;font-style:normal;font-weight:normal;fill:#000000;fill-opacity:1;stroke:none;stroke-width:1px;stroke-linecap:butt;stroke-linejoin:miter;stroke-opacity:1;font-family:Bitstream Vera Sans"
       d="M 277.58118,553.78406 C 276.87023,555.60697 276.17752,556.79642 275.50305,557.35242 C 274.82857,557.9084 273.92622,558.1864 272.79602,558.1864 L 270.78625,558.1864 L 270.78625,556.08093 L 272.26282,556.08093 C 272.95552,556.08093 273.49328,555.91687 273.8761,555.58875 C 274.25891,555.26062 274.68273,554.48588 275.14758,553.26453 L 275.59875,552.11609 L 269.4054,537.04968 L 272.07141,537.04968 L 276.85657,549.02625 L 281.64172,537.04968 L 284.30774,537.04968 L 277.58118,553.78406 z "
       id="text3149" />
    <path
       transform="translate(-375.71429,35.714286)"
       style=""
       d="M 456.80469,143.48196 L 451.26758,150.93313 L 457.0918,158.79446 L 454.125,158.79446 L 449.66797,152.77884 L 445.21094,158.79446 L 442.24414,158.79446 L 448.19141,150.78274 L 442.75,143.48196 L 445.7168,143.48196 L 449.77734,148.93704 L 453.83789,143.48196 L 456.80469,143.48196 z "
       id="flowRoot3153" />
    <path
       style="font-size:16px;font-style:normal;font-weight:normal;fill:#000000;fill-opacity:1;stroke:none;stroke-width:1px;stroke-linecap:butt;stroke-linejoin:miter;stroke-opacity:1;font-family:Bitstream Vera Sans"
       d="M 84.841499,201.03406 L 87.419624,201.03406 L 87.419624,192.13562 L 84.614937,192.69812 L 84.614937,191.26062 L 87.403999,190.69812 L 88.982124,190.69812 L 88.982124,201.03406 L 91.560249,201.03406 L 91.560249,202.36218 L 84.841499,202.36218 L 84.841499,201.03406 z "
       id="text3161" />
    <path
       style="font-size:16px;font-style:normal;font-weight:normal;fill:#000000;fill-opacity:1;stroke:none;stroke-width:1px;stroke-linecap:butt;stroke-linejoin:miter;stroke-opacity:1;font-family:Bitstream Vera Sans"
       d="M 189.07028,155.60548 L 194.57809,155.60548 L 194.57809,156.93361 L 187.17184,156.93361 L 187.17184,155.60548 C 187.7708,154.98569 188.58721,154.15366 189.62106,153.10939 C 190.65491,152.06512 191.30465,151.39195 191.57028,151.08986 C 192.07548,150.52216 192.42835,150.04169 192.62888,149.64845 C 192.82939,149.25523 192.92965,148.86851 192.92966,148.4883 C 192.92965,147.86851 192.7122,147.36331 192.27731,146.97267 C 191.84241,146.58206 191.27601,146.38674 190.57809,146.38673 C 190.0833,146.38674 189.56116,146.47268 189.01169,146.64455 C 188.46221,146.81643 187.87497,147.07685 187.24997,147.4258 L 187.24997,145.83205 C 187.88538,145.57685 188.47913,145.38414 189.03122,145.25392 C 189.5833,145.12372 190.08851,145.05862 190.54684,145.05861 C 191.75517,145.05862 192.71871,145.3607 193.43747,145.96486 C 194.15621,146.56904 194.51559,147.37633 194.51559,148.38673 C 194.51559,148.86591 194.42574,149.32034 194.24606,149.75002 C 194.06637,150.17971 193.73955,150.68622 193.26559,151.26955 C 193.13538,151.42059 192.72132,151.85679 192.02341,152.57814 C 191.32548,153.2995 190.34111,154.30861 189.07028,155.60548 L 189.07028,155.60548 z "
       id="text3165" />
    <path
       style="font-size:16px;font-style:normal;font-weight:normal;fill:#000000;fill-opacity:1;stroke:none;stroke-width:1px;stroke-linecap:butt;stroke-linejoin:miter;stroke-opacity:1;font-family:Bitstream Vera Sans"
       d="M 262.20651,147.50169 C 262.96171,147.66316 263.55156,147.9991 263.97604,148.50951 C 264.40051,149.01993 264.61275,149.65014 264.61276,150.40013 C 264.61275,151.55118 264.21692,152.4418 263.42526,153.07201 C 262.63359,153.70221 261.50859,154.01732 260.05026,154.01732 C 259.56068,154.01732 259.05677,153.96914 258.53854,153.87279 C 258.02031,153.77643 257.48516,153.6319 256.93307,153.43919 L 256.93307,151.91576 C 257.37057,152.17097 257.84974,152.36367 258.37057,152.49388 C 258.89141,152.62409 259.43568,152.68919 260.00339,152.68919 C 260.99297,152.68919 261.74687,152.49388 262.26511,152.10326 C 262.78333,151.71263 263.04244,151.14493 263.04245,150.40013 C 263.04244,149.71264 262.80156,149.17488 262.31979,148.78685 C 261.83802,148.39883 261.16744,148.20482 260.30807,148.20482 L 258.9487,148.20482 L 258.9487,146.90794 L 260.37057,146.90794 C 261.14661,146.90795 261.74036,146.753 262.15182,146.4431 C 262.56328,146.13321 262.76901,145.6866 262.76901,145.10326 C 262.76901,144.50431 262.55677,144.04467 262.13229,143.72435 C 261.70781,143.40405 261.09974,143.24389 260.30807,143.24388 C 259.87578,143.24389 259.41224,143.29077 258.91745,143.38451 C 258.42266,143.47827 257.87839,143.6241 257.28464,143.82201 L 257.28464,142.41576 C 257.88359,142.2491 258.44479,142.1241 258.96823,142.04076 C 259.49166,141.95743 259.98515,141.91577 260.4487,141.91576 C 261.64661,141.91577 262.59453,142.1879 263.29245,142.73216 C 263.99036,143.27644 264.33932,144.01212 264.33932,144.93919 C 264.33932,145.58504 264.15442,146.13061 263.78464,146.57591 C 263.41484,147.02123 262.8888,147.32983 262.20651,147.50169 L 262.20651,147.50169 z "
       id="text3169" />
    <path
       style="font-size:16px;font-style:normal;font-weight:normal;fill:#000000;fill-opacity:1;stroke:none;stroke-width:1px;stroke-linecap:butt;stroke-linejoin:miter;stroke-opacity:1;font-family:Bitstream Vera Sans"
       d="M 354.61832,150.64456 L 350.63394,156.87112 L 354.61832,156.87112 L 354.61832,150.64456 z M 354.20425,149.26956 L 356.18863,149.26956 L 356.18863,156.87112 L 357.85269,156.87112 L 357.85269,158.18362 L 356.18863,158.18362 L 356.18863,160.93362 L 354.61832,160.93362 L 354.61832,158.18362 L 349.35269,158.18362 L 349.35269,156.66019 L 354.20425,149.26956 z "
       id="text3173" />
    <path
       style="font-size:16px;font-style:normal;font-weight:normal;fill:#000000;fill-opacity:1;stroke:none;stroke-width:1px;stroke-linecap:butt;stroke-linejoin:miter;stroke-opacity:1;font-family:Bitstream Vera Sans"
       d="M 411.72656,190.69812 L 417.92188,190.69812 L 417.92188,192.02625 L 413.17188,192.02625 L 413.17188,194.88562 C 413.40104,194.8075 413.6302,194.74891 413.85938,194.70984 C 414.08854,194.67078 414.3177,194.65125 414.54688,194.65125 C 415.84895,194.65125 416.8802,195.00802 417.64063,195.72156 C 418.40103,196.43511 418.78124,197.40125 418.78125,198.62 C 418.78124,199.87521 418.39062,200.85047 417.60938,201.54578 C 416.82812,202.24109 415.72656,202.58874 414.30469,202.58875 C 413.8151,202.58874 413.3164,202.54708 412.80859,202.46375 C 412.30078,202.38041 411.77604,202.25541 411.23438,202.08875 L 411.23438,200.50281 C 411.70312,200.75802 412.1875,200.94812 412.6875,201.07312 C 413.1875,201.19812 413.71614,201.26062 414.27344,201.26062 C 415.17447,201.26062 415.88801,201.02364 416.41406,200.54968 C 416.9401,200.07573 417.20312,199.4325 417.20313,198.62 C 417.20312,197.8075 416.9401,197.16427 416.41406,196.69031 C 415.88801,196.21636 415.17447,195.97938 414.27344,195.97937 C 413.85156,195.97938 413.43099,196.02625 413.01172,196.12 C 412.59245,196.21375 412.16406,196.35958 411.72656,196.5575 L 411.72656,190.69812 z "
       id="text3177" />
    <path
       transform="translate(-272.52511,-8.7760295)"
       style=""
       d="M 456.80469,143.48196 L 451.26758,150.93313 L 457.0918,158.79446 L 454.125,158.79446 L 449.66797,152.77884 L 445.21094,158.79446 L 442.24414,158.79446 L 448.19141,150.78274 L 442.75,143.48196 L 445.7168,143.48196 L 449.77734,148.93704 L 453.83789,143.48196 L 456.80469,143.48196 z "
       id="flowRoot3181" />
    <path
       transform="translate(-201.09654,-11.633172)"
       style=""
       d="M 456.80469,143.48196 L 451.26758,150.93313 L 457.0918,158.79446 L 454.125,158.79446 L 449.66797,152.77884 L 445.21094,158.79446 L 442.24414,158.79446 L 448.19141,150.78274 L 442.75,143.48196 L 445.7168,143.48196 L 449.77734,148.93704 L 453.83789,143.48196 L 456.80469,143.48196 z "
       id="flowRoot3189" />
    <path
       transform="translate(-106.81083,-4.4903148)"
       style=""
       d="M 456.80469,143.48196 L 451.26758,150.93313 L 457.0918,158.79446 L 454.125,158.79446 L 449.66797,152.77884 L 445.21094,158.79446 L 442.24414,158.79446 L 448.19141,150.78274 L 442.75,143.48196 L 445.7168,143.48196 L 449.77734,148.93704 L 453.83789,143.48196 L 456.80469,143.48196 z "
       id="flowRoot3197" />
    <path
       transform="translate(-45.38225,38.366827)"
       style=""
       d="M 456.80469,143.48196 L 451.26758,150.93313 L 457.0918,158.79446 L 454.125,158.79446 L 449.66797,152.77884 L 445.21094,158.79446 L 442.24414,158.79446 L 448.19141,150.78274 L 442.75,143.48196 L 445.7168,143.48196 L 449.77734,148.93704 L 453.83789,143.48196 L 456.80469,143.48196 z "
       id="flowRoot3205" />
    <path
       transform="translate(5.7142861,2.8571429)"
       style=""
       d="M 207.48047,308.57184 L 216.39453,308.57184 L 216.39453,310.23981 C 213.9427,311.75285 211.88508,313.73299 210.22168,316.18024 C 208.55826,318.62751 207.72656,320.89021 207.72656,322.96832 C 207.72656,324.06208 207.97265,324.87327 208.46484,325.40192 C 208.95703,325.93057 209.75455,326.24046 210.85742,326.3316 C 212.27929,326.45921 213.28873,326.61644 213.88574,326.80328 C 214.48274,326.99013 215.00455,327.37295 215.45117,327.95172 C 215.89777,328.5305 216.12108,329.22548 216.12109,330.03668 C 216.12108,330.92079 215.84764,331.73655 215.30078,332.48395 C 214.7539,333.23134 214.12271,333.75543 213.40723,334.05621 C 212.69172,334.35699 211.819,334.50738 210.78906,334.50739 L 211.45898,332.23785 C 212.99023,332.06467 213.75585,331.4221 213.75586,330.31012 C 213.75585,329.93642 213.6328,329.6083 213.38672,329.32574 C 213.14062,329.04319 212.83984,328.8609 212.48438,328.77887 C 212.1289,328.69684 211.45442,328.63759 210.46094,328.60114 C 209.08463,328.56468 208.04785,328.28896 207.35059,327.77399 C 206.65332,327.25901 206.13151,326.5777 205.78516,325.73004 C 205.4388,324.88239 205.26562,323.92536 205.26563,322.85895 C 205.26562,320.6988 206.04492,318.47256 207.60352,316.18024 C 209.1621,313.88793 211.01692,312.01717 213.16797,310.56793 L 207.48047,310.56793 L 207.48047,308.57184 z M 239.19922,316.82965 L 225.96484,316.82965 L 225.96484,314.53278 L 239.19922,314.53278 L 239.19922,316.82965 z M 239.19922,322.91364 L 225.96484,322.91364 L 225.96484,320.61676 L 239.19922,320.61676 L 239.19922,322.91364 z M 264.17773,308.57184 L 264.17773,310.93707 L 253.41797,310.93707 L 260.25391,318.21051 L 253.41797,326.24957 L 264.73828,326.24957 L 264.73828,328.61481 L 250.54688,328.61481 L 250.54688,325.85309 L 257.0957,318.21051 L 250.54688,311.23785 L 250.54688,308.57184 L 264.17773,308.57184 z M 270.38477,328.61481 L 265.94141,314.09528 L 268.48438,314.09528 L 270.79492,322.47614 L 271.65625,325.59332 C 271.6927,325.43838 271.94335,324.44033 272.4082,322.59918 L 274.71875,314.09528 L 277.24805,314.09528 L 279.42188,322.51715 L 280.14648,325.29254 L 280.98047,322.48981 L 283.46875,314.09528 L 285.86133,314.09528 L 281.32227,328.61481 L 278.76563,328.61481 L 276.45508,319.91949 L 275.89453,317.44489 L 272.95508,328.61481 L 270.38477,328.61481 z M 286.29883,328.61481 L 291.60352,321.06793 L 286.69531,314.09528 L 289.77148,314.09528 L 292,317.49957 C 292.41926,318.14672 292.7565,318.68904 293.01172,319.12653 C 293.41275,318.52497 293.78189,317.99177 294.11914,317.52692 L 296.56641,314.09528 L 299.50586,314.09528 L 294.48828,320.93121 L 299.88867,328.61481 L 296.86719,328.61481 L 293.88672,324.10309 L 293.09375,322.88629 L 289.2793,328.61481 L 286.29883,328.61481 z "
       id="flowRoot3213" />
    <path
       style=""
       d="M 208.89258,404.2066 L 208.61914,401.89606 C 209.1569,402.04189 209.6263,402.1148 210.02734,402.11481 C 210.57422,402.1148 211.01171,402.02366 211.33984,401.84137 C 211.66796,401.65908 211.93684,401.40387 212.14648,401.07574 C 212.30143,400.82965 212.55208,400.21897 212.89844,399.24371 C 212.944,399.10699 213.01692,398.90647 213.11719,398.64215 L 207.60742,384.09528 L 210.25977,384.09528 L 213.28125,392.50348 C 213.67317,393.56989 214.02408,394.69098 214.33398,395.86676 C 214.61653,394.73656 214.95377,393.63369 215.3457,392.55817 L 218.44922,384.09528 L 220.91016,384.09528 L 215.38672,398.8609 C 214.79426,400.45595 214.33398,401.55426 214.00586,402.15582 C 213.56835,402.96702 213.06705,403.56174 212.50195,403.94 C 211.93684,404.31825 211.26237,404.50738 210.47852,404.50739 C 210.00455,404.50738 209.47591,404.40712 208.89258,404.2066 L 208.89258,404.2066 z M 243.71484,386.82965 L 230.48047,386.82965 L 230.48047,384.53278 L 243.71484,384.53278 L 243.71484,386.82965 z M 243.71484,392.91364 L 230.48047,392.91364 L 230.48047,390.61676 L 243.71484,390.61676 L 243.71484,392.91364 z M 269.70508,384.09528 L 269.70508,386.09137 L 265.75391,386.09137 C 266.96613,387.22159 267.57225,388.9807 267.57227,391.36871 C 267.57225,393.96637 266.90917,395.87816 265.58301,397.10407 C 264.25682,398.32998 262.64582,398.94293 260.75,398.94293 C 258.78124,398.94293 257.15885,398.30491 255.88281,397.02887 C 254.60677,395.75283 253.96875,393.86156 253.96875,391.35504 C 253.96875,388.77562 254.63183,386.86612 255.95801,385.62653 C 257.28418,384.38696 258.8815,383.76717 260.75,383.76715 C 261.43359,383.76717 262.20832,383.87654 263.07422,384.09528 L 269.70508,384.09528 z M 260.70898,385.80426 C 259.51497,385.80427 258.51464,386.26912 257.70801,387.19879 C 256.90136,388.12849 256.49804,389.51846 256.49805,391.36871 C 256.49804,393.20986 256.89225,394.59528 257.68066,395.52496 C 258.46907,396.45465 259.49218,396.9195 260.75,396.91949 C 262.07161,396.9195 263.12206,396.43415 263.90137,395.46344 C 264.68065,394.49274 265.0703,393.12328 265.07031,391.35504 C 265.0703,389.74177 264.71255,388.41332 263.99707,387.36969 C 263.28157,386.32608 262.18554,385.80427 260.70898,385.80426 L 260.70898,385.80426 z M 276.86914,404.50739 C 275.51106,402.79384 274.36263,400.78863 273.42383,398.49176 C 272.48502,396.19489 272.01562,393.81598 272.01563,391.35504 C 272.01562,389.18578 272.36653,387.10766 273.06836,385.12067 C 273.88867,382.81469 275.15559,380.51782 276.86914,378.23004 L 278.63281,378.23004 C 277.52994,380.12589 276.80077,381.47941 276.44531,382.29059 C 275.88932,383.54842 275.45182,384.86091 275.13281,386.22809 C 274.74088,387.93253 274.54492,389.64607 274.54492,391.36871 C 274.54492,395.75283 275.90755,400.13238 278.63281,404.50739 L 276.86914,404.50739 z M 282.87109,378.57184 L 291.78516,378.57184 L 291.78516,380.23981 C 289.33332,381.75285 287.27571,383.73299 285.6123,386.18024 C 283.94889,388.62751 283.11718,390.89021 283.11719,392.96832 C 283.11718,394.06208 283.36328,394.87327 283.85547,395.40192 C 284.34765,395.93057 285.14518,396.24046 286.24805,396.3316 C 287.66991,396.45921 288.67935,396.61644 289.27637,396.80328 C 289.87336,396.99013 290.39517,397.37295 290.8418,397.95172 C 291.2884,398.5305 291.51171,399.22548 291.51172,400.03668 C 291.51171,400.92079 291.23827,401.73655 290.69141,402.48395 C 290.14452,403.23134 289.51334,403.75543 288.79785,404.05621 C 288.08235,404.35699 287.20963,404.50738 286.17969,404.50739 L 286.84961,402.23785 C 288.38085,402.06467 289.14647,401.4221 289.14648,400.31012 C 289.14647,399.93642 289.02343,399.6083 288.77734,399.32574 C 288.53124,399.04319 288.23046,398.8609 287.875,398.77887 C 287.51952,398.69684 286.84504,398.63759 285.85156,398.60114 C 284.47526,398.56468 283.43847,398.28896 282.74121,397.77399 C 282.04394,397.25901 281.52213,396.5777 281.17578,395.73004 C 280.82943,394.88239 280.65625,393.92536 280.65625,392.85895 C 280.65625,390.6988 281.43555,388.47256 282.99414,386.18024 C 284.55273,383.88793 286.40755,382.01717 288.55859,380.56793 L 282.87109,380.56793 L 282.87109,378.57184 z M 295.49023,404.50739 L 293.72656,404.50739 C 296.45182,400.13238 297.81445,395.75283 297.81445,391.36871 C 297.81445,389.65518 297.61848,387.95531 297.22656,386.2691 C 296.91666,384.90193 296.48372,383.58943 295.92773,382.3316 C 295.57226,381.51131 294.83854,380.14412 293.72656,378.23004 L 295.49023,378.23004 C 297.20377,380.51782 298.4707,382.81469 299.29102,385.12067 C 299.99283,387.10766 300.34374,389.18578 300.34375,391.35504 C 300.34374,393.81598 299.87206,396.19489 298.92871,398.49176 C 297.98535,400.78863 296.83919,402.79384 295.49023,404.50739 L 295.49023,404.50739 z "
       id="flowRoot3221" />
  </g>
</svg>
