<?xml version="1.0" encoding="UTF-8" standalone="no"?>
<!DOCTYPE svg PUBLIC "-//W3C//DTD SVG 1.1//EN"
 "http://www.w3.org/Graphics/SVG/1.1/DTD/svg11.dtd">
<!-- Generated by graphviz version 2.38.0 (20140413.2041)
 -->
<!-- Title: G Pages: 1 -->
<svg width="290pt" height="206pt"
 viewBox="0.00 0.00 290.00 206.00" xmlns="http://www.w3.org/2000/svg" xmlns:xlink="http://www.w3.org/1999/xlink">
<g id="graph0" class="graph" transform="scale(1 1) rotate(0) translate(4 202)">
<title>G</title>
<polygon fill="white" stroke="none" points="-4,4 -4,-202 286,-202 286,4 -4,4"/>
<g id="clust1" class="cluster"><title>cluster_0</title>
<polygon fill="none" stroke="white" points="0,-8 0,-190 128,-190 128,-8 0,-8"/>
<text text-anchor="middle" x="64" y="-174.8" font-family="Times,serif" font-size="14.00">layer 1 (Input layer)</text>
</g>
<g id="clust2" class="cluster"><title>cluster_1</title>
<polygon fill="none" stroke="white" points="148,-62 148,-136 282,-136 282,-62 148,-62"/>
<text text-anchor="middle" x="215" y="-120.8" font-family="Times,serif" font-size="14.00">layer 2 (output layer)</text>
</g>
<!-- x1 -->
<g id="node1" class="node"><title>x1</title>
<ellipse fill="none" stroke="#00008b" cx="64" cy="-142" rx="18" ry="18"/>
<text text-anchor="middle" x="64" y="-137.8" font-family="Times,serif" font-size="14.00">x1</text>
</g>
<!-- O -->
<g id="node4" class="node"><title>O</title>
<ellipse fill="none" stroke="#4eee94" cx="215" cy="-88" rx="18" ry="18"/>
<text text-anchor="middle" x="215" y="-83.8" font-family="Times,serif" font-size="14.00">O</text>
</g>
<!-- x1&#45;&gt;O -->
<g id="edge1" class="edge"><title>x1&#45;&gt;O</title>
<path fill="none" stroke="black" d="M81.2293,-136.118C106.98,-126.786 157.423,-108.504 188.179,-97.3578"/>
<polygon fill="black" stroke="black" points="189.582,-100.572 197.791,-93.8745 187.197,-93.9913 189.582,-100.572"/>
</g>
<!-- x2 -->
<g id="node2" class="node"><title>x2</title>
<ellipse fill="none" stroke="#00008b" cx="64" cy="-88" rx="18" ry="18"/>
<text text-anchor="middle" x="64" y="-83.8" font-family="Times,serif" font-size="14.00">x2</text>
</g>
<!-- x2&#45;&gt;O -->
<g id="edge2" class="edge"><title>x2&#45;&gt;O</title>
<path fill="none" stroke="black" d="M82.0922,-88C107.554,-88 155.716,-88 186.265,-88"/>
<polygon fill="black" stroke="black" points="186.648,-91.5001 196.648,-88 186.648,-84.5001 186.648,-91.5001"/>
</g>
<!-- x3 -->
<g id="node3" class="node"><title>x3</title>
<ellipse fill="none" stroke="#00008b" cx="64" cy="-34" rx="18" ry="18"/>
<text text-anchor="middle" x="64" y="-29.8" font-family="Times,serif" font-size="14.00">x3</text>
</g>
<!-- x3&#45;&gt;O -->
<g id="edge3" class="edge"><title>x3&#45;&gt;O</title>
<path fill="none" stroke="black" d="M81.2293,-39.8817C106.98,-49.2141 157.423,-67.4957 188.179,-78.6422"/>
<polygon fill="black" stroke="black" points="187.197,-82.0087 197.791,-82.1255 189.582,-75.4276 187.197,-82.0087"/>
</g>
</g>
</svg>
