<?xml version="1.0" encoding="UTF-8" standalone="no"?>
<!DOCTYPE svg PUBLIC "-//W3C//DTD SVG 1.1//EN"
 "http://www.w3.org/Graphics/SVG/1.1/DTD/svg11.dtd">
<!-- Generated by graphviz version 2.38.0 (20140413.2041)
 -->
<!-- Title: G Pages: 1 -->
<svg width="446pt" height="206pt"
 viewBox="0.00 0.00 446.00 206.00" xmlns="http://www.w3.org/2000/svg" xmlns:xlink="http://www.w3.org/1999/xlink">
<g id="graph0" class="graph" transform="scale(1 1) rotate(0) translate(4 202)">
<title>G</title>
<polygon fill="white" stroke="none" points="-4,4 -4,-202 442,-202 442,4 -4,4"/>
<g id="clust1" class="cluster"><title>cluster_0</title>
<polygon fill="none" stroke="white" points="0,-8 0,-190 128,-190 128,-8 0,-8"/>
<text text-anchor="middle" x="64" y="-174.8" font-family="Times,serif" font-size="14.00">layer 1 (Input layer)</text>
</g>
<g id="clust2" class="cluster"><title>cluster_1</title>
<polygon fill="none" stroke="white" points="148,-8 148,-190 284,-190 284,-8 148,-8"/>
<text text-anchor="middle" x="216" y="-174.8" font-family="Times,serif" font-size="14.00">layer 2 (hidden layer)</text>
</g>
<g id="clust3" class="cluster"><title>cluster_2</title>
<polygon fill="none" stroke="white" points="304,-62 304,-136 438,-136 438,-62 304,-62"/>
<text text-anchor="middle" x="371" y="-120.8" font-family="Times,serif" font-size="14.00">layer 3 (output layer)</text>
</g>
<!-- x1 -->
<g id="node1" class="node"><title>x1</title>
<ellipse fill="none" stroke="#00008b" cx="64" cy="-88" rx="18" ry="18"/>
<text text-anchor="middle" x="64" y="-83.8" font-family="Times,serif" font-size="14.00">x2</text>
</g>
<!-- a12 -->
<g id="node4" class="node"><title>a12</title>
<ellipse fill="none" stroke="#ee0000" cx="216" cy="-34" rx="18" ry="18"/>
</g>
<!-- x1&#45;&gt;a12 -->
<g id="edge1" class="edge"><title>x1&#45;&gt;a12</title>
<path fill="none" stroke="black" d="M81.0526,-82.2211C106.855,-72.9321 157.805,-54.5903 188.892,-43.3989"/>
<polygon fill="black" stroke="black" points="190.385,-46.5815 198.608,-39.9011 188.014,-39.9952 190.385,-46.5815"/>
</g>
<!-- a22 -->
<g id="node5" class="node"><title>a22</title>
<ellipse fill="none" stroke="#ee0000" cx="216" cy="-142" rx="18" ry="18"/>
</g>
<!-- x1&#45;&gt;a22 -->
<g id="edge2" class="edge"><title>x1&#45;&gt;a22</title>
<path fill="none" stroke="black" d="M81.0526,-93.7789C106.855,-103.068 157.805,-121.41 188.892,-132.601"/>
<polygon fill="black" stroke="black" points="188.014,-136.005 198.608,-136.099 190.385,-129.419 188.014,-136.005"/>
</g>
<!-- a32 -->
<g id="node6" class="node"><title>a32</title>
<ellipse fill="none" stroke="#ee0000" cx="216" cy="-88" rx="18" ry="18"/>
</g>
<!-- x1&#45;&gt;a32 -->
<g id="edge3" class="edge"><title>x1&#45;&gt;a32</title>
<path fill="none" stroke="black" d="M82.2069,-88C108.09,-88 157.273,-88 187.974,-88"/>
<polygon fill="black" stroke="black" points="187.994,-91.5001 197.994,-88 187.994,-84.5001 187.994,-91.5001"/>
</g>
<!-- x2 -->
<g id="node2" class="node"><title>x2</title>
<ellipse fill="none" stroke="#00008b" cx="64" cy="-34" rx="18" ry="18"/>
<text text-anchor="middle" x="64" y="-29.8" font-family="Times,serif" font-size="14.00">x3</text>
</g>
<!-- x2&#45;&gt;a12 -->
<g id="edge4" class="edge"><title>x2&#45;&gt;a12</title>
<path fill="none" stroke="black" d="M82.2069,-34C108.09,-34 157.273,-34 187.974,-34"/>
<polygon fill="black" stroke="black" points="187.994,-37.5001 197.994,-34 187.994,-30.5001 187.994,-37.5001"/>
</g>
<!-- x2&#45;&gt;a22 -->
<g id="edge5" class="edge"><title>x2&#45;&gt;a22</title>
<path fill="none" stroke="black" d="M79.1116,-44.1604C105.244,-62.9754 161.353,-103.374 192.683,-125.931"/>
<polygon fill="black" stroke="black" points="190.656,-128.785 200.817,-131.788 194.746,-123.104 190.656,-128.785"/>
</g>
<!-- x2&#45;&gt;a32 -->
<g id="edge6" class="edge"><title>x2&#45;&gt;a32</title>
<path fill="none" stroke="black" d="M81.0526,-39.7789C106.855,-49.0679 157.805,-67.4097 188.892,-78.6011"/>
<polygon fill="black" stroke="black" points="188.014,-82.0048 198.608,-82.0989 190.385,-75.4185 188.014,-82.0048"/>
</g>
<!-- x3 -->
<g id="node3" class="node"><title>x3</title>
<ellipse fill="none" stroke="#00008b" cx="64" cy="-142" rx="18" ry="18"/>
<text text-anchor="middle" x="64" y="-137.8" font-family="Times,serif" font-size="14.00">x1</text>
</g>
<!-- x3&#45;&gt;a12 -->
<g id="edge7" class="edge"><title>x3&#45;&gt;a12</title>
<path fill="none" stroke="black" d="M79.1116,-131.84C105.244,-113.025 161.353,-72.6262 192.683,-50.0686"/>
<polygon fill="black" stroke="black" points="194.746,-52.8955 200.817,-44.2121 190.656,-47.2148 194.746,-52.8955"/>
</g>
<!-- x3&#45;&gt;a22 -->
<g id="edge8" class="edge"><title>x3&#45;&gt;a22</title>
<path fill="none" stroke="black" d="M82.2069,-142C108.09,-142 157.273,-142 187.974,-142"/>
<polygon fill="black" stroke="black" points="187.994,-145.5 197.994,-142 187.994,-138.5 187.994,-145.5"/>
</g>
<!-- x3&#45;&gt;a32 -->
<g id="edge9" class="edge"><title>x3&#45;&gt;a32</title>
<path fill="none" stroke="black" d="M81.0526,-136.221C106.855,-126.932 157.805,-108.59 188.892,-97.3989"/>
<polygon fill="black" stroke="black" points="190.385,-100.581 198.608,-93.9011 188.014,-93.9952 190.385,-100.581"/>
</g>
<!-- O -->
<g id="node7" class="node"><title>O</title>
<ellipse fill="none" stroke="#4eee94" cx="371" cy="-88" rx="18" ry="18"/>
<text text-anchor="middle" x="371" y="-83.8" font-family="Times,serif" font-size="14.00">O</text>
</g>
<!-- a12&#45;&gt;O -->
<g id="edge10" class="edge"><title>a12&#45;&gt;O</title>
<path fill="none" stroke="black" stroke-dasharray="5,2" d="M233.085,-39.6769C259.531,-49.0108 312.424,-67.679 344.168,-78.8827"/>
<polygon fill="black" stroke="black" points="343.076,-82.2089 353.671,-82.2367 345.405,-75.6079 343.076,-82.2089"/>
</g>
<!-- a22&#45;&gt;O -->
<g id="edge11" class="edge"><title>a22&#45;&gt;O</title>
<path fill="none" stroke="black" stroke-dasharray="5,2" d="M233.085,-136.323C259.531,-126.989 312.424,-108.321 344.168,-97.1173"/>
<polygon fill="black" stroke="black" points="345.405,-100.392 353.671,-93.7633 343.076,-93.7911 345.405,-100.392"/>
</g>
<!-- a32&#45;&gt;O -->
<g id="edge12" class="edge"><title>a32&#45;&gt;O</title>
<path fill="none" stroke="black" stroke-dasharray="5,2" d="M234.254,-88C260.539,-88 310.87,-88 342.312,-88"/>
<polygon fill="black" stroke="black" points="342.575,-91.5001 352.575,-88 342.575,-84.5001 342.575,-91.5001"/>
</g>
</g>
</svg>
